<?xml version="1.0" encoding="UTF-8" standalone="no"?>
<!-- Created with Inkscape (http://www.inkscape.org/) -->

<svg
   version="1.1"
   id="svg1"
   width="54"
   height="49"
   viewBox="0 0 54 49"
   xml:space="preserve"
   xmlns="http://www.w3.org/2000/svg"
   xmlns:svg="http://www.w3.org/2000/svg"><defs
     id="defs1" /><g
     id="g1"><path
       style="display:inline;fill:#94bef6;fill-opacity:1;stroke-width:7.74474"
       d="M 17.061455,46.70084 C 9.0871417,43.944033 4.0309928,39.253859 0.99615537,31.798391 -0.55710431,27.982622 -0.55710431,27.982622 2.7053036,31.868858 11.843943,42.756035 30.516993,42.105857 37.783683,30.647474 46.231951,17.325946 34.570501,2.0959863 17.137903,3.683898 12.121003,4.1409139 12.121003,4.1409139 15.605305,2.6901558 25.613237,-1.4767616 37.280763,0.57752967 45.481137,7.9503703 65.641626,26.076379 43.749119,55.926717 17.061455,46.700477 Z M 4.922551,26.472739 c -7.3572279,-2.96429 -4.08626952,-14.61961 3.8817296,-13.831692 4.5578554,0.450744 4.9188134,2.817526 0.4296786,2.817526 -2.6000386,0 -3.8612686,0.572337 -4.6952306,2.130584 -1.6671397,3.115079 0.2787341,6.886734 3.5530829,6.886734 2.9291135,0 3.2997305,-1.714289 0.7729257,-3.575201 -1.6698737,-1.229819 -1.6698737,-1.323676 0,-1.971019 3.0319388,-1.175372 4.7591308,0.238227 4.7591308,3.895028 0,4.322995 -3.44324,5.766575 -8.7013323,3.64804 z m 14.712873,0.335426 C 12.4616,24.140142 15.325247,11.905901 22.950752,12.644213 c 3.793587,0.367334 4.261826,2.166134 0.692379,2.659884 -3.40392,0.470879 -5.00962,1.965498 -5.00962,4.663136 0,2.697638 1.6057,4.192278 5.00962,4.663135 1.377641,0.190603 2.40611,0.797343 2.285478,1.348406 -0.252092,1.151478 -4.073095,1.655064 -6.293185,0.829391 z m 9.017319,-7.341893 c 0,-5.566241 0.310099,-7.013469 1.50288,-7.013469 1.168913,0 1.50289,1.335898 1.50289,6.01154 0,6.011548 0,6.011548 3.00577,6.011548 1.653175,0 3.005771,0.450899 3.005771,1.001922 0,0.551037 -2.028896,1.001919 -4.508661,1.001919 -4.50865,0 -4.50865,0 -4.50865,-7.01346 z"
       id="path1" /><path
       style="display:none;fill:#087821;fill-opacity:1;stroke-width:0.677799"
       d="m 30.389453,26.275097 c -1.442447,-0.358875 -1.681908,-1.271043 -1.680889,-6.402921 9.46e-4,-4.763408 0.223258,-6.55866 0.880683,-7.111846 0.785148,-0.660659 1.510394,-0.05475 1.808607,1.511016 0.0677,0.355437 0.163089,2.439592 0.211984,4.631455 0.08824,3.955777 0.144847,4.524636 0.504891,5.074133 0.243882,0.372211 0.709429,0.482109 2.459625,0.580626 1.636046,0.09209 2.009208,0.15901 2.605166,0.467192 0.732577,0.37883 0.404291,0.800513 -0.859901,1.104542 -0.89873,0.216136 -5.220395,0.322392 -5.930166,0.145803 z"
       id="path2" /><path
       style="display:none;fill:#087821;fill-opacity:1;stroke-width:0.677799"
       d="M 24.342069,48.251133 C 21.835957,47.973423 19.483555,47.444184 17.089756,46.619519 9.8841357,44.137178 5.0255858,40.001227 1.9912186,33.766542 1.2603213,32.264774 0.35565361,30.122252 0.10559568,29.300825 0.02916716,29.049761 0.03673976,29.04406 0.24866728,29.193117 c 0.12307429,0.08656 0.97252012,1.031777 1.88765752,2.100478 1.6631726,1.942258 2.6923853,2.938585 4.1107548,3.97941 3.089959,2.267466 6.8323874,3.727153 10.9323894,4.26404 1.477871,0.193525 4.635298,0.165759 6.187841,-0.05441 8.047854,-1.1413 14.067787,-5.887926 16.428246,-12.953421 0.611777,-1.831218 0.79797,-2.997641 0.804747,-5.04141 0.0041,-1.2481 -0.04982,-2.020353 -0.195668,-2.800415 C 38.908149,10.683519 31.720878,4.6764032 22.434492,3.667953 20.95763,3.5075738 18.178667,3.5291827 16.15624,3.7167717 c -2.005889,0.186055 -2.94328,0.2060749 -2.795029,0.059694 0.175601,-0.1733871 2.62405,-1.1870517 4.033674,-1.6699529 2.764063,-0.9468966 5.018819,-1.34264902 8.140731,-1.42885221 3.530393,-0.0974823 6.353195,0.31615305 9.718154,1.42403621 4.248642,1.3988276 8.120134,3.8051357 11.330056,7.0421451 3.169388,3.1961341 5.115055,6.5191131 6.087831,10.3973281 0.483793,1.928762 0.634932,3.461474 0.556988,5.648479 -0.354466,9.946021 -8.105428,19.127007 -18.6912,22.139659 -2.358323,0.671166 -4.261823,0.93926 -6.964128,0.980845 -1.30327,0.02006 -2.757332,-0.0065 -3.231248,-0.05902 z"
       id="path3" /><path
       style="display:none;fill:#087821;fill-opacity:1;stroke-width:0.677799"
       d="m 30.389453,26.275097 c -1.442447,-0.358875 -1.681908,-1.271043 -1.680889,-6.402921 9.46e-4,-4.763408 0.223258,-6.55866 0.880683,-7.111846 0.785236,-0.660733 1.511163,-0.0541 1.808153,1.511016 0.06745,0.355437 0.163048,2.439592 0.212447,4.631455 0.05118,2.270706 0.139851,4.147389 0.206116,4.362185 0.326099,1.057051 0.587004,1.180198 2.746014,1.296111 1.64676,0.08841 2.019618,0.154457 2.617543,0.463655 0.732577,0.37883 0.404291,0.800513 -0.859901,1.104542 -0.89873,0.216136 -5.220395,0.322392 -5.930166,0.145803 z"
       id="path4" /><path
       style="display:none;fill:#087821;fill-opacity:1;stroke-width:0.677799"
       d="m 20.356863,26.944715 c -3.294776,-0.853821 -5.22743,-4.001792 -4.694496,-7.646551 0.47021,-3.215781 2.487823,-5.735517 5.147215,-6.428201 1.674624,-0.436184 4.523553,0.05891 5.061265,0.879565 0.414504,0.632613 -0.430559,1.187664 -2.282736,1.499338 -1.875489,0.315597 -3.095124,0.829018 -3.890814,1.637891 -1.495761,1.520541 -1.479534,4.758149 0.03094,6.172844 0.921517,0.863085 1.639239,1.179825 3.525825,1.555992 1.440929,0.287306 2.322554,0.662658 2.548626,1.085077 0.145194,0.271297 0.133805,0.299985 -0.251226,0.632819 -0.589901,0.509929 -1.401687,0.713884 -3.040431,0.763886 -1.108466,0.03382 -1.557299,0.002 -2.154165,-0.15266 z"
       id="path5" /><path
       style="display:none;fill:#000000;fill-opacity:0;stroke-width:0.677799"
       d="M 7.4318705,27.180021 C 3.161399,26.271974 0.91083174,23.912233 0.91739049,20.349528 c 0.002432,-1.321045 0.22005291,-2.313714 0.74910231,-3.417001 1.4468257,-3.017229 4.0310753,-4.510556 7.2679768,-4.199852 1.7653584,0.169453 3.3981274,0.903517 3.3981274,1.527737 0,0.338046 -0.417657,0.694973 -1.03726,0.886436 -0.288481,0.08914 -1.251541,0.203345 -2.1401342,0.253782 -1.7610633,0.09996 -2.4403123,0.219111 -3.0645506,0.537574 -1.3433385,0.68532 -2.1717589,2.229301 -2.1685414,4.041652 0.00258,1.455124 0.4415677,2.53093 1.3976846,3.425266 1.0052841,0.940325 2.1823493,1.287946 3.5796792,1.057183 1.2833604,-0.211942 1.8230874,-0.721183 1.6638704,-1.569885 -0.122126,-0.650987 -0.7001535,-1.280502 -2.4915966,-2.713535 -0.5595081,-0.447569 -0.4548551,-0.62224 0.6628327,-1.106299 1.0664027,-0.461848 2.2469299,-0.572964 3.0062849,-0.282964 0.59426,0.22695 1.153776,0.858666 1.475946,1.666403 0.209695,0.525742 0.240109,0.803115 0.243052,2.216566 0.003,1.441365 -0.02338,1.681861 -0.244616,2.229736 -0.297296,0.73624 -1.068311,1.62692 -1.678339,1.938821 -1.036408,0.529909 -2.5997019,0.658959 -4.1050385,0.338873 z"
       id="path6" /><path
       style="display:none;fill:#000000;fill-opacity:0;stroke-width:0.677799"
       d="M 7.4318705,27.180021 C 3.161399,26.271974 0.91083174,23.912233 0.91739049,20.349528 c 0.002432,-1.321045 0.22005291,-2.313714 0.74910231,-3.417001 1.4468257,-3.017229 4.0310753,-4.510556 7.2679768,-4.199852 1.7653584,0.169453 3.3981274,0.903517 3.3981274,1.527737 0,0.338046 -0.417657,0.694973 -1.03726,0.886436 -0.288481,0.08914 -1.251541,0.203345 -2.1401342,0.253782 -1.7610633,0.09996 -2.4403123,0.219111 -3.0645506,0.537574 -1.3433385,0.68532 -2.1717589,2.229301 -2.1685414,4.041652 0.00258,1.455124 0.4415677,2.53093 1.3976846,3.425266 1.0052841,0.940325 2.1823493,1.287946 3.5796792,1.057183 1.2833604,-0.211942 1.8230874,-0.721183 1.6638704,-1.569885 -0.122126,-0.650987 -0.7001535,-1.280502 -2.4915966,-2.713535 -0.5595081,-0.447569 -0.4548551,-0.62224 0.6628327,-1.106299 1.0664027,-0.461848 2.2469299,-0.572964 3.0062849,-0.282964 0.59426,0.22695 1.153776,0.858666 1.475946,1.666403 0.209695,0.525742 0.240109,0.803115 0.243052,2.216566 0.003,1.441365 -0.02338,1.681861 -0.244616,2.229736 -0.297296,0.73624 -1.068311,1.62692 -1.678339,1.938821 -1.036408,0.529909 -2.5997019,0.658959 -4.1050385,0.338873 z"
       id="path7" /><path
       style="display:none;fill:#000000;fill-opacity:0;stroke-width:0.677799"
       d="M 7.4318705,27.180021 C 3.161399,26.271974 0.91083174,23.912233 0.91739049,20.349528 c 0.002432,-1.321045 0.22005291,-2.313714 0.74910231,-3.417001 1.4468257,-3.017229 4.0310753,-4.510556 7.2679768,-4.199852 1.7653584,0.169453 3.3981274,0.903517 3.3981274,1.527737 0,0.338046 -0.417657,0.694973 -1.03726,0.886436 -0.288481,0.08914 -1.251541,0.203345 -2.1401342,0.253782 -1.7610633,0.09996 -2.4403123,0.219111 -3.0645506,0.537574 -1.3433385,0.68532 -2.1717589,2.229301 -2.1685414,4.041652 0.00258,1.455124 0.4415677,2.53093 1.3976846,3.425266 1.0052841,0.940325 2.1823493,1.287946 3.5796792,1.057183 1.2833604,-0.211942 1.8230874,-0.721183 1.6638704,-1.569885 -0.122126,-0.650987 -0.7001535,-1.280502 -2.4915966,-2.713535 -0.5595081,-0.447569 -0.4548551,-0.62224 0.6628327,-1.106299 1.0664027,-0.461848 2.2469299,-0.572964 3.0062849,-0.282964 0.59426,0.22695 1.153776,0.858666 1.475946,1.666403 0.209695,0.525742 0.240109,0.803115 0.243052,2.216566 0.003,1.441365 -0.02338,1.681861 -0.244616,2.229736 -0.297296,0.73624 -1.068311,1.62692 -1.678339,1.938821 -1.036408,0.529909 -2.5997019,0.658959 -4.1050385,0.338873 z"
       id="path8" /><path
       style="display:none;fill:#000000;fill-opacity:0;stroke-width:0.677799"
       d="M 24.342069,48.251133 C 21.835957,47.973423 19.483555,47.444184 17.089756,46.619519 9.8841357,44.137178 5.0255858,40.001227 1.9912186,33.766542 1.2603213,32.264774 0.35565361,30.122252 0.10559568,29.300825 0.02916716,29.049761 0.03673976,29.04406 0.24866728,29.193117 c 0.12307429,0.08656 0.97252012,1.031777 1.88765752,2.100478 1.6631726,1.942258 2.6923853,2.938585 4.1107548,3.97941 3.089959,2.267466 6.8323874,3.727153 10.9323894,4.26404 1.477871,0.193525 4.635298,0.165759 6.187841,-0.05441 8.047854,-1.1413 14.067787,-5.887926 16.428246,-12.953421 0.611777,-1.831218 0.79797,-2.997641 0.804747,-5.04141 0.0041,-1.2481 -0.04982,-2.020353 -0.195668,-2.800415 C 38.908149,10.683519 31.720878,4.6764032 22.434492,3.667953 20.95763,3.5075738 18.178667,3.5291827 16.15624,3.7167717 c -2.005889,0.186055 -2.94328,0.2060749 -2.795029,0.059694 0.175601,-0.1733871 2.62405,-1.1870517 4.033674,-1.6699529 2.764063,-0.9468966 5.018819,-1.34264902 8.140731,-1.42885221 3.530393,-0.0974823 6.353195,0.31615305 9.718154,1.42403621 4.248642,1.3988276 8.120134,3.8051357 11.330056,7.0421451 3.169388,3.1961341 5.115055,6.5191131 6.087831,10.3973281 0.483793,1.928762 0.634932,3.461474 0.556988,5.648479 -0.354466,9.946021 -8.105428,19.127007 -18.6912,22.139659 -2.358323,0.671166 -4.261823,0.93926 -6.964128,0.980845 -1.30327,0.02006 -2.757332,-0.0065 -3.231248,-0.05902 z"
       id="path9" /><path
       style="display:none;fill:#000000;fill-opacity:0;stroke-width:0.677799"
       d="M 7.4318705,27.180021 C 3.161399,26.271974 0.91083174,23.912233 0.91739049,20.349528 c 0.002432,-1.321045 0.22005291,-2.313714 0.74910231,-3.417001 1.4468257,-3.017229 4.0310753,-4.510556 7.2679768,-4.199852 1.7653584,0.169453 3.3981274,0.903517 3.3981274,1.527737 0,0.338046 -0.417657,0.694973 -1.03726,0.886436 -0.288481,0.08914 -1.251541,0.203345 -2.1401342,0.253782 -1.7610633,0.09996 -2.4403123,0.219111 -3.0645506,0.537574 -1.3433385,0.68532 -2.1717589,2.229301 -2.1685414,4.041652 0.00258,1.455124 0.4415677,2.53093 1.3976846,3.425266 1.0052841,0.940325 2.1823493,1.287946 3.5796792,1.057183 1.2833604,-0.211942 1.8230874,-0.721183 1.6638704,-1.569885 -0.122126,-0.650987 -0.7001535,-1.280502 -2.4915966,-2.713535 -0.5595081,-0.447569 -0.4548551,-0.62224 0.6628327,-1.106299 1.0664027,-0.461848 2.2469299,-0.572964 3.0062849,-0.282964 0.59426,0.22695 1.153776,0.858666 1.475946,1.666403 0.209695,0.525742 0.240109,0.803115 0.243052,2.216566 0.003,1.441365 -0.02338,1.681861 -0.244616,2.229736 -0.297296,0.73624 -1.068311,1.62692 -1.678339,1.938821 -1.036408,0.529909 -2.5997019,0.658959 -4.1050385,0.338873 z"
       id="path10" /><path
       style="display:inline;fill:#1877f2;fill-opacity:1;stroke-width:0.896637"
       d="M 7.4091505,27.153354 C 4.4234768,26.464911 2.5034196,25.206519 1.607486,23.350984 1.1070028,22.314452 0.93392154,21.534978 0.92962697,20.298237 0.91535899,16.189379 4.2024046,12.671477 8.0446417,12.68352 c 1.7188689,0.0054 3.8715693,0.710101 4.1700093,1.365106 0.351881,0.772296 -0.563414,1.169792 -3.0826381,1.338734 -1.9725801,0.132283 -2.7740215,0.326845 -3.5573698,0.863604 -0.9930727,0.680464 -1.6563424,2.154859 -1.6563424,3.681915 0,1.344394 0.3423984,2.311637 1.1273702,3.184714 0.8595987,0.956081 1.7912414,1.386382 3.0055967,1.388205 1.6474936,0.0025 2.5642834,-0.47731 2.5632324,-1.341419 -9.28e-4,-0.763643 -0.462046,-1.316189 -2.4811705,-2.973121 -0.5606485,-0.460079 -0.4256641,-0.715815 0.5839864,-1.1064 1.009369,-0.390476 2.4481141,-0.521182 3.0396801,-0.276147 1.09217,0.452391 1.751516,1.930906 1.746986,3.917433 -0.0032,1.401933 -0.191803,2.121555 -0.789252,3.01137 -0.676736,1.007903 -1.736273,1.515056 -3.2816948,1.570799 -0.6507433,0.02347 -1.5479823,-0.04522 -2.0238847,-0.154959 z"
       id="path12" /><path
       style="display:inline;fill:#1877f2;fill-opacity:1;stroke-width:0.896637"
       d="m 21.087582,27.043532 c -3.967318,-0.479822 -6.308456,-4.402914 -5.204152,-8.720701 0.372704,-1.457262 1.040306,-2.678075 1.99827,-3.654146 1.434029,-1.461136 3.047262,-2.097128 4.915686,-1.937936 1.952649,0.166369 3.477824,0.886698 3.119598,1.473363 -0.28259,0.462797 -0.991655,0.757288 -2.652736,1.101743 -3.295683,0.683419 -4.512467,1.812034 -4.643416,4.306954 -0.151651,2.889321 1.154413,4.318969 4.593743,5.028421 1.492598,0.307888 2.312612,0.646404 2.564981,1.05887 0.123125,0.201231 0.07609,0.315606 -0.244371,0.594246 -0.750609,0.652652 -2.629253,0.969104 -4.447603,0.749186 z"
       id="path13" /><path
       style="display:inline;fill:#1877f2;fill-opacity:1;stroke-width:0.896637"
       d="m 30.17988,26.209973 c -0.551435,-0.168748 -0.980693,-0.686859 -1.219592,-1.472037 -0.26445,-0.869154 -0.247906,-9.219566 0.02091,-10.553059 0.303286,-1.504496 1.117448,-2.094946 1.828023,-1.325726 0.535058,0.579216 0.629556,1.320096 0.742785,5.823575 0.143025,5.688611 0.197242,5.817994 2.439802,5.822364 1.955092,0.0038 3.620436,0.463029 3.525304,0.972106 -0.02752,0.147264 -0.349842,0.347467 -0.828141,0.514379 -0.640021,0.223349 -1.264656,0.280955 -3.419034,0.315318 -1.449771,0.02312 -2.840296,-0.02049 -3.090055,-0.09692 z"
       id="path14" /></g></svg>
