<?xml version="1.0" encoding="UTF-8" standalone="no"?>
<!-- Created with Inkscape (http://www.inkscape.org/) -->

<svg
   version="1.1"
   id="svg1"
   width="2000"
   height="2000"
   viewBox="0 0 2000 2000"
   sodipodi:docname="logo_gcl.svg"
   xml:space="preserve"
   inkscape:version="1.3 (0e150ed6c4, 2023-07-21)"
   xmlns:inkscape="http://www.inkscape.org/namespaces/inkscape"
   xmlns:sodipodi="http://sodipodi.sourceforge.net/DTD/sodipodi-0.dtd"
   xmlns="http://www.w3.org/2000/svg"
   xmlns:svg="http://www.w3.org/2000/svg"><defs
     id="defs1" /><sodipodi:namedview
     id="namedview1"
     pagecolor="#ffffff"
     bordercolor="#666666"
     borderopacity="1.0"
     inkscape:showpageshadow="2"
     inkscape:pageopacity="0.0"
     inkscape:pagecheckerboard="0"
     inkscape:deskcolor="#d1d1d1"
     inkscape:zoom="0.36788469"
     inkscape:cx="958.18068"
     inkscape:cy="910.61143"
     inkscape:window-width="1920"
     inkscape:window-height="1018"
     inkscape:window-x="0"
     inkscape:window-y="0"
     inkscape:window-maximized="1"
     inkscape:current-layer="g1" /><g
     inkscape:groupmode="layer"
     inkscape:label="Image"
     id="g1"><g
       id="g2"
       inkscape:label="color"><path
         style="display:inline;fill:#c7c7c7"
         d="m 965.7013,1636.9518 c -93.28305,-5.5902 -216.5365,-26.3767 -299.62506,-50.5312 -9.33595,-2.714 -11.90947,1.7521 51.32819,-89.076 l 56.70313,-81.4427 1.74817,3.4076 c 3.06264,5.9697 4.36846,6.1215 36.58166,4.2544 15.82015,-0.917 44.06391,-2.5463 62.76391,-3.6209 291.0477,-16.7238 428.4398,-76.7443 532.0822,-232.443 195.3483,-293.46564 109.2439,-663.61329 -194.9199,-837.92716 -109.461,-62.73121 -215.27146,-89.1095 -359.6623,-89.66296 -37.41446,-0.14341 -37.6823,-0.25505 -15.99153,-6.66535 343.42303,-101.49223 650.14453,15.04548 820.14323,311.61041 108.5275,189.3276 126.8754,389.58888 54.3714,593.44726 -102.4983,288.1927 -311.1941,450.2864 -614.5231,477.2989 -20.5346,1.8287 -107.97865,2.7303 -131,1.3507 z m -71,-576.6085 C 775.11687,1018.8546 703.80747,958.73123 672.50252,873 633.21296,765.40225 668.57504,668.51523 779.7013,579.29069 c 87.29241,-70.08807 116.09165,-74.23275 189.93147,-27.33422 36.05613,22.90068 56.78163,30.33047 64.12433,22.98775 6.9421,-6.94217 -1.4631,40.04554 -9.5802,53.55578 -16.4537,27.38596 -41.63303,25.84793 -89.9756,-5.49599 -32.74675,-21.23203 -45.54508,-25.88641 -73.5,-26.72976 -150.19366,-4.53107 -182.29218,176.50484 -54.03563,304.76138 34.13112,34.13112 109.01311,80.46959 139.92106,86.58594 2.20527,0.4364 7.21984,-2.93745 32.03297,-21.55209 C 994.79982,953.93127 1008.1604,944 1008.3099,944 c 0.1496,0 4.1629,5.41699 8.9185,12.03775 l 8.6466,12.03775 -2.7083,2.13038 c -22.5865,17.76651 -121.36114,91.75012 -122.4654,91.72832 -0.825,-0.016 -3.525,-0.7322 -6,-1.5909 z m 405.8724,-2.0189 c -28.3517,-34.6153 -127.7993,-48.1314 -242.3724,-32.9414 -12.2058,1.6182 -11.7785,2.0647 -5.3173,-5.5566 47.3432,-55.84367 56.2709,-150.57517 26.2771,-278.8264 -7.6539,-32.72773 -6.6373,-67.70972 3.0849,-106.15369 19.3874,-76.66253 68.1751,-124.219 143.4553,-139.83518 5.775,-1.19797 13.875,-3.59907 18,-5.33579 53.7885,-22.64612 142.9796,60.94576 130.5558,122.35982 -5.5217,27.29539 -24.0206,48.12693 -82.7618,93.19799 -21.0886,16.18088 -22.4828,16.85612 -14.7359,7.1368 48.5332,-60.89012 29.1946,-129.25864 -44.6218,-157.75315 -12.3359,-4.76189 -48.6182,-13.00274 -49.9921,-11.35477 -1.161,1.39272 -4.6913,9.83443 -6.7907,16.23797 -10.4145,31.76716 -11.9021,73.40203 -5.3592,150 9.1544,107.17155 10.9396,141.4549 8.2954,159.30376 -4.4717,30.1853 -14.7837,55.95942 -34.2171,85.52298 -5.4909,8.35314 -7.8109,12.64956 -6.6521,12.31871 2.9139,-0.83191 22.8758,-4.44205 36.2795,-6.56121 67.6982,-10.70327 121.0545,-5.17753 179.448,18.58418 11.9207,4.85082 35.2906,16.09959 36.071,17.36225 0.4091,0.66196 -85.5202,63.96933 -86.8278,63.96933 -0.2455,0 -1.0639,-0.754 -1.8188,-1.6756 z M 449.2013,1056.831 C 331.42672,1015.684 263.19661,960.69622 229.18539,879.51664 c -52.30952,-124.85477 0.2552,-238.04115 155.87747,-335.64731 52.12424,-32.69229 71.64961,-31.86966 135.13844,5.69349 36.2632,21.45512 53.60745,27.41173 65.75,22.58078 3.27883,-1.30449 3.27541,-1.33716 1.76126,16.8564 -3.7229,44.73284 -24.26857,64.18901 -58.03136,54.95406 -8.23818,-2.25334 -19.21136,-8.07251 -41.66112,-22.09324 -35.36755,-22.08838 -48.242,-26.35983 -79.31878,-26.31614 -63.76346,0.0896 -108.78477,32.2072 -122.48658,87.38018 -29.16573,117.4414 58.21314,242.60036 209.16202,299.59758 l 6.17543,2.3318 23.11406,-17.15081 23.11405,-17.15081 -0.28949,-31.02631 c -0.38181,-40.92088 3.46643,-34.08188 -43.76063,-77.77022 L 495.359,834.01218 418.12975,833.75609 340.90051,833.5 359.57004,807 l 18.66953,-26.5 96.23087,-0.255 c 83.77903,-0.222 96.23086,-0.0662 96.23086,1.20375 0,0.80232 5.9625,6.89904 13.25,13.54828 14.80353,13.50699 23.51257,23.05165 27.83248,30.50297 l 2.89875,5 0.009,53.55303 0.009,53.55304 -79.51185,59.94696 c -43.73152,32.97087 -80.29402,60.03227 -81.25,60.13657 -0.95598,0.1042 -3.08815,-0.2821 -4.73815,-0.8586 z"
         id="path5" /><path
         style="display:inline;fill:#eab412"
         d="m 584.55048,1851.5064 c -69.2606,-13.1722 -112.46353,-106.8739 -83.31857,-180.7073 11.31542,-28.6656 20.56754,-42.1184 61.55445,-89.5016 50.25615,-58.099 157.93901,-189.0782 175.3579,-213.2953 19.07194,-26.5153 45.2598,-80.4091 54.42527,-112.0056 14.30933,-49.3291 -1.4334,-96.8158 -30.29346,-91.3777 -5.66713,1.0679 -5.99722,2.1888 -1.50025,5.0944 7.03021,4.5425 8.00623,5.5125 10.50194,10.4376 14.34393,28.3064 8.60203,61.5734 -16.70574,71.5724 -53.43787,21.1131 -97.42055,-72.0272 -54.40176,-115.7888 44.07819,-44.8393 129.18036,-23.892 147.45083,36.4806 13.35416,44.1272 -5.0075,138.9133 -37.83623,185.7902 -42.36724,60.4972 -183.58354,254.3501 -210.13462,287.2947 -49.14188,60.9753 -38.34627,77.8803 0.95478,129.6644 l 6.04128,7.9601 -2.52763,-5.7154 c -20.22512,-45.7326 13.67765,-79.9899 58.08263,-61.1797 37.50248,15.8863 42.41919,82.2054 13.24176,111.2235 -18.75931,18.6568 -60.75718,29.7848 -90.89258,24.0535 z m -333.34918,-659.9428 -23,-4.2584 -15.68916,-8.8071 -15.68916,-8.807 -5.91696,-14.5956 c -3.96889,-9.7902 -6.80855,-18.8119 -8.62505,-27.4021 l -2.70811,-12.8067 6.13615,-18.4098 6.13614,-18.4099 13.98908,-13.7835 13.98909,-13.7835 20.76936,-6.0792 20.76936,-6.0792 15.71808,1.7684 15.71807,1.7684 12.45897,7.3108 12.45897,7.3108 10.40757,15.6173 c 5.72416,8.5895 12.63359,20.3364 15.35429,26.1043 l 4.94672,10.487 -0.89963,10.7388 c -0.58975,7.0397 -1.47268,11.6133 -2.56326,13.2777 -1.76862,2.6993 -69.07577,63.3369 -70.13565,63.1859 -0.34368,-0.049 -10.97487,-2.0053 -23.62487,-4.3474 z"
         id="path4"
         sodipodi:nodetypes="sssssssssssssscssssscccsscccccccccccsscssss" /><path
         style="display:inline;fill:#a06000"
         d="m 577.97882,1504.5538 c -16.07237,-4.5582 -30.24737,-8.9858 -31.5,-9.839 -1.25264,-0.8532 -7.87124,-5.9756 -14.70801,-11.383 l -12.43048,-9.8318 -4.78908,-17.3759 c -2.63399,-9.5568 -5.28953,-21.031 -5.90119,-25.4984 -0.61167,-4.4673 -1.27083,-8.2811 -1.46481,-8.4751 -0.19398,-0.194 -11.399,3.106 -24.90004,7.3332 l -24.54736,7.6859 -18.76828,-9.6396 c -22.53903,-11.5764 -19.6213,-8.6277 -22.78798,-23.0301 -4.76015,-21.6497 -7.49985,-29.7081 -9.90438,-29.1324 -1.14175,0.2734 -8.6922,1.4489 -16.77878,2.6122 l -14.70287,2.1152 -15.29713,-10.2056 c -18.30964,-12.2155 -15.32405,-7.7835 -21.6652,-32.1617 l -5.28991,-20.3368 2.98691,-18.9454 c 3.51096,-22.2695 4.70599,-19.5846 -9.38953,-21.0955 -11.34384,-1.216 -11.63092,-1.3112 -25.34319,-8.4061 l -13.86938,-7.1762 -6.36314,-12.1055 c -3.49973,-6.658 -6.22339,-12.7932 -6.05258,-13.6338 0.1708,-0.8406 2.53021,-10.0078 5.24312,-20.3715 l 4.93256,-18.843 6.56946,-7.3402 c 6.2113,-6.9401 16.58812,-15.539 45.44375,-37.6579 6.875,-5.27 13.55396,-10.72 14.84214,-12.1113 1.28818,-1.3913 4.97535,-3.5143 8.19371,-4.7179 l 5.85155,-2.1883 7.8063,2.6165 c 9.89109,3.3152 8.94938,2.562 16.03915,12.829 l 6.03793,8.7438 -2.38539,8.2048 c -2.98727,10.2751 -3.17629,9.3262 2.15517,10.819 3.62483,1.0148 7.21082,1.0305 17.78081,0.077 l 13.24025,-1.1939 12.96919,5.1528 12.96919,5.1528 8.09523,8.9811 8.09524,8.9812 -2.78334,13.6686 -2.78333,13.6686 4.81704,4.867 4.81704,4.8671 17.34163,-3.6398 17.34163,-3.6397 9.3985,6.2727 9.3985,6.2727 -0.62262,14.25 c -0.48461,11.0913 -0.34475,14.2454 0.63093,14.2294 0.68945,-0.011 9.5192,-2.2024 19.62166,-4.869 l 18.36812,-4.8484 13.63188,3.5792 13.63189,3.5792 12.3125,13.7563 12.31249,13.7563 1.74468,15.5073 c 2.12579,18.8948 -0.63189,17.0254 22.29669,15.1142 l 19.33364,-1.6116 15.5,4.3261 15.5,4.3261 14.78467,19.4524 c 8.13157,10.6989 15.19964,20.1741 15.70683,21.0561 0.89036,1.5483 -109.76176,134.8263 -112.4915,135.4935 -0.55,0.1344 -14.15012,-3.4851 -30.22248,-8.0433 z"
         id="path3" /></g><path
       style="display:inline;fill:#000000"
       d="m 581.87474,1866.5009 c -36.43564,-6.8852 -66.12412,-31.5512 -85.4579,-71.0009 -13.7714,-28.0999 -20.64366,-58.7106 -18.97067,-84.5 2.51255,-38.7313 22.75757,-81.0299 57.19518,-119.5 17.58275,-19.6416 62.83305,-73.3799 62.23972,-73.9146 -0.20959,-0.1889 -2.94695,-1.9729 -6.08303,-3.9644 -5.60427,-3.559 -5.87875,-3.621 -16.0201,-3.621 -21.1046,0 -40.17153,-8.8265 -56.00134,-25.9241 -14.85713,-16.0471 -20.65463,-37.033 -14.4186,-52.1928 l 2.31053,-5.6169 -4.42629,3.3787 c -18.77711,14.3329 -42.2964,18.4864 -63.93268,11.2905 -12.36775,-4.1133 -24.5823,-14.1984 -29.89489,-24.6831 -2.5398,-5.0125 -2.91467,-6.8455 -2.91467,-14.2523 0,-6.5726 0.4654,-9.4307 2.05241,-12.6042 l 2.05241,-4.1042 -5.13831,2.3524 c -26.85925,12.2965 -65.24723,-14.7632 -77.59013,-54.6933 -4.39248,-14.21 -2.62909,-32.4674 4.04053,-41.834 2.75771,-3.8729 2.64378,-4.2081 -0.99851,-2.9384 -1.69488,0.5908 -6.42185,0.8599 -10.50439,0.5979 -16.90981,-1.0852 -35.52999,-15.4413 -45.37251,-34.982 -4.81748,-9.5644 -6.40513,-16.9517 -5.81905,-27.0759 0.3879,-6.7008 1.04692,-9.0079 4.50849,-15.7831 L 276.78512,1203 h -6.89914 c -8.33106,0 -23.6554,-2.2269 -33.88598,-4.9243 -30.81222,-8.1238 -51.05383,-25.9363 -57.4726,-50.5757 -3.80218,-14.5952 -2.85474,-37.9687 2.18887,-54 4.72678,-15.0242 11.14753,-25.3212 22.52871,-36.1295 11.47567,-10.8981 23.73628,-17.4246 40.53812,-21.5791 12.77757,-3.1595 36.47887,-3.1629 47.50236,-0.01 21.02838,6.0203 41.17695,21.1499 54.23645,40.7262 11.42317,17.1235 14.93298,32.1637 10.38209,44.4894 -2.66596,7.2206 -3.31533,10 -2.3363,10 0.44047,0 2.65361,-0.8969 4.91809,-1.9931 12.41645,-6.0107 26.38993,-3.6933 37.06557,6.1472 10.64499,9.8122 12.64272,24.7647 4.57805,34.2655 -1.53312,1.8061 -1.51122,1.8757 0.37059,1.1785 24.02305,-8.9004 50.19146,-4.1135 66.46271,12.1577 13.61835,13.6184 17.52997,29.7684 10.06214,41.544 l -2.80426,4.4218 6.1397,-1.9412 c 13.21697,-4.1789 32.06901,-3.1732 42.76045,2.2812 5.8594,2.9892 12.4396,9.3987 14.92951,14.5422 2.57887,5.3272 2.89286,14.6718 0.63941,19.0294 l -1.51035,2.9207 7.29777,-3.6676 c 16.98762,-8.5374 35.10768,-7.114 54.21701,4.2591 11.87009,7.0646 24.20611,21.8949 28.46692,34.2227 2.17601,6.2959 2.34755,16.479 0.35782,21.2411 -0.81464,1.9497 -1.15214,3.3748 -0.75,3.1668 11.36469,-5.8768 18.42303,-7.7491 29.27107,-7.7641 25.06244,-0.035 52.67394,16.6905 62.69124,37.9744 2.07287,4.4043 4.08362,8.0091 4.46833,8.0107 1.21623,0.01 9.97475,-12.9119 16.55413,-24.4141 15.88084,-27.7631 35.07239,-69.9127 38.63278,-84.8476 l 0.65909,-2.7646 -4.87508,3.5024 C 762.86578,1262.5946 751.41048,1266 735.39524,1266 c -8.33177,0 -12.82399,-0.5064 -17.61203,-1.9852 -25.49476,-7.8746 -44.72102,-36.9793 -48.89327,-74.0148 -3.69643,-32.8118 8.59127,-58.917 36.43027,-77.3961 16.26075,-10.7936 30.80956,-15.5184 50.28458,-16.3302 15.60901,-0.6506 26.14115,0.681 38.83403,4.9099 28.20703,9.3977 51.99788,28.9045 63.80616,52.3164 15.6073,30.9441 12.30336,89.3589 -8.62939,152.571 -6.53584,19.7367 -10.15975,28.3869 -15.82121,37.7649 -5.62732,9.3214 -29.68152,45.3158 -40.54038,60.6641 -3.89123,5.5 -6.96375,10.114 -6.82784,10.2533 0.13591,0.1393 11.45812,-0.4128 25.16048,-1.227 13.70235,-0.8142 41.11336,-2.406 60.91336,-3.5374 84.64008,-4.8364 143.8538,-11.0913 193,-20.3871 95.4945,-18.0624 170.403,-49.4863 232.5402,-97.5502 76.491,-59.1665 133.7675,-144.0951 174.8665,-259.2888 21.8825,-61.33317 33.3568,-146.52696 29.06,-215.7628 -6.1096,-98.44549 -37.0496,-189.98688 -91.9332,-272 C 1314.0177,401.52239 1147.454,300.1268 969.93423,277.08971 932.82264,272.27367 898.08754,270.38893 830,269.49682 c -25.025,-0.32789 -47.1875,-1.04115 -49.25,-1.58503 -7.39219,-1.94932 -3.69013,-5.56331 11.25,-10.98239 13.04676,-4.73231 48.10702,-15.42019 68.32971,-20.82984 C 969.17266,206.98362 1076.8949,199.2957 1176,213.57081 c 164.3068,23.66678 309.426,106.81929 418.32,239.69495 85.9527,104.88217 144.4576,235.90414 165.0964,369.73424 5.0186,32.54317 6.709,53.43015 7.2835,90 0.8458,53.83944 -2.4346,87.9269 -13.3286,138.5 -40.8869,189.8103 -136.42,350.5696 -269.8713,454.1287 -89.3601,69.344 -197.0899,113.9696 -320.5,132.7628 -42.9937,6.5472 -71.4608,8.6555 -125.579,9.3006 -46.46168,0.5539 -71.21271,-0.1904 -107.421,-3.23 -78.77402,-6.6129 -167.60112,-22.3039 -252.4161,-44.5884 -15.44699,-4.0586 -19.14463,-4.732 -20.16225,-3.6719 -0.68538,0.714 -8.6006,11.4232 -17.58939,23.7982 -8.98878,12.375 -20.97916,28.2474 -26.6453,35.272 -12.66732,15.7043 -19.544,25.8906 -26.11638,38.6857 -8.34576,16.2474 -9.33765,24.8729 -4.36249,37.936 l 1.67335,4.3936 1.66738,-4.9053 c 5.50356,-16.1912 17.96228,-28.5253 33.73439,-33.3968 9.98794,-3.0849 30.41627,-2.8407 40.91517,0.4892 20.76535,6.5861 37.14455,22.8592 43.24818,42.968 5.40641,17.8118 6.87041,48.0305 3.05928,63.1476 -3.42232,13.5749 -9.06964,23.5748 -18.90549,33.4764 -13.69668,13.7882 -27.44936,20.7075 -52.6231,26.4758 -9.98093,2.287 -14.81074,2.799 -28.97725,3.0721 -11.8605,0.2285 -19.3053,-0.108 -24.62526,-1.1134 z m 35.78447,-15.5863 c 41.64631,-5.7925 66.07033,-22.9874 73.40893,-51.681 3.28141,-12.8302 2.13944,-35.0502 -2.63309,-51.2336 -4.89282,-16.5913 -18.22865,-29.4431 -35.82211,-34.5221 -8.87201,-2.5612 -23.26353,-1.7471 -30.83101,1.7442 -18.07787,8.3402 -25.39284,26.438 -19.51346,48.2779 1.33256,4.95 3.25839,11.1214 4.27963,13.7142 3.91788,9.9472 -0.64977,7.4308 -18.54039,-10.2142 -12.26698,-12.0986 -14.12113,-14.3891 -17.8612,-22.0644 -9.89715,-20.3108 -9.35077,-37.0282 1.92785,-58.9853 6.82808,-13.2929 14.95551,-25.2749 29.47237,-43.4503 33.02599,-41.3492 195.85408,-271.2414 217.51884,-307.1086 10.3008,-17.0535 23.28679,-57.8441 28.93596,-90.8914 6.44294,-37.6909 4.63972,-64.9027 -5.60049,-84.5148 -14.96257,-28.6565 -54.14118,-50.1564 -86.79666,-47.6311 -16.15686,1.2494 -33.32813,8.0007 -45.96894,18.0739 -23.01205,18.3378 -29.70882,40.644 -21.59962,71.9462 4.0372,15.5839 12.9759,31.069 22.21461,38.4837 13.77648,11.0566 32.2138,12.0931 49.2358,2.7679 15.82105,-8.6672 22.18807,-27.9395 16.53403,-50.0466 -2.97856,-11.646 -6.44135,-17.3291 -13.3306,-21.8777 -7.47782,-4.9373 -7.34531,-6.857 0.55991,-8.1123 12.24077,-1.9436 21.51051,2.8093 27.47001,14.0848 5.19747,9.8337 10.28042,31.7397 10.28042,44.3055 0,21.6687 -10.60659,54.3367 -31.01339,95.5205 -11.84374,23.9023 -20.32201,38.6862 -29.48057,51.4063 -19.76995,27.458 -156.92999,193.5885 -192.85878,233.5937 -37.56028,41.8218 -57.65893,89.2031 -53.57719,126.305 2.76046,25.0919 12.56507,53.6871 25.12124,73.2662 23.59432,36.7913 58.96718,54.3374 98.4679,48.8434 z M 1097,1630.5988 c 38.0402,-3.3826 64.9635,-7.0755 96.5,-13.2363 169.4931,-33.1113 305.3471,-117.7212 405.206,-252.3625 58.7876,-79.2642 105.2285,-179.2677 131.6551,-283.5 16.861,-66.5032 22.3996,-110.26263 21.3268,-168.5 -2.354,-127.79173 -43.8306,-261.37774 -117.2538,-377.64506 C 1576.6614,443.87041 1497.9487,365.8096 1410.5,313.27542 1321.3492,259.71873 1227.8457,230.75278 1119,222.9732 c -19.0356,-1.36054 -66.3235,-1.35454 -86.5,0.011 -55.83098,3.77854 -109.79305,12.6972 -164.8311,27.2427 L 851.5,254.5 871,255 c 10.725,0.275 19.99877,0.82467 20.60838,1.22149 0.60962,0.39682 13.20962,1.4265 28,2.28817 16.74249,0.9754 32.55275,2.50118 41.89162,4.04277 9.7082,1.60256 26.46556,3.18101 47.5,4.47424 17.875,1.09898 43.3,2.8947 56.5,3.99049 13.2,1.09579 27.15,2.22955 31,2.51945 18.1413,1.36606 53.7739,9.4084 82.0838,18.52647 34.844,11.22252 76.5548,29.98209 108.9162,48.98534 99.9754,58.70754 186.4972,146.3565 251.8182,255.09864 21.5532,35.88052 46.3085,85.50788 45.0849,90.38285 -0.748,2.98047 -3.1531,4.47009 -7.2171,4.47009 -2.7951,0 -3.214,-0.59993 -8.2052,-11.75 C 1514.1875,556.84546 1426.4504,452.89196 1312,374.77168 c -26.4885,-18.08023 -65.7271,-41.05204 -76.5088,-44.79124 -3.2952,-1.1428 -19.9412,-5.69198 -36.9912,-10.1093 -17.05,-4.41731 -41.575,-10.86389 -54.5,-14.32574 -36.1373,-9.67904 -36.9015,-9.72422 -11.9788,-0.70831 26.8858,9.72605 50.8816,21.1105 81.6504,38.73782 147.0054,84.21871 250.2348,216.93421 288.3079,370.65951 22.5972,91.23889 21.3566,190.04026 -3.6185,288.17618 -11.3681,44.6691 -38.0328,108.4568 -64.622,154.5894 -9.1121,15.8096 -31.2599,48.9593 -41.7572,62.5 -45.5498,58.756 -98.7677,102.2733 -164.4818,134.5 -65.5337,32.1382 -138.2921,51.1952 -236.5,61.9442 -40.57264,4.4407 -64.43596,6.2433 -140.5,10.6135 -46.94947,2.6973 -61.52902,3.12 -68.27944,1.9796 l -4.02563,-0.6802 -22.59747,31.6056 C 743.16886,1476.8458 733,1491.2136 733,1491.3911 c 0,0.1776 10.2375,0.5867 22.75,0.9091 12.5125,0.3223 35.8,1.1136 51.75,1.7583 49.48255,2.0002 118.2251,0.5201 170.63232,-3.674 11.34778,-0.9082 22.34078,-1.3307 24.42888,-0.939 5.0821,0.9534 10.4388,6.2895 10.4388,10.3987 0,1.7611 -0.9484,4.0816 -2.25,5.5054 -2.0536,2.2463 -3.6028,2.6002 -17.75,4.055 -75.58511,7.7729 -104.59299,9.0954 -199.5,9.0954 -79.75631,0 -82.5,0.106 -82.5,3.1888 0,0.4574 -1.125,2.0449 -2.5,3.5278 -1.375,1.4829 -2.5,2.9597 -2.5,3.282 0,0.5619 -1.05931,1.9643 -3.75,4.9647 -0.6875,0.7666 -1.25,1.67 -1.25,2.0075 0,0.5872 -1.03422,1.9641 -3.75,4.9925 -0.6875,0.7666 -1.25,1.6706 -1.25,2.0089 0,0.3383 -1.125,1.8283 -2.5,3.3112 -1.375,1.4829 -2.5,3.0579 -2.5,3.5 0,0.4421 -1.125,2.0171 -2.5,3.5 -1.375,1.4829 -2.5,3.0579 -2.5,3.5 0,0.4421 -1.125,2.0171 -2.5,3.5 -1.375,1.4829 -2.5,3.2258 -2.5,3.873 0,0.6473 -0.37516,1.3269 -0.83369,1.5103 -0.45853,0.1833 -3.39313,3.8098 -6.52132,8.0589 l -5.68762,7.7256 2.77131,0.6057 c 1.52423,0.3331 3.89632,0.9894 5.27132,1.4584 8.90494,3.0375 42.84943,11.4581 70.5,17.4889 76.92716,16.7786 150.0788,27.1646 221.5,31.4483 22.87572,1.3721 108.4451,0.4741 129,-1.3537 z m 1.8214,-140.6302 c -4.4924,-2.373 -5.3633,-4.7359 -3.4411,-9.3363 1.9488,-4.6642 6.4232,-6.7899 20.1197,-9.5584 18.9977,-3.84 62.2434,-14.7795 81.2562,-20.5546 35.7116,-10.8473 69.7826,-23.7072 98.7438,-37.2703 17.0348,-7.9777 25.175,-10.0138 32.9887,-8.2515 4.8943,1.1038 5.6426,1.9666 6.2144,7.1655 0.4181,3.8011 0.1192,4.6769 -2.4188,7.088 -3.2276,3.0662 -30.7356,15.3661 -56.7659,25.3823 -44.5771,17.1528 -101.9078,33.7752 -152.812,44.3062 -17.1922,3.5567 -18.9558,3.6327 -23.885,1.0291 z M 1429.5,1353.0546 c -7.9697,-3.2619 -7.8609,-15.1423 0.1974,-21.5546 27.8623,-22.1711 61.7978,-56.2885 84.5837,-85.0371 56.6837,-71.5169 92.2255,-157.0067 103.7124,-249.4629 5.4186,-43.61279 5.4282,-95.13033 0.026,-139.44491 -1.1513,-9.44392 -1.4994,-15.79321 -0.9457,-17.24954 1.9565,-5.14592 11.0804,-7.54537 12.4371,-3.27076 0.3167,0.9977 1.7031,3.47517 3.0809,5.50549 2.0023,2.95051 2.9892,6.82972 4.917,19.32561 8.39,54.38559 9.6288,101.87634 3.9421,151.13411 -15.2317,131.9371 -76.8144,243.7076 -180.4797,327.5643 -10.3949,8.4086 -12.878,9.9382 -18.7276,11.5357 -7.3823,2.0162 -9.7219,2.1914 -12.7437,0.9546 z M 640.27169,1466.25 c 45.92492,-55.6516 71.68735,-87.6327 71.70873,-89.0182 0.0108,-0.6975 -2.28633,-5.8632 -5.10467,-11.4794 -7.61372,-15.1721 -18.20656,-24.4872 -34.6342,-30.4564 -12.96827,-4.7122 -24.39846,-3.9876 -36.20012,2.2949 -2.76186,1.4702 -6.20113,2.4091 -8.82511,2.4091 -4.16619,0 -5.87282,1.2643 -55.00795,40.75 L 521.5,1421.5 l 0.30284,4.1546 c 0.20414,2.8006 -0.56656,6.2202 -2.36485,10.4927 -3.44735,8.1906 -2.95605,14.1237 2.04081,24.6456 6.91631,14.5638 24.27763,28.2602 41.43961,32.6918 4.11822,1.0634 9.67302,1.5853 15.5,1.4562 12.79537,-0.2833 21.2608,1.1116 26.08159,4.2977 2.2,1.4541 4.51076,2.6702 5.13502,2.7026 0.62426,0.032 14.41076,-16.0287 30.63667,-35.6912 z m -168.61037,-38.648 c 7.7567,-2.0652 15.10747,-5.7582 22.30697,-11.2068 6.02319,-4.5583 6.86871,-4.8952 12.28708,-4.8952 h 5.81878 l 49.71292,-40.3263 49.71293,-40.3264 -0.32634,-4.7126 c -0.19508,-2.817 0.35214,-6.4083 1.36042,-8.9283 2.11063,-5.275 1.4106,-9.5961 -2.86843,-17.7064 -4.64699,-8.8077 -14.02462,-17.6006 -23.95156,-22.4581 -14.25246,-6.9742 -23.62044,-6.8858 -37.45764,0.3533 -6.03061,3.155 -8.04402,3.7323 -12.02396,3.4472 l -4.78042,-0.3424 -53.48413,49.7389 -53.48412,49.7388 0.34851,4.382 c 0.25266,3.1768 -0.3639,5.8878 -2.24191,9.8576 -1.42473,3.0116 -2.59042,6.5277 -2.59042,7.8135 0,6.3383 9.00586,17.3807 17.85864,21.8971 9.55397,4.8741 23.57299,6.3978 33.80268,3.6741 z M 399.5,1372.6927 c 2.2,-1.1103 6.54875,-2.2828 9.66389,-2.6057 l 5.6639,-0.587 53.5861,-49.4198 L 522,1270.6604 v -4.3623 c 0,-2.3993 0.675,-5.9778 1.5,-7.9523 2.0844,-4.9887 1.89511,-6.7228 -1.12579,-10.3129 -7.30109,-8.6769 -22.65719,-11.0257 -38.86162,-5.9442 -7.73112,2.4244 -12.13194,2.3992 -16.78786,-0.096 l -3.74566,-2.0075 -57.23953,22.4142 -57.23954,22.4143 -0.63229,5.0236 c -0.34775,2.763 -1.59473,6.3753 -2.77104,8.0272 -7.58315,10.6496 -7.02526,25.3671 1.61391,42.5761 8.46464,16.8613 23.15435,30.214 37.31366,33.9173 6.19735,1.6209 9.71446,1.2425 15.47576,-1.6649 z m -68.86858,-100.2992 c 2.30103,-0.3491 5.70305,-0.1082 7.67877,0.5439 3.41631,1.1274 5.70073,0.3039 61.83807,-22.2918 54.59897,-21.9766 58.34981,-23.6425 59.22372,-26.3041 0.51314,-1.5628 1.98937,-4.4085 3.28051,-6.3236 3.05515,-4.5318 2.99404,-9.3278 -0.20054,-15.7385 -6.99744,-14.042 -26.16212,-23.0007 -43.34984,-20.2642 -4.06885,0.6479 -9.18792,1.8094 -11.37573,2.5813 -5.13644,1.8123 -11.48153,1.7797 -15.04168,-0.077 -2.64612,-1.3802 -5.62079,-0.7801 -49.5,9.9854 -25.67659,6.2996 -47.62557,11.6788 -48.77553,11.9537 -1.37989,0.3299 -3.58335,3.3122 -6.48019,8.7707 -4.01806,7.5712 -4.38765,8.8763 -4.36913,15.4271 0.018,6.3544 0.48352,8.0911 4.15508,15.5 7.79976,15.7394 24.68556,28.8287 35.28507,27.3519 1.925,-0.2682 5.35914,-0.7698 7.63142,-1.1146 z m 11.83101,-91.7407 40.96243,-9.222 0.77129,-3.7122 c 0.4242,-2.0418 1.95542,-5.5016 3.4027,-7.6886 1.84278,-2.7846 2.44716,-4.7106 2.01658,-6.4261 -1.51037,-6.0178 -10.39464,-12.5441 -17.11543,-12.5728 -1.65,-0.01 -5.25,1.094 -8,2.4468 -2.75,1.3527 -6.63006,2.4736 -8.62236,2.4908 -3.19886,0.028 -6.53081,2.3799 -28.5,20.1201 -27.86642,22.5022 -29.51609,23.9407 -27.34986,23.8486 0.80972,-0.034 19.90531,-4.2124 42.43465,-9.2846 z m -32.9632,-18.0685 28.99924,-25.3499 -0.33354,-6.4858 c -0.26139,-5.0829 0.16638,-7.648 1.97752,-11.8581 2.69639,-6.2679 2.78426,-10.536 0.37463,-18.1969 -6.68464,-21.2522 -31.36351,-44.0119 -54.51708,-50.2775 -9.45188,-2.5578 -26.86113,-2.3566 -38.36505,0.4434 -14.38213,3.5005 -24.64846,9.1643 -34.69425,19.1405 -12.70463,12.6166 -18.40272,24.93 -20.96817,45.3117 -3.31152,26.3089 5.3808,46.5235 25.15668,58.5036 12.83236,7.7737 36.78991,13.8473 55.37079,14.0372 l 8,0.082 z M 892,1075.3642 C 833.12358,1054.6743 810.1039,1043.7331 774,1019.2791 702.40101,970.78355 659.66955,907.12178 645.94403,828.5 c -2.6873,-15.39322 -3.68986,-45.61367 -2.04201,-61.55282 2.95022,-28.53671 14.04328,-62.2326 29.7762,-90.44718 20.41285,-36.60731 55.11131,-75.46447 97.96134,-109.70228 47.53961,-37.98484 74.00889,-53.4334 101.67582,-59.34217 9.08994,-1.94133 29.67655,-1.88774 39.31104,0.10232 18.31114,3.78226 37.60194,12.78487 65.40395,30.52262 18.15568,11.58338 33.04683,19.5958 41.64663,22.40864 4.8578,1.58893 5.1443,1.5719 9.2109,-0.54774 8.0323,-4.18665 17.9012,-1.12024 21.6206,6.71781 1.5054,3.17228 1.6806,5.7009 1.2315,17.76969 -1.08,29.02117 -8.3917,50.10862 -22.24,64.14141 -14.6515,14.84668 -35.33782,18.25121 -60.24839,9.91562 C 956.70424,654.2873 948.91634,650.15651 928,636.60558 c -32.17328,-20.8439 -43.8477,-24.99387 -70.5,-25.06107 -17.4809,-0.0441 -25.13273,1.15777 -42.5,6.67529 -18.15,5.76619 -28.38137,11.89676 -40.5,24.26733 -13.91943,14.2088 -22.1707,30.95302 -26.91389,54.61608 -8.49591,42.38486 -3.86599,74.25041 16.91193,116.39679 21.46142,43.53281 48.06011,75.40439 88.12178,105.59092 22.03531,16.60365 52.87268,34.03563 83.25317,47.06201 l 11.373,4.87644 27.34694,-20.46373 c 28.25887,-21.14617 30.58467,-22.44762 37.97247,-21.24874 5.5612,0.90246 8.6234,3.85136 18.9939,18.29117 8.8734,12.35527 9.8377,14.13459 10.2311,18.87847 0.8223,9.91484 2.9184,7.99437 -64.14536,58.77086 -33.62977,25.4624 -62.70997,47.3994 -64.62266,48.7491 -4.38895,3.0969 -14.25927,3.7344 -21.02238,1.3577 z m 404.9135,-1.6693 c -1.4226,-0.7737 -5.8608,-4.1558 -9.8625,-7.5158 C 1261.947,1045.1009 1216.2293,1034 1154.5251,1034 c -27.6997,0 -55.069,1.9868 -98.0438,7.1173 -9.063,1.0819 -10.3766,1.0262 -13.7697,-0.5839 -5.9557,-2.8262 -8.2116,-6.8403 -8.2116,-14.6112 0,-5.8165 0.3473,-7.008 3,-10.2932 16.9324,-20.96988 26.9936,-38.47709 33.406,-58.129 8.1692,-25.03584 11.4776,-48.71644 11.5259,-82.5 0.055,-38.45192 -4.3988,-74.30623 -15.0306,-121 -6.1336,-26.93777 -6.6576,-31.40892 -6.6812,-57 -0.025,-26.81217 1.8214,-42.38597 7.747,-65.35558 7.5749,-29.36322 16.8276,-51.05786 30.3881,-71.25059 27.7888,-41.38003 68.2733,-67.85876 122.2079,-79.92981 6.2903,-1.40782 15.0369,-3.99958 19.4369,-5.75946 7.9143,-3.16551 8.1822,-3.19953 25,-3.17499 15.9585,0.0233 17.5208,0.19822 25.5,2.85517 43.9817,14.64516 81.0964,52.39029 97.2728,98.92488 3.0976,8.91076 3.1942,9.6924 3.1744,25.69038 -0.02,16.0056 -0.1202,16.79964 -3.3528,26.5 -4.2831,12.85281 -6.6605,17.47394 -14.0021,27.21701 -12.7874,16.97021 -54.8939,53.74652 -87.4484,76.37857 -7.363,5.11877 -8.1008,5.40442 -13.9589,5.40442 -7.3162,0 -11.4439,-2.36474 -14.1754,-8.12105 -2.8598,-6.02656 -1.6906,-12.18393 3.59,-18.90568 11.2747,-14.35167 14.0962,-18.47817 18.7375,-27.40343 12.0566,-23.18512 13.0015,-40.48228 3.3089,-60.56984 -4.9875,-10.33615 -11.1231,-18.3674 -21.631,-28.31404 -14.3047,-13.54062 -30.1499,-21.9941 -50.9063,-27.15887 -17.5199,-4.35943 -18.5053,-4.4204 -19.7427,-1.22166 -4.9285,12.74028 -8.7602,38.15086 -9.5293,63.19457 -0.6332,20.61948 -0.4792,23.41416 5.0968,92.5 6.9707,86.36634 7.8794,100.72531 7.9735,126 0.1038,27.91525 -0.8812,35.84827 -6.9539,56 -3.7151,12.32842 -10.973,30.21573 -15.5535,38.33195 -1.6669,2.95361 -2.8284,5.57261 -2.581,5.82001 0.2474,0.2474 6.9241,-0.45914 14.8371,-1.57009 41.1634,-5.7791 79.3165,-4.62877 118.3053,3.56696 22.5632,4.74295 51.4811,14.5131 73.039,24.67685 25.8628,12.19335 29,14.91667 29,25.17432 0,4.5822 -0.5203,6.7294 -2.202,9.087 -1.2111,1.6979 -22.544,17.8742 -47.4064,35.9475 -45.1878,32.8485 -45.2063,32.8606 -50.7979,33.2138 -3.5376,0.2234 -6.5445,-0.1638 -8.1802,-1.0534 z M 445,1071.2853 c -24.00099,-8.3033 -57.99757,-21.5994 -68.69235,-26.8657 -15.38794,-7.5773 -37.22591,-20.5125 -52.75597,-31.2487 -16.49604,-11.404 -29.58147,-22.16581 -43.89356,-36.09918 C 242.84376,941.23152 219.23898,902.45061 205.96536,856 c -7.04479,-24.65304 -9.94398,-44.5366 -9.95716,-68.28941 -0.0198,-35.74271 7.08865,-64.89962 24.43143,-100.21059 14.69744,-29.92491 30.61717,-51.45587 60.44661,-81.7523 18.96244,-19.2593 27.60573,-26.565 53.61376,-45.31675 36.38989,-26.23707 65.83051,-44.04173 83.46826,-50.47871 18.25331,-6.66163 39.17774,-6.33991 60.94244,0.93703 14.43992,4.82793 22.27677,8.72301 48.88782,24.29828 35.48639,20.76994 44.78731,24.43072 55.52579,21.8546 13.81215,-3.31349 21.68527,3.08503 21.66714,17.60898 -0.048,38.41699 -10.90611,67.08494 -30.07218,79.39741 C 566.57417,659.40952 560.06167,661 546.45532,661 525.64299,661 518.74034,658.3088 483.03387,636.27324 450.80338,616.38282 438.60075,611.66338 416,610.34749 c -12.3269,-0.71772 -23.57738,0.58945 -39.34343,4.57121 -19.64653,4.9618 -33.1952,11.67529 -45.13141,22.36304 -16.02441,14.34835 -25.9512,32.93283 -30.97204,57.98441 -8.43352,42.07925 -3.75775,73.80949 17.03545,115.60438 10.31542,20.73429 10.01913,20.29149 11.30847,16.90026 0.55654,-1.46379 10.02987,-15.45858 21.05185,-31.09953 15.63535,-22.18762 20.78874,-28.79341 23.44667,-30.05468 3.06918,-1.45642 13.20013,-1.60962 102.25557,-1.54629 54.36688,0.0386 99.65451,0.38841 100.63919,0.77723 1.83523,0.72467 23.14259,20.52358 34.60214,32.15248 7.94262,8.05999 14.64679,16.94409 17.7337,23.5 l 2.3543,5 0.01,57.5156 c 0.009,54.07701 -0.10097,57.72392 -1.84254,61 -1.39137,2.61731 -21.85927,18.59108 -82.25,64.1904 -44.21873,33.3883 -81.8157,61.4008 -83.54882,62.25 -3.96368,1.9421 -12.47034,1.863 -18.34887,-0.1707 z M 517.47044,954.75 533.9136,942.5 l 0.0432,-23.84887 c 0.0372,-20.52596 -0.19601,-24.35297 -1.67364,-27.46684 -1.91385,-4.03314 -10.55084,-12.91462 -29.59651,-30.43429 L 489.9132,849 h -74.99178 c -74.40353,0 -74.98348,0.0155 -73.93321,1.97797 0.58222,1.08789 4.5624,6.37539 8.84485,11.75 27.29456,34.25559 62.19006,61.80664 107.66694,85.00627 15.82219,8.07155 40.12864,19.12052 42.26364,19.21176 0.69501,0.0297 8.66307,-5.4585 17.7068,-12.196 z"
       id="path1"
       sodipodi:nodetypes="csssssssscssssscsssssssscsssssscssssssssscsssscssssccscssccscsssssssssssssssssssssssssssssssssssscsssssssscsssssssssssssssssssssssssssssssssssssssscssssssssssssssssssssssssssscssssssssssssssssssssssssscssssssssssssssssssssssssssssssssssssscsssssscsssscccsssssscccssssssscccssssscccscsssssssssssssssssssssscssscscscsccssssssssscccsssssssssssssssssssssscsssssscsssssssssscssssssssssssssssssssssssssssssssssssssssssssssssssssssssssssssccsssssscssscssssss" /><path
       style="display:inline;fill:#000000;fill-opacity:1;stroke:#000000;stroke-width:1px;stroke-linecap:butt;stroke-linejoin:miter;stroke-opacity:1"
       d="m 212.88941,1152.968 c -19.38945,-24.4701 -3.1532,-67.1627 -1.92081,-65.9754 l 9.77557,73.9243 z"
       id="path2"
       sodipodi:nodetypes="cccc" /><path
       style="display:inline;fill:#c7c7c7"
       d="M 894.7013,1060.3433 C 775.11687,1018.8546 703.80747,958.73123 672.50252,873 633.21296,765.40225 668.57504,668.51523 779.7013,579.29069 c 87.29241,-70.08807 116.09165,-74.23275 189.93147,-27.33422 36.05613,22.90068 56.78163,30.33047 64.12433,22.98775 6.9421,-6.94217 -1.4631,40.04554 -9.5802,53.55578 -16.4537,27.38596 -41.63303,25.84793 -89.9756,-5.49599 -32.74675,-21.23203 -45.54508,-25.88641 -73.5,-26.72976 -150.19366,-4.53107 -182.29218,176.50484 -54.03563,304.76138 34.13112,34.13112 109.01311,80.46959 139.92106,86.58594 2.20527,0.4364 7.21984,-2.93745 32.03297,-21.55209 C 994.79982,953.93127 1008.1604,944 1008.3099,944 c 0.1496,0 4.1629,5.41699 8.9185,12.03775 l 8.6466,12.03775 -2.7083,2.13038 c -22.5865,17.76651 -121.36114,91.75012 -122.4654,91.72832 -0.825,-0.016 -3.525,-0.7322 -6,-1.5909 z m 405.8724,-2.0189 c -28.3517,-34.6153 -127.7993,-48.1314 -242.3724,-32.9414 -12.2058,1.6182 -11.7785,2.0647 -5.3173,-5.5566 47.3432,-55.84367 56.2709,-150.57517 26.2771,-278.8264 -7.6539,-32.72773 -6.6373,-67.70972 3.0849,-106.15369 19.3874,-76.66253 68.1751,-124.219 143.4553,-139.83518 5.775,-1.19797 13.875,-3.59907 18,-5.33579 53.7885,-22.64612 142.9796,60.94576 130.5558,122.35982 -5.5217,27.29539 -24.0206,48.12693 -82.7618,93.19799 -21.0886,16.18088 -22.4828,16.85612 -14.7359,7.1368 48.5332,-60.89012 29.1946,-129.25864 -44.6218,-157.75315 -12.3359,-4.76189 -48.6182,-13.00274 -49.9921,-11.35477 -1.161,1.39272 -4.6913,9.83443 -6.7907,16.23797 -10.4145,31.76716 -11.9021,73.40203 -5.3592,150 9.1544,107.17155 10.9396,141.4549 8.2954,159.30376 -4.4717,30.1853 -14.7837,55.95942 -34.2171,85.52298 -5.4909,8.35314 -7.8109,12.64956 -6.6521,12.31871 2.9139,-0.83191 22.8758,-4.44205 36.2795,-6.56121 67.6982,-10.70327 121.0545,-5.17753 179.448,18.58418 11.9207,4.85082 35.2906,16.09959 36.071,17.36225 0.4091,0.66196 -85.5202,63.96933 -86.8278,63.96933 -0.2455,0 -1.0639,-0.754 -1.8188,-1.6756 z M 449.2013,1056.831 C 331.42672,1015.684 263.19661,960.69622 229.18539,879.51664 c -52.30952,-124.85477 0.2552,-238.04115 155.87747,-335.64731 52.12424,-32.69229 71.64961,-31.86966 135.13844,5.69349 36.2632,21.45512 53.60745,27.41173 65.75,22.58078 3.27883,-1.30449 3.27541,-1.33716 1.76126,16.8564 -3.7229,44.73284 -24.26857,64.18901 -58.03136,54.95406 -8.23818,-2.25334 -19.21136,-8.07251 -41.66112,-22.09324 -35.36755,-22.08838 -48.242,-26.35983 -79.31878,-26.31614 -63.76346,0.0896 -108.78477,32.2072 -122.48658,87.38018 -29.16573,117.4414 58.21314,242.60036 209.16202,299.59758 l 6.17543,2.3318 23.11406,-17.15081 23.11405,-17.15081 -0.28949,-31.02631 c -0.38181,-40.92088 3.46643,-34.08188 -43.76063,-77.77022 L 495.359,834.01218 418.12975,833.75609 340.90051,833.5 359.57004,807 l 18.66953,-26.5 96.23087,-0.255 c 83.77903,-0.222 96.23086,-0.0662 96.23086,1.20375 0,0.80232 5.9625,6.89904 13.25,13.54828 14.80353,13.50699 23.51257,23.05165 27.83248,30.50297 l 2.89875,5 0.009,53.55303 0.009,53.55304 -79.51185,59.94696 c -43.73152,32.97087 -80.29402,60.03227 -81.25,60.13657 -0.95598,0.1042 -3.08815,-0.2821 -4.73815,-0.8586 z"
       id="path6"
       sodipodi:nodetypes="csssssssssssscscccssssssssssscssssssssccsssssssssscccsscccccsssscccsscc" /><g
       id="g6"><path
         style="fill:#e5e5e5;stroke:none"
         d="m 588.42459,1481.1162 1,1 z"
         id="path542" /><path
         style="fill:#e6ddd0;stroke:none"
         d="m 587.42459,1481.1162 1,1 z"
         id="path541" /><path
         style="fill:#d5c6b0;stroke:none"
         d="m 586.42459,1481.1162 1,1 z"
         id="path540" /><path
         style="fill:#e6ddd0;stroke:none"
         d="m 597.42459,1480.1162 1,1 -1,-1 m -12,1 1,1 z"
         id="path539" /><path
         style="fill:#d5c6b0;stroke:none"
         d="m 596.42459,1480.1162 1,1 z"
         id="path538" /><path
         style="fill:#c5b090;stroke:none"
         d="m 595.42459,1480.1162 1,1 z"
         id="path537" /><path
         style="fill:#b49a71;stroke:none"
         d="m 594.09128,1480.4495 0.66663,0.3335 z"
         id="path536" /><path
         style="fill:#a3824f;stroke:none"
         d="m 592.42459,1480.1162 1,1 z"
         id="path535" /><path
         style="fill:#926b2f;stroke:none"
         d="m 582.42459,1480.1162 1,1 -1,-1 m 9,0 1,1 z"
         id="path534" /><path
         style="fill:#a3824f;stroke:none"
         d="m 581.42459,1480.1162 1,1 z"
         id="path533" /><path
         style="fill:#b49a71;stroke:none"
         d="m 580.42459,1480.1162 1,1 z"
         id="path532" /><path
         style="fill:#c5b090;stroke:none"
         d="m 579.42459,1480.1162 1,1 z"
         id="path531" /><path
         style="fill:#d5c6b0;stroke:none"
         d="m 578.42459,1480.1162 1,1 z"
         id="path530" /><path
         style="fill:#e6ddd0;stroke:none"
         d="m 577.42459,1480.1162 1,1 z"
         id="path529" /><path
         style="fill:#e5e5e5;stroke:none"
         d="m 576.42459,1480.1162 1,1 z"
         id="path528" /><path
         style="fill:#e6ddd0;stroke:none"
         d="m 606.42459,1479.1162 1,1 z"
         id="path527" /><path
         style="fill:#d5c6b0;stroke:none"
         d="m 605.42459,1479.1162 1,1 z"
         id="path526" /><path
         style="fill:#c5b090;stroke:none"
         d="m 604.09128,1479.4495 0.66663,0.3335 z"
         id="path525" /><path
         style="fill:#b49a71;stroke:none"
         d="m 602.42459,1479.1162 1,1 z"
         id="path524" /><path
         style="fill:#a3824f;stroke:none"
         d="m 601.42459,1479.1162 1,1 z"
         id="path523" /><path
         style="fill:#926b2f;stroke:none"
         d="m 574.09128,1479.4495 0.66663,0.3335 -0.66663,-0.3335 m 26.33331,-0.3333 1,1 z"
         id="path522" /><path
         style="fill:#a3824f;stroke:none"
         d="m 572.42459,1479.1162 1,1 z"
         id="path521" /><path
         style="fill:#b49a71;stroke:none"
         d="m 571.42459,1479.1162 1,1 z"
         id="path520" /><path
         style="fill:#c5b090;stroke:none"
         d="m 570.42459,1479.1162 1,1 z"
         id="path519" /><path
         style="fill:#e6ddd0;stroke:none"
         d="m 569.42459,1479.1162 1,1 z"
         id="path518" /><path
         style="fill:#c5b090;stroke:none"
         d="m 611.42459,1478.1162 1,1 z"
         id="path517" /><path
         style="fill:#a3824f;stroke:none"
         d="m 610.42459,1478.1162 1,1 z"
         id="path516" /><path
         style="fill:#926b2f;stroke:none"
         d="m 609.42459,1478.1162 1,1 z"
         id="path515" /><path
         style="fill:#a3824f;stroke:none"
         d="m 568.42459,1478.1162 1,1 z"
         id="path514" /><path
         style="fill:#d5c6b0;stroke:none"
         d="m 567.42459,1478.1162 1,1 z"
         id="path513" /><path
         style="fill:#b49a71;stroke:none"
         d="m 613.42459,1477.1162 1,1 z"
         id="path512" /><path
         style="fill:#a3824f;stroke:none"
         d="m 566.42459,1477.1162 1,1 z"
         id="path511" /><path
         style="fill:#e6ddd0;stroke:none"
         d="m 565.42459,1477.1162 1,1 z"
         id="path510" /><path
         style="fill:#b49a71;stroke:none"
         d="m 615.42459,1476.1162 1,1 z"
         id="path509" /><path
         style="fill:#a3824f;stroke:none"
         d="m 564.42459,1476.1162 1,1 z"
         id="path508" /><path
         style="fill:#e6ddd0;stroke:none"
         d="m 563.42459,1476.1162 1,1 z"
         id="path507" /><path
         style="fill:#e5e5e5;stroke:none"
         d="m 618.42459,1475.1162 1,1 z"
         id="path506" /><path
         style="fill:#b49a71;stroke:none"
         d="m 617.42459,1475.1162 1,1 z"
         id="path505" /><path
         style="fill:#a3824f;stroke:none"
         d="m 562.42459,1475.1162 1,1 z"
         id="path504" /><path
         style="fill:#e6ddd0;stroke:none"
         d="m 561.42459,1475.1162 1,1 z"
         id="path503" /><path
         style="fill:#e5e5e5;stroke:none"
         d="m 620.42459,1474.1162 1,1 z"
         id="path502" /><path
         style="fill:#a3824f;stroke:none"
         d="m 560.42459,1474.1162 1,1 z"
         id="path501" /><path
         style="fill:#e6ddd0;stroke:none"
         d="m 559.42459,1474.1162 1,1 z"
         id="path500" /><path
         style="fill:#d5c6b0;stroke:none"
         d="m 619.42459,1473.1162 1,1 z"
         id="path499" /><path
         style="fill:#b49a71;stroke:none"
         d="m 618.42459,1473.1162 2,2 z"
         id="path498" /><path
         style="fill:#926b2f;stroke:none"
         d="m 617.42459,1473.1162 1,1 z"
         id="path497" /><path
         style="fill:#a3824f;stroke:none"
         d="m 558.42459,1473.1162 1,1 z"
         id="path496" /><path
         style="fill:#e6ddd0;stroke:none"
         d="m 557.42459,1473.1162 1,1 z"
         id="path495" /><path
         style="fill:#e5e5e5;stroke:none"
         d="m 616.42459,1472.1162 1,1 z"
         id="path494" /><path
         style="fill:#c5b090;stroke:none"
         d="m 615.42459,1472.1162 1,1 z"
         id="path493" /><path
         style="fill:#a3824f;stroke:none"
         d="m 556.42459,1472.1162 1,1 -1,-1 m 58,0 1,1 z"
         id="path492" /><path
         style="fill:#e6ddd0;stroke:none"
         d="m 612.42459,1471.1162 1,1 -1,-1 m -57,1 1,1 z"
         id="path491" /><path
         style="fill:#c5b090;stroke:none"
         d="m 611.42459,1471.1162 1,1 z"
         id="path490" /><path
         style="fill:#a3824f;stroke:none"
         d="m 554.42459,1471.1162 1,1 -1,-1 m 56,0 1,1 z"
         id="path489" /><path
         style="fill:#e6ddd0;stroke:none"
         d="m 553.42459,1471.1162 1,1 z"
         id="path488" /><path
         style="fill:#d5c6b0;stroke:none"
         d="m 608.42459,1470.1162 1,1 z"
         id="path487" /><path
         style="fill:#b49a71;stroke:none"
         d="m 607.42459,1470.1162 1,1 z"
         id="path486" /><path
         style="fill:#926b2f;stroke:none"
         d="m 606.42459,1470.1162 1,1 z"
         id="path485" /><path
         style="fill:#a3824f;stroke:none"
         d="m 552.42459,1470.1162 1,1 z"
         id="path484" /><path
         style="fill:#e6ddd0;stroke:none"
         d="m 551.42459,1470.1162 1,1 z"
         id="path483" /><path
         style="fill:#d5c6b0;stroke:none"
         d="m 604.42459,1469.1162 1,1 z"
         id="path482" /><path
         style="fill:#b49a71;stroke:none"
         d="m 603.42459,1469.1162 1,1 z"
         id="path481" /><path
         style="fill:#926b2f;stroke:none"
         d="m 602.42459,1469.1162 1,1 z"
         id="path480" /><path
         style="fill:#a3824f;stroke:none"
         d="m 550.42459,1469.1162 1,1 z"
         id="path479" /><path
         style="fill:#e5e5e5;stroke:none"
         d="m 601.42459,1468.1162 1,1 z"
         id="path478" /><path
         style="fill:#c5b090;stroke:none"
         d="m 600.42459,1468.1162 1,1 z"
         id="path477" /><path
         style="fill:#a3824f;stroke:none"
         d="m 599.42459,1468.1162 1,1 z"
         id="path476" /><path
         style="fill:#e6ddd0;stroke:none"
         d="m 597.42459,1467.1162 1,1 z"
         id="path475" /><path
         style="fill:#c5b090;stroke:none"
         d="m 596.42459,1467.1162 1,1 z"
         id="path474" /><path
         style="fill:#926b2f;stroke:none"
         d="m 595.42459,1467.1162 1,1 z"
         id="path473" /><path
         style="fill:#c5b090;stroke:none"
         d="m 594.42459,1466.1162 1,1 z"
         id="path472" /><path
         style="fill:#e5e5e5;stroke:none"
         d="m 593.42459,1465.1162 1,1 -1,-1 m -47,1 3,3 z"
         id="path471" /><path
         style="fill:#926b2f;stroke:none"
         d="m 546.42459,1465.1162 4,4 -4,-4 m 46,0 1,1 z"
         id="path470" /><path
         style="fill:#c5b090;stroke:none"
         d="m 591.42459,1464.1162 1,1 z"
         id="path469" /><path
         style="fill:#e6ddd0;stroke:none"
         d="m 544.42459,1464.1162 2,2 z"
         id="path468" /><path
         style="fill:#e5e5e5;stroke:none"
         d="m 590.42459,1463.1162 1,1 z"
         id="path467" /><path
         style="fill:#a3824f;stroke:none"
         d="m 589.42459,1463.1162 1,1 z"
         id="path466" /><path
         style="fill:#c5b090;stroke:none"
         d="m 588.42459,1462.1162 1,1 z"
         id="path465" /><path
         style="fill:#e5e5e5;stroke:none"
         d="m 587.42459,1461.1162 1,1 z"
         id="path464" /><path
         style="fill:#a3824f;stroke:none"
         d="m 586.42459,1461.1162 1,1 z"
         id="path463" /><path
         style="fill:#d5c6b0;stroke:none"
         d="m 541.42459,1461.1162 3,3 z"
         id="path462" /><path
         style="fill:#c5b090;stroke:none"
         d="m 585.42459,1460.1162 1,1 z"
         id="path461" /><path
         style="fill:#e5e5e5;stroke:none"
         d="m 584.42459,1459.1162 1,1 z"
         id="path460" /><path
         style="fill:#a3824f;stroke:none"
         d="m 583.42459,1459.1162 1,1 z"
         id="path459" /><path
         style="fill:#c5b090;stroke:none"
         d="m 539.42459,1459.1162 2,2 z"
         id="path458" /><path
         style="fill:#d5c6b0;stroke:none"
         d="m 582.42459,1458.1162 1,1 z"
         id="path457" /><path
         style="fill:#926b2f;stroke:none"
         d="m 581.42459,1458.1162 1,1 z"
         id="path456" /><path
         style="fill:#e5e5e5;stroke:none"
         d="m 538.42459,1458.1162 1,1 z"
         id="path455" /><path
         style="fill:#a3824f;stroke:none"
         d="m 580.42459,1457.1162 1,1 z"
         id="path454" /><path
         style="fill:#b49a71;stroke:none"
         d="m 538.42459,1457.1162 1,1 z"
         id="path453" /><path
         style="fill:#d5c6b0;stroke:none"
         d="m 579.42459,1456.1162 1,1 z"
         id="path452" /><path
         style="fill:#926b2f;stroke:none"
         d="m 578.42459,1456.1162 1,1 z"
         id="path451" /><path
         style="fill:#e5e5e5;stroke:none"
         d="m 537.42459,1456.1162 1,1 z"
         id="path450" /><path
         style="fill:#a3824f;stroke:none"
         d="m 577.42459,1455.1162 1,1 z"
         id="path449" /><path
         style="fill:#b49a71;stroke:none"
         d="m 537.42459,1455.1162 1,1 z"
         id="path448" /><path
         style="fill:#d5c6b0;stroke:none"
         d="m 576.42459,1454.1162 1,1 z"
         id="path447" /><path
         style="fill:#926b2f;stroke:none"
         d="m 575.42459,1454.1162 1,1 z"
         id="path446" /><path
         style="fill:#b49a71;stroke:none"
         d="m 536.42459,1453.1162 1,1 -1,-1 m 38,0 1,1 z"
         id="path445" /><path
         style="fill:#d5c6b0;stroke:none"
         d="m 572.42459,1451.1162 2,2 z"
         id="path444" /><path
         style="fill:#c5b090;stroke:none"
         d="m 571.42459,1450.1162 1,1 -1,-1 m -36,1 1,1 z"
         id="path443" /><path
         style="fill:#b49a71;stroke:none"
         d="m 570.42459,1449.1162 1,1 z"
         id="path442" /><path
         style="fill:#c5b090;stroke:none"
         d="m 534.42459,1449.1162 1,1 z"
         id="path441" /><path
         style="fill:#a3824f;stroke:none"
         d="m 569.42459,1448.1162 1,1 z"
         id="path440" /><path
         style="fill:#926b2f;stroke:none"
         d="m 534.42459,1448.1162 1,1 z"
         id="path439" /><path
         style="fill:#c5b090;stroke:none"
         d="m 533.42459,1447.1162 1,1 z"
         id="path438" /><path
         style="fill:#e5e5e5;stroke:none"
         d="m 568.42459,1446.1162 1,1 z"
         id="path437" /><path
         style="fill:#926b2f;stroke:none"
         d="m 533.42459,1446.1162 1,1 -1,-1 m 34,0 2,2 z"
         id="path436" /><path
         style="fill:#e6ddd0;stroke:none"
         d="m 567.42459,1445.1162 1,1 z"
         id="path435" /><path
         style="fill:#d5c6b0;stroke:none"
         d="m 566.42459,1444.1162 1,1 z"
         id="path434" /><path
         style="fill:#c5b090;stroke:none"
         d="m 565.42459,1443.1162 1,1 z"
         id="path433" /><path
         style="fill:#b49a71;stroke:none"
         d="m 564.42459,1442.1162 1,1 z"
         id="path432" /><path
         style="fill:#d5c6b0;stroke:none"
         d="m 532.42459,1442.1162 v 4 h 1 z"
         id="path431" /><path
         style="fill:#a3824f;stroke:none"
         d="m 563.42459,1441.1162 1,1 z"
         id="path430" /><path
         style="fill:#926b2f;stroke:none"
         d="m 561.42459,1439.1162 1,1 -1,-1 m 1,1 1,1 z"
         id="path429" /><path
         style="fill:#e5e5e5;stroke:none"
         d="m 561.42459,1438.1162 2,2 z"
         id="path428" /><path
         style="fill:#e6ddd0;stroke:none"
         d="m 532.42459,1438.1162 v 4 h 1 z"
         id="path427" /><path
         style="fill:#d5c6b0;stroke:none"
         d="m 559.42459,1436.1162 2,2 z"
         id="path426" /><path
         style="fill:#c5b090;stroke:none"
         d="m 558.42459,1435.1162 1,1 z"
         id="path425" /><path
         style="fill:#926b2f;stroke:none"
         d="m 557.42459,1434.1162 1,1 z"
         id="path424" /><path
         style="fill:#e5e5e5;stroke:none"
         d="m 532.42459,1434.1162 v 4 h 1 z"
         id="path423" /><path
         style="fill:#e6ddd0;stroke:none"
         d="m 557.42459,1433.1162 1,1 z"
         id="path422" /><path
         style="fill:#b49a71;stroke:none"
         d="m 556.42459,1432.1162 1,1 z"
         id="path421" /><path
         style="fill:#926b2f;stroke:none"
         d="m 555.42459,1431.1162 1,1 z"
         id="path420" /><path
         style="fill:#d5c6b0;stroke:none"
         d="m 555.42459,1430.1162 1,1 z"
         id="path419" /><path
         style="fill:#926b2f;stroke:none"
         d="m 533.42459,1430.1162 1,1 z"
         id="path418" /><path
         style="fill:#a3824f;stroke:none"
         d="m 554.42459,1429.1162 1,1 z"
         id="path417" /><path
         style="fill:#b49a71;stroke:none"
         d="m 533.42459,1429.1162 1,1 z"
         id="path416" /><path
         style="fill:#e5e5e5;stroke:none"
         d="m 554.42459,1428.1162 1,1 z"
         id="path415" /><path
         style="fill:#e6ddd0;stroke:none"
         d="m 533.42459,1428.1162 1,1 z"
         id="path414" /><path
         style="fill:#c5b090;stroke:none"
         d="m 553.42459,1427.1162 1,1 z"
         id="path413" /><path
         style="fill:#926b2f;stroke:none"
         d="m 552.42459,1426.1162 1,1 -1,-1 m -18,1 1,1 z"
         id="path412" /><path
         style="fill:#b49a71;stroke:none"
         d="m 534.42459,1426.1162 1,1 z"
         id="path411" /><path
         style="fill:#e6ddd0;stroke:none"
         d="m 534.42459,1425.1162 1,1 -1,-1 m 18,0 1,1 z"
         id="path410" /><path
         style="fill:#b49a71;stroke:none"
         d="m 551.42459,1424.1162 1,1 z"
         id="path409" /><path
         style="fill:#926b2f;stroke:none"
         d="m 550.42459,1423.1162 1,1 -1,-1 m -15,1 1,1 z"
         id="path408" /><path
         style="fill:#b49a71;stroke:none"
         d="m 535.42459,1423.1162 1,1 z"
         id="path407" /><path
         style="fill:#d5c6b0;stroke:none"
         d="m 535.42459,1422.1162 1,1 -1,-1 m 15,0 1,1 z"
         id="path406" /><path
         style="fill:#926b2f;stroke:none"
         d="m 536.42459,1421.1162 1,1 -1,-1 m 13,0 1,1 z"
         id="path405" /><path
         style="fill:#b49a71;stroke:none"
         d="m 536.42459,1420.1162 1,1 -1,-1 m 13,0 1,1 z"
         id="path404" /><path
         style="fill:#d5c6b0;stroke:none"
         d="m 536.42459,1419.1162 1,1 -1,-1 m 13,0 1,1 z"
         id="path403" /><path
         style="fill:#926b2f;stroke:none"
         d="m 537.42459,1418.1162 1,1 z"
         id="path402" /><path
         style="fill:#e5e5e5;stroke:none"
         d="m 459.42459,1418.1162 1,1 z"
         id="path401" /><path
         style="fill:#d5c6b0;stroke:none"
         d="m 458.42459,1418.1162 1,1 z"
         id="path400" /><path
         style="fill:#c5b090;stroke:none"
         d="m 457.09125,1418.4495 0.66669,0.3335 z"
         id="path399" /><path
         style="fill:#b49a71;stroke:none"
         d="m 455.42459,1418.1162 1,1 z"
         id="path398" /><path
         style="fill:#c5b090;stroke:none"
         d="m 454.42459,1418.1162 1,1 z"
         id="path397" /><path
         style="fill:#a3824f;stroke:none"
         d="m 548.42459,1417.1162 1,1 z"
         id="path396" /><path
         style="fill:#e5e5e5;stroke:none"
         d="m 537.42459,1417.1162 1,1 z"
         id="path395" /><path
         style="fill:#e6ddd0;stroke:none"
         d="m 465.42459,1417.1162 1,1 z"
         id="path394" /><path
         style="fill:#c5b090;stroke:none"
         d="m 464.42459,1417.1162 1,1 z"
         id="path393" /><path
         style="fill:#a3824f;stroke:none"
         d="m 463.42459,1417.1162 1,1 z"
         id="path392" /><path
         style="fill:#926b2f;stroke:none"
         d="m 462.42459,1417.1162 1,1 z"
         id="path391" /><path
         style="fill:#b49a71;stroke:none"
         d="m 452.42459,1417.1162 1,1 z"
         id="path390" /><path
         style="fill:#e5e5e5;stroke:none"
         d="m 451.42459,1417.1162 1,1 z"
         id="path389" /><path
         style="fill:#c5b090;stroke:none"
         d="m 548.42459,1416.1162 1,1 z"
         id="path388" /><path
         style="fill:#e6ddd0;stroke:none"
         d="m 469.42459,1416.1162 1,1 -1,-1 m 69,0 1,1 z"
         id="path387" /><path
         style="fill:#c5b090;stroke:none"
         d="m 468.42459,1416.1162 1,1 z"
         id="path386" /><path
         style="fill:#a3824f;stroke:none"
         d="m 450.42459,1416.1162 1,1 -1,-1 m 17,0 1,1 z"
         id="path385" /><path
         style="fill:#e6ddd0;stroke:none"
         d="m 548.42459,1415.1162 1,1 -1,-1 m -99,1 1,1 z"
         id="path384" /><path
         style="fill:#c5b090;stroke:none"
         d="m 539.42459,1415.1162 1,1 z"
         id="path383" /><path
         style="fill:#e6ddd0;stroke:none"
         d="m 473.42459,1415.1162 1,1 z"
         id="path382" /><path
         style="fill:#c5b090;stroke:none"
         d="m 472.42459,1415.1162 1,1 z"
         id="path381" /><path
         style="fill:#a3824f;stroke:none"
         d="m 471.42459,1415.1162 1,1 z"
         id="path380" /><path
         style="fill:#926b2f;stroke:none"
         d="m 448.42459,1415.1162 1,1 z"
         id="path379" /><path
         style="fill:#d5c6b0;stroke:none"
         d="m 447.42459,1415.1162 1,1 z"
         id="path378" /><path
         style="fill:#926b2f;stroke:none"
         d="m 547.42459,1414.1162 1,1 z"
         id="path377" /><path
         style="fill:#b49a71;stroke:none"
         d="m 540.42459,1414.1162 1,1 z"
         id="path376" /><path
         style="fill:#e5e5e5;stroke:none"
         d="m 477.42459,1414.1162 1,1 z"
         id="path375" /><path
         style="fill:#c5b090;stroke:none"
         d="m 476.42459,1414.1162 1,1 z"
         id="path374" /><path
         style="fill:#a3824f;stroke:none"
         d="m 475.42459,1414.1162 1,1 z"
         id="path373" /><path
         style="fill:#926b2f;stroke:none"
         d="m 446.42459,1414.1162 1,1 -1,-1 m 28,0 1,1 z"
         id="path372" /><path
         style="fill:#c5b090;stroke:none"
         d="m 445.42459,1414.1162 1,1 z"
         id="path371" /><path
         style="fill:#a3824f;stroke:none"
         d="m 541.42459,1413.1162 1,1 -1,-1 m 6,0 1,1 z"
         id="path370" /><path
         style="fill:#e6ddd0;stroke:none"
         d="m 479.42459,1413.1162 1,1 z"
         id="path369" /><path
         style="fill:#a3824f;stroke:none"
         d="m 478.42459,1413.1162 1,1 z"
         id="path368" /><path
         style="fill:#b49a71;stroke:none"
         d="m 443.42459,1413.1162 1,1 z"
         id="path367" /><path
         style="fill:#d5c6b0;stroke:none"
         d="m 547.42459,1412.1162 1,1 z"
         id="path366" /><path
         style="fill:#926b2f;stroke:none"
         d="m 542.42459,1412.1162 1,1 z"
         id="path365" /><path
         style="fill:#e6ddd0;stroke:none"
         d="m 481.42459,1412.1162 1,1 z"
         id="path364" /><path
         style="fill:#a3824f;stroke:none"
         d="m 442.42459,1412.1162 1,1 -1,-1 m 38,0 1,1 z"
         id="path363" /><path
         style="fill:#e5e5e5;stroke:none"
         d="m 547.42459,1411.1162 1,1 z"
         id="path362" /><path
         style="fill:#e6ddd0;stroke:none"
         d="m 542.42459,1411.1162 1,1 z"
         id="path361" /><path
         style="fill:#e5e5e5;stroke:none"
         d="m 483.42459,1411.1162 1,1 z"
         id="path360" /><path
         style="fill:#a3824f;stroke:none"
         d="m 482.42459,1411.1162 1,1 z"
         id="path359" /><path
         style="fill:#b49a71;stroke:none"
         d="m 441.42459,1411.1162 1,1 z"
         id="path358" /><path
         style="fill:#926b2f;stroke:none"
         d="m 546.42459,1410.1162 1,1 z"
         id="path357" /><path
         style="fill:#d5c6b0;stroke:none"
         d="m 543.42459,1410.1162 1,1 z"
         id="path356" /><path
         style="fill:#e5e5e5;stroke:none"
         d="m 485.42459,1410.1162 1,1 z"
         id="path355" /><path
         style="fill:#b49a71;stroke:none"
         d="m 484.42459,1410.1162 1,1 z"
         id="path354" /><path
         style="fill:#c5b090;stroke:none"
         d="m 440.42459,1410.1162 1,1 z"
         id="path353" /><path
         style="fill:#b49a71;stroke:none"
         d="m 546.42459,1409.1162 1,1 z"
         id="path352" /><path
         style="fill:#794901;stroke:none"
         d="m 545.42459,1409.1162 c -4.19891,5.1743 -7.54205,9.6271 -9.66668,16 -16.13654,48.4016 49.95654,63.7558 83.66668,50 v -1 c -26.04327,-8.3276 -45.85858,-17.6255 -62.22912,-41 -5.24286,-7.4859 -6.73157,-16.9365 -11.77088,-24 z"
         id="path351" /><path
         style="fill:#b49a71;stroke:none"
         d="m 486.42459,1409.1162 1,1 -1,-1 m 58,0 1,1 z"
         id="path350" /><path
         style="fill:#d5c6b0;stroke:none"
         d="m 439.42459,1409.1162 1,1 z"
         id="path349" /><path
         style="fill:#e6ddd0;stroke:none"
         d="m 546.42459,1408.1162 1,1 z"
         id="path348" /><path
         style="fill:#a3824f;stroke:none"
         d="m 545.42459,1408.1162 1,1 z"
         id="path347" /><path
         style="fill:#c5b090;stroke:none"
         d="m 488.42459,1408.1162 1,1 z"
         id="path346" /><path
         style="fill:#e6ddd0;stroke:none"
         d="m 438.42459,1408.1162 1,1 z"
         id="path345" /><path
         style="fill:#c5b090;stroke:none"
         d="m 490.42459,1407.1162 1,1 z"
         id="path344" /><path
         style="fill:#926b2f;stroke:none"
         d="m 489.42459,1407.1162 1,1 z"
         id="path343" /><path
         style="fill:#e5e5e5;stroke:none"
         d="m 437.42459,1407.1162 1,1 z"
         id="path342" /><path
         style="fill:#d5c6b0;stroke:none"
         d="m 492.42459,1406.1162 1,1 z"
         id="path341" /><path
         style="fill:#926b2f;stroke:none"
         d="m 437.42459,1406.1162 2,2 -2,-2 m 54,0 1,1 z"
         id="path340" /><path
         style="fill:#d5c6b0;stroke:none"
         d="m 494.42459,1405.1162 1,1 z"
         id="path339" /><path
         style="fill:#926b2f;stroke:none"
         d="m 493.42459,1405.1162 1,1 z"
         id="path338" /><path
         style="fill:#a3824f;stroke:none"
         d="m 436.42459,1405.1162 1,1 z"
         id="path337" /><path
         style="fill:#e5e5e5;stroke:none"
         d="m 494.42459,1404.1162 1,1 z"
         id="path336" /><path
         style="fill:#c5b090;stroke:none"
         d="m 493.42459,1404.1162 1,1 z"
         id="path335" /><path
         style="fill:#a3824f;stroke:none"
         d="m 492.42459,1404.1162 1,1 z"
         id="path334" /><path
         style="fill:#926b2f;stroke:none"
         d="m 491.42459,1404.1162 1,1 z"
         id="path333" /><path
         style="fill:#b49a71;stroke:none"
         d="m 435.42459,1404.1162 1,1 z"
         id="path332" /><path
         style="fill:#d5c6b0;stroke:none"
         d="m 489.42459,1403.1162 1,1 z"
         id="path331" /><path
         style="fill:#b49a71;stroke:none"
         d="m 488.42459,1403.1162 1,1 z"
         id="path330" /><path
         style="fill:#926b2f;stroke:none"
         d="m 487.42459,1403.1162 1,1 z"
         id="path329" /><path
         style="fill:#e5e5e5;stroke:none"
         d="m 434.42459,1403.1162 1,1 z"
         id="path328" /><path
         style="fill:#d5c6b0;stroke:none"
         d="m 485.42459,1402.1162 1,1 z"
         id="path327" /><path
         style="fill:#b49a71;stroke:none"
         d="m 484.42459,1402.1162 1,1 z"
         id="path326" /><path
         style="fill:#a3824f;stroke:none"
         d="m 483.42459,1402.1162 1,1 z"
         id="path325" /><path
         style="fill:#d5c6b0;stroke:none"
         d="m 434.42459,1402.1162 1,1 z"
         id="path324" /><path
         style="fill:#e5e5e5;stroke:none"
         d="m 481.42459,1401.1162 1,1 z"
         id="path323" /><path
         style="fill:#c5b090;stroke:none"
         d="m 480.42459,1401.1162 1,1 z"
         id="path322" /><path
         style="fill:#a3824f;stroke:none"
         d="m 479.42459,1401.1162 1,1 z"
         id="path321" /><path
         style="fill:#926b2f;stroke:none"
         d="m 478.42459,1401.1162 1,1 z"
         id="path320" /><path
         style="fill:#c5b090;stroke:none"
         d="m 434.42459,1401.1162 1,1 z"
         id="path319" /><path
         style="fill:#e6ddd0;stroke:none"
         d="m 477.42459,1400.1162 1,1 z"
         id="path318" /><path
         style="fill:#c5b090;stroke:none"
         d="m 476.42459,1400.1162 1,1 z"
         id="path317" /><path
         style="fill:#a3824f;stroke:none"
         d="m 475.42459,1400.1162 1,1 z"
         id="path316" /><path
         style="fill:#b49a71;stroke:none"
         d="m 434.42459,1400.1162 1,1 z"
         id="path315" /><path
         style="fill:#d5c6b0;stroke:none"
         d="m 473.42459,1399.1162 1,1 z"
         id="path314" /><path
         style="fill:#b49a71;stroke:none"
         d="m 472.42459,1399.1162 1,1 z"
         id="path313" /><path
         style="fill:#926b2f;stroke:none"
         d="m 434.42459,1399.1162 1,1 -1,-1 m 37,0 1,1 z"
         id="path312" /><path
         style="fill:#e5e5e5;stroke:none"
         d="m 470.42459,1398.1162 1,1 z"
         id="path311" /><path
         style="fill:#c5b090;stroke:none"
         d="m 469.42459,1398.1162 1,1 z"
         id="path310" /><path
         style="fill:#a3824f;stroke:none"
         d="m 468.42459,1398.1162 1,1 z"
         id="path309" /><path
         style="fill:#d5c6b0;stroke:none"
         d="m 466.42459,1397.1162 1,1 z"
         id="path308" /><path
         style="fill:#b49a71;stroke:none"
         d="m 465.42459,1397.1162 1,1 z"
         id="path307" /><path
         style="fill:#926b2f;stroke:none"
         d="m 464.42459,1397.1162 1,1 z"
         id="path306" /><path
         style="fill:#e5e5e5;stroke:none"
         d="m 463.42459,1396.1162 1,1 -1,-1 m -30,1 1,1 z"
         id="path305" /><path
         style="fill:#a3824f;stroke:none"
         d="m 462.42459,1396.1162 1,1 z"
         id="path304" /><path
         style="fill:#d5c6b0;stroke:none"
         d="m 461.42459,1395.1162 1,1 -1,-1 m -28,1 1,1 z"
         id="path303" /><path
         style="fill:#926b2f;stroke:none"
         d="m 460.42459,1395.1162 1,1 z"
         id="path302" /><path
         style="fill:#c5b090;stroke:none"
         d="m 433.42459,1395.1162 1,1 z"
         id="path301" /><path
         style="fill:#b49a71;stroke:none"
         d="m 459.42459,1394.1162 1,1 z"
         id="path300" /><path
         style="fill:#a3824f;stroke:none"
         d="m 433.42459,1394.1162 1,1 z"
         id="path299" /><path
         style="fill:#e5e5e5;stroke:none"
         d="m 458.42459,1393.1162 1,1 z"
         id="path298" /><path
         style="fill:#a3824f;stroke:none"
         d="m 457.42459,1393.1162 1,1 z"
         id="path297" /><path
         style="fill:#926b2f;stroke:none"
         d="m 433.42459,1393.1162 1,1 z"
         id="path296" /><path
         style="fill:#e6ddd0;stroke:none"
         d="m 456.42459,1392.1162 1,1 z"
         id="path295" /><path
         style="fill:#926b2f;stroke:none"
         d="m 455.42459,1392.1162 1,1 z"
         id="path294" /><path
         style="fill:#c5b090;stroke:none"
         d="m 454.42459,1391.1162 1,1 z"
         id="path293" /><path
         style="fill:#a3824f;stroke:none"
         d="m 433.42459,1391.1162 1,1 z"
         id="path292" /><path
         style="fill:#e5e5e5;stroke:none"
         d="m 453.42459,1390.1162 1,1 z"
         id="path291" /><path
         style="fill:#a3824f;stroke:none"
         d="m 452.42459,1390.1162 1,1 z"
         id="path290" /><path
         style="fill:#d5c6b0;stroke:none"
         d="m 433.42459,1390.1162 1,1 z"
         id="path289" /><path
         style="fill:#926b2f;stroke:none"
         d="m 450.42459,1389.1162 1,1 z"
         id="path288" /><path
         style="fill:#e6ddd0;stroke:none"
         d="m 450.42459,1388.1162 2,2 z"
         id="path287" /><path
         style="fill:#a3824f;stroke:none"
         d="m 434.42459,1388.1162 1,1 z"
         id="path286" /><path
         style="fill:#c5b090;stroke:none"
         d="m 449.42459,1387.1162 1,1 z"
         id="path285" /><path
         style="fill:#d5c6b0;stroke:none"
         d="m 434.42459,1387.1162 1,1 z"
         id="path284" /><path
         style="fill:#926b2f;stroke:none"
         d="m 448.42459,1386.1162 1,1 z"
         id="path283" /><path
         style="fill:#e5e5e5;stroke:none"
         d="m 1402.4246,1385.1162 c -21.8226,15.63 -44.0785,35.867 -68,48.0047 -12.367,6.2749 -26.9763,9.2894 -40,14.0485 -35.9315,13.1302 -72.0022,25.1033 -109,34.8311 -70.9561,18.6565 -142.704,34.9425 -216.00001,41.9459 -39.2829,3.7536 -80.53534,3.1698 -120,3.1698 v 1 c 13.71613,7.2245 28.96106,20.9101 44,24.5818 11.89301,2.9037 26.76734,1.4182 39,1.4182 26.45819,0 51.57923,-1.0055 78.00001,-3.8341 43.2875,-4.6344 88.6768,-7.8131 131,-18.6443 46.7534,-11.9649 93.061,-31.3038 138,-48.7105 17.2851,-6.6954 36.7602,-11.9069 53,-20.8465 15.6553,-8.6179 29.936,-22.7256 44,-33.7546 10.771,-8.4468 15.2329,-18.1818 21.2469,-30.21 1.9397,-3.8794 5.4854,-8.6034 4.7531,-13 z"
         id="path282" /><path
         style="fill:#e6ddd0;stroke:none"
         d="m 448.42459,1385.1162 1,1 z"
         id="path281" /><path
         style="fill:#a3824f;stroke:none"
         d="m 435.42459,1385.1162 1,1 z"
         id="path280" /><path
         style="fill:#b49a71;stroke:none"
         d="m 447.42459,1384.1162 1,1 z"
         id="path279" /><path
         style="fill:#d5c6b0;stroke:none"
         d="m 435.42459,1384.1162 1,1 z"
         id="path278" /><path
         style="fill:#926b2f;stroke:none"
         d="m 446.42459,1383.1162 1,1 z"
         id="path277" /><path
         style="fill:#e6ddd0;stroke:none"
         d="m 446.42459,1382.1162 1,1 z"
         id="path276" /><path
         style="fill:#b49a71;stroke:none"
         d="m 445.42459,1381.1162 1,1 -1,-1 m -9,1 1,1 z"
         id="path275" /><path
         style="fill:#926b2f;stroke:none"
         d="m 444.42459,1380.1162 1,1 -1,-1 m -7,1 1,1 z"
         id="path274" /><path
         style="fill:#d5c6b0;stroke:none"
         d="m 444.42459,1379.1162 1,1 -1,-1 m -7,1 1,1 z"
         id="path273" /><path
         style="fill:#b49a71;stroke:none"
         d="m 443.42459,1378.1162 1,1 -1,-1 m -5,1 1,1 z"
         id="path272" /><path
         style="fill:#926b2f;stroke:none"
         d="m 442.42459,1377.1162 1,1 -1,-1 m -3,1 1,1 z"
         id="path271" /><path
         style="fill:#d5c6b0;stroke:none"
         d="m 442.42459,1376.1162 1,1 -1,-1 m -3,1 1,1 z"
         id="path270" /><path
         style="fill:#794901;stroke:none"
         d="m 441.42459,1376.1162 c -10.48865,15.6113 -8.34015,39.8772 15,41.8913 13.26636,1.1446 25.58502,-6.5619 37,-11.8913 v -1 c -13.94781,-3.9287 -29.0798,-5.6272 -40.81558,-14.9043 -4.73734,-3.7448 -7.04669,-9.7751 -11.18442,-14.0957 z"
         id="path269" /><path
         style="fill:#a3824f;stroke:none"
         d="m 440.42459,1376.1162 1,1 z"
         id="path268" /><path
         style="fill:#b49a71;stroke:none"
         d="m 441.42459,1375.1162 1,1 z"
         id="path267" /><path
         style="fill:#d5c6b0;stroke:none"
         d="m 408.42459,1361.1162 1,1 z"
         id="path266" /><path
         style="fill:#b49a71;stroke:none"
         d="m 396.42459,1361.1162 v 1 h 12 z"
         id="path265" /><path
         style="fill:#d5c6b0;stroke:none"
         d="m 395.42459,1361.1162 1,1 z"
         id="path264" /><path
         style="fill:#e5e5e5;stroke:none"
         d="m 410.42459,1360.1162 1,1 z"
         id="path263" /><path
         style="fill:#a3824f;stroke:none"
         d="m 409.42459,1360.1162 1,1 z"
         id="path262" /><path
         style="fill:#926b2f;stroke:none"
         d="m 394.42459,1360.1162 1,1 z"
         id="path261" /><path
         style="fill:#d5c6b0;stroke:none"
         d="m 393.42459,1360.1162 1,1 z"
         id="path260" /><path
         style="fill:#c5b090;stroke:none"
         d="m 411.42459,1359.1162 1,1 z"
         id="path259" /><path
         style="fill:#926b2f;stroke:none"
         d="m 392.42459,1359.1162 1,1 z"
         id="path258" /><path
         style="fill:#c5b090;stroke:none"
         d="m 391.42459,1359.1162 1,1 z"
         id="path257" /><path
         style="fill:#e5e5e5;stroke:none"
         d="m 413.42459,1358.1162 1,1 z"
         id="path256" /><path
         style="fill:#926b2f;stroke:none"
         d="m 390.42459,1358.1162 1,1 -1,-1 m 22,0 1,1 z"
         id="path255" /><path
         style="fill:#c5b090;stroke:none"
         d="m 414.42459,1357.1162 1,1 -1,-1 m -25,1 1,1 z"
         id="path254" /><path
         style="fill:#b49a71;stroke:none"
         d="m 387.42459,1357.1162 1,1 z"
         id="path253" /><path
         style="fill:#e6ddd0;stroke:none"
         d="m 416.42459,1356.1162 1,1 z"
         id="path252" /><path
         style="fill:#926b2f;stroke:none"
         d="m 415.42459,1356.1162 1,1 z"
         id="path251" /><path
         style="fill:#b49a71;stroke:none"
         d="m 385.42459,1356.1162 1,1 z"
         id="path250" /><path
         style="fill:#e5e5e5;stroke:none"
         d="m 384.42459,1356.1162 1,1 z"
         id="path249" /><path
         style="fill:#c5b090;stroke:none"
         d="m 417.42459,1355.1162 1,1 z"
         id="path248" /><path
         style="fill:#b49a71;stroke:none"
         d="m 383.42459,1355.1162 1,1 z"
         id="path247" /><path
         style="fill:#e5e5e5;stroke:none"
         d="m 382.42459,1355.1162 1,1 z"
         id="path246" /><path
         style="fill:#e6ddd0;stroke:none"
         d="m 419.42459,1354.1162 1,1 z"
         id="path245" /><path
         style="fill:#926b2f;stroke:none"
         d="m 418.42459,1354.1162 1,1 z"
         id="path244" /><path
         style="fill:#b49a71;stroke:none"
         d="m 381.42459,1354.1162 1,1 z"
         id="path243" /><path
         style="fill:#e5e5e5;stroke:none"
         d="m 380.42459,1354.1162 1,1 z"
         id="path242" /><path
         style="fill:#b49a71;stroke:none"
         d="m 420.42459,1353.1162 1,1 z"
         id="path241" /><path
         style="fill:#926b2f;stroke:none"
         d="m 380.42459,1353.1162 1,1 z"
         id="path240" /><path
         style="fill:#e6ddd0;stroke:none"
         d="m 379.42459,1353.1162 1,1 z"
         id="path239" /><path
         style="fill:#e5e5e5;stroke:none"
         d="m 422.42459,1352.1162 1,1 z"
         id="path238" /><path
         style="fill:#926b2f;stroke:none"
         d="m 421.42459,1352.1162 1,1 z"
         id="path237" /><path
         style="fill:#b49a71;stroke:none"
         d="m 421.42459,1351.1162 1,1 z"
         id="path236" /><path
         style="fill:#d5c6b0;stroke:none"
         d="m 377.42459,1351.1162 2,2 z"
         id="path235" /><path
         style="fill:#e6ddd0;stroke:none"
         d="m 420.42459,1350.1162 1,1 z"
         id="path234" /><path
         style="fill:#926b2f;stroke:none"
         d="m 419.42459,1350.1162 1,1 z"
         id="path233" /><path
         style="fill:#c5b090;stroke:none"
         d="m 376.42459,1350.1162 1,1 z"
         id="path232" /><path
         style="fill:#a3824f;stroke:none"
         d="m 418.42459,1349.1162 1,1 z"
         id="path231" /><path
         style="fill:#b49a71;stroke:none"
         d="m 375.42459,1349.1162 1,1 z"
         id="path230" /><path
         style="fill:#d5c6b0;stroke:none"
         d="m 417.42459,1348.1162 1,1 z"
         id="path229" /><path
         style="fill:#e5e5e5;stroke:none"
         d="m 416.42459,1347.1162 1,1 z"
         id="path228" /><path
         style="fill:#926b2f;stroke:none"
         d="m 415.42459,1347.1162 1,1 z"
         id="path227" /><path
         style="fill:#a3824f;stroke:none"
         d="m 373.42459,1347.1162 2,2 z"
         id="path226" /><path
         style="fill:#b49a71;stroke:none"
         d="m 414.42459,1346.1162 1,1 z"
         id="path225" /><path
         style="fill:#926b2f;stroke:none"
         d="m 372.42459,1346.1162 1,1 z"
         id="path224" /><path
         style="fill:#e6ddd0;stroke:none"
         d="m 413.42459,1345.1162 1,1 z"
         id="path223" /><path
         style="fill:#926b2f;stroke:none"
         d="m 371.42459,1345.1162 1,1 -1,-1 m 41,0 1,1 z"
         id="path222" /><path
         style="fill:#e5e5e5;stroke:none"
         d="m 370.42459,1345.1162 2,2 z"
         id="path221" /><path
         style="fill:#a3824f;stroke:none"
         d="m 411.42459,1344.1162 1,1 z"
         id="path220" /><path
         style="fill:#e6ddd0;stroke:none"
         d="m 369.42459,1344.1162 1,1 z"
         id="path219" /><path
         style="fill:#d5c6b0;stroke:none"
         d="m 368.42459,1343.1162 1,1 -1,-1 m 42,0 1,1 z"
         id="path218" /><path
         style="fill:#e5e5e5;stroke:none"
         d="m 409.42459,1342.1162 1,1 z"
         id="path217" /><path
         style="fill:#926b2f;stroke:none"
         d="m 408.42459,1342.1162 1,1 z"
         id="path216" /><path
         style="fill:#c5b090;stroke:none"
         d="m 366.42459,1341.1162 2,2 -2,-2 m 41,0 1,1 z"
         id="path215" /><path
         style="fill:#e6ddd0;stroke:none"
         d="m 406.42459,1340.1162 1,1 z"
         id="path214" /><path
         style="fill:#926b2f;stroke:none"
         d="m 405.42459,1340.1162 1,1 z"
         id="path213" /><path
         style="fill:#e5e5e5;stroke:none"
         d="m 365.42459,1340.1162 1,1 z"
         id="path212" /><path
         style="fill:#a3824f;stroke:none"
         d="m 365.42459,1339.1162 1,1 -1,-1 m 39,0 1,1 z"
         id="path211" /><path
         style="fill:#d5c6b0;stroke:none"
         d="m 403.42459,1338.1162 1,1 z"
         id="path210" /><path
         style="fill:#c5b090;stroke:none"
         d="m 364.42459,1338.1162 1,1 z"
         id="path209" /><path
         style="fill:#e5e5e5;stroke:none"
         d="m 402.42459,1337.1162 1,1 z"
         id="path208" /><path
         style="fill:#926b2f;stroke:none"
         d="m 401.42459,1337.1162 1,1 z"
         id="path207" /><path
         style="fill:#e5e5e5;stroke:none"
         d="m 363.42459,1337.1162 1,1 z"
         id="path206" /><path
         style="fill:#b49a71;stroke:none"
         d="m 400.42459,1336.1162 1,1 z"
         id="path205" /><path
         style="fill:#926b2f;stroke:none"
         d="m 363.42459,1336.1162 1,1 z"
         id="path204" /><path
         style="fill:#a3824f;stroke:none"
         d="m 399.42459,1335.1162 1,1 z"
         id="path203" /><path
         style="fill:#c5b090;stroke:none"
         d="m 362.42459,1335.1162 1,1 z"
         id="path202" /><path
         style="fill:#e5e5e5;stroke:none"
         d="m 398.42459,1333.1162 1,1 -1,-1 m -37,1 1,1 z"
         id="path201" /><path
         style="fill:#926b2f;stroke:none"
         d="m 361.42459,1333.1162 1,1 -1,-1 m 36,0 2,2 z"
         id="path200" /><path
         style="fill:#e6ddd0;stroke:none"
         d="m 397.42459,1332.1162 1,1 z"
         id="path199" /><path
         style="fill:#c5b090;stroke:none"
         d="m 360.42459,1332.1162 1,1 z"
         id="path198" /><path
         style="fill:#d5c6b0;stroke:none"
         d="m 396.42459,1331.1162 1,1 z"
         id="path197" /><path
         style="fill:#c5b090;stroke:none"
         d="m 395.42459,1330.1162 1,1 z"
         id="path196" /><path
         style="fill:#d5c6b0;stroke:none"
         d="m 359.42459,1330.1162 1,1 z"
         id="path195" /><path
         style="fill:#a3824f;stroke:none"
         d="m 394.42459,1329.1162 1,1 z"
         id="path194" /><path
         style="fill:#b49a71;stroke:none"
         d="m 359.42459,1329.1162 1,1 z"
         id="path193" /><path
         style="fill:#926b2f;stroke:none"
         d="m 359.42459,1328.1162 1,1 z"
         id="path192" /><path
         style="fill:#e5e5e5;stroke:none"
         d="m 393.42459,1327.1162 1,1 z"
         id="path191" /><path
         style="fill:#926b2f;stroke:none"
         d="m 392.42459,1327.1162 2,2 z"
         id="path190" /><path
         style="fill:#e5e5e5;stroke:none"
         d="m 358.42459,1327.1162 1,1 z"
         id="path189" /><path
         style="fill:#e6ddd0;stroke:none"
         d="m 392.42459,1326.1162 1,1 z"
         id="path188" /><path
         style="fill:#c5b090;stroke:none"
         d="m 358.42459,1326.1162 1,1 z"
         id="path187" /><path
         style="fill:#d5c6b0;stroke:none"
         d="m 391.42459,1325.1162 1,1 z"
         id="path186" /><path
         style="fill:#a3824f;stroke:none"
         d="m 358.42459,1325.1162 1,1 z"
         id="path185" /><path
         style="fill:#c5b090;stroke:none"
         d="m 390.42459,1324.1162 1,1 z"
         id="path184" /><path
         style="fill:#a3824f;stroke:none"
         d="m 389.42459,1323.1162 1,1 z"
         id="path183" /><path
         style="fill:#e6ddd0;stroke:none"
         d="m 357.42459,1323.1162 1,1 z"
         id="path182" /><path
         style="fill:#b49a71;stroke:none"
         d="m 357.42459,1322.1162 1,1 z"
         id="path181" /><path
         style="fill:#e5e5e5;stroke:none"
         d="m 388.42459,1321.1162 1,1 z"
         id="path180" /><path
         style="fill:#926b2f;stroke:none"
         d="m 357.42459,1321.1162 1,1 -1,-1 m 30,0 2,2 z"
         id="path179" /><path
         style="fill:#e6ddd0;stroke:none"
         d="m 387.42459,1320.1162 1,1 z"
         id="path178" /><path
         style="fill:#d5c6b0;stroke:none"
         d="m 356.42459,1319.1162 1,1 -1,-1 m 30,0 1,1 z"
         id="path177" /><path
         style="fill:#c5b090;stroke:none"
         d="m 385.42459,1318.1162 1,1 z"
         id="path176" /><path
         style="fill:#b49a71;stroke:none"
         d="m 384.42459,1317.1162 1,1 -1,-1 m -28,1 1,1 z"
         id="path175" /><path
         style="fill:#926b2f;stroke:none"
         d="m 356.42459,1317.1162 1,1 z"
         id="path174" /><path
         style="fill:#e5e5e5;stroke:none"
         d="m 355.42459,1316.1162 1,1 z"
         id="path173" /><path
         style="fill:#926b2f;stroke:none"
         d="m 382.42459,1315.1162 2,2 z"
         id="path172" /><path
         style="fill:#c5b090;stroke:none"
         d="m 355.42459,1315.1162 1,1 z"
         id="path171" /><path
         style="fill:#d5c6b0;stroke:none"
         d="m 382.42459,1314.1162 1,1 z"
         id="path170" /><path
         style="fill:#a3824f;stroke:none"
         d="m 355.42459,1314.1162 1,1 z"
         id="path169" /><path
         style="fill:#926b2f;stroke:none"
         d="m 381.42459,1313.1162 1,1 z"
         id="path168" /><path
         style="fill:#d5c6b0;stroke:none"
         d="m 381.42459,1312.1162 1,1 z"
         id="path167" /><path
         style="fill:#926b2f;stroke:none"
         d="m 380.42459,1311.1162 1,1 z"
         id="path166" /><path
         style="fill:#c5b090;stroke:none"
         d="m 380.42459,1310.1162 1,1 z"
         id="path165" /><path
         style="fill:#b49a71;stroke:none"
         d="m 379.42459,1308.1162 1,1 z"
         id="path164" /><path
         style="fill:#e5e5e5;stroke:none"
         d="m 379.42459,1307.1162 1,1 z"
         id="path163" /><path
         style="fill:#b49a71;stroke:none"
         d="m 378.42459,1306.1162 1,1 z"
         id="path162" /><path
         style="fill:#e5e5e5;stroke:none"
         d="m 378.42459,1305.1162 1,1 z"
         id="path161" /><path
         style="fill:#a3824f;stroke:none"
         d="m 377.42459,1304.1162 1,1 z"
         id="path160" /><path
         style="fill:#e6ddd0;stroke:none"
         d="m 377.42459,1303.1162 1,1 z"
         id="path159" /><path
         style="fill:#926b2f;stroke:none"
         d="m 376.42459,1302.1162 1,1 z"
         id="path158" /><path
         style="fill:#d5c6b0;stroke:none"
         d="m 376.42459,1301.1162 1,1 z"
         id="path157" /><path
         style="fill:#926b2f;stroke:none"
         d="m 375.42459,1300.1162 1,1 -1,-1 m -20,1 v 7 h 1 z"
         id="path156" /><path
         style="fill:#a3824f;stroke:none"
         d="m 355.42459,1300.1162 1,1 z"
         id="path155" /><path
         style="fill:#c5b090;stroke:none"
         d="m 355.42459,1299.1162 1,1 -1,-1 m 20,0 1,1 z"
         id="path154" /><path
         style="fill:#926b2f;stroke:none"
         d="m 374.42459,1298.1162 1,1 z"
         id="path153" /><path
         style="fill:#c5b090;stroke:none"
         d="m 374.42459,1297.1162 1,1 z"
         id="path152" /><path
         style="fill:#a3824f;stroke:none"
         d="m 356.42459,1297.1162 1,1 z"
         id="path151" /><path
         style="fill:#e6ddd0;stroke:none"
         d="m 356.42459,1296.1162 1,1 z"
         id="path150" /><path
         style="fill:#926b2f;stroke:none"
         d="m 357.42459,1295.1162 1,1 -1,-1 m 16,0 1,1 z"
         id="path149" /><path
         style="fill:#c5b090;stroke:none"
         d="m 357.42459,1294.1162 1,1 z"
         id="path148" /><path
         style="fill:#a3824f;stroke:none"
         d="m 373.75794,1293.783 0.33331,0.6665 z"
         id="path147" /><path
         style="fill:#b49a71;stroke:none"
         d="m 358.42459,1292.1162 1,1 -1,-1 m 15,0 1,1 z"
         id="path146" /><path
         style="fill:#c5b090;stroke:none"
         d="m 373.42459,1291.1162 1,1 z"
         id="path145" /><path
         style="fill:#e6ddd0;stroke:none"
         d="m 373.42459,1290.1162 1,1 z"
         id="path144" /><path
         style="fill:#a3824f;stroke:none"
         d="m 360.42459,1290.1162 1,1 z"
         id="path143" /><path
         style="fill:#e6ddd0;stroke:none"
         d="m 359.42459,1290.1162 -1,2 z"
         id="path142" /><path
         style="fill:#e5e5e5;stroke:none"
         d="m 373.42459,1289.1162 1,1 z"
         id="path141" /><path
         style="fill:#a3824f;stroke:none"
         d="m 362.42459,1289.1162 1,1 z"
         id="path140" /><path
         style="fill:#e6ddd0;stroke:none"
         d="m 361.42459,1289.1162 1,1 z"
         id="path139" /><path
         style="fill:#a3824f;stroke:none"
         d="m 364.42459,1288.1162 1,1 z"
         id="path138" /><path
         style="fill:#e6ddd0;stroke:none"
         d="m 363.42459,1288.1162 1,1 z"
         id="path137" /><path
         style="fill:#926b2f;stroke:none"
         d="m 372.42459,1287.1162 1,1 z"
         id="path136" /><path
         style="fill:#b49a71;stroke:none"
         d="m 366.42459,1287.1162 1,1 z"
         id="path135" /><path
         style="fill:#e5e5e5;stroke:none"
         d="m 365.42459,1287.1162 1,1 z"
         id="path134" /><path
         style="fill:#b49a71;stroke:none"
         d="m 368.42459,1286.1162 1,1 z"
         id="path133" /><path
         style="fill:#e5e5e5;stroke:none"
         d="m 367.42459,1286.1162 1,1 z"
         id="path132" /><path
         style="fill:#a3824f;stroke:none"
         d="m 372.75794,1285.783 0.33331,0.6665 z"
         id="path131" /><path
         style="fill:#794901;stroke:none"
         d="m 371.42459,1285.1162 c -3.78448,2.2089 -9.21972,3.8144 -11.92514,7.3904 -6.01959,7.957 -3.71591,20.8911 -1.44601,29.6096 5.20831,20.0047 26.63547,42.6392 49.37115,38.7754 5.17096,-0.8787 9.75348,-4.9106 14,-7.7754 v -2 c -15.15463,-9.3539 -30.82001,-22.1328 -39.58719,-38 -4.82553,-8.7334 -5.60617,-19.9761 -10.41281,-28 z"
         id="path130" /><path
         style="fill:#b49a71;stroke:none"
         d="m 370.42459,1285.1162 1,1 z"
         id="path129" /><path
         style="fill:#e5e5e5;stroke:none"
         d="m 369.42459,1285.1162 1,1 z"
         id="path128" /><path
         style="fill:#e6ddd0;stroke:none"
         d="m 372.42459,1284.1162 1,1 z"
         id="path127" /><path
         style="fill:#e5e5e5;stroke:none"
         d="m 337.42459,1262.1162 1,1 z"
         id="path126" /><path
         style="fill:#d5c6b0;stroke:none"
         d="m 336.42459,1262.1162 1,1 z"
         id="path125" /><path
         style="fill:#e6ddd0;stroke:none"
         d="m 335.42459,1262.1162 1,1 z"
         id="path124" /><path
         style="fill:#d5c6b0;stroke:none"
         d="m 340.42459,1261.1162 1,1 z"
         id="path123" /><path
         style="fill:#b49a71;stroke:none"
         d="m 339.42459,1261.1162 1,1 z"
         id="path122" /><path
         style="fill:#926b2f;stroke:none"
         d="m 333.09125,1261.4495 0.66669,0.3335 -0.66669,-0.3335 m 5.33334,-0.3333 1,1 z"
         id="path121" /><path
         style="fill:#a3824f;stroke:none"
         d="m 331.42459,1261.1162 1,1 z"
         id="path120" /><path
         style="fill:#b49a71;stroke:none"
         d="m 330.42459,1261.1162 1,1 z"
         id="path119" /><path
         style="fill:#c5b090;stroke:none"
         d="m 329.42459,1261.1162 1,1 z"
         id="path118" /><path
         style="fill:#d5c6b0;stroke:none"
         d="m 328.42459,1261.1162 1,1 z"
         id="path117" /><path
         style="fill:#e5e5e5;stroke:none"
         d="m 327.42459,1261.1162 1,1 z"
         id="path116" /><path
         style="fill:#e6ddd0;stroke:none"
         d="m 344.42459,1260.1162 1,1 z"
         id="path115" /><path
         style="fill:#c5b090;stroke:none"
         d="m 343.42459,1260.1162 1,1 z"
         id="path114" /><path
         style="fill:#a3824f;stroke:none"
         d="m 342.42459,1260.1162 1,1 z"
         id="path113" /><path
         style="fill:#926b2f;stroke:none"
         d="m 325.09125,1260.4495 0.66669,0.3335 z"
         id="path112" /><path
         style="fill:#a3824f;stroke:none"
         d="m 323.42459,1260.1162 1,1 z"
         id="path111" /><path
         style="fill:#b49a71;stroke:none"
         d="m 322.42459,1260.1162 1,1 z"
         id="path110" /><path
         style="fill:#c5b090;stroke:none"
         d="m 321.42459,1260.1162 1,1 z"
         id="path109" /><path
         style="fill:#d5c6b0;stroke:none"
         d="m 320.42459,1260.1162 1,1 z"
         id="path108" /><path
         style="fill:#e5e5e5;stroke:none"
         d="m 319.42459,1260.1162 1,1 z"
         id="path107" /><path
         style="fill:#d5c6b0;stroke:none"
         d="m 347.42459,1259.1162 1,1 z"
         id="path106" /><path
         style="fill:#b49a71;stroke:none"
         d="m 346.42459,1259.1162 1,1 z"
         id="path105" /><path
         style="fill:#926b2f;stroke:none"
         d="m 317.42459,1259.1162 1,1 -1,-1 m 28,0 1,1 z"
         id="path104" /><path
         style="fill:#d5c6b0;stroke:none"
         d="m 316.42459,1259.1162 1,1 z"
         id="path103" /><path
         style="fill:#e6ddd0;stroke:none"
         d="m 351.42459,1258.1162 1,1 z"
         id="path102" /><path
         style="fill:#b49a71;stroke:none"
         d="m 350.42459,1258.1162 1,1 z"
         id="path101" /><path
         style="fill:#926b2f;stroke:none"
         d="m 315.42459,1258.1162 1,1 -1,-1 m 34,0 1,1 z"
         id="path100" /><path
         style="fill:#c5b090;stroke:none"
         d="m 314.42459,1258.1162 1,1 z"
         id="path99" /><path
         style="fill:#e5e5e5;stroke:none"
         d="m 313.42459,1258.1162 1,1 z"
         id="path98" /><path
         style="fill:#a3824f;stroke:none"
         d="m 312.42459,1257.1162 1,1 -1,-1 m 40,0 1,1 z"
         id="path97" /><path
         style="fill:#e6ddd0;stroke:none"
         d="m 351.42459,1256.1162 1,1 -1,-1 m -40,1 1,1 z"
         id="path96" /><path
         style="fill:#a3824f;stroke:none"
         d="m 350.42459,1256.1162 1,1 z"
         id="path95" /><path
         style="fill:#926b2f;stroke:none"
         d="m 310.42459,1256.1162 1,1 z"
         id="path94" /><path
         style="fill:#d5c6b0;stroke:none"
         d="m 309.42459,1256.1162 1,1 z"
         id="path93" /><path
         style="fill:#e6ddd0;stroke:none"
         d="m 349.42459,1255.1162 1,1 z"
         id="path92" /><path
         style="fill:#a3824f;stroke:none"
         d="m 348.42459,1255.1162 1,1 z"
         id="path91" /><path
         style="fill:#b49a71;stroke:none"
         d="m 307.42459,1255.1162 1,1 z"
         id="path90" /><path
         style="fill:#e5e5e5;stroke:none"
         d="m 347.42459,1254.1162 1,1 z"
         id="path89" /><path
         style="fill:#a3824f;stroke:none"
         d="m 346.42459,1254.1162 1,1 z"
         id="path88" /><path
         style="fill:#c5b090;stroke:none"
         d="m 306.42459,1254.1162 1,1 z"
         id="path87" /><path
         style="fill:#e5e5e5;stroke:none"
         d="m 345.42459,1253.1162 1,1 z"
         id="path86" /><path
         style="fill:#b49a71;stroke:none"
         d="m 344.42459,1253.1162 1,1 z"
         id="path85" /><path
         style="fill:#e5e5e5;stroke:none"
         d="m 343.42459,1252.1162 1,1 -1,-1 m -38,1 1,1 z"
         id="path84" /><path
         style="fill:#b49a71;stroke:none"
         d="m 340.42459,1251.1162 1,1 -1,-1 m -35,1 1,1 -1,-1 m 37,0 1,1 z"
         id="path83" /><path
         style="fill:#e5e5e5;stroke:none"
         d="m 304.42459,1251.1162 1,1 z"
         id="path82" /><path
         style="fill:#c5b090;stroke:none"
         d="m 338.42459,1250.1162 1,1 z"
         id="path81" /><path
         style="fill:#926b2f;stroke:none"
         d="m 337.42459,1250.1162 1,1 z"
         id="path80" /><path
         style="fill:#a3824f;stroke:none"
         d="m 304.42459,1250.1162 1,1 z"
         id="path79" /><path
         style="fill:#c5b090;stroke:none"
         d="m 336.42459,1249.1162 1,1 z"
         id="path78" /><path
         style="fill:#926b2f;stroke:none"
         d="m 335.42459,1249.1162 1,1 z"
         id="path77" /><path
         style="fill:#d5c6b0;stroke:none"
         d="m 334.42459,1248.1162 1,1 -1,-1 m -31,1 1,1 z"
         id="path76" /><path
         style="fill:#926b2f;stroke:none"
         d="m 303.42459,1248.1162 1,1 -1,-1 m 30,0 1,1 z"
         id="path75" /><path
         style="fill:#d5c6b0;stroke:none"
         d="m 332.42459,1247.1162 1,1 z"
         id="path74" /><path
         style="fill:#926b2f;stroke:none"
         d="m 331.42459,1247.1162 1,1 z"
         id="path73" /><path
         style="fill:#c5b090;stroke:none"
         d="m 302.42459,1247.1162 1,1 z"
         id="path72" /><path
         style="fill:#a3824f;stroke:none"
         d="m 330.42459,1246.1162 1,1 z"
         id="path71" /><path
         style="fill:#926b2f;stroke:none"
         d="m 302.42459,1246.1162 1,1 z"
         id="path70" /><path
         style="fill:#e5e5e5;stroke:none"
         d="m 330.42459,1245.1162 1,1 z"
         id="path69" /><path
         style="fill:#b49a71;stroke:none"
         d="m 329.42459,1244.1162 1,1 -1,-1 m -28,1 1,1 z"
         id="path68" /><path
         style="fill:#e5e5e5;stroke:none"
         d="m 300.42459,1244.1162 1,1 z"
         id="path67" /><path
         style="fill:#926b2f;stroke:none"
         d="m 328.42459,1243.1162 1,1 z"
         id="path66" /><path
         style="fill:#a3824f;stroke:none"
         d="m 300.42459,1243.1162 1,1 z"
         id="path65" /><path
         style="fill:#d5c6b0;stroke:none"
         d="m 328.42459,1242.1162 1,1 z"
         id="path64" /><path
         style="fill:#e6ddd0;stroke:none"
         d="m 299.42459,1242.1162 1,1 z"
         id="path63" /><path
         style="fill:#a3824f;stroke:none"
         d="m 327.42459,1241.1162 1,1 z"
         id="path62" /><path
         style="fill:#b49a71;stroke:none"
         d="m 299.42459,1241.1162 1,1 z"
         id="path61" /><path
         style="fill:#e5e5e5;stroke:none"
         d="m 327.42459,1240.1162 1,1 z"
         id="path60" /><path
         style="fill:#b49a71;stroke:none"
         d="m 326.42459,1239.1162 1,1 z"
         id="path59" /><path
         style="fill:#d5c6b0;stroke:none"
         d="m 298.42459,1239.1162 1,1 z"
         id="path58" /><path
         style="fill:#926b2f;stroke:none"
         d="m 325.42459,1238.1162 1,1 z"
         id="path57" /><path
         style="fill:#a3824f;stroke:none"
         d="m 298.42459,1238.1162 1,1 z"
         id="path56" /><path
         style="fill:#d5c6b0;stroke:none"
         d="m 325.42459,1237.1162 1,1 z"
         id="path55" /><path
         style="fill:#a3824f;stroke:none"
         d="m 324.42459,1236.1162 1,1 z"
         id="path54" /><path
         style="fill:#d5c6b0;stroke:none"
         d="m 297.42459,1236.1162 1,1 z"
         id="path53" /><path
         style="fill:#e5e5e5;stroke:none"
         d="m 324.42459,1235.1162 1,1 z"
         id="path52" /><path
         style="fill:#a3824f;stroke:none"
         d="m 297.42459,1235.1162 1,1 z"
         id="path51" /><path
         style="fill:#b49a71;stroke:none"
         d="m 323.42459,1234.1162 1,1 z"
         id="path50" /><path
         style="fill:#926b2f;stroke:none"
         d="m 322.42459,1233.1162 1,1 z"
         id="path49" /><path
         style="fill:#d5c6b0;stroke:none"
         d="m 322.42459,1232.1162 1,1 -1,-1 m -26,1 1,1 z"
         id="path48" /><path
         style="fill:#a3824f;stroke:none"
         d="m 321.42459,1231.1162 1,1 -1,-1 m -25,1 1,1 z"
         id="path47" /><path
         style="fill:#e6ddd0;stroke:none"
         d="m 321.42459,1230.1162 1,1 z"
         id="path46" /><path
         style="fill:#b49a71;stroke:none"
         d="m 320.42459,1229.1162 1,1 z"
         id="path45" /><path
         style="fill:#926b2f;stroke:none"
         d="m 319.42459,1228.1162 1,1 -1,-1 m -22.66665,1.6668 0.33331,0.6665 z"
         id="path44" /><path
         style="fill:#a3824f;stroke:none"
         d="m 296.42459,1228.1162 1,1 z"
         id="path43" /><path
         style="fill:#d5c6b0;stroke:none"
         d="m 319.42459,1227.1162 1,1 z"
         id="path42" /><path
         style="fill:#b49a71;stroke:none"
         d="m 296.42459,1227.1162 1,1 z"
         id="path41" /><path
         style="fill:#926b2f;stroke:none"
         d="m 318.42459,1226.1162 1,1 z"
         id="path40" /><path
         style="fill:#e6ddd0;stroke:none"
         d="m 318.42459,1225.1162 1,1 z"
         id="path39" /><path
         style="fill:#c5b090;stroke:none"
         d="m 296.75794,1225.783 0.33331,0.6665 z"
         id="path38" /><path
         style="fill:#a3824f;stroke:none"
         d="m 317.42459,1224.1162 1,1 z"
         id="path37" /><path
         style="fill:#d5c6b0;stroke:none"
         d="m 296.42459,1224.1162 1,1 z"
         id="path36" /><path
         style="fill:#c5b090;stroke:none"
         d="m 317.42459,1223.1162 1,1 z"
         id="path35" /><path
         style="fill:#e6ddd0;stroke:none"
         d="m 296.42459,1223.1162 1,1 z"
         id="path34" /><path
         style="fill:#d5c6b0;stroke:none"
         d="m 317.42459,1222.1162 1,1 z"
         id="path33" /><path
         style="fill:#e5e5e5;stroke:none"
         d="m 296.42459,1222.1162 1,1 z"
         id="path32" /><path
         style="fill:#e6ddd0;stroke:none"
         d="m 317.42459,1221.1162 1,1 z"
         id="path31" /><path
         style="fill:#926b2f;stroke:none"
         d="m 297.42459,1221.1162 1,1 z"
         id="path30" /><path
         style="fill:#d5c6b0;stroke:none"
         d="m 297.42459,1220.1162 1,1 z"
         id="path29" /><path
         style="fill:#a3824f;stroke:none"
         d="m 298.42459,1219.1162 1,1 z"
         id="path28" /><path
         style="fill:#926b2f;stroke:none"
         d="m 316.42459,1218.1162 1,1 z"
         id="path27" /><path
         style="fill:#e5e5e5;stroke:none"
         d="m 298.42459,1218.1162 1,1 z"
         id="path26" /><path
         style="fill:#b49a71;stroke:none"
         d="m 316.42459,1217.1162 1,1 z"
         id="path25" /><path
         style="fill:#c5b090;stroke:none"
         d="m 316.42459,1216.1162 1,1 -1,-1 m -17,1 1,1 z"
         id="path24" /><path
         style="fill:#926b2f;stroke:none"
         d="m 300.42459,1216.1162 1,1 z"
         id="path23" /><path
         style="fill:#d5c6b0;stroke:none"
         d="m 316.42459,1215.1162 1,1 z"
         id="path22" /><path
         style="fill:#e6ddd0;stroke:none"
         d="m 316.42459,1214.1162 1,1 -1,-1 m -16,1 1,1 z"
         id="path21" /><path
         style="fill:#b49a71;stroke:none"
         d="m 301.42459,1214.1162 1,1 z"
         id="path20" /><path
         style="fill:#926b2f;stroke:none"
         d="m 315.42459,1212.1162 1,1 -1,-1 m -13,1 1,1 z"
         id="path19" /><path
         style="fill:#a3824f;stroke:none"
         d="m 304.42459,1212.1162 1,1 z"
         id="path18" /><path
         style="fill:#d5c6b0;stroke:none"
         d="m 303.42459,1212.1162 1,1 z"
         id="path17" /><path
         style="fill:#a3824f;stroke:none"
         d="m 307.42459,1211.1162 1,1 -1,-1 m 8,0 1,1 z"
         id="path16" /><path
         style="fill:#d5c6b0;stroke:none"
         d="m 306.42459,1211.1162 1,1 z"
         id="path15" /><path
         style="fill:#b49a71;stroke:none"
         d="m 315.42459,1210.1162 1,1 z"
         id="path14" /><path
         style="fill:#a3824f;stroke:none"
         d="m 310.42459,1210.1162 1,1 z"
         id="path13" /><path
         style="fill:#d5c6b0;stroke:none"
         d="m 309.42459,1210.1162 1,1 z"
         id="path12" /><path
         style="fill:#c5b090;stroke:none"
         d="m 315.42459,1209.1162 1,1 z"
         id="path11" /><path
         style="fill:#794901;stroke:none"
         d="m 314.42459,1209.1162 c -4.62265,2.0491 -9.90945,2.9611 -13.21063,7.1081 -8.24435,10.3566 -2.59525,32.7871 8.31558,39.6673 13.25202,8.3567 28.87161,5.1268 42.89505,2.2246 v -1 c -16.30081,-6.7866 -27.36377,-14.8415 -34.01001,-32 -2.00546,-5.1775 -1.36404,-11.0622 -3.98999,-16 z"
         id="path10" /><path
         style="fill:#a3824f;stroke:none"
         d="m 313.42459,1209.1162 1,1 z"
         id="path9" /><path
         style="fill:#d5c6b0;stroke:none"
         d="m 312.42459,1209.1162 1,1 z"
         id="path8" /><path
         style="fill:#e5e5e5;stroke:none"
         d="m 315.42459,1208.1162 1,1 z"
         id="path7" /></g><path
       style="fill:#ffffff;stroke:none;stroke-width:1px;stroke-linecap:butt;stroke-linejoin:miter;stroke-opacity:1"
       d="m 694.55918,1205.2637 c 0.0575,-0.01 13.5274,43.203 49.76793,34.6165 36.51191,-8.6508 22.87398,-49.7877 22.87205,-49.8037 0,0 1.85635,27.5624 -24.87104,33.8069 -26.72738,6.2444 -47.76894,-18.6197 -47.76894,-18.6197 z"
       id="path543"
       sodipodi:nodetypes="cscsc" /><path
       style="fill:#ffffff;fill-opacity:1;stroke:none;stroke-width:1px;stroke-linecap:butt;stroke-linejoin:miter;stroke-opacity:1"
       d="m 800.73707,1133.4078 c 0,0 34.6071,17.5198 39.38663,46.9443 12.12518,74.647 -18.4849,140.8098 -19.71687,135.082 0,0 10.05538,-68.0862 3.91287,-118.2489 -4.57924,-37.3964 -23.58731,-63.7826 -23.58263,-63.7774 z"
       id="path544"
       sodipodi:nodetypes="cscsc" /><path
       style="fill:#ffffff;stroke:none;stroke-width:1px;stroke-linecap:butt;stroke-linejoin:miter;stroke-opacity:1;fill-opacity:1"
       d="m 513.83154,1661.6577 c 0,0 -19.07753,21.2138 -12.45087,78.1424 5.40693,46.4501 48.26889,90.4721 48.26889,90.4721 0,0 -22.50708,-44.4935 -30.98601,-86.3305 -10.08979,-49.7853 -4.98405,-82.3688 -4.83201,-82.284 z"
       id="path545"
       sodipodi:nodetypes="cscsc" /><path
       style="fill:#ffffff;stroke:none;stroke-width:1px;stroke-linecap:butt;stroke-linejoin:miter;stroke-opacity:1;fill-opacity:1"
       d="m 620.21178,1787.4183 c 0,0 -15.89072,-33.9513 -9.04997,-48.7987 6.84076,-14.8474 31.30483,-14.7489 31.30483,-14.7489 0,0 -13.28533,11.6239 -16.42464,22.535 -3.13931,10.9111 -5.83022,41.0126 -5.83022,41.0126 z"
       id="path546" /><path
       style="fill:#ffffff;stroke:none;stroke-width:1px;stroke-linecap:butt;stroke-linejoin:miter;stroke-opacity:1;fill-opacity:1"
       d="m 282.53264,1058.4575 c 0,0 32.26149,10.5676 39.80514,33.0547 7.54365,22.487 11.51168,37.3008 -7.15244,57.9555 -18.66412,20.6547 -61.21132,29.4005 -61.21132,29.4005 0,0 60.76422,-45.2988 58.21241,-71.0915 -2.55181,-25.7928 -29.65379,-49.3192 -29.65379,-49.3192 z"
       id="path547" /></g></svg>
