<?xml version="1.0" standalone="no"?>
<!DOCTYPE svg PUBLIC "-//W3C//DTD SVG 20010904//EN"
 "http://www.w3.org/TR/2001/REC-SVG-20010904/DTD/svg10.dtd">
<svg version="1.0" xmlns="http://www.w3.org/2000/svg"
 width="878.000000pt" height="878.000000pt" viewBox="0 0 878.000000 878.000000"
 preserveAspectRatio="xMidYMid meet">
<metadata>
Created by potrace 1.14, written by Peter Selinger 2001-2017
</metadata>
<g transform="translate(0.000000,878.000000) scale(0.100000,-0.100000)"
fill="#000000" stroke="none">
<path d="M4020 8280 c-619 -48 -1176 -194 -1711 -448 -230 -108 -607 -328
-591 -344 6 -6 63 11 153 45 462 174 789 244 1253 267 759 38 1460 -135 2096
-518 327 -196 623 -451 840 -722 443 -554 669 -1235 622 -1870 -59 -785 -446
-1509 -1074 -2011 -543 -434 -1104 -671 -1813 -766 -167 -22 -788 -25 -960 -5
-456 55 -797 157 -1195 356 -752 377 -1274 937 -1565 1681 -32 83 -63 155 -68
160 -14 15 -1 -130 28 -292 93 -531 278 -983 592 -1447 133 -196 264 -357 433
-530 325 -333 668 -585 1105 -812 540 -280 1050 -435 1680 -511 212 -25 842
-25 1060 0 374 44 663 105 981 208 1004 325 1839 960 2353 1789 269 434 433
874 508 1368 25 163 27 202 27 497 1 325 -3 379 -45 635 -159 973 -801 1909
-1724 2516 -603 396 -1288 643 -2037 735 -187 23 -749 34 -948 19z"/>
<path d="M3580 6333 c-178 -29 -297 -66 -425 -131 -305 -157 -518 -436 -601
-787 -29 -122 -27 -493 3 -621 50 -212 139 -378 278 -520 105 -106 178 -157
321 -226 154 -74 300 -108 494 -115 295 -11 657 41 694 99 7 12 3 62 -18 185
-15 92 -29 176 -32 186 -11 36 -39 39 -147 15 -137 -31 -444 -33 -547 -5 -190
53 -333 170 -413 338 -64 135 -82 215 -81 379 1 201 37 344 119 470 134 206
363 303 674 287 100 -5 267 -30 352 -52 15 -4 30 -2 33 3 12 20 86 326 88 363
2 48 -11 64 -70 84 -107 36 -278 55 -492 54 -113 -1 -216 -4 -230 -6z"/>
<path d="M1227 6314 c-297 -40 -543 -156 -727 -343 -270 -272 -379 -622 -324
-1042 21 -160 52 -270 113 -394 132 -268 358 -453 652 -533 212 -58 582 -75
829 -39 244 36 431 85 455 120 13 19 15 95 14 597 -1 316 -4 589 -8 605 l-6
30 -405 3 c-223 1 -415 0 -427 -3 -50 -12 -53 -23 -53 -224 l0 -188 31 -7 c17
-3 93 -6 168 -6 75 0 143 -4 150 -9 22 -14 17 -449 -5 -471 -21 -21 -329 -19
-431 4 -146 32 -282 115 -362 223 -61 81 -117 204 -136 295 -22 113 -20 321 5
425 58 243 225 417 460 482 193 54 443 50 693 -10 71 -17 131 -29 134 -26 9
10 93 358 93 387 0 45 -41 69 -165 94 -221 46 -540 59 -748 30z"/>
<path d="M4723 6309 c-12 -4 -25 -18 -28 -31 -3 -13 -4 -536 -3 -1163 l3
-1140 738 -3 737 -2 -2 227 -3 228 -457 3 -458 2 0 923 c0 782 -2 926 -14 943
-14 18 -29 19 -253 20 -131 1 -248 -2 -260 -7z"/>
</g>
</svg>
