<?xml version="1.0" encoding="UTF-8"?>
<svg id="a" data-name="Layer 1" xmlns="http://www.w3.org/2000/svg" viewBox="0 0 922.15 922.04">
  <path d="m471.86,922.04h-22.54c-.88-.13-1.75-.32-2.63-.39-14.21-1.07-28.45-1.8-42.62-3.26-20.45-2.11-40.57-6.23-60.45-11.47-42.58-11.22-82.73-28.21-120.43-50.95-42.91-25.88-80.63-57.92-113.19-95.99-26.37-30.83-48.3-64.57-65.73-101.23C18.55,604.64,3.91,547.64.6,487.84c-.91-16.39-.62-32.88-.19-49.31.61-23.52,3.9-46.77,8.59-69.81,8.56-42.02,22.8-82.04,42.58-120.08,19.99-38.45,44.97-73.37,74.74-104.85,17.99-19.02,37.5-36.36,58.47-52.05,26.39-19.75,54.56-36.51,84.55-50.21C321.24,17.83,375.73,4.42,432.64.88c20.02-1.25,40.06-1.16,60.09.22,15.43,1.06,30.75,2.86,46,5.42,31.65,5.31,62.39,13.89,92.22,25.72,59.03,23.4,111,57.59,156.02,102.3,29.51,29.3,54.54,62.09,75.14,98.22,20.83,36.53,36.39,75.18,46.56,115.99,6.6,26.47,10.91,53.29,12.65,80.53.19,3.05.55,6.08.82,9.13v45.52c-.14.73-.37,1.45-.4,2.18-.78,18.16-2.94,36.18-6.03,54.08-5.46,31.61-14.14,62.34-26.13,92.1-18.99,47.12-44.99,90-78.1,128.58-18.78,21.88-39.4,41.84-61.88,59.89-35.51,28.5-74.4,51.24-116.64,68.2-29.55,11.87-60.03,20.53-91.42,25.99-21.91,3.81-43.95,6.19-66.19,6.69-1.17.03-2.33.27-3.5.41Zm-14.5-90.85c207.11,2.08,371.12-163.91,374.32-364.59,3.28-205.47-161.4-373.03-366.4-375.93-202.58-2.86-371.83,161.01-374.82,363.42-3.04,206.08,160.93,375.13,366.9,377.09Zm-165,31.9c7.44.39,14.05-2.41,16.83-7.75,5.03-9.68,9.34-19.74,13.83-29.7.23-.5-.46-1.91-1.07-2.21-3.29-1.63-6.69-3.02-10.03-4.53-1.43-.65-2.24-.14-2.81,1.2-.87,2.07-1.8,4.11-2.71,6.17-2.82,6.37-5.62,12.74-8.46,19.1-1.27,2.84-3.19,4.9-6.56,5.01-7.15.24-11.16-5.52-8.31-12.08,3.54-8.18,7.16-16.32,10.81-24.45.77-1.71.56-2.74-1.3-3.49-3.12-1.26-6.19-2.66-9.25-4.08-1.42-.66-2.36-.53-3.04,1.01-3.76,8.65-7.74,17.22-11.29,25.95-2.92,7.19-2.61,14.4,3.22,20.03,6.01,5.81,13.57,8.92,20.15,9.82Zm28.48-5.2c.06,4.86,1.21,9.01,3.62,12.76,4.3,6.68,11.2,8.95,18.41,10.5,8.98,1.94,16.39-1.25,21.35-8.81,1.01-1.54.73-2.4-.67-3.27-1.97-1.23-3.93-2.49-5.88-3.74q-3.42-2.19-6.07.93c-.29.34-.6.67-.91,1-2.81,3.01-6.16,3-9.72,1.69-3.49-1.3-5.29-3.74-5.34-7.5-.06-4.9,1.2-9.51,3.49-13.81,2.02-3.79,5.41-5.54,9.24-5.02,4.44.6,6.85,2.75,7.89,7.36.31,1.37.9,1.87,2.23,1.94,3.15.16,6.29.43,9.43.63,1.42.09,2.15-.63,1.97-2.05-.6-4.54-1.94-8.76-5.28-12.14-4.08-4.14-9.31-5.93-14.77-7.16-9.93-2.23-18.68,1.17-23.69,9.2-3.41,5.46-5.02,11.5-5.32,17.51ZM618.67,85.05c.78,0,1.15,0,1.53,0,6.45.12,10.86-3.09,12.5-9.1,1.5-5.48-.57-10.24-6.47-13.03-8.1-3.83-16.43-7.19-24.89-10.85-5.48,13.17-10.84,26.07-16.29,39.17,4.11,1.71,8.07,3.36,12.16,5.06,2.26-5.39,4.41-10.54,6.56-15.68,3.65.83,4.32,3.51,4.61,6.48.42,4.4.87,8.8,1.37,13.19.06.51.33,1.26.71,1.43,4.21,1.84,8.45,3.58,13.07,5.52-.35-4.04-.72-7.61-.96-11.19-.27-3.92-.77-7.73-3.9-11.01Zm-341.87,11.46c-.08.1.14-.2.39-.48,4.34-4.85,4.6-10.15.78-15.56-3.13-4.43-8.07-5.6-13.83-3.24-1.25.51-2.49,1.05-3.66,1.7-5.3,2.96-10.57,5.97-15.85,8.97-1.54.87-3.07,1.75-4.73,2.7,7.02,12.36,13.9,24.46,20.88,36.74,3.9-2.22,7.64-4.34,11.44-6.5-2.88-5.1-5.62-9.95-8.36-14.81,2.48-1.77,4.72-1.6,6.96-.2,3.94,2.46,7.87,4.95,11.83,7.38.57.35,1.52.79,1.95.56,4.06-2.19,8.04-4.51,12.44-7.02-4.59-2.91-8.71-5.78-13.08-8.17-2.12-1.16-4.74-1.41-7.16-2.08Zm160.36-26.02c8.43-.33,16.56-.11,24.54-1.13,8.02-1.02,12.56-6.14,13.82-14.12.51-3.23.56-6.59.32-9.86-.84-11.47-7.64-17.66-19.1-17.64-5.55,0-11.11.04-16.66.08-1.03,0-2.05.12-2.92.17v42.49Zm104.88,8.49c8.08,2.03,15.84,4.29,23.74,5.86,5.68,1.13,10.73-1.01,14.43-5.52,4.72-5.76,6.48-12.62,6.26-19.93-.22-7.48-4.12-12.53-11.12-15.05-3.23-1.17-6.57-2.05-9.88-2.99-3.93-1.12-7.87-2.16-11.98-3.28-3.81,13.62-7.56,27-11.45,40.92Zm112.73,43.59c3.5.1,7.15-.94,10.25-3.38,5.69-4.47,9.19-10.36,10.62-17.45,1.21-5.99-.5-11.3-4.75-15.43-2.79-2.71-6.15-5.08-9.66-6.76-9.91-4.77-19.19-2.18-25.4,6.84-4.06,5.9-6.68,12.25-4.59,19.64,2.43,8.56,13.34,16.38,23.51,16.53ZM486.29,28.2c-1.45,13.8-2.85,27.3-4.3,40.79-.17,1.62.87,1.46,1.81,1.56,8.5.9,17,1.81,25.51,2.69,2.65.27,5.31.47,8.08.71.34-3.33.65-6.35.97-9.49-7.59-.81-14.86-1.59-22.32-2.39.29-2.87.54-5.45.81-8.13,6.82.7,13.42,1.37,20.23,2.07.29-2.99.56-5.72.85-8.62-6.78-.73-13.31-1.43-20.1-2.16.23-2.29.44-4.4.66-6.54,7.35.77,14.42,1.51,21.77,2.28.31-3.14.59-6.06.88-9.07-11.76-1.24-23.16-2.44-34.84-3.68Zm-100.95,22.22c-.38-2.29-.72-4.32-1.08-6.49,7.28-1.33,14.31-2.61,21.47-3.91-.57-3.1-1.08-5.87-1.64-8.92-11.59,2.09-23.01,4.15-34.5,6.22,2.54,14.04,5.01,27.72,7.52,41.63,11.8-2.12,23.33-4.2,35.13-6.32-.58-3.21-1.13-6.25-1.72-9.48-7.55,1.34-14.8,2.62-22.18,3.93-.48-2.86-.91-5.4-1.36-8.07,6.81-1.23,13.32-2.41,19.93-3.6-.55-3-1.04-5.68-1.56-8.53-6.71,1.19-13.18,2.34-19.99,3.55Zm-183.42,67.16c8.38,11.43,16.64,22.71,25,34.11,9.71-7.1,19.18-14.03,28.76-21.05-1.98-2.7-3.82-5.22-5.68-7.77-6.14,4.48-12.11,8.84-18.19,13.27-1.68-2.3-3.21-4.4-4.85-6.64,5.53-4.07,10.93-8.04,16.37-12.04-1.78-2.41-3.41-4.62-5.13-6.95-5.54,4.04-10.91,7.96-16.39,11.96-1.3-1.79-2.53-3.48-3.88-5.34,5.88-4.33,11.7-8.62,17.63-12.99-1.9-2.55-3.61-4.86-5.4-7.27-9.56,7-18.86,13.81-28.25,20.69Zm352.8,754.39c.03,5.33,4.13,9.65,9.75,9.61,6.27-.04,11.77-2.12,15.84-7.13,1.1-1.35,1.88-1.34,3.05-.06.52.57,1.69,1.02,2.41.85,2.84-.65,5.62-1.53,8.4-2.41,1.45-.46,1.77-1.31.95-2.75-.92-1.61-1.73-3.32-2.3-5.08-1.44-4.49-2.69-9.03-4.07-13.54-2.47-8.1-6.86-11.02-15.15-9.62-6.14,1.04-12.18,2.64-17.37,6.34-2.91,2.08-4.48,4.94-4.66,8.57-.09,1.84.71,2.49,2.45,2.16,2.94-.56,5.9-1.05,8.81-1.76.7-.17,1.49-.97,1.76-1.66,1.12-2.88,4.95-5.5,7.97-4.87,1.02.21,2.01,1.38,2.62,2.36.2.32-.69,1.63-1.36,2.12-1.56,1.16-3.26,2.12-4.93,3.13-3.71,2.25-7.52,4.34-11.11,6.77-2.23,1.5-3.16,3.93-3.08,6.96Zm-65.22,3.71s-.05,0-.08,0c0,1.43.1,2.86-.02,4.27-.24,2.81-2.13,4.62-4.78,4.72-2.86.11-4.17-1.03-4.75-4.22-.16-.88-.24-1.78-.3-2.68-.35-5.09-.72-10.18-.99-15.27-.11-2.1-1-2.91-3.13-2.66-2.9.35-5.82.52-8.74.72-1.42.1-1.96.77-1.85,2.19.55,7.26.97,14.52,1.59,21.77.62,7.28,5.21,11.59,11.97,11.31,3.84-.16,7.37-1.16,10.15-4.1,1.51-1.6,2.25-1.27,3.13.75.29.68,1.34,1.47,2.03,1.46,2.84-.05,5.68-.42,8.52-.59,1.7-.1,2.1-.99,1.99-2.54-.75-10.1-1.48-20.2-2.14-30.3-.11-1.75-.79-2.44-2.51-2.29-2.91.26-5.83.56-8.75.64-1.92.06-2.47.89-2.32,2.67.38,4.71.67,9.43,1,14.14Zm141.52-42.16c.07-2.96,1.57-4.97,3.55-5.58,2.12-.65,3.88,0,5.2,2.06.65,1,1.19,2.08,1.72,3.15,2.28,4.55,4.57,9.1,6.79,13.68.7,1.45,1.59,1.85,3.04,1.09,2.79-1.45,5.58-2.9,8.41-4.25,1.34-.64,1.53-1.45.89-2.69-1.34-2.6-2.6-5.23-3.95-7.82-2.41-4.65-4.65-9.42-7.36-13.88-2.53-4.15-6.76-5.69-11.27-4.53-4.71,1.22-8.44,3.76-10.45,8.42-1,2.32-1.5,2.29-3.19.58-.5-.5-1.79-.75-2.44-.47-2.62,1.11-5.12,2.48-7.68,3.75-1.21.6-1.62,1.34-.94,2.69,4.68,9.29,9.31,18.61,13.94,27.93.61,1.23,1.43,1.6,2.73.93,2.79-1.44,5.61-2.84,8.43-4.22,1.48-.72,1.59-1.62.85-3.06-2.28-4.39-4.47-8.83-6.6-13.3-.79-1.67-1.31-3.47-1.68-4.47ZM323.3,63.53c-2.34-2.84-4.95-4.96-8.23-5.97-8.22-2.54-15.13.69-21.53,5.42-4.8,3.55-7.09,8.6-6.77,14.47.38,7.01,2.99,13.31,7.92,18.41,3.33,3.44,7.48,5.68,12.37,5.61,6.73-.1,12.8-2.48,17.95-6.79,4.54-3.8,6.52-11.22,4.65-16.58-3.77.39-7.6.79-11.45,1.2,0,1.65.07,3.08-.01,4.49-.22,3.5-1.9,5.45-5.66,6.68-3.02.99-5.63.31-7.69-2.14-2.7-3.23-4.34-7.03-5.09-11.12-.77-4.18.75-7.31,3.95-8.97,3.45-1.8,6.32-1.29,9.57,1.7.15.14.39.18.7.31,3.06-2.19,6.14-4.4,9.33-6.69Zm-121.04,69.61c-5.72-3.1-11.48-4.31-17.03-.82-3.62,2.28-7.04,5.17-9.79,8.43-4.21,4.99-5.51,10.99-3.03,17.28,2.81,7.12,7.72,12.52,14.74,15.63,4.83,2.13,9.91,2.38,14.79-.16,5.02-2.61,9.21-6.2,12.17-11.06,3.31-5.43,2.81-13.37-1.03-17.71-3.44,1.68-6.9,3.38-10.33,5.05.61,1.56,1.23,2.85,1.62,4.2.89,3.16-.13,5.78-2.61,7.81-2.28,1.88-4.85,2.82-7.68,1.32-4.58-2.43-8.1-5.99-10.15-10.75-1.9-4.41.75-9.55,5.47-10.48,1.98-.39,4.16.22,6.55.39,1.9-2.75,4.06-5.88,6.31-9.13Zm178.82,706.72c-1.45-.15-1.94.54-2.16,1.93-2.22,14.43-4.46,28.86-6.81,43.27-.33,2.04.33,2.69,2.19,2.96,5.04.72,10.06,1.56,15.09,2.35,5.85.92,11.7,1.81,17.53,2.78,1.98.33,3.14-.06,3.27-2.37.11-1.93.57-3.85.88-5.77.53-3.3.35-3.48-2.94-3.97-5.78-.86-11.54-1.84-17.32-2.65-1.8-.25-2.28-1-1.92-2.7.37-1.75.55-3.55.83-5.32,1.37-8.73,2.76-17.46,4.13-26.19.19-1.22.08-2.29-1.45-2.53-3.77-.6-7.54-1.19-11.31-1.79Zm58.26,56.14c1.05-.12,2.87-.19,4.62-.57,7.25-1.58,12.09-5.91,13.84-13.16,1.97-8.13-.71-15.45-7.02-19.65-5.28-3.52-11.26-4.07-17.32-3.17-7.08,1.05-12.25,4.92-14.52,11.85-2.29,6.99-1.27,13.48,4.04,18.95,4.28,4.41,9.76,5.57,16.36,5.76ZM733.3,144.88c2.33-2.76,4.49-5.31,6.76-8-10.15-8.54-20.17-16.98-30.39-25.57-2.32,2.75-4.51,5.35-6.77,8.03,3.48,2.95,6.78,5.74,10.13,8.58-6.87,8.17-13.61,16.18-20.46,24.32,3.42,2.87,6.66,5.59,10.03,8.41,6.93-8.21,13.68-16.22,20.51-24.31,3.41,2.86,6.67,5.61,10.17,8.55Zm-187.5,707.68c.07-1.63-.9-1.96-2.19-1.74-2.21.38-4.41.83-6.62,1.24-4.34.81-4.27.82-4.76,5.11-.52,4.61-1.14,9.22-1.82,13.81-.09.61-.75,1.15-1.15,1.72-.52-.36-1.11-.66-1.54-1.11-.35-.36-.54-.89-.78-1.36-2.27-4.39-4.48-8.8-6.86-13.13-.4-.73-1.55-1.6-2.25-1.52-3.26.38-6.5,1.03-9.73,1.66-1.85.36-2.24,1.25-1.23,2.83,6.07,9.46,12.14,18.91,18.32,28.3.44.67,1.75,1.2,2.57,1.1,2.74-.32,5.43-1.04,8.16-1.45,1.51-.23,2.12-.97,2.44-2.41,1.39-6.44,2.87-12.85,4.32-19.28,1.04-4.6,2.08-9.19,3.12-13.76ZM340.3,89.43c10.9-3.2,21.43-6.3,32.18-9.46-1.06-3.47-2.04-6.7-3.05-10.01-6.69,1.95-13.04,3.81-19.48,5.69-3.03-10.29-5.99-20.31-9-30.51-4.28,1.27-8.33,2.47-12.58,3.73,4,13.59,7.94,26.98,11.93,40.57Zm351,9.19c-8.22,11.68-16.26,23.1-24.35,34.61,3.71,2.59,7.18,5.01,10.77,7.53,8.2-11.66,16.24-23.08,24.33-34.59-3.68-2.58-7.1-4.98-10.76-7.55Zm-73.68,764.27c-.22-.64-.32-.99-.46-1.34-3.79-9.6-7.6-19.19-11.36-28.8-.61-1.56-1.56-1.83-2.99-1.23-1.72.73-3.45,1.44-5.18,2.13-5.19,2.08-5.23,2.09-3.22,7.21,3.33,8.49,6.7,16.97,10.05,25.46.45,1.14,1.04,2.07,2.49,1.5,3.13-1.23,6.26-2.45,9.36-3.75.53-.22.91-.81,1.31-1.19Zm-26.79-31.04c3.4-1.31,5.84-2.25,8.29-3.18q4.39-1.68,2.67-5.96c-.33-.83-.69-1.66-1-2.5-.48-1.33-1.31-1.69-2.63-1.15-2.91,1.19-5.84,2.34-8.77,3.47-1.28.49-1.78,1.29-1.24,2.62.71,1.73,1.42,3.46,2.12,5.19.25.63.47,1.27.56,1.52Z" style="fill: #581633; stroke-width: 0px;"/>
  <path d="m252.18,333.94c1.88,5.17,3.65,10.08,5.44,14.99,12.62,34.54,25.27,69.07,37.88,103.61,16.48,45.16,32.94,90.34,49.41,135.51.15.42.33.84.51,1.25,1.82,4.35,3.41,5.43,8.33,5.37-4.07,4.04-7.87,7.97-11.84,11.71-12.5,11.8-26.09,22.11-41.66,29.62-21.33,10.28-43.77,13.64-67.22,10.76-24.74-3.04-46.05-13.69-65.12-29.31-8.26-6.76-15.87-14.2-23.25-22.62,5.97.54,7.25-3.55,8.75-7.69,9.7-26.76,19.48-53.48,29.23-80.21,14.97-41.02,29.95-82.03,44.91-123.06,6.08-16.68,12.11-33.37,18.18-50.05,2.04-5.61,4.29-7.16,10.25-7.16,118.09.01,236.18.03,354.27.04,17.95,0,35.91-.02,53.86-.03,4.99,0,6.32.88,8.01,5.51,15.73,43.06,31.44,86.12,47.17,129.18,13.05,35.74,26.12,71.47,39.18,107.2,2.39,6.54,4.79,13.08,7.11,19.64,2.01,5.7,3.39,6.62,9.65,5.8-.43.78-.64,1.46-1.09,1.91-12.91,12.74-26.45,24.68-42.17,33.93-21.11,12.42-43.75,19.14-68.39,18.04-15.23-.68-29.74-4.57-43.57-10.91-19.83-9.09-37.2-21.56-51.52-38.13-1.31-1.51-2.51-3.12-3.89-4.86.6,0,.9-.02,1.19,0,4.36.42,5.92-.56,7.44-4.74,2.97-8.17,5.9-16.35,8.89-24.51,15.12-41.35,30.25-82.7,45.38-124.05,12.35-33.75,24.71-67.5,37.05-101.26.64-1.74,1.12-3.53,1.73-5.48H252.18Zm419.05,259.9h93.84c-30.98-84.77-61.88-169.34-92.9-254.22-1.3,1.76-1.88,243.92-.94,254.22Zm-420.76.15h93.96c-.26-.85-.44-1.56-.69-2.24-15.73-43.04-31.46-86.07-47.19-129.11-13.21-36.15-26.41-72.31-39.62-108.47-1.54-4.22-3.05-8.45-4.64-12.65-.2-.52-.8-.9-1.21-1.34-.21.57-.42,1.14-.61,1.72-.04.13,0,.3,0,.45,0,82.55,0,165.1,0,247.65v3.99Zm-3.3,0v-254.02c-.25-.06-.5-.12-.76-.17-30.93,84.67-61.85,169.34-92.85,254.2h93.6Zm420.56-.08v-254.15c-.22-.05-.45-.1-.67-.15-30.95,84.72-61.91,169.43-92.92,254.3h93.59Zm-328.82,6.89c-1.16-.06-1.72-.12-2.27-.12-58.12,0-116.23-.01-174.35.01-.72,0-1.45.43-2.17.66.37.72.58,1.63,1.14,2.14,9.79,8.93,20.26,16.96,31.94,23.25,31.29,16.87,63.61,19.47,96.87,6.39,16.82-6.61,31.27-17.03,44.84-28.77,1.21-1.05,2.39-2.13,4.01-3.57Zm241.07.38c-.1.16-.2.32-.3.48,4.34,3.65,8.59,7.43,13.05,10.94,18.71,14.73,39.39,25.02,63.36,27.88,16.21,1.93,32.03.47,47.5-4.74,15.1-5.09,28.51-13.22,40.89-23.13,4.42-3.54,8.63-7.33,13.44-11.43h-177.93Z" style="fill: #581633; stroke-width: 0px;"/>
  <path d="m462.73,764.35c-4.38-9.16-8.63-17.98-12.82-26.81-4.2-8.87-8.44-17.72-12.46-26.67-.95-2.13-1.54-4.62-1.54-6.94-.08-121.25-.08-242.49-.09-363.74,0-1.41,0-2.82,0-4.37h53.98c0,.73,0,1.51,0,2.29,0,87.82,0,175.63,0,263.45,0,31.93-.02,63.85.08,95.78.02,6.89-1.39,13.28-4.42,19.5-6.96,14.27-13.63,28.69-20.43,43.04-.66,1.4-1.42,2.76-2.3,4.46Zm-3.91-24.93v-396.64h-16.32c-.04.78-.11,1.45-.11,2.11.03,11.49.1,22.99.09,34.48-.06,84.36-.13,168.72-.21,253.07-.02,18.25-.18,36.51-.08,54.76.06,10.25,1.15,20.42,5.34,29.92,3.2,7.26,6.85,14.31,10.32,21.44.11.22.4.36.97.85Zm7.89-396.82v395.63c.76-.64,1.19-1.32,1.56-2.04,2.59-5.07,5.01-10.24,7.79-15.2,5.17-9.22,7.14-19.1,7.13-29.59-.11-81.27-.14-162.54-.18-243.8-.02-34.1,0-68.2,0-102.3,0-.87-.09-1.75-.15-2.69h-16.15Z" style="fill: #581633; stroke-width: 0px;"/>
  <path d="m463.1,324.58c-15.62,0-31.23,0-46.85,0-8.13,0-9.14-.96-8.77-9.06.13-2.9.73-5.79,1.31-8.65.14-.69.93-1.58,1.59-1.77,1.49-.43,3.09-.63,4.65-.67,5.4-.13,10.81-.18,16.21-.2,26.05-.05,52.1-.08,78.16-.12.83,0,1.65-.03,2.48.03,4.82.33,6.72,2.25,6.88,7.06.07,2.25.08,4.51-.06,6.75-.27,4.35-2.19,6.23-6.49,6.42-2.92.13-5.85.2-8.78.2-13.44.02-26.88,0-40.32,0Z" style="fill: #581633; stroke-width: 0px;"/>
  <path d="m435.98,239.74c11.46,10.16,22.7,20.1,33.92,30.06,5.39,4.78,10.78,9.56,16.1,14.41,3.4,3.1,4.28,7.04,3.5,11.48-.48,2.71-1.99,4.48-4.63,5.22-4.87,1.38-9.3,1.18-13.38-2.55-11.18-10.23-22.57-20.23-33.79-30.42-1-.91-1.85-2.53-1.88-3.85-.19-7.8-.11-15.61-.12-23.42,0-.2.11-.4.27-.93Z" style="fill: #581633; stroke-width: 0px;"/>
  <path d="m489.51,279.91c-4.13-3.62-7.89-6.9-11.63-10.21-12.85-11.4-25.67-22.83-38.54-34.21-2.93-2.59-4.07-5.64-3.83-9.57.31-5.01.14-10.05.18-15.08,0-.71,0-1.43,0-2.7,2.26,1.96,4.12,3.55,5.94,5.16,14.6,12.93,29.17,25.9,43.8,38.79,3.18,2.8,4.52,6.03,4.22,10.31-.35,4.93-.12,9.9-.15,14.85,0,.72,0,1.43,0,2.65Z" style="fill: #581633; stroke-width: 0px;"/>
  <path d="m489.44,248.47c-4.72-4.16-9.06-7.93-13.35-11.76-12.1-10.78-24.18-21.59-36.27-32.39-.45-.4-.91-.79-1.31-1.24-3.86-4.35-2.74-7.59,2.65-8.74,4.5-.96,9.4-.51,14.06-.05,1.84.18,3.69,1.9,5.23,3.25,8.86,7.77,17.61,15.66,26.44,23.46,1.75,1.54,2.64,3.23,2.59,5.65-.13,7.05-.05,14.11-.05,21.8Z" style="fill: #581633; stroke-width: 0px;"/>
  <path d="m447.46,172.9c0-9.2,5.87-15.14,14.97-15.17,8.97-.03,15.29,6.17,15.3,14.99,0,8.76-6.47,15.43-15.01,15.46-8.96.03-15.26-6.28-15.26-15.29Z" style="fill: #581633; stroke-width: 0px;"/>
  <path d="m435.81,273.8c10.27,9.12,20.14,17.88,30.2,26.82-.46.18-.7.36-.93.36-8.03,0-16.07,0-24.1-.07-2.96-.02-5.05-1.68-5.11-4.57-.17-7.33-.06-14.67-.06-22.54Z" style="fill: #581633; stroke-width: 0px;"/>
  <path d="m488.89,215.34c-7.86-6.9-15.72-13.79-23.69-20.79,6.97,0,13.68-.07,20.38.05,1.79.03,3.75,2.83,3.8,5.28.11,5.02.03,10.05.03,15.07l-.52.39Z" style="fill: #581633; stroke-width: 0px;"/>
  <path d="m606.84,73.21c1.21-2.91,2.24-5.37,3.36-8.04,2.49,1.1,4.91,2.04,7.2,3.21,2.27,1.16,2.92,2.91,2.17,5.01-.71,1.98-2.6,3.03-4.9,2.41-2.57-.69-5.06-1.66-7.82-2.58Z" style="fill: #581633; stroke-width: 0px;"/>
  <path d="m259.94,99.18c-1.56-2.74-2.88-5.07-4.39-7.73,2.7-1.37,5.21-2.8,7.85-3.94,1.81-.78,3.39,0,4.42,1.65,1.08,1.74,1.04,3.55-.58,4.85-2.26,1.8-4.71,3.36-7.29,5.17Z" style="fill: #581633; stroke-width: 0px;"/>
  <path d="m450.31,60.23v-23.05c2.52.27,4.99.31,7.34.84,2.69.6,4.3,2.72,4.54,5.31.35,3.7.48,7.48.13,11.16-.35,3.75-2.63,5.52-6.34,5.72-1.79.1-3.59.02-5.69.02Z" style="fill: #581633; stroke-width: 0px;"/>
  <path d="m557.38,72.97c2.08-7.44,4.1-14.68,6.13-21.94.37.03.59.02.8.06,8.63,1.89,10.62,5.01,8.46,13.56-.55,2.16-1.32,4.31-2.31,6.3-1.57,3.15-4.04,4.19-7.48,3.44-1.81-.39-3.59-.91-5.6-1.43Z" style="fill: #581633; stroke-width: 0px;"/>
  <path d="m663.44,97.48c-.86,4.9-3.39,9.68-8,13.02-2.93,2.12-6.13,1.24-9-.72-3.12-2.13-4.06-5.2-3.19-8.66,1.06-4.19,3.13-7.93,6.44-10.84,2.54-2.23,5.44-2.67,8.54-1.2,3.23,1.53,5.23,3.91,5.2,8.39Z" style="fill: #581633; stroke-width: 0px;"/>
  <path d="m578.69,864.77c-.02,4.22-4.12,8.06-7.68,7.52-1.06-.16-2.48-1.16-2.8-2.09-.35-1.04-.06-2.93.69-3.59,2.24-1.95,4.81-3.54,7.35-5.1.34-.21,1.59.34,1.85.83.46.89.5,2.01.59,2.44Z" style="fill: #581633; stroke-width: 0px;"/>
  <path d="m444.92,877.33c-.32,1.59-.55,3.38-1.05,5.08-.8,2.69-3.18,4.36-5.87,4.37-2.6.01-4.9-1.55-5.81-4.16-1.19-3.45-1.01-6.94.36-10.29,1.08-2.63,3.67-4.11,6.25-3.85,2.66.26,4.84,2.15,5.49,4.88.29,1.23.4,2.5.62,3.97Z" style="fill: #581633; stroke-width: 0px;"/>
</svg>