<?xml version="1.0" encoding="UTF-8"?>
<svg id="a" data-name="Layer 1" xmlns="http://www.w3.org/2000/svg" viewBox="0 0 883.41 644.02">
  <path d="m264.51,293.71c-28.6-18.41-57.37-36.55-85.71-55.34-7.9-5.24-15.75-7.95-25.07-6.98-3.05.32-6.16.05-9.64.05v65.8h125.11c-2.01-1.52-3.29-2.62-4.69-3.52Z" style="fill: #166232; stroke-width: 0px;"/>
  <path d="m825.29,164.76c-.68-1.38-1.57-2.71-2.68-4.03-2.47-2.95-4.98-5.85-7.51-8.71-48.69-57.94-123.79-108.06-226.47-133.03-11.96-3.1-24.06-5.8-36.3-8.1-21.59-4.05-43.35-6.14-65.14-8.5-24.07-2.6-48.13-3.01-72.21-1.58-17.88,1.06-35.7,3.21-53.55,4.94-29.62,2.86-58.65,9.29-87.17,17.24-25.5,7.11-49.96,17.6-73.98,28.9-33.27,15.65-64.48,34.58-92.64,58.28-9.58,8.06-18.46,16.97-27.66,25.49v1.85C30.68,187.9,0,251.25,0,325.68s31.01,133.59,79.99,182.6v.57c.6.4,1.29.7,1.79,1.21,42.11,42.5,91.93,72.99,147.39,94.69,35.03,13.71,70.97,24.33,108.1,30.39,8.76,1.43,17.59,2.42,26.43,3.36,9.47,1.34,18.93,2.43,28.35,3.28,14.99,1.86,30.02,2.33,45.06,2.23,1.21,0,2.42.02,3.63.02,270.17,0,442.67-159.35,442.67-322.01,0-49.76-19.12-105.98-58.11-157.25Zm-40.69-21.69c6.78,2.49,12.26,6.83,16.16,12.94,3.54,5.55,3.54,11.34-.27,16.7-2.92,4.11-6.39,7.83-9.7,11.83-6.58-5.34-12.93-10.49-19.49-15.82-1.82,2.38-3.55,4.56-5.19,6.81-1.64,2.27-1.56,4.37.79,6.2,2.3,1.8,4.2,1.06,5.94-.84.58-.63,1.07-1.33,1.68-2.09,4.14,3.43,7.96,6.59,11.74,9.72-2.75,5.79-10.04,8.72-16.61,6.5-7.09-2.39-12.63-6.99-16.8-13.13-3-4.42-3.2-9.43-.4-13.79,4.72-7.34,9.68-14.6,15.24-21.31,4.33-5.23,10.57-6.06,16.91-3.74Zm-161.65,172.33c15.02-15.78,33.69-24.98,55.09-28.53,6.26-1.04,12.66-1.28,18.99-1.88,23.44.46,45.19,5.87,64.1,20.3,12.23,9.33,21.94,20.63,25.64,35.96,4.9,20.33-.08,38.26-14.11,53.7-14.61,16.08-33.01,25.13-54.19,28.74-22.33,3.8-44.15,1.76-65.11-7.03-13.69-5.74-25.38-14.39-34.46-26.21-17.52-22.81-15.9-54.09,4.04-75.05Zm-33.59-1.14c-.39,0-.77-.13-1.82-.31,6.01-4.7,11.65-8.95,17.1-13.43,2.38-1.95,4.78-2.84,7.9-2.74,6.88.21,13.78.07,20.66.07.26.31.51.61.77.92-1,.7-2.06,1.32-2.97,2.11-4.57,3.95-9.06,8-13.67,11.89-.9.76-2.23,1.42-3.37,1.43-8.2.12-16.4.07-24.6.05Zm159.14-197.23c-3.18,5.02-6.22,9.83-9.28,14.63-3.36,5.28-6.77,10.54-10.08,15.85-2.02,3.25-1.77,5.1.68,6.71,2.38,1.56,4.41,1.08,6.5-2,6.05-8.94,11.98-17.97,17.95-26.96.64-.96,1.31-1.9,2.13-3.08,4.76,3.27,9.25,6.36,14.01,9.62-10.02,14.19-19.83,28.09-29.82,42.23-4.15-2.86-8.04-5.55-12.06-8.33.43-1.12.81-2.1,1.31-3.41-5.34,1.29-9.66-.63-13.64-3.63-4.67-3.52-6.05-8.03-3.77-13.43,1.25-2.96,3.01-5.72,4.65-8.51,5.59-9.46,11.22-18.89,17-28.6,4.87,3.01,9.52,5.88,14.41,8.9Zm-52.53-28.57c6.77.36,12.47,3.21,15.77,10.29,1.17-2.11,2.45-2.05,4.25-.94,3.66,2.24,7.48,4.22,11.43,6.42-11.43,19.83-22.71,39.41-34.15,59.25-4.29-2.38-8.39-4.65-12.86-7.12,3.07-5.78,6.07-11.43,9.34-17.59-4.94,1.18-9.01.23-12.8-2.18-4.97-3.16-7.09-7.67-5.32-13.3,1.54-4.9,3.83-9.58,5.92-14.3,1.75-3.94,3.58-7.85,5.58-11.67,2.7-5.16,6.63-9.21,12.83-8.87Zm-20.86-28.82c5.29,2.34,10.36,4.59,15.72,6.96-1.71,3.69-3.2,6.91-4.87,10.51-5.1-2.24-10.08-4.42-15.4-6.75,1.51-3.56,2.96-6.97,4.56-10.72Zm8.69,22c-7.29,15.79-14.45,31.3-21.67,46.95-4.7-2.09-9.11-4.05-13.85-6.15,6.81-15.99,13.46-31.62,20.25-47.56,5.22,2.32,10.1,4.48,15.27,6.76Zm-69.09-26.38v3.61c3.97-1.79,7.89-1.96,11.88-.6,4.04,1.38,7.52,3.34,8.87,8.19,5.78-2.66,11.26-1.74,16.51,1.1,5.49,2.96,7.91,7.83,5.76,13.56-4.84,12.9-10.17,25.62-15.44,38.78-4.77-1.85-9.24-3.59-14-5.43,3.19-8.53,6.31-16.89,9.44-25.24,1.13-3.03,2.3-6.05,3.42-9.08.86-2.32,1.12-4.41-1.81-5.6-3.09-1.25-4.53.58-5.44,2.94-2.12,5.54-4.05,11.15-6.05,16.73-2.07,5.78-4.13,11.55-6.34,17.73-4.69-1.58-9.22-3.12-14.11-4.77,1.26-3.96,2.43-7.72,3.65-11.48,2.52-7.8,5.04-15.59,7.59-23.38.78-2.37,1.09-4.42-1.94-5.5-3.14-1.12-4.46.66-5.24,3.15-3.43,10.9-6.79,21.83-10.18,32.74-.19.61-.44,1.2-.83,2.23-4.67-1.34-9.09-2.62-14.08-4.05,4.54-16.54,9.05-32.99,13.68-49.85,4.94,1.42,9.75,2.8,14.67,4.22Zm-68.13,21.35c1.22-6.25,2.51-15.25,4.84-23.97,1.81-6.78,7.63-9.41,14.25-9.69,6.37-.26,12.46,1.19,17.94,4.58,6.14,3.79,8.54,9.7,6.83,16.7-1.49,6.07-3.16,12.1-4.74,18.15-2.94,11.29-9.09,15.59-20.69,13.74-4.06-.65-8.17-2.11-11.81-4.03-4.88-2.58-6.89-7.24-6.62-15.48Zm-40.75-42.79c5.21.56,10.2,1.09,15.32,1.63.15,1.3.27,2.34.42,3.71,4.72-3.31,9.81-3.6,15.11-2.2,6.05,1.6,9.39,5.54,8.78,11.79-.76,7.71-2.26,15.35-3.52,23.01-1,6.05-2.11,12.08-3.24,18.51-5.01-.79-9.66-1.53-14.65-2.32.91-6.59,1.78-12.97,2.67-19.34.77-5.56,1.67-11.1,2.3-16.67.42-3.77-.69-5.14-3.78-5.47-2.79-.3-4.46,1.11-4.96,4.72-1.02,7.38-1.84,14.78-2.76,22.17-.55,4.45-1.14,8.9-1.72,13.51-5.09-.55-9.76-1.06-14.75-1.6,1.61-17.26,3.19-34.19,4.8-51.46Zm-47.68,12.95c.18-7.52,3.83-12.33,11.11-14.44,7.09-2.06,14.13-1.64,20.86,1.39,5.64,2.54,8.8,7.11,8.53,13.32-.36,8.19-.95,16.39-2.04,24.51-.86,6.48-4.98,11.06-11.45,12.05-5,.77-10.38.74-15.33-.24-8.22-1.63-11.92-7.46-11.98-16.81-.02-3.35,0-6.7,0-10.04.1,0,.2,0,.29,0,0-3.24-.07-6.48.01-9.72Zm-17.48-15.17c.37,2.19.67,4.03,1,5.99,4.59-5.45,6.95-6.66,13.2-6.73v15.15c-1.26.07-2.42.13-3.58.21-6.21.45-9.03,3.33-8.96,9.53.09,7.88.38,15.76.58,23.63.03,1.16,0,2.33,0,3.81-4.94.25-9.63.49-14.72.75-.95-17.28-1.88-34.24-2.83-51.65,5.16-.23,10.16-.45,15.31-.68Zm119.26,226.04c11.02.02,21.75,1.78,31.63,7.03,7.16,3.81,12.68,9.05,13.76,17.63.89,7.1-2.11,12.85-6.67,17.91-7.95,8.82-18.33,12.61-29.79,14.03-2.02.25-4.04.53-6.54.86.52,5.97.95,11.85,1.57,17.71.94,8.91,1.94,17.82,3.11,26.7.24,1.81,1,3.77,2.12,5.19,5.56,7.04,11.31,13.91,17.32,21.24-1.17.14-1.95.31-2.72.32-13.19.02-26.39-.07-39.58.08-2.81.03-3.49-1-3.48-3.54.03-16.54-.03-33.09-.06-49.63,0-5.93,0-11.85,0-17.99h-61.09c21.57,28.32,42.75,56.13,64.3,84.42-1.45.1-2.17.18-2.88.18-9.19,0-18.39.09-27.58-.09-1.33-.03-3.14-.94-3.88-2.02-31-45.69-61.9-91.44-92.8-137.19-.45-.67-.78-1.42-1.59-2.93,2.84,0,5.06,0,7.29,0,45.85.02,91.71,0,137.56.08Zm-260.49,165.28c-23.54-10.37-43.43-25.8-61.04-44.23-12.15-12.72-24.6-25.31-32.69-41.29-.86-1.69-1.67-3.58-1.8-5.42-.26-3.61,2.56-6.29,6.16-6.29,57,0,113.99-.01,170.99.05,1.27,0,2.85.44,3.76,1.26,11.95,10.81,23.81,21.72,35.68,32.61.38.35.65.8,1.41,1.74-1.44.33-2.46.76-3.49.77-8.65.05-17.31.11-25.96-.04-1.45-.03-3.15-.73-4.29-1.66-5.36-4.37-10.51-9.01-15.87-13.37-1.13-.92-2.85-1.57-4.3-1.57-34.93-.09-69.87-.09-104.8-.06-2.25,0-4.57.16-6.73.71-4.49,1.15-7.04,4.91-5.16,9.1,2.21,4.92,4.99,10.02,8.8,13.73,23.78,23.21,51.75,38.45,85.16,42.15,8.87.98,17.93.32,26.91.32,24.12.02,48.24.02,72.35-.05,1.59,0,3.18-.66,4.77-1.01-1.03-1.12-1.93-2.4-3.11-3.32-6.32-4.91-12.64-9.81-19.11-14.5-1.43-1.04-3.48-1.62-5.28-1.7-7.77-.32-15.59.09-23.31-.63-10.88-1.02-17.85-8.24-24.61-17.27,1.96,0,3.01,0,4.06,0,18.49,0,36.99-.04,55.48.07,1.66.01,3.62.69,4.93,1.72,23.72,18.58,48.56,35.36,76.41,47.23,8.31,3.54,16.86,6.53,25.79,9.96h-239.31c2.1-1.16,3.59-1.98,5.67-3.13-2.67-2.16-4.78-4.72-7.48-5.91ZM398.18,34.53c1.62.41,3.07,1.45,4.83,2.32-.08-3.01,1.93-3.3,4.5-3.33,3.43-.04,6.86-.51,10.59-.83.18,1.22.39,2.24.46,3.28.96,14.55,1.91,29.1,2.84,43.65.11,1.72.11,3.46.12,5.19.05,12.09-5.04,17.65-17.19,18.44-3.41.22-6.96.23-10.27-.49-5.67-1.24-8.58-5.02-9.39-11.38,4.45-.6,8.9-1.26,13.37-1.73.46-.05.94,1.25,1.59,1.58,1.41.72,3.11,1.9,4.37,1.59,1.22-.3,2.73-2.16,2.89-3.48.33-2.84-.13-5.78-.29-9.36-4.9,5.51-10.49,6.21-16.28,4.73-5.69-1.45-7.5-6.38-8.56-11.53-.54-2.64-.88-5.32-1.28-7.99-.64-4.27-1.22-8.54-1.87-12.81-1.87-12.39,7.45-20.94,19.58-17.85Zm-38.37-8.82c7.34,20.89,14.65,41.66,22.08,62.8-5.52.93-10.27,1.72-15.43,2.59-1.39-4.09-2.94-8.07-4.05-12.18-.62-2.3-1.78-2.62-3.74-2.16-2.08.49-4.18.92-6.48,1.42.37,4.43.68,8.71,1.12,12.98.19,1.86-.39,2.72-2.3,3.08-4,.74-7.96,1.71-12.64,2.75-1.16-22.19-2.3-44.04-3.47-66.34,8.3-1.64,16.28-3.22,24.9-4.93Zm-77.73,34.55c6.15-4.55,13.11-6.54,20.71-5.75,4.32.45,8.13,2.57,9.87,6.52,2.49,5.65,4.18,11.65,6.27,17.67-8.15,2.45-15.53,4.68-23.18,6.98.92,2.88,1.64,5.45,2.56,7.95.93,2.49,2.54,4.01,5.48,3.04,2.88-.94,2.89-3.13,2.45-5.52-.12-.62-.32-1.23-.62-2.33,4.68-1.38,9.26-2.73,13.79-4.06,2.89,5.37,1.96,12.11-2.44,16.24-5.82,5.46-13.09,7.46-20.85,7.27-5.15-.12-9.17-3.03-11.11-7.74-3.28-7.96-6.5-16-8.86-24.26-1.79-6.28.49-11.98,5.92-16Zm-22.38-10.59c7.94,21.44,15.78,42.62,23.72,64.06-4.74,1.84-9.22,3.57-14.06,5.45-8.53-21.08-16.97-41.93-25.61-63.29,5.33-2.08,10.47-4.09,15.96-6.23Zm-42.3,37.53c5.61-6.07,12.75-9.28,20.91-9.76,6.51-.38,11.12,3.98,13.77,12.4-4.69,2.02-9.22,3.96-13.87,5.96-.92-1.74-1.44-3.55-2.61-4.65-.96-.9-2.97-1.64-4.03-1.22-1.07.42-1.7,2.3-2.22,3.65-.21.55.3,1.44.62,2.12,3.22,6.95,6.39,13.93,9.78,20.8.64,1.31,2.03,2.73,3.35,3.11,2.31.67,4.18-1.84,3.46-4.4-.49-1.74-1.3-3.39-2.12-5.47,4.45-1.94,8.76-3.83,13.04-5.7,5.25,6.58,4.51,15.47-1.72,20.66-4.4,3.67-9.52,5.97-15.14,6.94-5.59.96-10.37-1.2-13.09-5.89-4.69-8.1-8.98-16.47-12.83-25.01-2.14-4.73-.91-9.65,2.7-13.55Zm-24.39,11.06c1.18,1.76,2.23,3.33,3.6,5.36.62-6.17,3.67-10.11,8.99-12.82,2.31,4.45,4.58,8.81,6.99,13.45-1.23.77-2.39,1.47-3.53,2.21-5.5,3.58-6.5,7.14-3.44,12.88,3.76,7.05,7.63,14.04,11.44,21.06.46.84.88,1.7,1.45,2.81-4.38,2.5-8.66,4.93-13.22,7.53-8.67-14.8-17.28-29.49-26.15-44.62,4.63-2.62,9.11-5.16,13.87-7.86Zm-45.02,28.76c4.68-6.31,10.99-10.38,18.66-11.96,6.26-1.29,11.29,1.28,14.85,6.39,2.76,3.97,5.11,8.22,7.75,12.51-6.96,4.43-13.73,8.75-20.75,13.22,1.71,2.55,3.15,4.82,4.71,6.98,1.6,2.22,3.64,3.03,6.14,1.36,2.42-1.61,2.23-3.7,1.04-5.95-.35-.66-.72-1.3-1.26-2.26,4.23-2.65,8.41-5.26,12.56-7.86,4.38,4.68,5.16,11.76,1.46,17.05-4.92,7.02-11.82,11.33-20.29,12.7-4.07.66-7.99-.9-10.46-4.06-5.58-7.12-11.11-14.35-15.9-22.01-3.3-5.28-2.21-11.12,1.49-16.12Zm-46.81,16.9c4.41-5.95,10.12-10.34,17.1-12.87,6.12-2.21,11.5-.79,15.84,4.08,1.63,1.83,3.03,3.87,4.66,5.97-4.64,3.49-9.02,6.78-13.66,10.27-1.37-1.75-2.66-3.43-4-5.08-1.78-2.18-3.78-2.71-6.16-.84-2.22,1.74-2.7,3.85-.85,6.2,7.57,9.58,15.22,19.09,22.91,28.57,1.58,1.95,3.53,2.84,5.9,1,2.28-1.77,2.22-3.77.72-5.94-1.34-1.93-2.75-3.81-4.3-5.95,4.38-3.29,8.59-6.45,13-9.76,4.4,5.82,9.19,11.59,6.09,19.14-3.9,9.49-11.53,15.33-21.61,17.15-5.58,1.01-9.9-2.4-13.45-6.43-5.06-5.76-10-11.63-15-17.46-2.18-2.54-4.38-5.07-6.52-7.64-5.49-6.6-5.78-13.54-.67-20.43Zm-34.44,87.31l.44-22.07s59.96.04,83.53.05c2.92,0,5.84.01,8.76-.02,4.55-.06,8.7,1.16,12.6,3.52,43.26,26.15,86.6,52.16,129.76,78.48,7.46,4.55,14.95,6.79,23.74,6.83,36.12.15,72.23.83,108.35,1.25,1.97.02,3.17.64,4.21,2.25,2.67,4.14,5.48,8.2,8.67,12.94-34.3,1.15-67.96-.64-102.52,1.13,2.41,2.19,4.02,3.65,6.27,5.69-2.35.12-3.91.27-5.47.28-11.03.04-22.07.2-33.09-.05-2.64-.06-5.7-.91-7.79-2.45-4.16-3.06-8.64-4.4-13.61-4.39-47.91.08-95.82.21-143.73.33-.86,0-1.72.1-2.88.18-.33,5.16-.65,10.29-.99,15.61h-26.11v-99.54h-50.16Zm46.77,250.08c.48-1.17.9-2.22,1.46-3.6-6.31.69-10.95-2.19-14.89-6.43-4.11-4.41-4.69-9.3-1.84-14.59.87-1.6,1.92-3.15,3.09-4.54,4.86-5.79,9.72-11.59,14.74-17.24,3.58-4.03,7.91-7.04,13.63-5.63,6.22,1.53,10.63,5.44,13.16,11.82,3.77-4.81,7.53-9.62,11.42-14.58,4.02,3.01,7.87,5.91,12,9-13.41,18.46-26.69,36.75-40.12,55.25-4.25-3.18-8.38-6.27-12.65-9.47Zm40.6,17.07c2.43,1.63,4.24,1.22,6.34-1.45.4-.51.77-1.03,1.36-1.81,4.38,2.72,8.73,5.42,13.05,8.1-2.41,6.33-8.94,10.08-15.35,8.68-8-1.75-14.49-6.11-19.6-12.41-3.71-4.57-4.31-9.94-1.23-14.84,4.58-7.3,9.52-14.44,14.93-21.14,4.04-5.01,9.92-6.4,16.19-4.61,5.85,1.67,10.79,4.92,14.69,9.62,3.7,4.47,4.66,9.68,2.38,14.89-2.27,5.19-5.41,10.01-8.3,15.23-7.26-4.58-14.08-8.89-21.11-13.32-1.52,2.29-3.02,4.39-4.34,6.6-1.72,2.88-1.35,4.9,1,6.47Zm62.34,46.1c-10.63-5.43-21.07-10.76-31.89-16.29,10.65-19.31,21.1-38.24,31.68-57.43,4.45,2.37,8.61,4.58,13.07,6.96-8.24,16.04-16.39,31.93-24.75,48.2,6.04,2.99,11.82,5.84,18.06,8.93-2.06,3.21-4,6.23-6.18,9.63Zm29.58,12.87c-5.09-1.37-10.11-3.79-14.53-6.71-6.04-3.99-7.73-10.43-4.96-17.13,3.04-7.36,6.4-14.62,10.01-21.72,2.65-5.21,7.24-7.85,14.97-7.78,5.4.28,11.78,2.68,17.06,7.51,4.88,4.46,6.03,10.13,3.9,16.29-2.43,7.02-4.96,14.03-7.8,20.89-3.15,7.63-9.91,11.01-18.64,8.66Zm59.14,19.91c-5.06-1.48-9.96-2.91-15.01-4.38.16-1.31.28-2.35.44-3.73-4.97,2.58-9.85,1.89-14.65-.08-6.36-2.61-9.23-7.49-7.12-13.98,4.27-13.11,9.12-26.02,13.8-39.23,4.86,1.67,9.41,3.24,14.24,4.9-2.97,9.07-5.88,17.95-8.78,26.83-.84,2.56-1.64,5.14-2.5,7.69-.86,2.56-.71,4.75,2.13,5.91,2.75,1.12,4.93.15,6.01-3.12,2.83-8.6,5.44-17.28,8.14-25.93.9-2.87,1.82-5.72,2.82-8.88,4.82,1.41,9.42,2.75,14.29,4.17-4.61,16.63-9.16,33.01-13.82,49.81Zm31.5,7.8c-4.54-1.36-9.25-2.1-13.83-3.34-.89-.24-2.14-1.56-2.13-2.37.18-16.43.52-32.86.85-49.29.01-.51.21-1.01.38-1.81,4.24,1.1,8.06,2.35,11.97,3.01,2.87.48,3.38,1.77,3.1,4.37-1.12,10.42-2.07,20.85-3.07,31.28-.06.61,0,1.24,0,2.45,4.16-10.54,8.29-20.48,11.97-30.58,1.24-3.39,2.57-4.64,6.19-3.45,3.14,1.03,6.49,1.42,10.09,2.17-1.5,3.44-2.81,6.6-4.24,9.71-5.4,11.77-10.9,23.49-16.2,35.3-1.12,2.5-2.22,3.42-5.08,2.56Zm60.67-29.25c-1.04,10.41-2.3,20.8-3.45,31.2-.25,2.23-.4,4.47-.64,7.18-4.74-.56-9.32-.97-13.84-1.76-.81-.14-1.33-1.88-2.1-3.06-4.05,2.72-8.78,2.75-13.55,1.33-5-1.49-8.19-4.85-8.77-10.11-1.47-13.58,5.85-20.76,17.04-20.63,2.9.03,5.8,0,9.3,0,.27-2.12.9-4.74.81-7.34-.04-1.05-1.55-2.74-2.56-2.88-1.05-.14-2.48,1.08-3.4,2.04-.57.6-.52,1.8-.83,3.08-4.95-.85-9.49-1.62-14-2.39.4-7.96,5.46-12.99,13.7-13.02,4.25-.02,8.63.7,12.71,1.88,7.18,2.08,10.31,7.03,9.57,14.47Zm19.19,40.51c-5.58-.45-10.6-.85-16.26-1.3,1.67-17.12,3.31-34.01,5.01-51.39,4.96.37,9.72.72,14.82,1.1-1.19,17.26-2.37,34.22-3.57,51.59Zm4.01-56.53c-5.12-.42-9.8-.8-14.68-1.2.41-4.01.78-7.62,1.19-11.57,4.78.41,9.34.81,14.21,1.23-.24,3.83-.46,7.42-.72,11.54Zm44.38,57.61h-15.75c0-1.19,0-2.33,0-3.48.09-10.7.2-21.4.26-32.1.02-4.32-1.22-5.96-4.43-5.43-1.24.2-2.69,1.32-3.31,2.43-.68,1.22-.67,2.91-.71,4.41-.29,10.26-.51,20.53-.77,30.79-.02.95-.12,1.9-.19,2.85h-16.27c.97-17.43,1.91-34.42,2.86-51.75,4.74.25,9.22.48,13.94.73.19,1.07.38,2.09.63,3.47,4.18-3.82,9.05-4.95,14.39-3.83,5.04,1.06,8.06,4.09,8.68,9.19.52,4.27.61,8.61.65,12.93.09,9.82.03,19.64.03,29.8Zm5.31-20.62v-10.82c7.06-.38,14.23-.78,21.92-1.2.29,3.5.58,6.98.91,10.96-7.9.37-15.21.71-22.83,1.06Zm64.37,15.38c-11.42,1.28-22.83,2.57-34.55,3.88-1.78-21.99-3.52-43.47-5.29-65.37,4.77-.45,9.33-.88,14.37-1.36,1.99,17.94,3.94,35.58,5.95,53.74,6.52-.77,12.86-1.51,19.51-2.3v11.4Zm30.96-5.56c-.8.13-1.84-1.29-2.64-1.89-2.32,1.41-4.65,3.44-7.37,4.38-10.29,3.56-18.29-2.09-19.36-13.35-.75-7.93,2.02-13.07,9.32-16.37,3.5-1.58,7.27-2.55,11.14-3.87-.39-2.09-.73-4.31-1.25-6.49-.46-1.92-1.36-3.5-3.79-3.03-2.17.42-2.63,1.96-2.46,3.89.06.64.08,1.29.15,2.49-4.66.81-9.34,1.62-14,2.42-1.87-7.16.23-12.47,6.21-15.67,5.16-2.75,10.78-3.88,16.58-3.6,6.94.33,10.88,4.05,12.56,11.38,2.41,10.51,4.79,21.03,7.2,31.54.38,1.66.85,3.29,1.38,5.31-4.68,1.02-9.15,2.13-13.69,2.86Zm13.98-24.1c-.9-3.73-1.68-6.95-2.56-10.57,7.24-1.89,14.36-3.75,21.85-5.71,1,3.45,1.94,6.71,3.04,10.53-7.6,1.96-14.85,3.82-22.33,5.75Zm59.09,4.13c-.79.24-2.45-.84-3.06-1.75-6.59-9.88-13.05-19.84-19.54-29.78-.47-.72-.93-1.44-1.91-2.97,4.59,13.27,8.86,25.64,13.28,38.41-4.95,1.54-9.54,2.96-14.52,4.51-6.17-20.96-12.28-41.7-18.47-62.73,5.08-1.6,9.98-3.15,15.27-4.82,7.27,10.84,14.58,21.74,22.28,33.21-4.74-12.37-9.22-24.08-13.8-36.04,4.49-1.65,8.5-3.13,12.98-4.78,7.74,20.31,15.44,40.49,23.33,61.18-5.49,1.97-10.61,3.94-15.84,5.56Zm51.12-21.78c-5.83,5.92-13.14,8.96-21.4,9.48-4.66.29-9-1.48-10.92-5.64-4.08-8.86-7.87-17.92-10.87-27.2-1.87-5.79.67-11.36,5.65-14.79,3.91-2.69,8.43-4.93,13-6.12,7.35-1.91,13.26,1.12,17.12,7.92,2.34,4.12,4.27,8.47,6.59,13.15-3.91,1.85-7.49,3.58-11.1,5.24-3.61,1.66-7.26,3.25-11.08,4.96,1.14,2.62,2.12,5.11,3.3,7.5,1.16,2.34,2.81,3.8,5.72,2.57,2.83-1.2,3.11-3.29,2.32-5.85-.22-.71-.5-1.41-.85-2.38,4.61-2.16,9.17-4.3,13.71-6.43,3.97,5.78,3.65,12.7-1.18,17.6Zm37.64-17.82c-.87-.99-1.64-1.85-2.6-2.93-1.33,5.36-5.11,8.21-9.58,10.36-7.33,3.52-13,1.75-16.77-5.5-4.03-7.75-7.81-15.62-11.7-23.45-1.96-3.96-3.92-7.91-6.07-12.26,4.43-2.29,8.76-4.54,13.42-6.96.67,1.19,1.26,2.18,1.8,3.19,4.98,9.33,9.88,18.7,15,27.95.85,1.54,2.48,3.31,4.04,3.65,3.65.8,6.04-3.03,4.17-6.68-3.15-6.14-6.59-12.14-9.92-18.18-2.5-4.53-5.02-9.05-7.71-13.89,4.34-2.51,8.59-4.98,13.21-7.65,8.79,14.76,17.49,29.36,26.47,44.42-4.73,2.73-9.19,5.31-13.76,7.94Zm42.61-26.32c-4.4,2.74-8.62,5.76-13.04,8.47-.8.49-2.62.53-3.19-.02-12.23-11.74-24.36-23.6-36.84-35.77,4.97-3.13,9.49-5.98,14.21-8.95,8.09,9.17,16.07,18.23,24.06,27.29.09-.12.19-.25.28-.38-4.99-10.96-9.98-21.91-15.06-33.06,4.19-2.95,8.22-5.78,12.47-8.77.53,1.06,1.02,1.88,1.36,2.75,5.72,14.67,11.37,29.36,17.17,44,.85,2.15.47,3.25-1.43,4.44Zm41.53-34.46c-4.16,9.51-11.8,15.23-21.61,17.96-4.33,1.21-8.71,0-11.52-3.49-5.68-7.04-11.23-14.24-16.13-21.83-3.18-4.92-2.6-10.62.55-15.68,3.66-5.89,8.95-9.94,15.46-12.21,5.58-1.95,10.79-.69,14.97,3.4,3.76,3.67,7.1,7.78,10.86,11.96-6.69,5.48-13.1,10.73-19.63,16.08,1.54,2.01,2.99,4,4.55,5.9,2.38,2.89,4.48,3.25,6.91,1.33,2.33-1.84,2.43-3.74.38-6.77-.3-.43-.6-.86-1.07-1.54,4.1-3.42,8.12-6.77,12.12-10.1,4.59,4.06,6.43,9.81,4.17,14.98Zm4.28-125.02h-17.72v-26.32c-5.45,0-10.39.05-15.33-.04-1.12-.02-2.52-.16-3.29-.82-5.79-5-11.45-10.15-17.68-15.72h54.03v42.91Z" style="fill: #166232; stroke-width: 0px;"/>
  <path d="m468.44,297.72c4.64.17,9.3.13,13.95.13,27.69.03,55.38.05,83.06.06,4.55,0,8.76-1.15,12.5-3.81,8.31-5.91,7.72-15.38-1.65-19.31-4.66-1.95-9.99-3.15-15.03-3.19-36.23-.28-72.46-.18-108.7-.16-1.88,0-3.76.36-6.19.6,6.44,8.45,12.48,16.45,18.67,24.34.66.84,2.22,1.31,3.38,1.35Z" style="fill: #166232; stroke-width: 0px;"/>
  <path d="m692.62,407.69c4.88-.3,9.2-.47,13.5-.86,15.28-1.38,29.28-5.96,41.38-15.85,23.76-19.41,23.93-51.42.21-70.84-16.44-13.46-35.51-18.11-56.34-16.74-15.82,1.04-30.2,5.94-42.72,15.91-22.83,18.17-25.05,47.99-4.53,67.94,13.52,13.15,29.99,20.05,48.49,20.44Z" style="fill: #166232; stroke-width: 0px;"/>
  <path d="m396.96,70.26c.29,2.11,1.71,3.44,4.12,3.25,2.42-.19,3.75-1.45,3.95-3.87.05-.64,0-1.3,0-1.94.04,0,.07,0,.11,0-.67-6.33-1.3-12.67-2.02-19-.3-2.64-1.7-4.11-4.56-3.83-2.76.27-4.3,1.95-4.07,4.5.63,6.98,1.5,13.95,2.46,20.9Z" style="fill: #166232; stroke-width: 0px;"/>
  <path d="m134.25,445.03c-2.04-1.55-4.16-1.56-5.77.37-4.95,5.97-9.88,11.97-14.53,18.18-2.12,2.83.36,6.86,4.54,6.89.6-.35,1.97-.75,2.71-1.67,4.77-5.98,9.45-12.02,14.03-18.14,1.53-2.04,1.08-4.05-.99-5.63Z" style="fill: #166232; stroke-width: 0px;"/>
  <path d="m692.12,130.82c1.45-.6,2.82-2.04,3.62-3.44,3.3-5.79,6.38-11.71,9.5-17.61.49-.93.76-1.99,1.4-3.68-1.04-1.01-2.02-2.73-3.36-3.07-1.48-.38-4.25-.03-4.79.93-4.04,7.21-7.85,14.57-11.32,22.07-1.2,2.6,2.31,5.89,4.95,4.79Z" style="fill: #166232; stroke-width: 0px;"/>
  <path d="m358.04,65.26c-2.84-8.57-5.53-16.67-8.21-24.76-.16.04-.32.08-.48.12.65,8.64,1.3,17.28,1.96,26.04,2.38-.5,4.36-.91,6.74-1.41Z" style="fill: #166232; stroke-width: 0px;"/>
  <path d="m787.94,162.55c1.67-2.23,1.72-4.33-.6-6.22-2.24-1.82-4.54-1.75-6.59.44-1.32,1.41-2.43,3-3.83,4.76,2.57,2.02,4.83,3.8,7.28,5.72,1.35-1.69,2.58-3.17,3.74-4.7Z" style="fill: #166232; stroke-width: 0px;"/>
  <path d="m781.64,444.38c-1.72-1.89-3.62-2.13-5.7-.45-2,1.61-2.49,3.53-1.13,5.68,1.18,1.87,2.6,3.59,3.98,5.47,2.5-2,4.68-3.75,7.06-5.66-1.47-1.77-2.79-3.46-4.22-5.04Z" style="fill: #166232; stroke-width: 0px;"/>
  <path d="m255.98,516.1c-2.27-.89-4.22-.31-5.19,1.84-3.29,7.36-6.52,14.76-9.51,22.25-1.14,2.86.87,5.36,4.89,5.75.57-.38,2.33-.9,2.8-1.98,3.31-7.58,6.43-15.25,9.43-22.96.86-2.21-.12-3.99-2.43-4.89Z" style="fill: #166232; stroke-width: 0px;"/>
  <path d="m171.29,134.38c-2.65-2.58-2.95-7.1-7.26-6.96-1.52.05-3.85,1.75-4.28,3.16-1.14,3.75,2.1,6.02,3.81,8.89,2.61-1.72,4.92-3.25,7.73-5.1Z" style="fill: #166232; stroke-width: 0px;"/>
  <path d="m565.4,85.4c2.36.43,3.8-1.07,4.29-3.05,1.92-7.72,3.7-15.47,5.41-23.23.59-2.67-.77-4.34-3.4-4.93-2.73-.62-4.38.69-5.12,3.18-.58,1.95-.95,3.97-1.37,5.96-1.26,5.88-2.5,11.77-3.75,17.65-.03,2.76,1.59,4,3.95,4.43Z" style="fill: #166232; stroke-width: 0px;"/>
  <path d="m173.57,476.83c1.17-2.18.92-4.17-1.36-5.56-2.16-1.32-4.17-1.04-5.74.91-1.32,1.64-2.43,3.46-3.77,5.4,2.57,1.68,4.87,3.19,7.42,4.87,1.24-2,2.45-3.76,3.45-5.62Z" style="fill: #166232; stroke-width: 0px;"/>
  <path d="m477.42,73.72c2.62.12,3.99-1.59,4.15-4.02.52-7.64.97-15.29,1.29-22.94.13-3.2-1.47-4.82-4.31-4.91-2.69-.08-4.4,1.6-4.5,4.79-.12,3.77-.03,7.54-.03,11.32-.23,0-.47,0-.7,0,0,3.78,0,7.55,0,11.33,0,2.74,1.44,4.31,4.09,4.43Z" style="fill: #166232; stroke-width: 0px;"/>
  <path d="m558.78,564.85c-6.88,1.34-8.75,4.22-6.96,9.93.75,2.39,2.13,3.75,4.73,3.35,2.73-.41,3.92-2.19,3.61-4.83-.32-2.77-.89-5.5-1.38-8.46Z" style="fill: #166232; stroke-width: 0px;"/>
  <path d="m668.3,513.75c-1.11-2.11-2.87-2.89-5.14-1.9-2.29,1-3.35,2.71-2.46,5.21.72,2.02,1.56,3.99,2.45,6.25,2.77-1.23,5.29-2.35,7.99-3.55-1.01-2.16-1.85-4.13-2.84-6.01Z" style="fill: #166232; stroke-width: 0px;"/>
  <path d="m370.3,576.67c-.13,2.41.69,4.28,3.33,4.77,2.49.46,4.34-.39,4.94-2.95.65-2.81,1.06-5.67,1.61-8.69-6.69-1.24-9.55.9-9.88,6.88Z" style="fill: #166232; stroke-width: 0px;"/>
  <path d="m292.95,76.92c3-.95,5.62-1.78,8.46-2.68-.7-2.16-1.25-4.1-1.96-5.99-.85-2.24-2.24-3.55-4.94-2.81-2.79.77-3.98,2.5-3.42,5.24.41,2.05,1.19,4.03,1.86,6.23Z" style="fill: #166232; stroke-width: 0px;"/>
</svg>