<?xml version="1.0" encoding="UTF-8"?>
<svg id="a" data-name="Layer 1" xmlns="http://www.w3.org/2000/svg" viewBox="0 0 695.27 979.31">
  <path d="m346.68,979.31c.01-1.51.03-3.03.03-4.54,0-168.21,0-336.42,0-504.63v-3.04c1.28.9,2.23,1.55,3.15,2.23,27.73,20.32,53.03,43.33,75.81,69.07,36.14,40.82,64.41,86.64,85.88,136.68,17.76,41.42,30.6,84.36,39.38,128.55,4.37,22.01,8.09,44.12,10.51,66.43,1.38,12.74,2.53,25.5,3.77,38.25.08.77,0,1.56,0,2.54h-176.23c0,1.06,0,1.91,0,2.76,0,21.12.01,42.23,0,63.35,0,.78-.16,1.57-.25,2.35h-42.08Zm172.7-112.02c-.18-1.41-.35-2.65-.49-3.9-2.36-20.8-5.85-41.42-10.28-61.87-8.58-39.59-21.03-77.91-38.17-114.66-19.32-41.42-44.27-79.11-74.84-113.08-2.03-2.26-4.13-4.45-6.48-6.97v300.49h130.26Z" style="stroke-width: 0px;"/>
  <path d="m0,254.87c1.43-.48,2.87-1.37,4.3-1.37,89.8-.07,179.6-.07,269.4,0,1.95,0,2.69-.58,3.36-2.33,12.37-32.46,26.99-63.85,44.82-93.7,11.46-19.18,24.33-37.35,39.16-54.09.15-.17.25-.39.52-.79-1.07-.4-2.05-.81-3.05-1.15-22.54-7.52-45.07-15.04-67.61-22.55-.53-.18-1.18-.21-1.56-.55-.83-.74-2.11-1.64-2.12-2.48,0-.85,1.13-2.12,2.05-2.51,5.71-2.4,11.51-4.59,17.27-6.86C362.17,44.64,417.79,22.78,473.4.92c.66-.26,1.27-.61,1.91-.92.48,0,.96,0,1.43,0,10.09,4.48,20.16,8.99,30.27,13.44,45.18,19.91,90.37,39.8,135.53,59.76.99.44,2.37,1.77,2.27,2.5-.15,1.02-1.34,2.33-2.39,2.73-14.77,5.66-29.58,11.23-44.43,16.7-2.01.74-2.75,1.61-2.74,3.86.1,24.23.06,48.45.06,72.68,0,.24,0,.48,0,.72.06,1.54.18,3.43-1.65,3.74-1.1.19-2.65-.64-3.61-1.46-4.71-4.05-9.12-8.45-13.94-12.35-9.3-7.53-19.55-13.47-31.26-16.37-15.85-3.92-30.42-.5-43.9,8.38-8.32,5.48-15.4,12.33-21.84,19.87-2.59,3.04-3.81,3.05-6.34-.1-5.55-6.92-11.58-13.36-18.65-18.77-19.8-15.16-40-16.42-61.58-3.88-10.23,5.94-18.97,13.66-27.07,22.18-.66.69-1.27,1.44-1.99,2.06-1.73,1.49-3.89.7-4.28-1.57-.12-.7-.05-1.43-.05-2.15,0-17.61,0-35.22,0-52.84,0-.76,0-1.51,0-2.27-14.64,22.11-26.14,45.71-36.29,69.99-9.07,21.69-16.96,43.81-23.81,66.61,5.1,0,9.79,0,14.48,0,7.09,0,14.19,0,21.28,0,3.99,0,4.52.53,4.52,4.55,0,56.02,0,112.05,0,168.07,0,1.12,0,2.23-.02,3.35-.04,1.9-.91,2.97-2.92,2.96-15.7-.01-31.46.82-47.08-.3-10.99-.79-20.3-6.34-25.02-17.35-.24-.56-.5-1.12-.9-2-2.81,3.23-5.39,6.33-8.1,9.3-11.49,12.59-23.17,25.01-34.49,37.76-19.49,21.94-37.16,45.3-53.52,69.68-36.76,54.79-64.93,113.73-85.5,176.35-11.55,35.16-20.87,70.91-27.26,107.38-3.09,17.62-5.55,35.35-8.29,53.03-.05.31-.04.62-.08,1.16h66.84v43.39H2.51c.31-4.88.47-9.64.92-14.37,1.15-12.04,2.26-24.09,3.68-36.11,2.57-21.81,6.14-43.47,10.64-64.97,7.48-35.75,17.17-70.9,29.1-105.42,12.48-36.1,26.82-71.44,43.99-105.6,21.37-42.51,46.08-82.92,76.01-120.01,18.1-22.43,37.95-43.2,60.01-61.8.29-.25.72-.33,1.09-.49-.13-.25-.26-.49-.39-.74h-2.49c-17.29,0-34.59.03-51.88-.05-1.75,0-3.66-.44-5.22-1.22-13.51-6.75-19.97-18.13-21.16-32.84-.14-1.8-.02-3.61-.02-5.63-1.3,0-2.16,0-3.02,0-10.04,0-20.09.3-30.12-.07-17.1-.63-27.02-10.6-28.99-25.79-.63-4.86-.56-9.81-.83-15.05h-2.65c-10.12,0-20.25-.17-30.36.04-12.02.25-21.8-4.56-30.06-12.82-8.09-8.1-12.72-18.23-15.86-29.03-1.86-6.39-2.99-13-4.46-19.5-.12-.53-.3-1.05-.46-1.57,0-.96,0-1.91,0-2.87ZM383.98,79.87c.22.19.43.37.65.56-4.91,6.44-9.81,12.88-14.79,19.41.58.31.76.46.98.53,34.53,11.49,69.06,22.98,103.61,34.41,1.01.33,2.37.25,3.38-.13,47.89-17.8,95.77-35.65,143.64-53.51,4.64-1.73,9.26-3.51,14.29-5.42-1.03-.5-1.65-.83-2.28-1.11-51.21-22.58-102.43-45.14-153.6-67.81-2.77-1.23-4.99-1.27-7.81-.15-57.42,22.71-114.89,45.3-172.35,67.93-.76.3-1.5.65-2.6,1.13,1.06.38,1.66.61,2.26.81,19.68,6.54,39.36,13.07,59.04,19.6,2.25.75,4.77,2.5,6.68,1.99,2.05-.54,3.55-3.21,5.28-4.95.45-.45.87-.93,1.33-1.38,4.09-3.97,8.19-7.94,12.28-11.91ZM5.35,258.52c.98,4.69,1.71,9.07,2.81,13.36,2.92,11.35,7.04,22.19,15.13,30.98,7.59,8.25,16.73,12.87,28.37,12.84,66.92-.17,133.84-.09,200.76-.04,1.81,0,2.53-.5,3.12-2.26,5.91-17.62,11.95-35.2,17.95-52.79.22-.63.36-1.29.58-2.08H5.35Zm358.72-90.74c1.08-1.03,1.71-1.61,2.32-2.21,8.09-7.98,16.83-15.11,26.96-20.37,18.05-9.38,36.18-10.13,54.31-.26,8.77,4.77,16.16,11.29,22.87,18.61,1.87,2.03,3.67,4.13,5.59,6.3.65-.71,1.19-1.28,1.72-1.86,6.39-7.04,13.28-13.5,21.35-18.64,15.19-9.69,31.51-12.4,48.9-7.73,12.03,3.23,22.45,9.65,32.02,17.48,3.34,2.74,6.57,5.61,9.96,8.51v-69.37c-1.06.36-1.89.61-2.7.91-36.27,13.49-72.53,26.98-108.79,40.5-1.73.64-3.27.69-5.04.1-33.99-11.36-68-22.66-102-33.98-4.86-1.62-4.9-1.65-7.54,2.67-.39.64-.2,1.66-.18,2.5.02.95.23,1.89.23,2.84.01,17.05.01,34.11.01,51.16,0,.76,0,1.52,0,2.84ZM88.93,320.78c.35,5.17.21,10.23,1.11,15.1,2.23,12.04,9.92,20.51,24.04,20.65,42.38.43,84.76.14,127.15.19,1.48,0,2.02-.42,2.41-1.85,2.26-8.44,4.63-16.85,6.99-25.27.81-2.89,1.69-5.75,2.59-8.82H88.93Zm152.84,40.92h-89.96c-.69,14.72,5.54,27.54,18.45,33.78,1.16.56,2.56.89,3.85.89,18.87.06,37.74.04,56.61.04.78,0,1.56,0,2.33,0,2.94-11.68,5.81-23.13,8.73-34.72Zm40.33-46.26h52.08v-56.89c-.79-.05-1.49-.12-2.2-.12-10.76,0-21.51.04-32.27-.05-1.77-.01-2.45.57-2.91,2.25-2.93,10.73-6.04,21.41-8.95,32.14-2.03,7.49-3.83,15.05-5.75,22.66Zm52.05,46.28c-.44-.08-.66-.17-.89-.17-19.9,0-39.81,0-59.71-.03-1.31,0-1.75.46-1.99,1.72-1.19,6.32-2.52,12.62-3.73,18.94-.89,4.65-1.65,9.33-2.49,14.12h68.81v-34.58Zm.05-41.09c-1.08,0-1.94,0-2.81,0-16.01,0-32.02.04-48.02-.06-2.04-.01-2.74.66-3.14,2.52-1.67,7.69-3.49,15.34-5.19,23.02-.76,3.44-1.37,6.91-2.05,10.4h61.21v-35.87Zm-66.89,80.8c-.13.41-.26.63-.26.85-.15,13.52,8.04,23.84,24.29,25.03,13.47.98,27.08.2,40.62.2.69,0,1.39,0,2.19,0v-26.08h-66.84Z" style="stroke-width: 0px;"/>
  <path d="m695.27,575.25c-.15,3.72-.33,7.45-.45,11.17-.5,15.92-.57,31.87-1.57,47.76-2.15,34.25-8.38,67.7-21.95,99.44-3.4,7.95-7.67,15.53-11.52,23.29-.7,1.41-1.76,2.67-3.28,1.9-.91-.46-1.72-2.01-1.77-3.11-.92-17.89-1.17-35.83-2.64-53.68-2.57-31.27-7.35-62.23-16.13-92.45-4.55-15.67-10.2-30.94-17-45.78-.77-1.67-1.24-3.64-1.24-5.47-.06-72.2-.05-144.4-.05-216.59,0-27.73,0-55.46,0-83.19,0-.64-.18-1.35.04-1.9.41-.99.89-2.39,1.68-2.68.8-.29,2.33.28,2.98.99,7.73,8.42,14.32,17.69,20.2,27.47,14.58,24.27,24.25,50.53,31.61,77.73,5.55,20.52,9.79,41.33,12.44,62.41,2.3,18.23,4.38,36.51,5.71,54.83,1.39,19.13,1.78,38.34,2.62,57.51.03.7.2,1.4.31,2.1v38.25Zm-35.78,170.88l.63.12c.41-.82.82-1.63,1.23-2.45,17.52-35.51,24.77-73.52,27.19-112.65.73-11.84.84-23.72,1.12-35.59.92-38.17.79-76.31-1.91-114.42-1.57-22.16-3.78-44.25-7.23-66.2-4.19-26.67-9.98-52.97-18.77-78.52-8.27-24.04-18.9-46.91-34.23-67.38-1.45-1.93-2.96-3.81-4.44-5.72l-.48.22v1.59c0,97.7,0,195.4.03,293.1,0,1.07.29,2.2.69,3.2,4.32,11.02,8.7,22.02,13.06,33.03.24.61.5,1.22.75,1.83.11-.03.22-.06.33-.09v-2.61c0-53.23,0-106.47,0-159.7,0-.8-.04-1.6.01-2.39.1-1.52.74-2.63,2.43-2.67,1.82-.05,2.52,1.1,2.63,2.73.06.87.02,1.75.02,2.63,0,59.45,0,118.9,0,178.35,0,1.03,0,2.1.26,3.08,7.93,29.61,12.12,59.83,14.78,90.3.25,2.81.55,5.62.83,8.43.26,0,.53,0,.79,0,.37-5.21,1.05-10.43,1.05-15.64.07-88.54.05-177.07.05-265.61,0-.72-.25-1.62.08-2.11.58-.86,1.54-2.03,2.33-2.03.81,0,1.82,1.13,2.37,2,.36.57.09,1.55.09,2.35,0,87.42,0,174.84-.02,262.26,0,4.37-.14,8.77-.55,13.12-.46,4.83-1.33,9.6-4.26,13.74-.75,1.05-1.31,2.51-1.3,3.77.02,5.73.28,11.47.45,17.2.03.9,0,1.81,0,2.71Z" style="stroke-width: 0px;"/>
  <path d="m336.48,818.97h-157.09c-2.62,16.13-5.21,32.11-7.85,48.35h164.97v43.45H125.64c.24-4.94.29-9.85.74-14.73,1.12-12.29,1.95-24.62,3.74-36.82,2.53-17.22,5.37-34.41,8.89-51.45,7.34-35.59,18.86-69.9,32.08-103.73,10.74-27.47,22.88-54.2,37.52-79.79,19.39-33.89,41.92-65.58,67.03-95.46,18.73-22.29,38.61-43.48,59.54-63.71.34-.33.7-.65,1.3-1.22v355.1Zm-47.01-248.2c-.65.61-1.07.93-1.41,1.33-4.81,5.64-9.77,11.15-14.37,16.95-20.63,26.04-36.87,54.74-50.77,84.8-11.59,25.07-21.1,50.94-29.24,77.32-2.71,8.79-5.22,17.65-7.88,26.68h103.67v-207.09Z" style="stroke-width: 0px;"/>
  <path d="m475.33,297.65c.45-.77.76-1.68,1.36-2.29,13.32-13.39,26.67-26.75,40.02-40.11,2.35-2.35,3.53-2.28,5.51.33,6.48,8.54,13.47,16.58,22.49,22.58,6.13,4.08,12.71,6.93,20.25,6.83,8.27-.11,15.21-3.66,21.51-8.63,7.33-5.78,13.15-12.94,18.41-20.58.87-1.27,1.63-2.73,3.52-2.12,1.84.59,1.76,2.19,1.76,3.75-.01,119.61-.01,239.22-.01,358.83,0,97.46,0,194.92,0,292.37,0,4.46-.26,4.72-4.74,4.71-8.53,0-17.05-.06-25.58,0-2.09.01-2.98-.82-3.25-2.88-2.03-15.94-3.75-31.94-6.3-47.8-3.21-20.01-6.82-39.97-10.79-59.85-7.54-37.78-17.91-74.8-31.12-111-17.38-47.62-39.83-92.62-69.83-133.64-30.63-41.88-67.55-77.03-111.9-104.17-1.81-1.11-2.42-2.4-2.42-4.45.04-64.07.03-128.14.09-192.21,0-1.16.55-2.81,1.41-3.39,1.57-1.06,2.67.32,3.65,1.6,4.42,5.73,8.59,11.68,13.43,17.03,5.47,6.05,12.16,10.46,20.43,12.01,6.81,1.28,12.94-.64,18.73-3.92,9.34-5.3,16.27-13.19,22.74-21.55.92-1.2,1.96-2.34,2.68-3.66,1.35-2.44,3.55-2.27,5.63-1.81.8.18,1.42,1.48,1.96,2.37.43.73.39,1.83.94,2.39,12.58,12.66,25.21,25.27,37.84,37.89.27.27.59.51,1.59,1.36Zm129.73,610.81V264.33c-2.76,3.15-5.19,6.21-7.92,8.97-2.73,2.77-5.61,5.44-8.68,7.83-14.49,11.26-30.41,12.09-45.54,1.78-5.8-3.95-10.86-9.04-16-13.89-2.85-2.69-5.17-5.94-7.95-9.21-.59.72-1,1.31-1.51,1.82-13.2,13.17-26.4,26.33-39.6,39.5-2.81,2.81-3.42,2.82-6.21.03-13.07-13.07-26.15-26.13-39.19-39.24-.65-.65-.95-1.66-1.53-2.72-1.51,1.97-2.27,2.98-3.06,3.97-6.55,8.28-13.51,16.16-22.76,21.57-11.91,6.96-23.84,7.01-35.68-.24-7.76-4.75-13.62-11.43-18.96-18.63-.3-.41-.37-.98-.55-1.48-.25.22-.5.44-.75.66,0,.47,0,.94,0,1.42,0,60.4,0,120.81-.06,181.21,0,1.92.97,2.63,2.29,3.45,38.67,23.92,71.75,54.1,100.13,89.54,18.27,22.82,33.99,47.3,47.69,73.1,22.55,42.46,39.27,87.2,52.08,133.46,8,28.9,14.44,58.17,19.48,87.73,2.35,13.79,4.4,27.64,6.4,41.49,1.44,10,2.58,20.04,3.84,30.07.14,1.09.29,1.97,1.78,1.96,7.33-.06,14.65-.03,22.24-.03Z" style="stroke-width: 0px;"/>
  <path d="m424.42,164.47c20.09,0,36.08,15.99,36.09,36.09,0,20.37-16.16,36.48-36.59,36.45-19.78-.02-36.03-16.45-36.01-36.36.01-21.49,18.22-37.03,36.52-36.18Zm17.83,11.85c-5.83,0-9.99,4.08-9.98,9.8,0,5.6,4.37,9.96,9.95,9.95,5.46,0,9.99-4.57,9.96-10.03-.03-5.39-4.46-9.73-9.92-9.72Z" style="stroke-width: 0px;"/>
  <path d="m531.75,164.47c18.37-.76,36.21,15.2,36.21,36.26,0,20-16.4,36.28-36.59,36.26-19.88-.01-35.82-16.25-36.02-36.29-.2-20.32,17.22-37.08,36.4-36.24Zm17.92,11.85c-5.79-.04-10.1,4.11-10.12,9.73-.02,5.43,4.37,9.96,9.71,10.02,5.69.06,10.23-4.37,10.23-9.97,0-5.53-4.24-9.75-9.81-9.78Z" style="stroke-width: 0px;"/>
  <path d="m596.73,922.02c10.28,0,20.56-.05,30.84.06,1.35.02,3.35.55,3.85,1.48.49.92-.23,2.86-.97,3.99-10.01,15.14-20.12,30.22-30.2,45.31-2.06,3.08-3.65,3.1-5.74.07-10.49-15.21-20.99-30.4-31.4-45.66-.71-1.04-1.34-2.93-.86-3.78.5-.89,2.38-1.4,3.66-1.41,10.28-.11,20.56-.06,30.84-.06h0Zm-27.72,5.2c9.58,13.89,18.91,27.42,28.38,41.15,9.19-13.81,18.19-27.34,27.38-41.15h-55.76Z" style="stroke-width: 0px;"/>
</svg>