<?xml version="1.0" encoding="UTF-8"?>
<svg id="a" data-name="Layer 1" xmlns="http://www.w3.org/2000/svg" viewBox="0 0 969.42 341.38">
  <path d="m217.9,91.23c-3.14-3.49-6.13-7.13-9.44-10.45-21.14-21.21-48.2-26.6-75.31-13.53-32.32,15.58-53.13,41.03-60.35,76.53-5.05,24.84,6.02,46.77,28.57,58.28,13.73,7.02,28.54,9.88,43.75,10.97,32.23,2.32,63.77-2.63,95.04-9.64,56.79-12.72,111.17-32.75,164.76-55.04,16.14-6.71,32.1-13.87,48.08-20.94,1.98-.88,3.14-.73,4.57.86,4.55,5.06,9.25,9.99,14.16,15.26-1.01.65-1.82,1.29-2.74,1.73-59.4,28.71-119.86,54.88-182.7,75.24-38.48,12.47-77.52,22.7-117.67,28.09-32.52,4.36-65.09,5.92-97.48-1.31-17.71-3.95-34.27-10.43-48.11-22.6C4.11,208.05-2.51,186.74.83,162.36c4.23-30.88,20.5-55.73,41.59-77.61C79.45,46.33,125.29,23.38,176.49,10.37,213.58.95,251.28-1.62,289.43.93c25.58,1.71,50.72,5.97,75.6,11.98.37.09.71.33,1.88.88-57.92,10.87-108.05,35.29-149.01,77.43Z" style="stroke-width: 0px;"/>
  <path d="m646.51,24.49c-22.34,10.92-43.37,23.17-60.36,41.2-16.52-5.91-32.8-5.49-48.7,1.53-8.11,3.58-13.8,9.54-15.62,18.72-1.38,6.96.19,13.22,5.69,17.2,6.91,5,14.48,9.23,22.18,12.94,11.5,5.54,23.55,10,33.71,17.99,10.39,8.19,16.44,18.69,16.32,32.2-.09,9.72-4.54,17.59-11.05,24.43-10.47,11-23.56,18.03-37.34,23.83-27.31,11.49-55.86,18.22-85.23,21.68-1.79.21-3.61.2-5.42.15-10.48-.28-16.7-7.73-14.99-18.01,2.32-13.97,10.51-24.27,21.16-32.82,4.17-3.35,8.92-6,13.94-9.32.74,2.78,1.24,4.74,1.79,6.68,5.24,18.61,19.21,26.17,37.51,20.06,11.65-3.89,21.44-10.51,28.08-21.09,5.88-9.36,4.3-16.6-4.83-22.78-9.25-6.26-19.9-8.98-30.46-11.97-8.67-2.45-17.49-4.57-25.85-7.84-17.93-7-23.27-18.24-17.93-36.7,5.64-19.48,18.61-33.52,34.65-45.02,20.83-14.93,44.52-22.97,69.38-27.92,23.28-4.63,46.85-5.96,70.55-5.32.94.03,1.88.11,2.82.17Z" style="stroke-width: 0px;"/>
  <path d="m541.64,97.55c12.4-5.13,24.7-10.52,37.21-15.34,32.2-12.39,65.36-21.35,99.49-26.49,36.89-5.56,73.89-6.69,110.89-1.1,30.74,4.64,60.13,13.41,86.34,30.74,22.08,14.61,38.82,33.49,45.91,59.69.33,1.2.61,2.42.9,3.63,3.16,13.18-1.19,22.47-13.43,28.58-1.48.74-3.02,1.41-4.59,1.94-9.12,3.11-9.05,3.05-14.3-4.92-14.08-21.35-33.32-37.1-55.05-50.01-32.89-19.54-68.61-30.98-106.36-36.43-54.59-7.87-107.72-2.04-159.52,16.7-1.25.45-2.78.92-3.97.61-7.77-2.04-15.48-4.3-23.22-6.49-.1-.37-.21-.74-.31-1.11Z" style="stroke-width: 0px;"/>
  <path d="m785.64,130.17c-10.19,30.9-8.36,60.07,6.89,88.52-4.56-.25-8.77-.36-12.95-.74-34.91-3.21-68.99,1.44-102.65,10.56-9.9,2.68-19.88,5.14-29.94,7.16-19.33,3.88-33.33-4.78-38.86-23.64-4.36-14.84-3.98-29.89-1.72-44.99,3.55-23.71,10.98-46.03,23.74-66.49,3.01-4.82,6.12-8.26,12.59-8.11,8.73.2,17.49-.86,26.23-.92,4.38-.03,8.77.97,13.54,1.56-2.23,3.51-4.46,6.45-6.04,9.7-1.54,3.17-2.42,6.67-3.86,10.8,17.08-4.17,33.5-5.88,50.66-5.2-6.66,13.5-13.05,26.46-19.46,39.45-4.53-1.03-9.17-2.65-13.91-3.06-19.64-1.71-35.46,14.22-34.54,34.42.7,15.36,10.52,22.47,26.08,19.45,19.81-3.84,37.36-12.14,52.73-25.19,16.2-13.77,32.47-27.46,48.71-41.18.62-.52,1.29-.98,2.76-2.1Z" style="stroke-width: 0px;"/>
  <path d="m321.5,127.09c23.48-10.48,47.2-17.62,72.85-20.78-9.25,11.13-13.3,23.89-17.06,36.82-.32,1.09-2.56,2.21-3.97,2.3-15.63,1.02-30.92,3.5-45.07,10.6-8.49,4.26-16.64,9.05-20.85,18.29-.35.77-1.33,1.42-2.17,1.76-19.74,8.01-40.09,13.8-61.17,17-.64.1-1.32.01-2.35.01,7.79-45.61,22.98-87.15,58.55-118.61,23.1-20.44,50.53-31.71,80.54-37.39,26.43-5.01,53.08-4.71,79.77-3.41.19,0,.37.26.05.02-8.43,5.08-17.65,9.49-25.46,15.68-8.19,6.49-15.09,14.62-22.38,22.2-1.52,1.58-2.52,2.58-5.06,2.38-37.65-3.08-69.68,15.89-85.17,50.26-.32.7-.53,1.45-1.05,2.88Z" style="stroke-width: 0px;"/>
  <path d="m594.49,200.6c-1.58,9.36-4.81,19.38-9.35,29.02-3.54,7.52-7.79,14.83-10.3,22.69-9.72,30.31,3.92,56.4,34.09,66.67,11.27,3.84,22.88,6.12,34.68,6.41,35.1.88,70.02-.74,104.27-9.46,37.06-9.44,70.17-26.92,100.14-50.27,14.66-11.42,28.25-24.21,42.4-36.29,1.23-1.05,3.02-1.92,4.59-2.01,4.63-.27,9.29-.09,13.92-.09-9.75,13.75-21.03,26.69-33.72,38.41-35.01,32.3-76.43,52.44-122.32,63.92-39.92,9.99-80.52,13.2-121.56,11.24-16.66-.8-33.34-1.37-49.95-2.77-16.23-1.37-32.22-4.43-46.9-12.01-28.47-14.69-33.85-47.25-10.7-69.54,9.1-8.76,20.32-15.35,30.71-22.72,7.81-5.54,16.28-10.23,23.66-16.28,6.23-5.1,11.3-11.61,16.35-16.92Z" style="stroke-width: 0px;"/>
  <path d="m803.92,115.95c9.31,2.18,17.1,6.71,24.48,12.29,5.45,4.12,7.85,8.3,5.55,15.68-2.53,8.08-1.97,16.76.39,25.1,4.52,15.96,18.22,26.54,34.89,27.4,18.46.95,34.57-5.54,49.78-15.07,19.11-11.97,34.46-27.95,48.28-45.54.84-1.07,1.69-2.13,2.15-2.7-2.53,11.25-5.43,22.91-7.7,34.69-1.33,6.93-1.76,14.04-2.39,21.08-.24,2.7-1.2,4.48-3.54,6.05-21.04,14.07-43.64,24.29-68.91,27.75-20.15,2.76-39.7.84-57.74-9.37-19.96-11.29-30.18-28.97-32.23-51.41-1.44-15.7,1.44-30.89,7.01-45.95Z" style="stroke-width: 0px;"/>
  <path d="m954.99,107.59c-5.24-7.65-9.63-15.61-15.49-22.29-17.73-20.23-40.75-24.38-66.49-12.59-2.64,1.21-4.3,1.03-6.66-.65-6.87-4.89-14.02-9.39-21.43-14.29,2.89-3.38,5.84-7.02,8.99-10.48,13.43-14.78,27.89-28.33,45.88-37.51,9.26-4.72,19.04-8.13,29.55-7.34,17.71,1.34,29.93,11.82,35.24,29.36,6.05,19.98,3.31,39.54-3.05,58.86-1.93,5.87-4.45,11.55-6.55,16.93Z" style="stroke-width: 0px;"/>
  <path d="m458.01,169.42c-6.02,6.71-12.02,13.43-18.05,20.13-8.52,9.46-15.63,19.87-20.79,31.5-2.23,5.02-6.59,7.4-10.87,9.86-16.23,9.33-33.92,14.36-52.31,17.01-30.77,4.43-60.64.84-89.52-10.72-.77-.31-1.51-.67-2.98-1.32,6.85-2.17,13.15-3.91,19.27-6.15,12.62-4.62,25.12-9.55,37.71-14.26,1.65-.62,3.46-.9,5.23-1.06,15.48-1.42,31.04-2.26,46.44-4.29,19.49-2.57,36.76-11.14,53.14-21.67,9.46-6.08,19.04-11.97,28.59-17.93,1.12-.7,2.35-1.25,3.52-1.86l.61.76Z" style="stroke-width: 0px;"/>
  <path d="m825.07,4.17c-9.31,3.45-18.52,7.18-27.94,10.3-13.76,4.56-24.46,12.74-32.11,25.06-.79,1.27-2.97,2.3-4.55,2.37-17.75.72-35.56.6-53.26,1.98-14.07,1.1-27.99,3.98-41.98,6.06-1.3.19-2.61.35-4.93.67,8.84-9.21,18.03-16.27,27.98-22.34,22.18-13.52,46.51-20.57,72.11-23.84,21.42-2.74,42.88-2.95,64.37-1.29.1.35.2.7.3,1.05Z" style="stroke-width: 0px;"/>
</svg>