<?xml version="1.0" encoding="UTF-8"?>
<svg id="a" data-name="Layer 1" xmlns="http://www.w3.org/2000/svg" viewBox="0 0 947.09 452.22">
  <path d="m947.09,189.4c-1.45,1.25-2.99,2.42-4.34,3.78-22.46,22.42-44.89,44.87-67.09,67.06h-221.92c-.84-2.27,1.11-2.88,2.08-3.85,22.96-23.04,45.98-46.04,69.29-69.36h221.97v2.37Z" style="fill: #304f86; stroke-width: 0px;"/>
  <path d="m458.74,449.83c-.22-.22-.74-.72-1.25-1.23-73.94-73.94-147.88-147.87-221.8-221.82-.11-.11-.08-.36-.1-.55-.02-.2,0-.39,0-.59C271.03,188.77,454.95,5.51,459.52,2.45c48.97,48.97,97.92,97.92,146.7,146.7,77.36,0,154.29,0,231.22-.01.15,0,.33-.18.45-.31.12-.13.19-.31.28-.47-2.68-4.17-107.59-109.7-147.47-148.35H222.78C148.3,74.48,74.25,148.53,0,222.78v2.37l227.07,227.07c77.15,0,154.39,0,231.68,0v-2.39Z" style="stroke-width: 0px;"/>
  <g>
    <path d="m458.74,452.22h229.62c-76.55,0-153.11,0-229.62,0h0Z" style="fill: #304f86; stroke-width: 0px;"/>
    <path d="m841.06,298.52h-230.99c-49.83,49.83-100.43,100.43-151.32,151.32,0,0,0,0-.01-.01v2.39c76.51,0,153.07,0,229.62,0,49.16-48.36,149.53-149.24,152.7-153.69Z" style="fill: #304f86; stroke-width: 0px;"/>
  </g>
</svg>