<?xml version="1.0" encoding="UTF-8"?>
<svg id="a" data-name="Layer 1" xmlns="http://www.w3.org/2000/svg" viewBox="0 0 925.8 931.93">
  <path d="m479.9,0c2.99,2.1,6.57,1.07,9.85,1.85,14.99,3.57,24.8,12.67,30.04,26.95,1.49,4.06.04,6.52-4.21,7.03-3.77.45-7.26,3.05-11.13,2-4.53-1.23-3.78-6.13-5.59-9.26-5.45-9.43-17.13-13.37-29.77-10.07-14.15,3.7-18.71,14.73-21.04,27.3-1.92,10.35-.44,20.45,3.53,30.19,4.24,10.41,14.06,16.73,25.94,16.62,11.46-.11,20.3-6.42,24.28-17.25,1.04-2.82.76-7.16,4.56-7.54,4.9-.49,9.86.87,14.22,3.33,2.33,1.31,1.7,3.93,1.01,5.89-6.23,17.71-16.92,30.63-40.23,31.95-15.25.87-29.21-1.72-39.64-14.1-7.15-8.48-10.79-18.55-12.37-29.39-1.85-12.69-1.1-25.19,4.09-37.07,7.14-16.36,20.27-24.76,37.52-27.46,1.01-.16,2.42.66,2.94-1h6Z" style="fill: #0c0c0c; stroke-width: 0px;"/>
  <path d="m925.8,598.22c-2.48,8.33-5.04,16.54-10.56,23.61-7.75,9.92-18.7,14.18-30.83,11.22-2.8-.68-4.13-1.88-2.98-5.35,2.85-8.59,2.63-8.68,11.56-9.27,1.86-.12,3.57-.63,5.18-1.55,8.17-4.69,14.17-17.05,12.81-26.36-.67-4.57-2.58-8.37-7.18-9.89-4.37-1.44-7.7,1.08-10.62,3.9-3.73,3.61-6.31,8.09-8.97,12.49-3.36,5.53-6.48,11.24-11.28,15.72-7.23,6.75-15.57,8.7-24.78,4.91-9.38-3.87-14.1-11.19-14.33-21.33-.28-12.07,3.09-22.86,11.18-32.04,6.76-7.67,15.49-8.99,25-7.93.63.07,1.31.31,1.84.66,2.56,1.67,2.15,4.17.97,6.16-1.6,2.69.85,7.65-4.49,8.21-14.2,1.49-20.1,7.78-20.75,22.19-.04.98.05,1.99.2,2.96.6,3.89,3.23,6.09,6.64,7.38,3.23,1.22,5.83-.31,8.02-2.58,4.18-4.35,7-9.65,10.15-14.72,3.42-5.5,6.82-10.99,11.66-15.42,7.2-6.6,15.57-8.03,24.47-4.74,9.03,3.34,14.79,9.83,16.15,19.7.15,1.05-.45,2.39.95,3.08v8.99Z" style="fill: #0c0c0c; stroke-width: 0px;"/>
  <path d="m0,579.24c2.49-1.53,5.17-2.45,8.03-3.2,23.53-6.11,47.02-12.39,70.53-18.61,6.3-1.67,7.87-.76,9.46,5.63,2.85,11.39,5.7,22.77,8.44,34.18,3.82,15.87-4.32,29.58-20.29,32.43-14.13,2.52-24.78-.94-31.2-15.63-3.2-7.31-5.16-15.01-6.79-22.76-.97-4.64-2.82-5.59-7.25-4.17-6.45,2.06-13.12,3.45-19.69,5.13-7.07,1.81-7.16,1.66-9.62-5.13-.46-1.27.11-3.1-1.61-3.87v-3.99Zm81.43,21.87c-.33-7.13-3.28-15.08-5.37-23.23-.71-2.75-2.65-2.03-4.33-1.62-5.78,1.38-11.53,2.87-17.28,4.37-1.63.43-3.19.94-2.56,3.33,2.13,8.12,3.34,16.53,7.13,24.12,2.81,5.63,7.47,7.04,14.93,5.11,5.33-1.38,7.46-4.41,7.49-12.08Z" style="fill: #0c0c0c; stroke-width: 0px;"/>
  <path d="m5.92,452.98c1.15-96.65,31.97-182.68,93.55-257.33,52.25-63.34,118.09-106.99,196.19-132.29,1.88-.61,3.83-1.2,5.78-1.39,5.05-.5,8.27,2.09,8.4,7.51.26,11.47.22,22.96,0,34.44-.08,4.55-3.78,6.24-7.52,7.53-23.09,7.95-45.27,17.94-66.26,30.41-79.36,47.12-134.78,113.89-164.47,201.4-14.45,42.6-19.64,86.52-16.8,131.45,1.01,15.95,3.68,31.65,5.44,47.48.67,6.01-.37,7.86-6.19,9.31-9.81,2.44-19.63,4.85-29.53,6.87-7.07,1.44-9.92-.56-11.27-7.6-2.94-15.33-5.07-30.79-6.14-46.36-.72-10.44-1.53-20.89-1.18-31.43Z" style="fill: #0c0c0c; stroke-width: 0px;"/>
  <path d="m919.86,445.94c.47,28.82-2.38,54.53-7.15,80.05-1.17,6.29-3.8,8.5-9.99,7.29-10.89-2.13-21.73-4.6-32.51-7.24-4.12-1.01-5.91-4.27-5.04-8.46,5.91-28.47,7.83-57.32,6.48-86.25-2.21-47.36-13.59-92.59-34.31-135.34-36.53-75.35-92.66-131.56-166.86-170-14.69-7.61-29.99-13.93-45.67-19.27-7.73-2.63-8.94-4.46-8.94-12.74,0-8.82-.02-17.64,0-26.46.03-9.59,4.04-12.51,13.34-9.62,40.83,12.7,78.67,31.51,113.72,55.89,74.63,51.94,126.81,120.94,156.19,206.9,14.17,41.44,21,84.2,20.75,125.24Z" style="fill: #0c0c0c; stroke-width: 0px;"/>
  <path d="m820.97,472.86c.22,17.86-.88,36.23-3.95,54.48-8.82,52.47-28.37,100.6-59.66,143.62-54.34,74.72-127.27,121.24-217.44,141.05-39.19,8.61-78.8,10.2-118.54,5.67-72.48-8.27-137.17-35.64-192.66-82.89-61.93-52.73-102.37-118.89-116.71-199.41-18.88-106.03,6.2-201.2,75.12-284.04,49.78-59.84,113.71-97.66,189.1-116.54,28.02-7.02,56.49-10.87,85.3-10.75,83.31.35,158.77,24.73,224.9,75.84,53.16,41.08,91.79,93.08,114.59,156.41,13.47,37.43,20.94,75.99,19.95,116.56Zm-361.49,339.55c31.98-.18,58.31-3.21,84.31-9.34,76.33-18.02,140.77-56.04,190.8-116.38,67.04-80.84,91.77-173.91,72.73-277.18-14.51-78.71-54.51-143.57-115.69-195.02-55.54-46.7-120.12-72.79-192.13-80.43-36.96-3.92-73.78-1.88-110.13,6.02-78.52,17.05-144.73,55.24-196.28,117.07-66.83,80.16-91.78,172.29-73.68,275.02,12.74,72.3,47.11,133.7,100.83,183.83,68.73,64.13,150.79,95.2,239.23,96.42Z" style="fill: #0c0c0c; stroke-width: 0px;"/>
  <path d="m327.92,60.7c0-12.36.09-22.51-.05-32.66-.05-3.46.93-5.27,4.74-5.33,2.44-.04,4.87-.96,7.31-1.42,5.45-1.03,6.99.2,7,5.74.03,18.96-.01,37.93.04,56.89,0,2.48.3,4.97.58,7.44,1.6,14.41,11.16,16.9,22.33,15.19,3.25-.5,6.38-1.72,9.57-2.6,9.29-2.57,14.05-9.19,15.32-18.25,1.85-13.19,1.86-26.5,1.41-39.8-.31-8.98-.31-17.95.27-26.91.34-5.32,11.07-10.72,15.89-8.12,2.53,1.37,2.2,4.02,2.07,6.22-.58,10.3.14,20.58.05,30.87-.08,9.47-.58,18.95-.33,28.42.74,27.58-17.42,42.63-39.94,46.48-6.78,1.16-13.6,1.73-20.36.74-14.71-2.15-22.89-11.37-24.94-26.75-1.7-12.78-.47-25.58-.96-36.14Z" style="fill: #0c0c0c; stroke-width: 0px;"/>
  <path d="m695.15,776.76c-1.08,2.18.56,3.37,1.71,4.72,2.8,3.3,2.26,5.87-1.49,8.04-4.73,2.75-9.24,5.87-14.05,8.47-3.82,2.06-4.32,4.3-2.04,7.93,10.96,17.38,21.77,34.85,32.66,52.28,3.22,5.16,2.89,6.36-3.02,10.08-5.14,3.24-7.15,2.88-10.09-1.85-10.84-17.46-21.79-34.85-32.4-52.44-2.47-4.09-4.57-4.27-8.18-1.73-4.47,3.14-9.32,5.74-13.86,8.8-3.53,2.37-5.74,1.36-7.61-2.08-1.84-3.38-5.46-6.67-.06-10.02,4.51-2.8,9.09-5.48,13.59-8.28,11.12-6.93,22.2-13.92,33.34-20.83,2.9-1.8,5.48-4.48,9.46-3.65.77.16,1.58-.17,1.72-1.28.64-5.04,5.01-7.23,8.18-10.22,12.08-11.41,24.35-22.64,36.52-33.96,5.09-4.73,10.91-3.28,13.3,3.4.77,2.15.02,3.86-1.59,5.34-4.29,3.93-8.42,8.04-12.86,11.79-2.98,2.51-3.15,4.46-.42,7.34,14.29,15.09,28.43,30.32,42.63,45.5,3.98,4.25,3.81,5.81-1.24,10.53-4.3,4.02-6.25,4.09-9.86.22-13.73-14.69-27.44-29.4-41.16-44.11-4.51-4.84-5.08-4.91-10.02-.55-3.37,2.97-6.67,6.01-9.92,9.11-4.56,4.35-5.63,4.35-10.09-.31-.9-.94-1.61-2.16-3.15-2.24Z" style="fill: #0c0c0c; stroke-width: 0px;"/>
  <path d="m825.64,714.16c11.1.33,22.69,2.55,34.35,4.26,2.99.44,4.05,2.28,2.07,4.88-2.31,3.04-4.73,6.02-7.35,8.79-2,2.11-4.78,1.09-7.14.82-8.57-1.01-17.1-2.33-25.66-3.42-10.01-1.28-17.81,2.31-23.46,10.74-1.85,2.76-2.21,4.58.89,6.96,6.71,5.17,13.07,10.79,19.5,16.31,4.48,3.85,4.56,5.98.69,10.37-4.99,5.66-5.73,5.76-10.78,1.52-18.7-15.73-37.4-31.45-56.09-47.18-5.61-4.72-5.71-5.38-.85-11.11,8.05-9.52,16.07-19.06,24.3-28.41,6.78-7.71,15.2-12.15,25.64-9.29,9.6,2.63,16.1,8.96,18.55,18.93.77,3.14.68,6.2-.15,9.33-1.74,6.53-1.68,6.54,5.5,6.5Zm-19.81-9.78c-.36-3.6-1.91-7.43-6.44-9.39-4.88-2.11-9.16-.68-12.81,2.66-6.63,6.07-11.87,13.42-17.91,20.05-1.96,2.16-.72,3.49.96,4.91,4.06,3.43,8.15,6.83,12.08,10.41,2.62,2.38,4.44,1.8,6.52-.75,4.18-5.16,8.63-10.09,12.86-15.21,2.78-3.38,4.79-7.15,4.74-12.67Z" style="fill: #0c0c0c; stroke-width: 0px;"/>
  <path d="m658.95,889.49c.32,2.15-1.22,3.11-2.97,3.85-17.65,7.49-35.3,15-52.97,22.43-4.35,1.83-5.82-1.16-7.19-4.48-7.97-19.22-16.01-38.41-24.03-57.61-1.72-4.11-3.3-8.29-5.17-12.33-1.59-3.45-.7-5.78,2.68-7.21,16.75-7.08,33.48-14.19,50.28-21.15,4.57-1.89,5.18-1.05,8.53,6.58,1.7,3.88-.05,5.63-3.14,6.92-11.75,4.89-23.5,9.79-35.33,14.52-4.03,1.61-5.5,3.67-3.12,7.8,1.31,2.27,2.04,4.87,3.03,7.33,2.83,7.04,2.8,6.98,10.04,3.87,9.71-4.17,19.47-8.23,29.22-12.34,2.28-.96,4.86-2.49,6.89-.24,2.32,2.59,3.75,5.96,3.71,9.47-.03,2.56-2.81,3.04-4.72,3.85-10.5,4.45-21,8.93-31.61,13.11-3.99,1.57-5.14,3.28-2.88,7.3,2.17,3.87,3.95,8.03,5.3,12.26,1.19,3.72,2.62,4.58,6.37,2.94,11.65-5.12,23.45-9.87,35.19-14.79,7.19-3.02,11.82-.02,11.91,7.91Z" style="fill: #0c0c0c; stroke-width: 0px;"/>
  <path d="m227.3,775.9c22.48.48,41.22,17.72,42.4,40.01.84,15.92-7.34,28.23-18.69,38.48-23.85,21.53-60.99,10.56-69.45-20.36-1.98-7.24-1.7-14.41.42-21.55,5.85-19.65,24.86-35.88,42.83-36.57.83-.03,1.66,0,2.49,0Zm-6.81,74.98c13.75.1,29.24-13.16,33.48-28.48,1.2-4.32,1.11-8.5-.08-12.75-4.5-16-22.83-23.71-37.29-15.65-7.93,4.42-13.24,11.23-18.15,18.71-10.06,15.34,2.46,37.94,22.04,38.17Z" style="fill: #0c0c0c; stroke-width: 0px;"/>
  <path d="m366.79,915.31c.05,5.5-3.67,8.33-8.84,6.89-17.54-4.88-35.04-9.88-52.62-14.6-4.35-1.17-5.61-3.21-4.41-7.52,6.81-24.36,13.46-48.77,20.21-73.15,1.08-3.92,3.06-5.65,7.69-4.3,16.99,4.96,34.09,9.51,51.15,14.24,4.63,1.29,5.19,2.92,3.79,8.79-.99,4.15-2.7,6.51-7.54,5.11-12.23-3.55-24.54-6.81-36.77-10.35-3.93-1.14-6.26-.92-6.76,4-.36,3.57-1.49,7.17-2.93,10.48-1.67,3.84.03,5.03,3.3,5.9,11.03,2.95,22.02,6.02,33.03,9.03,6.11,1.67,7.9,8.64,3.4,13.24-2.2,2.25-4.72,1.13-7.03.51-10.7-2.9-21.36-5.93-32.03-8.92-5.59-1.57-6.29-1.1-7.5,4.3-.87,3.87-1.67,7.82-3.15,11.46-1.76,4.34-.7,6.3,3.82,7.47,12.01,3.11,23.93,6.59,35.9,9.85,4.11,1.12,6.63,3.55,7.29,7.57Z" style="fill: #0c0c0c; stroke-width: 0px;"/>
  <path d="m796.94,666.96c.73-1.62,1.67-3.91,2.79-6.11,6.96-13.71,13.96-27.39,20.95-41.09,3.4-6.66,10.43-7.07,14.55-.84,1.51,2.27.08,4.12-.88,5.98-5.61,10.88-11.27,21.74-16.89,32.62-2.9,5.61-2.67,6.08,3.2,8.82,2.7,1.26,5.42,2.53,7.9,4.15,3.78,2.46,5.63,1.31,7.5-2.55,4.9-10.12,10.23-20.04,15.37-30.04,2.97-5.78,3.99-5.95,10.95-2.39,4.62,2.37,3.63,5.35,1.66,9.03-5.39,10.06-10.39,20.33-15.82,30.36-1.89,3.49-1.33,5.26,2.25,6.83,4.39,1.93,8.7,4.11,12.8,6.58,3.23,1.94,4.97,1.27,6.57-1.96,6.03-12.15,12.21-24.23,18.33-36.33,2.24-4.43,4.08-4.9,9.24-2.31,5.41,2.71,6.01,4.01,3.7,8.53-8.42,16.5-16.93,32.96-25.28,49.5-1.83,3.63-4.03,4.27-7.58,2.43-22.05-11.41-44.16-22.71-66.22-34.08-2.61-1.35-5.66-2.5-5.08-7.13Z" style="fill: #0c0c0c; stroke-width: 0px;"/>
  <path d="m64.67,721.39c-2.25.24-3.27-.65-4.19-1.99-5.89-8.59-5.34-10.47,4.01-14.97,7.31-3.52,14.46-7.35,21.79-10.83,3.26-1.55,3.89-3.15,2.13-6.48-4.73-8.92-9.21-17.98-13.52-27.11-1.49-3.16-3.02-3.09-5.73-1.66-8.47,4.49-17.16,8.58-25.57,13.19-4.3,2.36-6.57,1.19-8.66-2.85-4.27-8.24-4.3-8.4,3.96-12.55,21.44-10.78,42.88-21.58,64.31-32.38,5.58-2.81,6.83-2.31,10.15,4.16,2.99,5.83,2.69,6.96-2.77,9.71-6.81,3.42-13.57,6.93-20.5,10.09-3.33,1.52-4.07,3.15-2.34,6.48,4.65,8.94,9.06,18.02,13.52,27.06,1.36,2.76,3.04,3.45,5.94,1.88,6.83-3.7,13.77-7.19,20.71-10.68,5.21-2.62,6.85-2.01,9.29,3.18q3.64,7.75-4.12,11.66c-21.46,10.77-42.91,21.55-64.38,32.31-1.47.74-3,1.33-4.04,1.79Z" style="fill: #0c0c0c; stroke-width: 0px;"/>
  <path d="m538.88,59.84c0-15.46.11-30.93-.06-46.39-.05-4.73,1.86-6.33,6.32-5.42,1.79.36,3.58.67,5.38.98,4.39.75,6.46,3.04,6.43,7.79-.15,25.1.07,50.21-.18,75.31-.05,5.46,2.12,7.69,7.13,8.78,11.64,2.54,23.2,5.41,34.78,8.2,5.7,1.37,9.01,11.24,5.39,15.94-1.53,1.99-3.56,1.46-5.48,1-11.75-2.82-23.48-5.69-35.22-8.54-6.27-1.52-12.5-3.26-18.83-4.51-4.27-.84-5.74-3.11-5.71-7.26.11-15.29.05-30.59.05-45.88Z" style="fill: #0c0c0c; stroke-width: 0px;"/>
  <path d="m409.77,920.91c1.52-18.45,2.99-37.47,4.72-56.47.63-6.93.44-7.46-6.69-8.03-4.96-.4-9.92-.91-14.89-1.23-3.73-.24-5.2-2.03-5.04-5.78.37-8.47.71-9,9.27-8.4,18.06,1.27,36.11,2.64,54.15,4.12,2.32.19,5.64-.34,6.52,2.55,1.05,3.45.79,7.27-.5,10.67-.73,1.92-3.1,1.55-4.93,1.37-5.45-.54-10.92-.94-16.33-1.71-4.4-.63-6,.54-6.3,5.38-1.25,20.19-2.92,40.37-4.71,60.52-.65,7.37-5.69,9.82-12.39,6.76-4.55-2.08-2.32-5.96-2.89-9.73Z" style="fill: #0c0c0c; stroke-width: 0px;"/>
  <path d="m515.36,841.51c3.39-.31,3.84,2.27,4.31,4.49,3.47,16.53,6.85,33.08,10.25,49.63.8,3.9,1.67,7.79,2.28,11.72.66,4.26,2.84,5.48,6.97,4.52,8.87-2.06,17.81-3.86,26.71-5.79,7.64-1.66,11.5,2.2,10.08,10.04-.45,2.48-2.3,3.14-4.25,3.54-14.93,3.11-29.91,6.03-44.8,9.29-4.4.96-6.14-.74-6.96-4.67-5.22-25.13-10.45-50.25-15.79-75.35-.75-3.55.37-5.4,3.88-6,2.45-.42,4.88-.94,7.32-1.41Z" style="fill: #0c0c0c; stroke-width: 0px;"/>
  <path d="m184.1,729.99c0,1.18-1.46,2.11-2.66,3.24-15.22,14.38-30.36,28.84-45.71,43.1-2.9,2.69-2.97,4.31-.19,7.11,7.24,7.32,14.05,15.07,21.26,22.43,3.8,3.89.95,6.07-1.52,8.6-2.57,2.64-5.24,5.24-8.77,1.55-10.91-11.41-21.75-22.88-32.57-34.38-2.52-2.68-1.39-5.17.91-7.33,15.6-14.7,31.22-29.39,46.83-44.08,2.42-2.28,4.89-4.5,7.27-6.82,5.43-5.28,6.75-5.27,11.99.43,1.43,1.55,3.24,2.94,3.15,6.14Z" style="fill: #0c0c0c; stroke-width: 0px;"/>
  <path d="m86.61,753.57c-3.75-1.16-5.49-4.97-7.31-8.29-1.69-3.08.85-5.25,3.22-6.95,12-8.61,24.04-17.15,36.03-25.76,8.22-5.9,16.41-11.86,24.58-17.82,3.35-2.45,6.16-3.45,9.08.98,5.12,7.79,5.34,8,.31,11.64-20.32,14.65-40.66,29.28-60.98,43.94-1.35.97-2.62,2.05-4.92,2.28Z" style="fill: #0c0c0c; stroke-width: 0px;"/>
  <path d="m463.26,703.69c3.02-.91,3.47-3.53,4.93-5.21,1.77-2.04,3.79-3.17,6.56-2.63,2.83.56,2.59,2.97,3.16,5,2.36,8.37,1.08,16.82.64,25.25-.26,4.87-.25,9.64,3.37,13.56,11.07,11.98,4.15,27.77-5.74,33.84-4.23,2.6-9.67,3.64-11.85,9.06-.69,1.72-2.51,1.23-3.99,1.03-11.22-1.47-18.48-9.68-18.41-21,.04-6.3-.56-12.63.93-18.88.67-2.84-.07-5.58-1.34-8.19-1.68-3.43-2.97-6.99-3.68-10.76-.78-4.15-.93-8.01,3.85-10.08.69-.3,1.25-1.12,1.64-1.82,1.94-3.51.09-17.9-2.68-20.81-7.82-8.18-15.63-16.37-23.51-24.48-3.14-3.23-6.18-6.5-8.34-10.51-.91-1.69-2.07-2.93-4.36-2.31-15.15,4.13-30.84,6.52-44.8,14.42-3.69,2.09-5.14,4.45-5.14,9.06,0,5.67,1.05,11.88-3.17,17.06-1.91,2.35-1.23,5.76-1.95,8.64-.28,1.14.53,1.72,1.57,2.13,1.22.49,2.49,1,3.5,1.8,3.88,3.07,8.35,2.03,10.87-2.33,1.34-2.32-.19-3.53-1.39-4.7-3.57-3.5-5.11-7.14-2.44-11.99,2.84-5.17,6.56-8.79,12.83-8.61,4.86.15,7.27,2.59,7.67,7.37.53,6.39-1.22,11.78-6.62,15.7-1.84,1.33-2.84,2.9-2.11,5.53,5.33,19.1-4.84,25.13-17.3,27.72-7.27,1.51-14.94,2.76-22.25,2.11-18.42-1.62-25.18-11.59-22.27-32.23.43-3.06,1.87-5.99,2.96-8.94,3.76-10.16,3.31-20.13-1.26-29.94-.77-1.65-1.56-3.29-2.24-4.98-3.55-8.82-.33-14.92,9.03-16.18,5.24-.7,10.7-1.02,15.79.99,2.47.97,4.53.85,6.52-.67,5.29-4.03,10.49-8.17,15.81-12.15,1.68-1.26,2.55-2.7,1.84-4.68-3.41-9.43-3.93-19.82-9.18-28.6-4.63-7.73-9.16-9.86-16.25-4.11-6.28,5.1-8.01,5.09-15.13,1.24-4.08-2.2-8.4-3.94-12.61-5.9-6.66-3.09-13.05-6.7-18.36-11.78-9.89-9.46-21.14-17.21-31.88-25.57-6.76-5.26-10.28-10.77-7.67-19.52,2.01-6.77,2.4-14.13,8.58-18.98,2.41-1.89,1.52-4.4,1.29-7.18-11.31,5.8-22.21,11.71-32.11,19.33-2.04,1.57-4.26,4.14-6.88,1.38-2.4-2.53-.25-4.94,1.28-7.07,3.96-5.54,8.05-10.98,11.94-16.57,1.05-1.5,2.86-2.94,1.83-5.54-9.31,3-17.4,8.02-24.98,13.9-4.29,3.33-9.28,5.91-12.13,10.9-1.03,1.81-2.68,1.58-4.33.57-2.53-1.55-2.65-3.57-1.35-5.95,5.26-9.63,10.71-19.07,18.6-26.94,12.3-12.28,26.64-22.03,40.05-32.93,14.98-12.18,31.98-21.52,46.85-33.83,2.69-2.22,5.45-4.42,7.78-6.98,3.89-4.28,3.8-9.77.17-14.22-.73-.9-1.61-1.82-1.39-3.08,1.09-6.31-3.5-12.18-1.3-18.66.66-1.96-1.49-2.09-2.99-2.3-7.15-1-7.27-1.08-5.08-8.11.91-2.92.59-5.04-2.09-6.82-1.78-1.19-3.44-2.65-4.9-4.22-5.34-5.76-5.65-9.14-.72-15.27,13.8-17.13,14.8-35.76,5.9-55.03-5.57-12.05-8.64-24.3-7.81-37.53.04-.6-.08-1.21-.16-2.25-2.9,1.27-5.36,3.2-8.44.88-1.71-1.29-2.53,1.54-4.07,1.99-1.5.45-2.73,2.08-4.54.8-1.44-1.02-1.32-2.49-1.35-4.02-.23-11.45,2.8-20.9,14.47-25.84,4.7-1.99,9.08-4.82,13.44-7.53,6.28-3.9,12.75-3.85,19.66-2.05,3.38.88,4.61,2.72,4.91,5.87.38,3.97-.23,8.57,1.59,11.76,6.85,12.08,3.9,25.48,6.11,38.13.25,1.46.33,3.01.13,4.48-.88,6.43-.53,11.97,7.32,13.99,2.38.61,3.36,3.4,3.67,5.61.69,4.9,3.12,8.72,6.47,12.06,4.81,4.79,7.76,10.36,7.51,17.26-.15,4.19,2.24,6,5.81,5.68,7.58-.68,12.74,1.59,16.66,8.7,3.1,5.62,7.72,10.48,15.6,10.52,4.6.03,8.32,3.84,12.54,5.72,4.17,1.86,6.73,1.01,8.62-3.32,2.92-6.7,6.79-12.92,11.13-18.8,1.62-2.19,2.52-4.55,1.67-6.97-4.15-11.83-3.09-24.31-4.84-36.43-1.09-7.55-1.77-15.03-1.37-22.76.47-9.03,4.05-16.26,9.52-22.95,9.33-11.43,20.25-21.11,32.54-29.22,5.3-3.5,9.97-7.56,14.43-12.13,9.2-9.44,20.83-15.17,33.27-19.2,5.02-1.63,9.81-.29,14.38,2.1,19.16,10.05,30.79,25.75,34.89,46.89.56,2.89,1.48,3.6,4.05,3.16,1.52-.26,2.89.05,4.18,1.09,5.21,4.18,8.57,15.49,6.44,21.92-1.62,4.9-4.96,8.02-10.11,8.28-10.73.55-16.36-1.37-19.78-11.37-1.38-4.04.08-7.47,1.74-10.9.68-1.41,1.56-2.81.04-3.99-6.11-4.73-10.66-11.29-18.36-14.2-12.32-4.66-16.16-4.89-24.24,8.12-5.73,9.24-11.02,19.08-14.21,29.65-2.63,8.72-1.56,17.76-.97,26.7.06.97.54,1.91.63,2.89.87,8.91.9,8.59,9.85,9.8,4.66.63,9.09,3.62,13.7,3.8,12.07.47,13.74,10.3,17.08,18.23,1.55,3.67,1.56,5.7,6.87,6.5,11.3,1.7,22.34,5.45,27.37,17.83,1.86,4.58,8.03,5.38,12.22,2.05,3.38-2.69,6.51-5.69,9.94-8.31,7.04-5.38,14.55-9.84,23.66-10.68,1.84-.17,2.93-1.44,4.11-2.6,3.67-3.62,7.15-7.46,11.03-10.84,5.11-4.44,10.84-7.28,18.06-6.63,5.67.51,10.61-2.19,15.24-5.25,7.48-4.96,14.9-10.03,21.73-15.86,8.27-7.07,17.46-8.88,27.91-6.09,9.32,2.49,18.38,5.57,27.05,9.8,5.09,2.48,8.67,6.63,12.12,10.91.99,1.22,1.63,2.87-.1,3.9-3.3,1.96-4.98,5.29-7.41,7.99-2.9,3.23-6.55,5.09-10.94,5.18-3.33.06-6.66-.09-9.99-.08-4,0-7.18,1.65-8.79,5.36-1.91,4.43-5.08,5.14-9.61,4.95-9.97-.42-19.99-.33-29.97-.01-6.33.2-9.88,5.08-13.21,9.65-4.14,5.7-5.06,12.51-5.9,19.29-.23,1.86.57,3.29,2.03,4.28,11.18,7.63,15.02,19.39,17.79,31.69,3.77,16.71,3.34,33.64,2.46,50.6-.44,8.46-.62,16.93-.95,25.4-.11,2.74.83,4.58,3.43,6,4.82,2.63,8.22,6.54,7.03,12.5-1.2,6.02-4.59,10.71-10.44,13-5.05,1.98-12.2-1.39-15.24-6.74-2.93-5.17-1.78-13.09,3.38-16.64,4.08-2.82,4.15-5.64,3.53-10.08-1.46-10.55-5.6-19.18-14.15-25.78-6.71-5.18-12.84-11.12-19.62-16.2-9.18-6.89-19.3-6.09-29.08-1.58-11.05,5.1-18.4,14.6-25.92,23.7-5.97,7.23-12.31,13.85-21.05,17.91-5.56,2.58-7.23,9.34-4.98,17.62,1.15,4.22,3.08,8.14,6.32,11.12,6.58,6.05,8.88,13.79,9.3,22.34.64,13.03-.56,25.88-3.95,38.5-.21.8-.29,1.68-.67,2.38-7.46,13.47-11.09,29.07-19.81,41.48-6.56,9.34-7.6,17.74-5.66,27.84.61,3.2,1.62,5.97,3.95,8.36,3.19,3.28,2.84,7.87-.6,11.47-2.65,2.77-7.95,3.27-10.98.96-1.88-1.43-3.14-3.45-1.85-5.63,4.38-7.45,2.38-15.17,1.29-22.84-1.21-8.53-1.01-16.75,2.56-24.87,4.66-10.6,2.86-21.46.28-32.24-.88-3.69-2.5-7.22-2.42-11.12.04-1.75-.14-3.61-2.16-3.93-1.94-.3-2.13,1.78-2.75,3.01-6.27,12.44-12.97,24.67-18.16,37.65-1.64,4.11-3.96,8.1-6.68,11.59-5.25,6.73-8.95,14.2-12.16,22.02-2.51,6.12-7.85,7.25-12.9,3.22-3.49-2.79-7.17-5.75-12.09-4.36-3.19.9-6.25,2.56-8.52,4.97-3.01,3.2.35,6.12,1.29,8.93,4.49,13.5,7.19,27.53,12.55,40.77,1.68,4.15,1.09,8.85.9,13.34-.13,2.96-.02,5.94-.02,9.32Zm-123.16-389.43c-.47,8.26-2.54,15.4-5.3,22.34-1.93,4.86-4.3,5.15-7.3.98-1.35-1.87-2.41-3.96-3.44-6.03-1.63-3.23-4.03-4.23-6.75-1.73-8.08,7.44-17.5,13.21-25.37,20.91-2.73,2.67-2.41,4.79-.13,7.2,1.14,1.21,2.35,2.37,3.66,3.39,4.18,3.27,5.85,2.98,8.73-1.57,1.88-2.97,3.71-5.96,7.03-7.53,1.11-.53,2.44-1.95,3.56-.65,1.32,1.55-.33,2.69-1.3,3.72-4.62,4.9-7.59,10.87-10.82,16.67-1.02,1.83-1.84,4.84.42,5.04,5.35.46,5.85,3.04,4.8,7.25-.32,1.27.51,2.13,1.53,2.86,1.16.83,1.98,2.25,1.45,3.48-2.65,6.22-1.14,10.63,4.61,14.41,1.87,1.23,2.04,1.31,3.05-.24,7.54-11.52,16.51-22.09,22.81-34.45,2.87-5.62,5.67-11.25,8.08-17.08.51-1.24,1.15-3.1,3.22-2.11,1.64.79,1.85,2.2,1.22,3.8-.43,1.07-.83,2.16-1.29,3.22-8.99,20.75-21.29,39.27-37.28,55.32-.68.68-1.33,1.56-1.6,2.46-2.79,9.41-9.65,15.3-17.52,20.26-24.22,15.28-46.74,32.87-69.05,50.74-4.92,3.94-9.38,8.45-13.99,12.77-1.11,1.04-2.02,2.48-1.08,4,.78,1.25,2.03.76,3.06.08,13.24-8.65,28.8-12.95,41.7-22.24,1.07-.77,2.34-1.24,3.51-1.87,1.49-.81,2.9-.86,3.98.6,1.26,1.72.09,2.66-1.21,3.62-1.6,1.18-3.11,2.49-4.68,3.73-6.66,5.27-13.4,10.49-17.24,18.38-.62,1.27-2.14,2.8-.97,4.06,1.36,1.46,3.05.1,4.51-.61,5.67-2.74,11.37-5.44,17.01-8.26,3.22-1.61,5.44-.11,7.43,2.12,1.9,2.13,1.65,4.28.33,6.81-3.69,7.06-8.63,13.35-10.49,21.55-1.53,6.75-1.86,12.26,3.72,17.04,3.03,2.6,5.86,5.44,8.98,7.91,10.29,8.15,20.39,16.56,32.29,22.41,3.06,1.5,5.25,1.49,6.6-2.23,6.22-17.26,16.45-32.51,24.69-48.75,1.43-2.82,3.36-5.39,5.96-7.28,1.28-.93,2.76-2.29,4.48-.92,1.55,1.23.6,2.9.02,4.12-1.22,2.53-2.74,4.92-4.24,7.31-4.32,6.89-9.03,13.53-12.3,21.04-2.33,5.34-2.69,10.94-2.26,16.61.25,3.34,1.85,5.98,5.1,7.35,1.89.8,3.33.44,4.78-1.22,13.43-15.34,29.1-28.25,44.97-40.9,12.7-10.12,24.52-21.5,39.61-28.32,1.31-.59,2.34-1.84,3.47-2.82,1.49-1.28,1.81-2.09-.11-3.72-5.82-4.94-9.77-11.6-15.02-17.14-6.39-6.74-10.47-15.34-16.7-22.35-2.11-2.38-6.11-5.4-4.6-8.78,2.94-6.62.49-13.55,2.45-20.12.83-2.79-.05-5.69-2.65-7.54-3.02-2.15-2.52-4.08-.78-7.1,3.07-5.34,6.02-10.98,3.65-17.66-.52-1.48-.41-3.35-.07-4.94,1.86-8.78,1.64-17.84,3.84-26.57.85-3.36.5-6.66-2.17-9.26-2.85-2.77-5.52-2.05-6.44,1.79-.77,3.22-1.16,6.53-2,9.73-10.41,39.65-34.77,69.97-64.84,96.43-4.36,3.84-9.08,7.27-12.74,11.89-2.21,2.79-5.36,4.41-8.43,6.09-1,.55-1.99.71-2.66-.26-.82-1.19.43-1.72,1.08-2.35,3.7-3.59,7.14-7.52,11.18-10.68,26.7-20.91,46.2-47.57,62.05-77.15,5.35-9.99,9.47-20.46,10.72-31.86.22-2,.68-4.18-1.87-5.03-2.37-.79-4.28.18-5.53,2.24-.68,1.11-1.11,2.39-1.57,3.62-3.31,8.78-8.48,16.53-13.76,24.16-1.54,2.22-4.26,6.62-6.38,4.85-2.75-2.31,1.63-4.8,3.24-6.89,9.83-12.76,13.79-27,11.58-42.97-.56-4.07-2.44-5.67-6.43-3.83-3.21,1.48-6.72,1.78-10.11,2.53-3.75.84-5.07-.96-4.43-4.34.72-3.81.73-7.62.49-11.43-.24-3.9-1.43-7.4-5.79-10.09Zm137.8-38.48c.27-3.46-.13-6.93.63-10.42,3.14-14.3,10.55-26.65,18.17-38.77,6.37-10.13,21.59-13.37,31.22-6.2,4.75,3.54,10.72,4.85,14.84,9.3.97,1.04,2.87,3.36,4.6,1.7,1.37-1.31,1.17-3.96.12-5.65-4.94-7.95-8.36-16.85-15.84-23.21-3.76-3.2-7.94-5.79-11.72-8.97-3.17-2.67-7.35-5.1-11.95-3.26-10.52,4.2-20.81,8.85-28.81,17.29-5.17,5.45-10.88,10.27-17.27,14.25-13.91,8.67-24.99,20.28-34.83,33.19-2.26,2.97-3.47,6.21-3.54,10.11-.41,20.41,3.7,40.22,7.65,60.06.69,3.45,1.63,7.03,4.33,9.34,5.14,4.39,3.99,10.62,5.3,16.11.44,1.83-1.04,3.24-2.75,3.62-2.57.59-2.46-1.79-2.74-3.22-.53-2.78-1.08-5.51-2.21-8.13-1.03-2.36-1.89-2.57-4.44-1.22-6.31,3.34-10.26,8.62-14.02,14.35-7.05,10.71-13.71,21.55-16.38,34.33-1.14,5.43-.38,6.32,4.84,7.36,12.09,2.42,22.74-1.56,32.09-8.27,14.56-10.43,30.97-15.5,48.14-18.92,6.62-1.32,13.59-2.07,18.9-6.43,5.9-4.84,10.99-10.64,16.51-15.95,2.3-2.21,3.29-4.84,3.51-7.97,1.01-14.36-5.37-22.18-19.11-27.57-5.77-2.26-12.22-2.85-18.38-4.09-2.87-.58-4.74-2.32-4.58-5.05.53-9.37-2.81-18.4-2.28-27.75Zm78.02,262.35c.71-13.8.98-26.85-10.24-37.23-4.89-4.52-6.53-11.15-5.65-17.93,2.34-18.03-6.28-30.85-19.77-41.16-4.68-3.58-13.43-1.57-17.46,2.88-3.34,3.69-6.05,7.87-10.71,10.5-2.96,1.67-5.26,5.04-4.36,9.32.83,3.93-.81,7.09-3.49,9.89-1.25,1.3-2.08,3.12-4.44,2.01-2.3-1.09-1.88-2.74-1.26-4.61.98-2.99-.28-4.86-3.33-4.31-7.78,1.41-15.47,1.33-23.29.22-4.43-.63-8.53,2.94-7.7,6.22.8,3.13.76,6.23.87,9.37.32,8.51,4.15,11.23,12.42,8.42,6.43-2.18,12.51-5.29,18.29-8.8,2.55-1.55,3.86-1.11,5.14,1.13,2.4,4.19,5.18,8.09,8.45,11.67,1.55,1.7,2.63,3.9,2.44,6.37-.3,3.74,1.09,7.08,3.46,9.59,7.51,7.95,14.21,16.57,21.36,24.81,5.18,5.98,11.84,10.69,13.44,19.16.23,1.23,1.22,2.54,2.85,2.24,1.92-.36,2.22-1.94,1.8-3.49-1.08-3.99-2.38-7.92-3.48-11.9-.43-1.55-1.11-3.47,1.18-4.15,2.04-.61,2.54,1.29,3.01,2.59,1.89,5.3,3.65,10.64,5.41,15.98,1.14,3.45,2.13,6.96,3.36,10.38.43,1.2,1.12,2.57,2.7,2.63,1.76.07,2.03-1.5,2.46-2.7,1.23-3.42,2.26-6.92,3.55-10.32,1.64-4.34,1.14-8.11-1.28-12.25-5-8.57-10.15-17.16-12.51-26.96-.4-1.64-1.26-3.96,1.23-4.69,2.37-.69,2.9,1.35,3.55,3.16,1.9,5.29,3.83,10.58,5.99,15.78,1.05,2.53,2.2,5.25,5.98,6.18Zm-86.05-157.29c-4.52,3.04-7.11,6.32-10.35,8.92-6.84,5.47-14.12,10.56-19.31,17.83-2.44,3.41-5.15,7.12-2.37,11.27,4.53,6.77,4.4,14.62,4.7,21.95.34,8.63,5.58,14.09,9.67,20.46,1.18,1.84,3.1,2.03,5.22,2.2,13.66,1.08,23.98-5.53,33.9-13.77,7.73-6.42,11-15.52,15.81-23.74,5.68-9.71,9.55-19.61,4.87-30.92-.4-.96.25-2.44-1.54-2.64-1.51-.17-2.58.34-3.25,1.7-.96,1.94-2.04,3.79-3.73,5.22-2.73,2.31-3.35,4.82-.69,7.64.54.57,1.44,1.29.59,2.02-.49.41-2.06.47-2.25.16-1.55-2.6-4.97-3.59-5.31-7.36-.99-10.94-3.82-13.39-14.8-13.26-5.41.06-10.74.43-11.13-7.68Zm-167.47-43.98c7.72-7.58,18.09-11.63,23.71-21.07,2.76-4.64,5.6-9.38,5.02-15.26-.32-3.29-2.18-4.94-4.9-3.76-5.49,2.37-6.34-1.2-7.03-4.89-.42-2.25-.52-4.71-.08-6.94,2.28-11.61.1-23.17-.25-34.73-.08-2.74-1.22-5.45-3.38-7.53-1.75-1.69-3.3-1.67-4.33.53-.63,1.35-.59,2.92-2.83,2.51-1.84-.34-2.5-1.73-2.92-3.06-.7-2.17-1.12-4.46-1.38-6.73-.21-1.75-1.8-4.1,1.24-5,2.53-.75,3.65.95,4.34,3,.85,2.5,2.61,2.62,4.06,1.03,1.83-1.99-1.56-11.93-4.1-13.29-4.35-2.34-15.19.27-17.13,5.28-1.63,4.21-4.83,6.14-8.4,7.91-2.67,1.32-5.48,2.34-8.13,3.69-3.16,1.6-2.09,4.52-1.73,7.02.15,1.07,1.61,1.57,2.4.78,5.17-5.2,14.53-4.34,17.81-12.34.37-.9,1.33-2.56,3.09-1.69,1.41.7,2.31,1.79,2.41,3.49.23,3.85-.88,7.53-1.53,11.25-.29,1.65-1.78,2.79-3.76,2.6-2.32-.22-2.65,1.13-2.74,3.07-.17,3.63.7,7.32-.54,10.87-.41,1.18-.75,2.32.56,3.02,1.3.69,2.42-.19,2.94-1.17,3.08-5.79,9.22-7.29,14.28-10.26,1.22-.71,2.87-2.61,4.26-.42,1.37,2.15-1,2.85-2.16,3.75-3.89,3.02-7.45,6.32-10.83,10.87,3.34.64,6.48-.58,8.56,1.89.87,1.03,2.8,1.72,1.29,3.61-1.14,1.43-2.58,2.5-4.23,1.12-3.86-3.2-5.35-.1-6.71,2.53-1.63,3.15-2.09,6.43-.47,9.95,4.31,9.38,7.65,19.01,5.41,29.61-.3,1.42.45,2.38,1.51,2.83,3.09,1.31,1.54,2.89.46,4.55-2.13,3.26-5.39,6.1-3.79,11.43Zm148.96,354.71c1.69-3.72,1.95-5.16,1.76-9.17-.94-19.6-8.29-37.55-14.28-55.88-2.49-7.62-7.59-14.1-9.05-22.12-.43-2.37-2.75-2.89-4.28-1.87-2.61,1.74-5.69,2.33-8.21,4.4-4.26,3.49-7.4,7.82-10.99,11.84-3.07,3.44-3.29,6.38-1.83,9.65,7.28,16.29,13.82,33.11,28.73,44.5,1.07.81,1.72,2.98,3.55,1.79,1.72-1.12.67-2.85-.07-3.99-5.92-9.2-9.2-19.87-16.04-28.55-.99-1.26-1.5-2.93-2.1-4.46-.59-1.52-1.49-3.38.62-4.29,2.13-.92,2.91,1.01,3.58,2.49,2.49,5.46,6.19,10.16,9.31,15.23,7.77,12.64,16.38,24.92,19.3,40.44Zm86.24-268.87c3.48,8.12,1.5,18.25,2.79,28.08.56,4.25.49,8.6,2.53,12.58,1.44,2.81,2.96,3.73,6.32,2.37,5.09-2.05,9.34-4.91,12.78-9.13,5.76-7.08,11.66-14.04,17.4-21.13,4.83-5.97,3.53-11.2-3.58-14.21-8.33-3.52-16.18-7.7-22.19-14.7-.93-1.08-1.94-2.19-3.81-1.6-5.95,1.86-12.18,10.04-12.23,17.75Zm-201.24,309.35c3.29.23,7.25.02,11.13-1.05,5.74-1.58,11.53-3.12,16.68-6.21,3.15-1.89,4-5.09,2.59-8.24-1.5-3.37-3.95-.62-5.92-.14-3.87.96-7.65,1.69-10-2.68-1.76-3.29-3.94-3.89-7.72-3.03-9.14,2.08-14.78-2.46-14.2-10.65.12-1.73.23-3.42,2.31-3.87,2.08-.45,4.06-.1,5.39,1.67.67.89.97,2.08,1.31,3.18.39,1.26,1.11,1.99,2.47,2.02,1.6.03,1.88-1.33,2.11-2.35.6-2.56.36-5.48,2.15-7.53,2.33-2.68,2.4-5.7,2.25-8.88-.07-1.4.42-3.19-1.99-3.18-1.76.01-2.84.75-3.02,2.57-.23,2.4-1.28,4.51-3.91,4.01-2.85-.54-3.07-2.78-2.41-5.47.75-3.09,1.05-6.56-2.28-8.47-3.22-1.85-3.73-4.27-2.83-7.53.57-2.06.83-4.2,1.24-6.3.7-3.58-1.31-5.89-4.12-7.17-3.67-1.68-7.12-.54-10.04,2.18-2.31,2.15-2.48,4.83-1.02,7.24,8.88,14.76,7.87,29.98,2.12,45.33-5.31,14.16,1.98,24.87,17.7,24.56Zm339.7-403.22c1.17,0,2.33.05,3.5-.01,1.93-.11,4.39.44,5.12-2.01.66-2.25.44-4.68-1.48-6.48-.83-.78-1.84-1.37-2.74-2.09-.86-.68-2.27-1.18-1.64-2.65.59-1.38,2.06-1.12,3.09-.86,3.98,1.01,7.9,2.26,11.86,3.33,4.91,1.32,9.71,3.3,14.96,2.76,1.54-.16,3.46.19,3.48-2.43.04-4.78-5.62-11.38-10.54-11.72-2.65-.18-5.23-.45-7.83-1.01-1.45-.31-3.38.04-3.42-1.95-.05-2.45,2.09-1.99,3.7-2.05,6.83-.26,13.43,1.17,20.06,2.53,2.29.47,5.35,2,6.48-1.23,1.18-3.37-.81-5.58-4.23-6.62-3.61-1.1-7.1-2.65-10.73-3.65-9.55-2.64-18.31-1.7-25.52,6-1.45,1.55-3.35,2.71-5.15,3.88-7.78,5.03-15.78,9.76-23.34,15.1-3.26,2.3-7.71,4.17-8.64,8.53-1.56,7.34-1.99,14.85-1.23,22.39.13,1.26.33,2.51,1.63,2.74,1.85.34,1.42-1.5,1.75-2.42,5.57-15.43,14.58-20.4,30.87-20.06Zm-248.69,149.74c1.92.21,3.96-.68,6.08-1.79,4.05-2.11,4.88-6.5,7.42-9.66,3.41-4.23,3.03-8.33-.27-12.56-3.72-4.78-7.64-9.43-8.53-15.85-.72-5.23-2.11-5.97-6.14-2.66-6.15,5.05-11.81,10.71-17.54,16.26-1.76,1.7-1.34,4.04-.24,6.02,2.54,4.58,4.77,9.46,8,13.52,2.6,3.27,5.62,6.94,11.21,6.72Zm44.35,226.69c-5.65,6.1-10.54,11.28-15.31,16.55-6.12,6.77-4.27,14.83,4.19,18.12,4.27,1.66,7.54,4,8.34,8.9.82,5.01-1.62,8.28-5.47,10.81-4.18,2.75-4.82,6.83-4.57,11.31.13,2.3,1.44,3.49,3.63,2.88,6.16-1.73,11.92-4.26,15.65-9.84,5.41-8.1,4.97-13.6-1.42-20.71-2.15-2.39-3.4-5.17-3.94-8.4-1.58-9.38-.48-18.84-1.09-29.62Zm-69.74-66.39c-.06-.27-.55-1.86-.77-3.5-.39-2.89-.93-6.27-4.03-6.71-2.28-.32-3.77,2.69-5.05,4.72-3.92,6.21-9.79,9.76-16.49,12.15-3.67,1.31-7.03.71-8.96-2.98-1.57-3-3.53-2.95-6.1-1.62-1.77.92-3.36,1.98-4.78,3.46-3.96,4.11-8.59,7.2-14.13,8.92-1.69.52-4.95.19-3.18,3.88,1.36,2.84,2.99,2.24,5.2,1.02,4.64-2.57,9.42-4.87,14.13-7.29,1.37-.71,2.94-1.46,3.93.2.85,1.43-.64,2.32-1.54,3.27-2.59,2.74-6.05,4.03-9.32,5.59-3.03,1.45-5.99,2.98-7.97,5.76-1.19,1.67-3.32,3.61-1.48,5.71,2.04,2.34,3.93-.06,5.6-1.15,11.71-7.71,23.86-14.29,38.06-16.22,1.54-.21,3.26-1.11,4.35-2.23,3.05-3.13,6.35-5.84,10.33-7.66,1.73-.79,2.53-2.05,2.2-5.32Zm221.83-280.25c9.22,0,9.14,0,8.19-9.12-.49-4.73-1.04-9.43,2.15-13.79,1.26-1.73,1.56-4.35,1.77-6.61.22-2.32,1.26-5.26-1.65-6.66-2.86-1.38-5.39.06-7.69,1.86-8.28,6.46-12.16,14.87-11.78,25.41.33,8.9.16,8.91,9,8.9Zm-223.6,62.21c-3.18.54-3.72,2.65-3.23,4.89,1.09,4.95.74,9.94.74,14.91,0,3.91,1.25,4.38,4.82,3.14,8.98-3.14,16.83-6.55,16.91-18.34.03-3.97-.28-5.2-4.02-5-5.17.28-10.24,3.65-15.22.41Zm37.64,171.26c1.04-.34,3.64-.53,5.32-1.87,5.57-4.46,10.92-9.22,16.12-14.11,1.77-1.66,3.04-4.12,3.12-6.62.05-1.72.09-4.25-3.4-2.09-7.5,4.63-14.14,10.34-21.08,15.67-2.07,1.58-2.81,3.96-3.67,6.25-.87,2.3.24,3.05,3.61,2.77Zm149.69-231.49c11.09.24,10.29,1.31,12.38-10.1.15-.81.3-1.62.5-2.41.4-1.61.98-3.32-.43-4.66-1.75-1.66-3.46-.13-5.02.48-3.9,1.54-7.03,4.41-10.01,7.16-2.34,2.16-6.8,4.11-5.48,7.88,1.3,3.73,5.66.72,8.06,1.65Zm-23.64-106.19c.83-3.61-.33-5.9-5-5.89-7.6.02-12.18,2.25-12.06,6.28.1,3.14,6.36,7.55,11.08,7.81,3.99.22,5.83-2.16,5.98-8.2Zm109.12,238.57c.1-4.62-1.46-6.54-5.39-6.62-4.15-.08-8.7,4.14-8.67,8.04.03,3.69,3.74,7.83,7.03,7.86,3.96.03,6.91-3.87,7.03-9.27Zm-181.13,95.56c-1.13-1.48-.66-4.54-3.24-4.87-1.81-.23-3.64.93-4.86,2.77-3.55,5.36-5.15,11.62-8.23,17.18-.47.86-.41,1.51.13,2.25.71,1,1.38.47,2.1.04,6.43-3.84,10.08-10.08,13.91-16.15.16-.25.11-.64.19-1.22Zm-46.94,19.46c.55-2.84-.61-5.42-2-7.86-1.78-3.12-5.12-3.3-7.72-2.25-2.5,1.01-1.87,3.71-.73,5.98.88,1.75,1.88,3.6,2.1,5.5.38,3.34,2.2,4.86,5.22,4.49,3.24-.4,3.39-3.1,3.14-5.85Zm-69.32,81.62c.3-1.86-.76-2.94-2.34-3.24-2.07-.39-6.06,4.82-6.02,7.78.02,1.6.56,2.9,2.51,3.07,2.47.21,5.65-3.88,5.85-7.61Zm158.56-253.45c-1.46-1.52,1.58-5.03-2.05-5.5-2.93-.38-4.79,2.94-4.41,4.93.43,2.27.94,6.28,3.77,6.51,4.19.33,1.58-3.69,2.69-5.93Zm-78.32,314.81c-.25,2.05.14,4.29,2.85,4.57,2.27.23,3.15-1.72,2.89-3.68-.29-2.2-.37-5.08-3.42-5.22-2.64-.12-2.24,2.27-2.32,4.33Zm244.99-424.52c-2.49-2.91-5.2-3.46-7.9-3.88-1.63-.25-3.08.28-3.08,2.26,0,2.1,1.39,3.09,3.28,2.62,2.24-.56,4.48-.97,7.7-1Zm-210.97,215.82c-.26-1.65-1.53-1.9-2.88-1.82-2.18.13-3.12,1.49-3.18,3.55-.04,1.25.2,2.54,1.85,1.84,1.7-.72,3.88-1.07,4.22-3.57Z" style="fill: #0c0c0c; stroke-width: 0px;"/>
  <path d="m347.86,401.83c-.33.58-.63,1.61-1.29,2.25-6.91,6.64-12.37,14.72-20.27,20.37-.67.48-1.37.91-2.07,1.34-1.22.74-2.58,1.04-3.63-.07-1.04-1.1-.79-2.44.16-3.59,2.72-3.32,5.33-6.75,8.24-9.89,3.93-4.25,8.12-8.27,12.18-12.41,1.41-1.43,3.04-2.01,4.93-1.15,1.14.52,1.64,1.56,1.76,3.16Z" style="fill: #0c0c0c; stroke-width: 0px;"/>
  <path d="m516.14,496.43c3.56-.35,5.73,1.38,6.26,3.83,1.56,7.31,4.85,14.05,6.7,21.26.7,2.74.4,4.78-2.26,5.64-3.22,1.04-3.25-1.95-3.89-3.82-2.05-5.93-4-11.9-5.98-17.85-.57-1.72-.88-3.62-2.38-4.81-1.13-.89-2.15-1.75-1.42-3.27.74-1.53,2.32-.85,2.98-.98Z" style="fill: #0c0c0c; stroke-width: 0px;"/>
  <path d="m494.38,435.12c-7.43,6.37-13.77,11.87-20.2,17.26-2.82,2.36-6.06,4.27-9.69,4.84-4.04.63-7.43-1.16-9.86-4.43-5.09-6.87-5.33-14.88-5.8-22.71,1.84-.8,2.49.15,3.02.92,5.13,7.42,12.88,6.84,20.47,6.76,7.01-.08,13.94-.98,22.06-2.64Zm-24.61,9.32c2.32,0,4.67.26,6.94-.08,1.82-.28,4.37-.61,4.12-3.32-.28-2.95-3.04-1.84-4.32-1.53-6.84,1.62-13.37.24-19.88-1.52-1.49-.4-2.96-1.21-3.68.85-.72,2.04.49,2.99,2.3,3.61,4.72,1.61,9.57,2.27,14.53,1.99Zm-5.15,10.02s1.3.1,2.14-.5c1.53-1.1,3.82-2.4,2.83-4.62-1.04-2.35-3.07-.98-4.58-.09-1.52.9-2.77.4-4.13-.31-1.69-.89-3.74-1.54-4.54.79-.72,2.07,1.16,3.1,2.81,3.98,1.37.73,2.81.84,5.47.74Z" style="fill: #0c0c0c; stroke-width: 0px;"/>
  <path d="m466.75,397.86c-1.92.32-2.96-.63-2.75-2.41.4-3.41,3.16-3.97,5.83-3.82,1.77.1,5.46-1.37,4.9,1.93-.62,3.68-5,3.34-7.98,4.3Z" style="fill: #0c0c0c; stroke-width: 0px;"/>
  <path d="m471.32,406.86c-2.45,1.96-5.23,1.72-7.94,1.5-1.79-.14-2.53-1.38-2.42-3.1.16-2.42,2.16-1.98,3.32-1.59,2.4.82,5.19.96,7.04,3.19Z" style="fill: #0c0c0c; stroke-width: 0px;"/>
  <path d="m479.47,428.14c-4.2,3.66-7.71,4.58-12.13.42,4.24.67,7.53-1.88,12.13-.42Z" style="fill: #0c0c0c; stroke-width: 0px;"/>
  <path d="m497.95,418.43c-3.33-.39-6.65,1.36-8.15-2.61-.42-1.11.03-2.12,1.19-2.14,2.93-.04,5.34.98,6.96,4.75Z" style="fill: #0c0c0c; stroke-width: 0px;"/>
  <path d="m340.11,314.26c4.36,2.69,5.55,6.19,5.79,10.09.23,3.81.23,7.62-.49,11.43-.64,3.38.68,5.17,4.43,4.34,3.39-.76,6.89-1.05,10.11-2.53,3.99-1.84,5.87-.24,6.43,3.83,2.2,15.97-1.76,30.21-11.58,42.97-1.61,2.09-6,4.59-3.24,6.89,2.11,1.77,4.84-2.63,6.38-4.85,5.29-7.63,10.45-15.38,13.76-24.16.46-1.23.89-2.5,1.57-3.62,1.25-2.06,3.15-3.04,5.53-2.24,2.56.85,2.09,3.03,1.87,5.03-1.25,11.4-5.37,21.87-10.72,31.86-15.85,29.58-35.35,56.23-62.05,77.15-4.04,3.16-7.48,7.09-11.18,10.68-.65.63-1.9,1.16-1.08,2.35.67.96,1.66.8,2.66.26,3.07-1.68,6.22-3.29,8.43-6.09,3.65-4.61,8.37-8.05,12.74-11.89,30.07-26.47,54.43-56.78,64.84-96.43.84-3.2,1.23-6.51,2-9.73.92-3.83,3.59-4.56,6.44-1.79,2.67,2.6,3.02,5.9,2.17,9.26-2.21,8.73-1.99,17.8-3.84,26.57-.34,1.58-.45,3.46.07,4.94,2.37,6.68-.58,12.31-3.65,17.66-1.74,3.03-2.24,4.95.78,7.1,2.6,1.85,3.48,4.75,2.65,7.54-1.95,6.57.5,13.5-2.45,20.12-1.51,3.38,2.49,6.4,4.6,8.78,6.22,7.01,10.31,15.61,16.7,22.35,5.25,5.54,9.19,12.2,15.02,17.14,1.92,1.63,1.59,2.45.11,3.72-1.13.97-2.16,2.22-3.47,2.82-15.09,6.82-26.91,18.2-39.61,28.32-15.87,12.65-31.54,25.57-44.97,40.9-1.45,1.66-2.89,2.02-4.78,1.22-3.25-1.37-4.85-4.01-5.1-7.35-.43-5.67-.07-11.27,2.26-16.61,3.27-7.5,7.98-14.15,12.3-21.04,1.5-2.39,3.02-4.78,4.24-7.31.59-1.22,1.53-2.89-.02-4.12-1.72-1.37-3.2-.01-4.48.92-2.6,1.89-4.52,4.46-5.96,7.28-8.24,16.25-18.47,31.5-24.69,48.75-1.35,3.73-3.54,3.74-6.6,2.23-11.89-5.85-22-14.27-32.29-22.41-3.12-2.47-5.95-5.31-8.98-7.91-5.58-4.78-5.25-10.29-3.72-17.04,1.86-8.2,6.8-14.48,10.49-21.55,1.32-2.53,1.57-4.68-.33-6.81-1.99-2.23-4.21-3.73-7.43-2.12-5.64,2.82-11.34,5.52-17.01,8.26-1.46.71-3.15,2.07-4.51.61-1.17-1.26.35-2.79.97-4.06,3.84-7.89,10.58-13.11,17.24-18.38,1.56-1.24,3.07-2.55,4.68-3.73,1.3-.96,2.48-1.91,1.21-3.62-1.08-1.47-2.49-1.41-3.98-.6-1.17.63-2.44,1.1-3.51,1.87-12.9,9.29-28.46,13.59-41.7,22.24-1.04.68-2.28,1.17-3.06-.08-.95-1.52-.03-2.96,1.08-4,4.61-4.32,9.07-8.83,13.99-12.77,22.3-17.87,44.82-35.46,69.05-50.74,7.87-4.96,14.74-10.85,17.52-20.26.27-.9.92-1.78,1.6-2.46,15.99-16.04,28.3-34.56,37.28-55.32.46-1.06.86-2.14,1.29-3.22.64-1.6.42-3.02-1.22-3.8-2.08-1-2.71.87-3.22,2.11-2.41,5.83-5.21,11.46-8.08,17.08-6.31,12.36-15.28,22.93-22.81,34.45-1.02,1.56-1.18,1.47-3.05.24-5.75-3.78-7.27-8.19-4.61-14.41.53-1.23-.29-2.65-1.45-3.48-1.02-.74-1.85-1.59-1.53-2.86,1.05-4.21.55-6.78-4.8-7.25-2.26-.2-1.44-3.21-.42-5.04,3.23-5.8,6.2-11.76,10.82-16.67.97-1.03,2.62-2.17,1.3-3.72-1.12-1.31-2.44.12-3.56.65-3.32,1.58-5.15,4.56-7.03,7.53-2.88,4.56-4.55,4.84-8.73,1.57-1.31-1.02-2.52-2.18-3.66-3.39-2.27-2.41-2.6-4.52.13-7.2,7.87-7.7,17.29-13.48,25.37-20.91,2.72-2.5,5.13-1.51,6.75,1.73,1.04,2.07,2.1,4.16,3.44,6.03,3.01,4.17,5.37,3.88,7.3-.98,2.75-6.94,4.82-14.08,5.3-22.34Zm7.76,87.57c-.13-1.6-.62-2.64-1.76-3.16-1.89-.86-3.52-.29-4.93,1.15-4.06,4.13-8.25,8.15-12.18,12.41-2.91,3.15-5.51,6.58-8.24,9.89-.94,1.15-1.2,2.49-.16,3.59,1.05,1.11,2.41.82,3.63.07.7-.43,1.41-.86,2.07-1.34,7.9-5.65,13.36-13.73,20.27-20.37.67-.64.97-1.66,1.29-2.25Z" style="fill: #c2262a; stroke-width: 0px;"/>
  <path d="m477.9,275.78c-.53,9.35,2.81,18.37,2.28,27.75-.15,2.72,1.71,4.47,4.58,5.05,6.16,1.24,12.61,1.82,18.38,4.09,13.74,5.39,20.12,13.21,19.11,27.57-.22,3.13-1.21,5.76-3.51,7.97-5.52,5.31-10.62,11.11-16.51,15.95-5.31,4.35-12.28,5.11-18.9,6.43-17.16,3.42-33.57,8.48-48.14,18.92-9.36,6.7-20,10.69-32.09,8.27-5.22-1.05-5.98-1.93-4.84-7.36,2.68-12.78,9.34-23.62,16.38-34.33,3.77-5.73,7.71-11,14.02-14.35,2.55-1.35,3.41-1.14,4.44,1.22,1.14,2.62,1.68,5.35,2.21,8.13.27,1.42.17,3.8,2.74,3.22,1.71-.39,3.19-1.79,2.75-3.62-1.31-5.49-.16-11.72-5.3-16.11-2.7-2.31-3.64-5.89-4.33-9.34-3.95-19.84-8.05-39.65-7.65-60.06.08-3.9,1.28-7.14,3.54-10.11,9.84-12.91,20.93-24.52,34.83-33.19,6.39-3.98,12.1-8.8,17.27-14.25,8-8.44,18.29-13.09,28.81-17.29,4.61-1.84,8.78.58,11.95,3.26,3.77,3.18,7.95,5.77,11.72,8.97,7.48,6.37,10.91,15.26,15.84,23.21,1.05,1.68,1.24,4.33-.12,5.65-1.74,1.66-3.64-.65-4.6-1.7-4.12-4.45-10.08-5.76-14.84-9.3-9.62-7.16-24.84-3.93-31.22,6.2-7.62,12.12-15.04,24.46-18.17,38.77-.76,3.48-.36,6.95-.63,10.42Z" style="fill: #c2262a; stroke-width: 0px;"/>
  <path d="m555.92,538.13c-3.78-.93-4.93-3.64-5.98-6.18-2.16-5.19-4.09-10.48-5.99-15.78-.65-1.81-1.19-3.85-3.55-3.16-2.48.72-1.62,3.04-1.23,4.69,2.36,9.81,7.51,18.39,12.51,26.96,2.41,4.14,2.92,7.91,1.28,12.25-1.29,3.4-2.32,6.9-3.55,10.32-.43,1.19-.7,2.77-2.46,2.7-1.58-.06-2.27-1.43-2.7-2.63-1.23-3.42-2.22-6.92-3.36-10.38-1.77-5.34-3.52-10.69-5.41-15.98-.47-1.3-.97-3.2-3.01-2.59-2.3.68-1.61,2.6-1.18,4.15,1.11,3.98,2.41,7.91,3.48,11.9.42,1.54.12,3.12-1.8,3.49-1.63.31-2.62-1-2.85-2.24-1.6-8.47-8.25-13.18-13.44-19.16-7.15-8.24-13.85-16.85-21.36-24.81-2.37-2.51-3.76-5.85-3.46-9.59.2-2.47-.89-4.68-2.44-6.37-3.27-3.59-6.05-7.48-8.45-11.67-1.28-2.24-2.59-2.68-5.14-1.13-5.79,3.51-11.86,6.61-18.29,8.8-8.27,2.81-12.1.1-12.42-8.42-.12-3.14-.08-6.25-.87-9.37-.84-3.28,3.26-6.85,7.7-6.22,7.82,1.11,15.51,1.19,23.29-.22,3.05-.55,4.31,1.32,3.33,4.31-.61,1.87-1.03,3.52,1.26,4.61,2.36,1.11,3.19-.7,4.44-2.01,2.67-2.8,4.31-5.96,3.49-9.89-.9-4.28,1.39-7.65,4.36-9.32,4.66-2.63,7.37-6.82,10.71-10.5,4.03-4.45,12.78-6.46,17.46-2.88,13.49,10.31,22.11,23.13,19.77,41.16-.88,6.79.77,13.41,5.65,17.93,11.21,10.38,10.94,23.43,10.24,37.23Zm-39.78-41.7c-.66.14-2.24-.55-2.98.98-.73,1.52.29,2.37,1.42,3.27,1.51,1.19,1.81,3.09,2.38,4.81,1.98,5.95,3.93,11.92,5.98,17.85.65,1.87.67,4.86,3.89,3.82,2.65-.86,2.96-2.9,2.26-5.64-1.85-7.21-5.13-13.94-6.7-21.26-.52-2.45-2.69-4.19-6.26-3.83Z" style="fill: #c2262a; stroke-width: 0px;"/>
  <path d="m469.87,380.84c.39,8.11,5.72,7.74,11.13,7.68,10.99-.13,13.81,2.32,14.8,13.26.34,3.78,3.76,4.76,5.31,7.36.19.31,1.76.25,2.25-.16.85-.73-.05-1.45-.59-2.02-2.65-2.82-2.03-5.33.69-7.64,1.69-1.43,2.78-3.28,3.73-5.22.67-1.36,1.74-1.87,3.25-1.7,1.79.2,1.14,1.67,1.54,2.64,4.68,11.31.81,21.21-4.87,30.92-4.81,8.22-8.08,17.32-15.81,23.74-9.92,8.24-20.24,14.86-33.9,13.77-2.12-.17-4.04-.36-5.22-2.2-4.09-6.37-9.33-11.83-9.67-20.46-.29-7.33-.17-15.18-4.7-21.95-2.78-4.16-.07-7.86,2.37-11.27,5.2-7.27,12.48-12.35,19.31-17.83,3.24-2.59,5.83-5.88,10.35-8.92Zm24.51,54.28c-8.11,1.66-15.05,2.56-22.06,2.64-7.59.08-15.34.66-20.47-6.76-.53-.77-1.18-1.71-3.02-.92.47,7.83.7,15.84,5.8,22.71,2.42,3.27,5.82,5.05,9.86,4.43,3.63-.56,6.87-2.48,9.69-4.84,6.43-5.39,12.77-10.9,20.2-17.26Zm-27.63-37.26c2.98-.97,7.36-.63,7.98-4.3.56-3.3-3.13-1.83-4.9-1.93-2.66-.15-5.42.41-5.83,3.82-.21,1.78.83,2.73,2.75,2.41Zm4.57,9c-1.86-2.23-4.65-2.37-7.04-3.19-1.16-.39-3.16-.83-3.32,1.59-.11,1.72.63,2.96,2.42,3.1,2.72.21,5.49.46,7.94-1.5Zm8.15,21.28c-4.6-1.47-7.89,1.09-12.13.42,4.42,4.16,7.93,3.24,12.13-.42Zm18.47-9.71c-1.62-3.77-4.03-4.79-6.96-4.75-1.16.02-1.61,1.03-1.19,2.14,1.5,3.97,4.82,2.22,8.15,2.61Z" style="fill: #fdfefe; stroke-width: 0px;"/>
  <path d="m302.4,336.86c-1.59-5.33,1.66-8.17,3.79-11.43,1.08-1.66,2.63-3.24-.46-4.55-1.06-.45-1.81-1.41-1.51-2.83,2.24-10.6-1.09-20.22-5.41-29.61-1.62-3.52-1.16-6.8.47-9.95,1.36-2.64,2.85-5.73,6.71-2.53,1.66,1.38,3.1.31,4.23-1.12,1.51-1.89-.42-2.58-1.29-3.61-2.08-2.46-5.22-1.25-8.56-1.89,3.38-4.55,6.94-7.85,10.83-10.87,1.16-.9,3.52-1.6,2.16-3.75-1.39-2.19-3.04-.29-4.26.42-5.06,2.97-11.2,4.47-14.28,10.26-.52.99-1.64,1.86-2.94,1.17-1.31-.69-.97-1.83-.56-3.02,1.23-3.56.36-7.25.54-10.87.09-1.95.42-3.29,2.74-3.07,1.99.19,3.48-.95,3.76-2.6.65-3.72,1.76-7.39,1.53-11.25-.1-1.7-1-2.78-2.41-3.49-1.76-.87-2.72.79-3.09,1.69-3.28,8-12.64,7.14-17.81,12.34-.79.79-2.25.29-2.4-.78-.36-2.5-1.43-5.41,1.73-7.02,2.65-1.34,5.46-2.37,8.13-3.69,3.58-1.77,6.77-3.7,8.4-7.91,1.94-5.01,12.78-7.61,17.13-5.28,2.54,1.36,5.93,11.3,4.1,13.29-1.45,1.58-3.21,1.47-4.06-1.03-.69-2.04-1.82-3.74-4.34-3-3.04.9-1.45,3.25-1.24,5,.27,2.27.69,4.56,1.38,6.73.43,1.33,1.08,2.72,2.92,3.06,2.24.41,2.2-1.16,2.83-2.51,1.03-2.19,2.58-2.22,4.33-.53,2.16,2.08,3.3,4.79,3.38,7.53.35,11.57,2.53,23.12.25,34.73-.44,2.23-.34,4.69.08,6.94.69,3.69,1.54,7.26,7.03,4.89,2.72-1.18,4.58.47,4.9,3.76.57,5.89-2.26,10.63-5.02,15.26-5.62,9.44-15.99,13.49-23.71,21.07Z" style="fill: #fdfefe; stroke-width: 0px;"/>
  <path d="m451.36,691.57c-2.93-15.52-11.53-27.8-19.3-40.44-3.12-5.07-6.82-9.77-9.31-15.23-.67-1.48-1.45-3.41-3.58-2.49-2.11.92-1.21,2.77-.62,4.29.6,1.53,1.1,3.2,2.1,4.46,6.84,8.69,10.12,19.36,16.04,28.55.74,1.14,1.78,2.88.07,3.99-1.83,1.19-2.48-.98-3.55-1.79-14.91-11.38-21.45-28.21-28.73-44.5-1.46-3.27-1.25-6.21,1.83-9.65,3.59-4.02,6.73-8.35,10.99-11.84,2.52-2.07,5.6-2.66,8.21-4.4,1.53-1.02,3.85-.5,4.28,1.87,1.46,8.02,6.56,14.51,9.05,22.12,6,18.32,13.34,36.27,14.28,55.88.19,4.02-.06,5.45-1.76,9.17Z" style="fill: #c2262a; stroke-width: 0px;"/>
  <path d="m537.61,422.7c.05-7.71,6.28-15.89,12.23-17.75,1.87-.59,2.88.52,3.81,1.6,6.02,7,13.86,11.18,22.19,14.7,7.11,3,8.41,8.24,3.58,14.21-5.74,7.09-11.64,14.06-17.4,21.13-3.44,4.23-7.69,7.08-12.78,9.13-3.35,1.35-4.88.44-6.32-2.37-2.04-3.98-1.97-8.32-2.53-12.58-1.29-9.83.69-19.96-2.79-28.08Z" style="fill: #c2262a; stroke-width: 0px;"/>
  <path d="m336.36,732.05c-15.72.31-23-10.39-17.7-24.56,5.75-15.35,6.76-30.56-2.12-45.33-1.45-2.42-1.28-5.1,1.02-7.24,2.92-2.72,6.37-3.86,10.04-2.18,2.82,1.29,4.82,3.59,4.12,7.17-.41,2.1-.68,4.25-1.24,6.3-.9,3.26-.39,5.68,2.83,7.53,3.33,1.92,3.04,5.38,2.28,8.47-.66,2.7-.44,4.93,2.41,5.47,2.63.5,3.67-1.61,3.91-4.01.18-1.82,1.26-2.56,3.02-2.57,2.42-.01,1.93,1.77,1.99,3.18.15,3.17.08,6.2-2.25,8.88-1.79,2.06-1.56,4.97-2.15,7.53-.24,1.02-.51,2.38-2.11,2.35-1.36-.02-2.08-.76-2.47-2.02-.34-1.09-.64-2.29-1.31-3.18-1.33-1.77-3.31-2.13-5.39-1.67-2.08.45-2.19,2.15-2.31,3.87-.59,8.19,5.05,12.74,14.2,10.65,3.78-.86,5.96-.26,7.72,3.03,2.34,4.36,6.12,3.63,10,2.68,1.97-.49,4.41-3.23,5.92.14,1.41,3.15.56,6.34-2.59,8.24-5.15,3.1-10.94,4.63-16.68,6.21-3.88,1.07-7.84,1.28-11.13,1.05Z" style="fill: #c2262a; stroke-width: 0px;"/>
  <path d="m676.06,328.83c-16.29-.33-25.3,4.63-30.87,20.06-.33.92.1,2.76-1.75,2.42-1.3-.24-1.5-1.49-1.63-2.74-.76-7.53-.33-15.04,1.23-22.39.93-4.36,5.37-6.22,8.64-8.53,7.56-5.34,15.56-10.07,23.34-15.1,1.8-1.17,3.7-2.33,5.15-3.88,7.21-7.7,15.97-8.64,25.52-6,3.64,1,7.12,2.55,10.73,3.65,3.41,1.04,5.41,3.26,4.23,6.62-1.13,3.23-4.2,1.7-6.48,1.23-6.63-1.36-13.23-2.79-20.06-2.53-1.61.06-3.75-.4-3.7,2.05.04,1.99,1.98,1.64,3.42,1.95,2.6.55,5.18.83,7.83,1.01,4.92.33,10.58,6.94,10.54,11.72-.02,2.63-1.94,2.27-3.48,2.43-5.24.55-10.05-1.43-14.96-2.76-3.96-1.07-7.88-2.32-11.86-3.33-1.03-.26-2.49-.51-3.09.86-.63,1.47.77,1.96,1.64,2.65.9.71,1.91,1.3,2.74,2.09,1.92,1.8,2.14,4.24,1.48,6.48-.72,2.46-3.18,1.9-5.12,2.01-1.16.06-2.33.01-3.5.01Z" style="fill: #fdfefe; stroke-width: 0px;"/>
  <path d="m427.37,478.57c-5.59.22-8.61-3.45-11.21-6.72-3.23-4.06-5.45-8.93-8-13.52-1.1-1.98-1.51-4.31.24-6.02,5.72-5.55,11.39-11.21,17.54-16.26,4.03-3.31,5.42-2.57,6.14,2.66.88,6.42,4.81,11.08,8.53,15.85,3.29,4.23,3.67,8.33.27,12.56-2.54,3.16-3.38,7.55-7.42,9.66-2.12,1.11-4.16,2-6.08,1.79Z" style="fill: #c2262a; stroke-width: 0px;"/>
  <path d="m471.72,705.26c.61,10.78-.49,20.25,1.09,29.62.54,3.23,1.8,6.01,3.94,8.4,6.39,7.11,6.83,12.61,1.42,20.71-3.73,5.58-9.49,8.11-15.65,9.84-2.18.61-3.5-.58-3.63-2.88-.25-4.48.39-8.56,4.57-11.31,3.85-2.53,6.3-5.8,5.47-10.81-.8-4.9-4.07-7.24-8.34-8.9-8.46-3.29-10.31-11.34-4.19-18.12,4.77-5.28,9.66-10.45,15.31-16.55Z" style="fill: #c2262a; stroke-width: 0px;"/>
  <path d="m401.99,638.88c.33,3.26-.47,4.53-2.2,5.32-3.98,1.82-7.28,4.53-10.33,7.66-1.09,1.12-2.81,2.02-4.35,2.23-14.19,1.94-26.35,8.51-38.06,16.22-1.66,1.09-3.55,3.49-5.6,1.15-1.84-2.1.29-4.04,1.48-5.71,1.98-2.78,4.94-4.31,7.97-5.76,3.27-1.57,6.73-2.85,9.32-5.59.9-.96,2.39-1.84,1.54-3.27-.99-1.66-2.56-.9-3.93-.2-4.72,2.42-9.5,4.73-14.13,7.29-2.21,1.23-3.84,1.82-5.2-1.02-1.77-3.69,1.48-3.36,3.18-3.88,5.54-1.72,10.18-4.81,14.13-8.92,1.42-1.48,3.01-2.54,4.78-3.46,2.57-1.34,4.52-1.38,6.1,1.62,1.93,3.68,5.29,4.29,8.96,2.98,6.69-2.39,12.57-5.94,16.49-12.15,1.28-2.03,2.77-5.05,5.05-4.72,3.09.44,3.64,3.82,4.03,6.71.22,1.63.71,3.23.77,3.5Z" style="fill: #c2262a; stroke-width: 0px;"/>
  <path d="m623.82,358.63c-8.84,0-8.67,0-9-8.9-.39-10.54,3.49-18.95,11.78-25.41,2.3-1.79,4.83-3.24,7.69-1.86,2.91,1.4,1.87,4.34,1.65,6.66-.22,2.26-.51,4.88-1.77,6.61-3.19,4.36-2.64,9.06-2.15,13.79.95,9.12,1.03,9.11-8.19,9.12Z" style="fill: #c2262a; stroke-width: 0px;"/>
  <path d="m400.22,420.84c4.98,3.24,10.05-.14,15.22-.41,3.74-.2,4.04,1.03,4.02,5-.08,11.79-7.93,15.2-16.91,18.34-3.57,1.25-4.82.77-4.82-3.14,0-4.97.35-9.96-.74-14.91-.49-2.24.05-4.34,3.23-4.89Z" style="fill: #c2262a; stroke-width: 0px;"/>
  <path d="m437.86,592.11c-3.37.28-4.47-.47-3.61-2.77.86-2.29,1.61-4.66,3.67-6.25,6.95-5.33,13.58-11.04,21.08-15.67,3.5-2.16,3.46.38,3.4,2.09-.08,2.49-1.35,4.95-3.12,6.62-5.2,4.9-10.55,9.65-16.12,14.11-1.67,1.34-4.27,1.53-5.32,1.87Z" style="fill: #c2262a; stroke-width: 0px;"/>
  <path d="m587.55,360.62c-2.4-.93-6.76,2.08-8.06-1.65-1.32-3.77,3.15-5.71,5.48-7.88,2.98-2.76,6.1-5.62,10.01-7.16,1.56-.62,3.27-2.15,5.02-.48,1.41,1.34.83,3.05.43,4.66-.2.8-.35,1.61-.5,2.41-2.09,11.41-1.29,10.34-12.38,10.1Z" style="fill: #c2262a; stroke-width: 0px;"/>
  <path d="m563.91,254.42c-.15,6.04-1.99,8.42-5.98,8.2-4.72-.26-10.99-4.67-11.08-7.81-.12-4.02,4.46-6.26,12.06-6.28,4.67-.01,5.83,2.27,5,5.89Z" style="fill: #f7e928; stroke-width: 0px;"/>
  <path d="m673.02,492.99c-.12,5.41-3.08,9.31-7.03,9.27-3.29-.03-7-4.17-7.03-7.86-.04-3.9,4.51-8.12,8.67-8.04,3.94.08,5.5,2,5.39,6.62Z" style="fill: #f7e928; stroke-width: 0px;"/>
  <path d="m491.89,588.55c-.08.59-.03.97-.19,1.22-3.83,6.07-7.48,12.31-13.91,16.15-.72.43-1.39.95-2.1-.04-.53-.75-.6-1.4-.13-2.25,3.08-5.56,4.68-11.82,8.23-17.18,1.22-1.84,3.05-3,4.86-2.77,2.58.33,2.11,3.39,3.24,4.87Z" style="fill: #c2262a; stroke-width: 0px;"/>
  <path d="m444.95,608.01c.25,2.75.11,5.45-3.14,5.85-3.02.38-4.83-1.15-5.22-4.49-.22-1.89-1.21-3.74-2.1-5.5-1.14-2.27-1.78-4.97.73-5.98,2.6-1.05,5.94-.86,7.72,2.25,1.39,2.43,2.55,5.02,2,7.86Z" style="fill: #c2262a; stroke-width: 0px;"/>
  <path d="m375.64,689.63c-.21,3.74-3.39,7.82-5.86,7.61-1.95-.17-2.48-1.48-2.51-3.07-.04-2.96,3.95-8.17,6.02-7.78,1.59.3,2.64,1.38,2.35,3.24Z" style="fill: #c2262a; stroke-width: 0px;"/>
  <path d="m534.19,436.19c-1.12,2.23,1.5,6.25-2.69,5.93-2.83-.22-3.34-4.24-3.77-6.51-.37-1.98,1.48-5.31,4.41-4.93,3.63.47.59,3.98,2.05,5.5Z" style="fill: #c2262a; stroke-width: 0px;"/>
  <path d="m455.87,751c.07-2.06-.32-4.45,2.32-4.33,3.05.14,3.13,3.02,3.42,5.22.26,1.97-.62,3.91-2.89,3.68-2.71-.27-3.1-2.52-2.85-4.57Z" style="fill: #c2262a; stroke-width: 0px;"/>
  <path d="m700.86,326.48c-3.22.03-5.46.44-7.7,1-1.89.47-3.28-.52-3.28-2.62,0-1.99,1.45-2.51,3.08-2.26,2.7.41,5.41.97,7.9,3.88Z" style="fill: #fdfefe; stroke-width: 0px;"/>
  <path d="m489.9,542.3c-.34,2.5-2.52,2.86-4.22,3.57-1.65.7-1.89-.6-1.85-1.84.06-2.06,1-3.42,3.18-3.55,1.35-.08,2.62.17,2.88,1.82Z" style="fill: #c2262a; stroke-width: 0px;"/>
  <path d="m469.77,444.43c-4.96.28-9.81-.38-14.53-1.99-1.81-.62-3.01-1.57-2.3-3.61.72-2.06,2.19-1.26,3.68-.85,6.51,1.76,13.04,3.14,19.88,1.52,1.28-.3,4.04-1.41,4.32,1.53.26,2.71-2.3,3.04-4.12,3.32-2.26.35-4.62.08-6.94.08Z" style="fill: #fdfefe; stroke-width: 0px;"/>
  <path d="m464.62,454.45c-2.66.1-4.1,0-5.47-.74-1.65-.88-3.53-1.91-2.81-3.98.81-2.33,2.85-1.68,4.54-.79,1.36.71,2.61,1.21,4.13.31,1.51-.89,3.53-2.27,4.58.09.98,2.22-1.31,3.51-2.83,4.62-.83.6-2.17.51-2.14.5Z" style="fill: #c2262a; stroke-width: 0px;"/>
</svg>