<?xml version="1.0" encoding="UTF-8"?>
<svg id="a" data-name="Layer 1" xmlns="http://www.w3.org/2000/svg" viewBox="0 0 877.5 779.81">
  <path d="m.8,418.09c2.09,5.38,4.2,10.75,6.27,16.14,28.14,72.88,78.23,126.18,146.27,163.2,40.17,21.86,82.98,36.08,128.59,40.62,86.03,8.57,167.8-4.25,242.25-50.83,61.8-38.67,107.75-90.74,130.81-160.75,21.72-65.92,17.8-130.96-11.82-193.81-32.66-69.3-86.25-117.6-154.7-150.15-53.81-25.59-110.66-35.94-170.19-34.22-45.64,1.32-89.37,10.29-131.64,27.19-4.83,1.93-9.76,3.59-14.65,5.37-.26-.52-.51-1.05-.77-1.57,11.42-6.79,22.68-13.88,34.3-20.31C263.58,26.86,325.7,8.15,391.8,2.21c82.35-7.41,161.82,3.63,237.86,36.54,72.1,31.21,132.6,77.43,178.96,141.26,33.33,45.89,56.08,96.69,64.47,152.86,13.12,87.73-2.89,170.05-50.21,245.65-42.29,67.55-100.6,117.25-171.58,152.42-58.91,29.18-121.35,44.79-187.08,48.16-76.09,3.91-149.3-8.08-218.97-38.94-93.53-41.42-166.36-105.41-211.69-198.4C15.37,504.43,4.98,464.8.29,423.62c-.2-1.77-.2-3.56-.29-5.34.27-.06.54-.13.8-.19Z" style="stroke-width: 0px;"/>
  <path d="m204.38,248.65c-4.04-.98-7.29-1.71-10.5-2.57-22.96-6.14-46.29-7.69-69.43-2.45-29.75,6.73-49.46,31.66-51,62.24-.76,15.18-.52,30.25,5.91,44.41,11.16,24.56,30.34,37.76,57.24,39.38,8.63.52,17.31.35,25.96.22,6.37-.1,8.09-1.92,8.18-8.14.17-12.07.03-24.15.43-36.21.16-4.89-1.75-6.08-6.24-5.98-7.72.18-15.46-.13-23.19-.33-2.21-.06-4.41-.44-7.01-.72,0-12.79-.14-25.19.24-37.59.03-1.12,3.43-3.03,5.29-3.05,14.14-.18,28.29.04,42.44.09,13,.04,25.99,0,39.61,0,.17,2.3.4,4.1.42,5.89.29,36.59.4,73.18.96,109.77.1,6.36-2.2,8.67-8.09,10.31-36.71,10.23-73.96,13.47-111.42,6.59-46.27-8.5-77.2-40.63-85-86.94-5.73-34.01-2.12-66.76,17.97-95.85,19.51-28.25,47.66-43.58,80.96-48.93,27.77-4.46,55.64-2.93,83.17,3.15,1.47.32,2.92.76,4.35,1.23,8.13,2.69,8.89,3.8,6.97,12.08-2.55,10.96-5.36,21.86-8.2,33.39Z" style="stroke-width: 0px;"/>
  <path d="m427.89,245.24c-11.85-2.02-22.34-4.57-32.96-5.41-9.51-.75-19.3-.56-28.72.86-28.47,4.28-48.97,24.06-54.37,52.4-3.95,20.7-3.77,41.41,5.76,60.84,10.23,20.87,27.44,32.39,50.34,35.72,17.81,2.58,35.36,1.03,52.66-3.45,5.14-1.33,7.79-.45,8.6,5.22,1.4,9.88,3.13,19.71,4.97,29.52.74,3.94-.56,6.28-4.28,7.17-7.31,1.76-14.58,3.96-22.01,4.88-23.27,2.89-46.69,4.43-69.71-1.28-49.99-12.41-81.05-49.77-84.66-101.21-2.14-30.48,2.44-59.58,20.58-85.03,23.03-32.31,55.37-47.75,94.45-50.11,18.53-1.12,36.92,0,55.09,3.99.37.08.74.14,1.11.22,12.52,2.84,13.46,4.14,10.57,16.4-2.33,9.86-4.97,19.64-7.43,29.26Z" style="stroke-width: 0px;"/>
  <path d="m523.98,386.92h92.43v44.27h-146.91c0-2.01,0-3.99,0-5.97.03-73.55.11-147.1-.03-220.65,0-5.29,1.64-6.85,6.76-6.75,13.57.26,27.16.31,40.73-.07,5.49-.15,7.06,1.55,7.05,7-.14,58.27-.05,116.55-.02,174.82,0,2.06,0,4.11,0,7.35Z" style="stroke-width: 0px;"/>
</svg>