<?xml version="1.0" encoding="UTF-8"?>
<svg id="a" data-name="Layer 1" xmlns="http://www.w3.org/2000/svg" viewBox="0 0 945.98 599.28">
  <path d="m672.15,280.33c0,11.51.08,23.03-.04,34.54-.05,5.07,2.25,7.33,7.24,7.02,10.84-.66,21.07,1.73,30.58,6.79,11.5,6.11,17.46,16.01,17.89,28.92.33,9.73.54,19.53-.3,29.19-.57,6.46-2.96,12.78-4.75,19.1-13.15,46.5-40.82,83.77-75.3,116.32-15.36,14.5-31.61,28.24-48.58,40.8-22.82,16.88-48.36,28.8-75.95,36.03-2.99.78-4.08-.47-4.26-3.09-.15-2.2.1-4.44-.15-6.63-.62-5.47,2.27-7.92,7.1-9.41,5.83-1.8,11.92-3.38,17.16-6.35,6.99-3.98,11.97-9.56,13.5-18.51,1.54-9,5.5-17.59,8.38-26.37,1.22-3.72-.58-6.2-4.4-5.55-4.33.74-8.62,1.82-12.82,3.09-16.56,5.01-33.39,8.32-50.76,7.44-9.83-.5-18.08,3.04-25.91,8.41-4.73,3.25-9.51,6.44-14.49,9.29-7.75,4.43-15.79,6.15-25.03,4.58-9.08-1.54-18.52-.92-27.79-1.35-4.39-.2-8.79-.48-13.16-1-9.08-1.08-16.3-3.79-15.59-15.38.28-4.5-3.5-6.87-8.14-6.88-4.87,0-9.85-.61-14.59.21-16.67,2.9-33.17,2.64-49.93.17-11.73-1.73-23.35-1.82-33.57,7.54-8.23,7.54-19.12,10.63-30.72,10.27-11.06-.35-22.14-.07-33.21-.27-9.84-.18-11.2-1.06-12.68-11.13-.74-5.03-2.82-7.28-7.51-7.05-9.66.47-19.3,1.44-28.97,1.8-10.15.38-20.63,1.88-30.39-.03-9.31-1.82-16.89.35-23.56,5.12-8.28,5.93-16.02,6.8-26.02,5.04-11.12-1.95-22.85-.45-34.31-.38-.83,0-1.64.77-2.49.85-15.12,1.54-19.78,2.79-20.1-16.35-.48-28.69-1.76-57.38-1.88-86.07-.08-19.38,1.63-38.77,1.78-58.15.07-8.74-.77-17.75-2.97-26.17-1.6-6.14-5.06-12.58-9.54-17-8.52-8.4-5.73-18.11-4.45-27.31.36-2.56,6.62-5.13,10.58-6.2,9.3-2.53,9.22-2.17,9.64-11.74.6-13.63,1.61-27.24,2.18-40.87.18-4.43,1.87-7.64,5.46-9.95,7.39-4.78,14.5-10.13,22.29-14.13,33.31-17.13,66.27-34.88,99-53.11,16.88-9.41,34.9-16.75,52.21-25.4,16.16-8.07,31.96-16.85,48.11-24.93,13.81-6.91,28.1-12.87,41.8-19.97,27.03-14.02,53.71-28.71,80.72-42.76,10.94-5.69,22.53-10.13,33.55-15.69,12.2-6.15,24.06-12.99,36.12-19.42,5.02-2.68,10.34-4.84,15.26-7.67,9.53-5.49,19.16-10.89,28.21-17.11,6.16-4.23,12.59-3.53,19.12-3.22,4.97.24,7.29,4.1,9.67,8.06,18.39,30.55,36.42,61.35,55.63,91.38,17.55,27.43,35.98,54.33,54.92,80.82,11.01,15.39,23.55,29.71,35.87,44.12,7,8.19,10.44,17.01,9.82,27.83-.53,9.26-.11,18.58-.11,27.88.2,0,.4,0,.6,0Zm-225.77,102.17c-.17-.39-.26-.85-.53-1.14-.18-.2-.62-.16-.94-.23.46.49.91.98,1.37,1.47,1.37,2.46,2.66,4.98,4.19,7.34.24.37,1.67.3,2.32-.03.38-.19.63-1.68.36-1.92-2.17-1.92-4.49-3.68-6.76-5.48Zm-356.07-37.2c-.17-.39-.26-.85-.53-1.14-.18-.2-.62-.16-.94-.23.46.49.91.98,1.37,1.47,1.15,2.18,2.12,4.5,3.56,6.47.49.68,2.15.51,3.28.73.16-1.12.82-2.96.4-3.25-2.23-1.57-4.72-2.74-7.13-4.06Zm366.76,135.4c-1.27-.2-2.55-.41-3.82-.59-2.79-.4-5.59-.79-8.39-1.18-.19,3.69-.83,7.43-.39,11.04.22,1.82,2.2,3.62,3.75,5.03,2.81,2.58,5.89,4.86,8.86,7.26-.88-.1-1.78-.38-2.63-.27-1.25.15-2.47.56-3.71.86.3,1.1.26,2.82.96,3.21,4.16,2.29,8.46,4.33,12.79,6.29.54.25,1.52-.46,2.29-.72-.35-.72-.52-1.65-1.07-2.13-2.92-2.55-5.93-5-8.91-7.48.86.17,1.71.4,2.58.51,2.72.32,5.55,3.9,8.12-.1,1.94-3.02,3.16-6.06.94-9.75-1.83-3.04-1.48-3.23.9-10.67.25-.78.35-1.72.19-2.52-1.7-8.31-14.17-18.08-22.38-17.31-.84.08-2.4,2.75-2.12,3.15,3.76,5.33,7.79,10.46,11.75,15.65l.29-.28Zm-87.31-77.48c-1.35-22.75.74-42.59-2.34-62.45-1.82-11.69-.02-23.89-.87-35.79-.87-12.23-2.58-24.43-4.67-36.52-1.23-7.1-4.17-13.53-12.94-14.78-3.7-.53-6.09-3.16-6.57-7.28-.56-4.78-1.51-9.52-2.22-14.29-.64-4.33-.72-8.8-1.87-12.98-3.12-11.34-7.08-14.43-18.64-14.75-8.4-.23-16.81.09-25.21-.11-1.04-.02-2.93-1.76-2.92-2.69.11-12.37.74-24.73.68-37.09-.03-5.72,2.29-7.62,7.68-8.06,15.32-1.25,30.58-3.53,45.91-4.23,17.23-.78,34.52-.56,51.77-.25,15.79.28,31.58-.2,47.32-.76,17.98-.64,35.87-3.45,53.84-4.89,5.05-.41,7.02-3.27,8.13-7.23.7-2.5.65-5.24.66-7.88.05-15.8.06-31.61,0-47.41-.01-4.74-.07-9.5-.4-14.23-.56-7.86-1.29-15.71-2.1-23.55-.36-3.48-2.93-4.46-5.75-3.39-12.34,4.7-24.81,9.15-36.82,14.61-12.79,5.82-24.92,13.06-37.65,19-38.77,18.05-77.69,35.78-116.56,53.63-14.03,6.44-28.07,12.84-42.1,19.28-39.28,18.03-78.57,36.03-117.82,54.13-17.59,8.11-35.1,16.38-52.6,24.69-18.74,8.9-37.4,17.99-56.14,26.88-6,2.85-8.16,7.59-8.05,13.93.15,9.28.35,18.58.03,27.86-.19,5.47,2.4,7.21,7.15,6.82,14.93-1.2,29.9-2.08,44.75-3.94,12.19-1.52,24.2-4.49,36.36-6.38,7.51-1.16,15.41-.95,22.01,2.87,7.58,4.39,14.35,10.19,21.41,15.46,3.59,2.68,3.82,6.71,4.02,10.76.39,7.86-1.44,15.87,1.77,23.61.33.8-2.03,3.79-3.49,4.09-14.17,2.94-28.44,5.46-42.64,8.25-10.26,2.02-13.37,4.91-14.22,14.36-1.14,12.71-2.49,25.48-2.35,38.21.23,21.15,1.5,42.29,2.5,63.42.6,12.74,1.47,25.48,2.37,38.2.15,2.14,1.14,4.21,1.72,6.33.93,3.37,2.92,5.18,6.62,5.16,22.13-.14,44.26-.19,66.4-.27,3.84-.01,5.57-2.13,5.69-5.77.09-2.65.25-5.32.08-7.97-1.69-26.88,1.4-53.83-2.36-80.74-2.25-16.08-2.25-32.5-2.87-48.79-1.06-27.79-2.37-55.59-2.46-83.4-.04-13.27-4.27-23-15.65-29.72-3.52-2.08-5.98-4.94-6.28-9.49-.46-7-1.52-13.97-2.14-20.96-.64-7.13,1.17-10.62,7.94-13.56,3.53-1.53,7.57-2.14,11.45-2.53,4.83-.48,9.84.34,14.56-.53,21.36-3.96,42.9-4.83,64.52-4.2,3.41.1,7.25.72,10.07,2.44,7.62,4.66,15.81,10.69,17.01,19.38,1.52,11.05,6.54,22.35,2.04,33.74-1.23,3.12-3.66,6.1-6.27,8.27-6.33,5.28-8.71,11.59-8.23,19.83,1.74,29.97.02,59.96,2.28,90.03,2.84,37.74,2.33,75.73,3.1,113.62.42,20.53.26,20.55,20.57,20.64,11.51.05,23.02-.11,34.53.12,6.89.14,13.43,3.14,20.75.3,5.74-2.23,13.49,1.84,17.94-5.48,3.89-6.4.88-12.74.43-19.24-1.36-19.79-2.2-39.62-2.81-59.45-.41-13.27-.08-26.56-.08-36.9Zm295.1-120.3c-.19,0-.37,0-.56,0,0-9.3.24-18.6-.06-27.88-.34-10.39-3.22-19.47-11.37-27.11-7.66-7.18-14.04-15.79-20.51-24.14-15.1-19.47-29.82-39.23-44.89-58.73-12.94-16.74-26.33-33.12-39.17-49.94-5.31-6.96-9.66-14.65-14.54-21.94-5.15-7.69-10.36-15.34-15.69-22.91-.61-.86-2.27-1.72-3.12-1.47-.88.26-1.76,1.8-1.95,2.89-.36,2.16-.3,4.4-.31,6.61-.02,15.94-.01,31.88-.01,47.82,0,10.18-.2,20.38.09,30.55.22,7.88,1.52,8.72,9.33,9.53,6.55.68,13.16,1.33,19.54,2.87,9.65,2.32,15.52,9,15.59,18.72.06,8.74-.81,17.6-2.41,26.2-1.93,10.37-3.73,11.12-13.81,12.86-6.46,1.11-12.8,3-19.1,4.88-4.21,1.25-6.44,4.4-6.77,8.88-.26,3.47-1.08,6.93-1.04,10.39.13,11.92.4,23.83.87,35.74.76,19.38,1.7,38.75,2.58,58.13.8,17.53,1.69,35.05,2.39,52.58,1,25.14,2.39,50.28,2.63,75.43.18,18.5-1.3,37.01-1.85,55.52-.12,3.92.28,7.94,1.06,11.79.63,3.08,2,5.27,6.41,4.09,11.89-3.18,23.93-5.8,35.95-8.44,3.82-.84,4.52-3.56,5.38-6.64,4.15-14.84,8.45-29.65,12.64-44.48,2.16-7.63,3.98-15.36,6.34-22.92,6.54-20.99,13.54-41.84,19.82-62.9,3.6-12.08.04-15.06-12.46-11.48-1.69.49-3.5.79-5.03,1.59-6.63,3.46-13.18,7.08-19.76,10.65-2.38,1.29-4.56,2.66-6.73-.59-6.19-9.28-4.5-25.43,4.39-32.34,5.82-4.52,12.35-8.49,19.14-11.31,21.78-9.05,44.83-12.31,68.24-13.5,7.61-.39,8.51-1.1,8.68-8.43.24-10.18.06-20.37.06-30.55Zm-157.33-13.66c0-12.52,0-21.81,0-31.11,0-4.87.25-9.76-.11-14.6-.61-8.23-4.93-10.59-12.61-7.6-5.68,2.22-8.27,6.49-8.56,12.18-.34,6.62-.32,13.26-.27,19.9.05,6.47-1.39,12.37-6.36,16.81-8.31,7.44-10.41,16.86-10.1,27.57.67,23.37.63,46.72,2.3,70.12,1.91,26.8.67,53.8,3.09,80.7,2.16,24.01-.92,48.29,2.99,72.28,1.48,9.1,4.37,12.86,13.35,13.03,6.96.13,14-1.24,20.89-2.5,1.45-.27,3.15-2.85,3.5-4.61.6-2.98.41-6.17.24-9.26-1.37-24.23-.07-48.48-2.02-72.79-2.32-28.98-.12-58.2-2.78-87.35-2.6-28.53-2.55-57.31-3.55-82.76Zm162.09,157.14c-.7-18.03-1.48-38.71-2.32-59.39-.09-2.19-.07-4.62-1.02-6.48-1.14-2.25-2.88-4.65-5.01-5.87-8.62-4.97-22.57-.8-27.12,8.2-2.77,5.48-4.88,11.32-6.88,17.14-1.86,5.39-3.02,11.03-4.8,16.45-10.02,30.48-20.15,60.93-30.19,91.4-1.79,5.43-3.46,10.91-4.88,16.44-.99,3.88,1.11,6.31,4.93,5.47,15-3.32,29.97-6.8,44.88-10.51,2.41-.6,4.87-2.25,6.62-4.07,15.27-15.88,27.88-33.03,25.83-56.84-.27-3.07-.04-6.19-.04-11.94Zm-45.75,85.68c-.02-.13-.04-.25-.06-.38-12.57,2.03-25.15,3.99-37.69,6.19-1.49.26-3.56,1.59-3.98,2.88-3.5,10.87-6.75,21.83-9.74,32.85-.14.52,2.77,2.29,4.45,2.74,1,.27,2.55-.7,3.58-1.48,15.13-11.34,30.24-22.72,45.29-34.18,1.37-1.04,2.52-2.53,3.34-4.05.56-1.05.79-2.66.37-3.72-.28-.71-1.9-1.06-2.97-1.24-.82-.14-1.73.24-2.6.39Zm50.69-113.51c-.06,0-.13,0-.19,0,0,2.64-.04,5.28,0,7.93.18,9.24.33,18.48.66,27.71.04,1.1,1.12,2.16,1.72,3.24,1.12-1,3.01-1.85,3.25-3.03,3.36-16.25,6.2-32.62,9.8-48.81,2.49-11.22-3.08-18.3-10.89-24.6-2.34-1.89-4.26-1.01-4.29,1.92-.15,11.88-.06,23.77-.06,35.65Zm-208.2,137.57c4.16,1.14,7.19-.34,8.78-3.96,1.79-4.07.92-8.18-2.95-10.39-7.15-4.08-14.52-7.88-22.08-11.13-4.18-1.79-7.11.77-6.27,5.12.55,2.83,2.07,5.64,3.74,8.05,1.5,2.15,3.59,3.36.16,5.89-1.35,1,3.35,11.31,5.45,11.91,3.65,1.03,3.92-2.42,5.27-4.5,2.23-3.46,5.15-2.41,7.9-.99Zm-1.64-180.03c-.49-.92-1.03-3.37-2.55-4.57-5.39-4.26-11-8.28-16.81-11.94-1.25-.79-4.02-.18-5.46.76-.82.54-.89,3.21-.4,4.62,3.27,9.51,11.11,14.08,19.82,17.47,2.84,1.1,5.75-1.83,5.4-6.34Zm-22.95.68c-.7,1.1-2.54,2.78-2.22,3.68,3.94,11.03,10.73,19.85,21.21,25.46,2.87,1.54,4.91-.23,4.5-3.6-.94-7.85-15.17-23.73-23.49-25.55Zm26.1,59.52c-.69-1.98-1.22-3.62-1.83-5.23-2.85-7.49-8.69-11.87-15.75-14.84-1.84-.77-3.96-.86-5.96-1.26-.38,2.08-1.65,4.54-.95,6.15,1.49,3.44,3.57,6.85,6.19,9.52,3.32,3.39,7.33,6.15,11.23,8.91,1.14.81,3.31,1.43,4.32.87,1.28-.71,1.86-2.69,2.75-4.14Zm-28.2-152.1c.53,9.01,11.37,19.52,18.57,18.98,1.07-.08,2.41-1.27,2.98-2.3,2.11-3.8,2.52-7.75-1.86-10.15-5.28-2.9-10.81-5.37-16.36-7.71-.89-.38-2.46.86-3.33,1.19Zm-187.88,180.03c.15,1.95.23,3.7.44,5.43.53,4.49,3.02,7.53,7.56,7.48,2.73-.03,7.45-1.18,7.78-2.63.79-3.45.56-8.02-1.23-10.92-1.87-3.03-5.89-4.95-9.31-6.67-.95-.48-3.64,1.1-4.58,2.41-.88,1.23-.49,3.36-.64,4.9Zm218.42-178.39c-1.11-2.57-1.61-4.28-2.52-5.73-4.86-7.79-12.74-11.6-20.65-15.3-.59-.28-2.05.03-2.28.49-.51,1.02-1.03,2.54-.63,3.45,4.33,9.89,12.57,15.33,22.29,18.83.92.33,2.48-1.1,3.79-1.73Zm-201.38,150.66c.14-9.05-2.96-13.04-10.88-15.24-3.58-1-5.85.95-5.83,4.66.02,6.02,4.16,9.48,8.11,12.84,1.73,1.47,4.49,2.37,6.73,2.28.84-.03,1.53-3.62,1.88-4.53Zm173.05-94.69c-1.19.53-2.46.73-2.61,1.25-.33,1.12-.47,2.58-.02,3.6,3.64,8.28,10.6,12.63,18.86,15.19.98.3,2.73-.22,3.37-.99.69-.83,1.08-2.71.6-3.59-4.51-8.21-12.65-11.65-20.19-15.46Zm14.84,2.17c1.08-.68,3.08-1.59,4.57-3.03.6-.58.56-3.06,0-3.41-6.29-3.97-12.7-7.77-19.23-11.33-.42-.23-3.13,1.99-3,2.77,1.23,7.23,9.84,14.77,17.64,14.99Zm-356.17,59.59c-.24-1.54-.16-2.12-.4-2.37-4.65-4.66-9.31-9.33-14.16-13.78-.18-.17-3.22,1.66-3.26,2.64-.28,5.96,7.32,16.64,12.48,17.05,1.81.14,3.82-2.47,5.34-3.53Zm151.19-43.51c-.1.17-1.12,1.17-1.3,2.3-.96,6.22,4.69,15.02,10.58,16.19,1.32.26,3.79-.7,4.32-1.79,2.85-5.87-5.4-16.95-13.61-16.7Zm14.23-59.11c-.3-6.82-5.97-13.79-8.95-11.87-2.94,1.89-5.02,5.6-6.64,8.92-1.09,2.22,8.44,8.75,11.75,7.54,1.89-.69,3-3.51,3.85-4.58Zm198.58-64.38c-1.87,1.53-3.51,2.23-3.54,3-.28,5.98,9.53,14.92,15.26,14.14,2.58-.35,4.54-4.32,2.65-5.96-4.57-3.96-9.53-7.46-14.36-11.18Zm-324.42,129.69c-.11-7.17-7.09-14.29-13.47-14.32-1.01,0-3,1.95-2.88,2.75.83,5.59,7.74,12.81,12.72,13.31,1.26.13,2.67-1.25,3.63-1.73Zm321.56,87.23c.98-.38,3.98-.6,4.67-1.98,1.71-3.39-1.87-4.02-3.97-5.29-3.71-2.25-7.31-4.72-11.14-6.75-1.22-.64-3.02-.18-4.55-.22.16,1.64-.29,3.76.57,4.82,3.5,4.33,6.66,9.4,14.42,9.42Zm6.67,15.13c-.96-2.05-1.33-3.92-2.46-4.99-2.2-2.08-4.69-3.97-7.32-5.47-3.52-2.01-6.48-6.42-11.53-3.37,2.44,3.4,4.4,7.36,7.47,10.04,2.86,2.5,6.87,3.74,10.49,5.26.66.27,1.87-.79,3.34-1.47Zm-368.13,40.94c.2-5.45-5.7-13.05-10.91-13.96-1.22-.21-3.79,1.19-3.97,2.17-1.07,5.88,3.37,8.57,7.4,11.28,1.42.96,3.08,1.83,4.73,2.08.88.14,1.99-1.11,2.75-1.58Zm341.73-195.1c-1.09.67-1.72.85-1.76,1.13-.13.72-.3,1.84.09,2.18,1.65,1.43,3.52,2.61,5.26,3.93,1.41,1.07,2.74,2.24,4.15,3.31,7.17,5.41,12.58,6.67,12.02,3.98-1.54-7.46-8.97-8.88-14.3-12.35-1.75-1.14-3.94-1.6-5.45-2.18Zm76.46-94.85c.28-.06,3.25-.57,6.08-1.51.51-.17.69-3.09.58-3.12-4.92-1.34-9.85-2.93-14.88-3.35-1.19-.1-2.72,3.84-4.09,5.92,1.43.68,2.8,1.67,4.3,1.97,1.69.34,3.5.08,8.01.08Zm-260.15,261.57c-.09,0-1.27.08-2.45.16.2,1.54-.11,3.44.69,4.54,2.23,3.08,4.78,5.97,7.54,8.56.48.45,3.49-.57,3.92-1.53,2.84-6.42,0-10.07-9.71-11.73Zm-160.16-27.75c-.63-5.33-6.49-11.13-10.58-10.85-1.38.1-3.18,1.52-3.82,2.81-.58,1.19-.41,3.89.41,4.42,3.24,2.09,6.77,3.81,10.38,5.17.95.36,2.58-1.07,3.6-1.55Zm-14.23,92.98c1.03,2.89,1.61,5.47,2.84,7.68,1.51,2.71,4.57,2.5,6.31-.07,2.56-3.79,2.96-7.37-1.13-10.33-1.34-.97-3.55-2.49-4.37-2.03-1.56.88-2.41,3.03-3.64,4.75Zm184.76-93.28c-2.21-2.56-3.79-5.17-6.06-6.79-2.07-1.48-5.18-4.98-7.32-.96-.89,1.67.89,5.66,2.6,7.57,1.5,1.66,4.56,2.11,7.03,2.6.82.16,1.94-1.19,3.75-2.41Zm276.3-249.59c-1.78-2.99-2.88-5.91-4.88-7.95-3.19-3.25-10.64-3.53-10.2-1.49.53,2.45,3.04,4.62,5.03,6.57,1.84,1.79,4.03,3.3,6.29,4.54.59.32,1.99-.84,3.76-1.67Zm-382.77,145.76c-.2-4.44-4.47-9.53-8.03-10.01-.76-.1-2.57,1.48-2.46,1.94.77,3.29,1.66,6.6,3.07,9.65.55,1.2,3.14,2.74,3.76,2.37,1.67-.99,2.77-2.92,3.65-3.95Zm-63.51,185.52c-2.75-2.79-5.49-5.96-8.64-8.64-2.27-1.94-5.14-.24-5.34,2.84-.31,4.61,6.5,9.71,11.8,8.69.57-.11.95-1.21,2.18-2.89Zm344.44-233.27c-.59.98-1.75,2.02-1.59,2.77.94,4.32,7.6,9.48,12.59,9.87.68.05,2.07-.74,2.06-1.12-.14-5.81-4.78-7.67-8.97-9.87-1.13-.59-2.37-.96-4.09-1.64Zm21.67,182.8c.73-.43,2.03-.85,2.03-1.27,0-1.2-.14-2.97-.92-3.5-4.6-3.14-9.38-6.03-14.16-8.9-.5-.3-1.78-.15-2.07.25-.41.56-.62,1.9-.26,2.3,4.35,4.76,8.48,9.88,15.37,11.12Zm-318.47-133.92c-1.16.71-1.85,1-2.34,1.49-.22.22-.22,1.01,0,1.26,2.3,2.66,4.48,5.48,7.07,7.83,1.94,1.76,3.77,6.68,7.03,2.83,2.66-3.14-1.6-5.39-3.61-7.32-2.48-2.38-5.54-4.18-8.15-6.09Zm109.75,162.44c-.38.76-1.29,1.87-1.06,2.22,2.8,4.19,5.69,8.32,8.81,12.27.32.41,2.71-.14,3.39-.91.61-.68.7-2.72.13-3.41-2.79-3.35-5.84-6.48-8.91-9.58-.49-.49-1.56-.41-2.36-.59Zm226.87-296.46c-.42.87-1.76,2.3-1.52,3.38.92,4.1,5.48,7.59,9.31,7.28.96-.08,2.43-1.26,2.63-2.17.73-3.3-3.26-7.33-8.07-8.48-.4-.09-.84-.01-2.35-.01Zm-217.52,182.56c-1.43-2.15-2.65-5.09-4.83-6.87-1.75-1.43-4.66-1.45-7.05-2.09.59,2.25.66,4.86,1.9,6.66,1.42,2.06,3.83,3.47,5.95,4.98.58.41,1.81.43,2.45.09.61-.33.83-1.37,1.57-2.76Zm-179.16,78.53c-.04.08-.83,1.12-1.1,2.29-.87,3.78,3.44,9.94,6.75,9.18,1.54-.35,3.4-2.79,3.68-4.51.56-3.53-3.41-6.73-9.32-6.96Zm180.51-214.31c.35.79.52,1.75,1.08,2.35,2.38,2.53,4.66,5.24,7.42,7.28,1.37,1.01,3.72.69,5.62.97-.69-1.86-.84-4.37-2.17-5.46-2.95-2.42-6.44-4.19-9.81-6.05-.42-.23-1.41.58-2.16.91Zm.11,151.24c-2.43-2.24-4.07-4.17-6.1-5.48-1.5-.97-3.52-1.14-5.31-1.66.17,2.42-.47,5.42.73,7.11,1.28,1.8,4.22,2.73,6.6,3.27.89.2,2.28-1.75,4.07-3.24Zm-180.11-40.73c-.76,1.61-1.88,3.12-1.58,3.47,2.43,2.95,4.96,5.89,7.84,8.38.85.73,3.63.6,4.3-.18.85-1,1.16-3.97.47-4.51-3.29-2.58-7-4.63-11.03-7.16Zm1.2,138.37c-.72.36-1.74.55-2.09,1.14-.37.6-.41,2.11-.05,2.33,3.85,2.36,7.77,4.59,11.77,6.68.37.19,1.37-.8,2.07-1.25-3.09-2.74-6.15-5.51-9.3-8.17-.59-.49-1.58-.5-2.39-.73Zm10.19-43.14c.33-3.76-8.96-8.58-11.2-7.14-.44.28-.73,1.68-.43,2.07,2,2.65,3.87,5.6,6.48,7.48.86.62,5.07-1.53,5.15-2.41Zm380.51-233.12c-1.62-2.28-2.47-4.5-4.09-5.54-3.19-2.06-6.81-3.46-10.25-5.13-1.26,4.98,3.63,6.13,5.73,8.98.98,1.33,2.71,2.33,4.31,2.91.88.32,2.19-.57,4.3-1.21ZM98.26,414.89c-.02-6.29-4.6-6.62-7.81-8.23-.9-.45-2.37.23-3.59.39.17,1.06-.02,2.43.57,3.14,1.89,2.29,3.84,4.7,6.27,6.28.88.57,3.2-1.06,4.55-1.57Zm16.14-78.46c-1.26,2.32-2.43,3.51-2.19,4.2,1.48,4.17,3.77,7.74,8.93,7.43.79-.05,2.2-2.02,2.15-2.07-2.68-3.04-5.49-5.97-8.9-9.56Zm145.01-31.85c.71-.83,1.51-1.78,2.31-2.73-2.88-1.45-5.7-3.03-8.69-4.21-.46-.18-1.66,1.5-2.52,2.32,2.01,1.29,3.99,2.64,6.06,3.84.72.42,1.65.47,2.84.78Zm9.5,216.39c-1.84-2.1-4.01-4.63-6.32-7.02-.11-.11-2.36,1.5-2.29,1.64,1.49,2.95,3.11,5.85,4.89,8.64.25.39,1.71.46,2.18.11.58-.43.72-1.47,1.53-3.37Zm-9.35-191.78c-2.53-2.1-5.11-4.27-7.78-6.33-.14-.11-1.05.77-1.6,1.19,2.53,2.58,5.05,5.16,7.58,7.74.42-.6.83-1.21,1.79-2.6Zm6.66-64.56c-1.18-1.7-2.48-3.58-3.78-5.46-.74.7-2.22,1.79-2.09,2.03,1.08,2.02,2.46,3.88,3.74,5.8.5-.56,1.01-1.11,2.13-2.36Zm191.4,130.46c1.37.89,2.41,1.55,3.44,2.22.43-1.14,1.25-2.32,1.15-3.41-.07-.69-1.52-1.24-2.36-1.85-.68.93-1.36,1.86-2.23,3.04Zm11.52-156.17c-1.25-.77-2.48-1.61-3.83-2.21-.13-.06-.95,1.45-1.46,2.23,1.33.75,2.67,1.5,4,2.25.32-.58.65-1.16,1.28-2.28Zm68.56-76.77c-1.2.79-1.84,1.21-2.47,1.63,1.18,1.12,2.29,2.33,3.6,3.26.25.18,1.3-.77,1.99-1.2-1.05-1.25-2.11-2.5-3.11-3.7Zm-390.92,152.32c-.79,1.02-1.54,1.94-2.21,2.91-.03.04.75.83.86.76.93-.53,1.79-1.18,2.67-1.79-.38-.54-.76-1.08-1.32-1.89Zm111.09,166.86c.99.59,1.88,1.2,2.85,1.64.19.09.67-.44,1.02-.68l-2.15-2.75c-.45.47-.91.94-1.72,1.78Z" style="stroke-width: 0px;"/>
  <path d="m724.2,582.05c-6.79-1.22-13.81-2.03-20.54-3.91-2.56-.72-6.19-3.89-6.19-5.95,0-2.91,2.18-7.19,4.68-8.49,6.19-3.22,12.92-6.07,19.74-7.29,15.15-2.7,30.5-4.24,45.74-6.39,17.8-2.52,35.59-4.18,51.99-13.34,17.06-9.53,19.85-27.76,8.96-41.1-12.09-14.79-26.21-27.42-41.59-38.74-12.08-8.89-23.83-18.2-33.95-29.4-6.57-7.27-11.74-15.21-14.82-24.68-4.28-13.18-1.03-24.28,7.88-34.19,9.06-10.09,20.63-16.7,32.89-21.8,25.28-10.52,51.74-17.18,78.53-22.56,21.55-4.33,43.14-8.46,64.69-12.82,3.86-.78,7.9-1.65,11.28-3.53,4.81-2.67,7.69-1.12,9.47,3.19,4.06,9.81,4.13,19.91-.39,29.46-2.85,6.02-9.65,7.46-15.42,9.25-5.34,1.66-11.05,2.48-16.65,2.86-17.15,1.17-34.31,2.35-51.48,2.77-20.77.5-40.21,5.98-58.02,16.03-12.14,6.86-23.1,16.57-19.54,32.75,1.74,7.89,5.51,16.28,10.83,22.25,10.82,12.15,23.31,22.83,35.12,34.09,12.77,12.17,25.9,23.9,35.29,39.26,8.04,13.16,6.56,30.03-1.45,40.8-7.78,10.46-17.04,17.34-29.38,21.07-27.87,8.43-56.1,14.82-85.15,17.46-7.42.67-14.79,1.91-22.53,2.94Z" style="stroke-width: 0px;"/>
  <path d="m456.78,480.98c.46.36.92.73,1.38,1.09-.23-.12-.54-.18-.68-.37-.2-.29-.29-.66-.42-1l-.29.28Z" style="stroke-width: 0px;"/>
</svg>