<?xml version="1.0" encoding="UTF-8"?>
<svg id="a" data-name="Layer 1" xmlns="http://www.w3.org/2000/svg" viewBox="0 0 875.83 874.78">
  <path d="m0,400.45c3.61-3.75,2.03-8.66,2.52-12.95,4.32-37.93,13.56-74.61,27.51-110.11,16.07-40.88,37.78-78.55,65.27-112.83,37.04-46.2,81.47-83.65,133.56-112.01,36.71-19.99,75.53-34.33,116.32-43.21,9.81-2.14,20.04-2.91,29.85-4.75C400.03-.09,425.13-.11,450.31.04c8.64.05,17.32.34,25.92,1.14,63.27,5.88,122.81,23.88,178.07,55.43,36.42,20.8,69.04,46.4,98.3,76.52,37.36,38.44,66.53,82.2,87.84,131.23,13.88,31.94,23.54,65.17,29.44,99.52,3.1,18.03,4.9,36.13,5.08,54.41.01,1.37-.65,3.02.86,4.14v31.96c-1.59,2.58-.96,5.47-.95,8.19.04,12.16-1.43,24.2-3.2,36.15-8.02,54.23-25.21,105.38-52.18,153.21-23.7,42.03-53.61,79.08-89.56,111.19-51.3,45.81-110.2,77.86-176.62,95.99-30.12,8.22-60.78,12.97-91.97,14.89-22.19,1.37-44.29.97-66.32-1.34-58.97-6.17-114.65-23.09-166.83-51.43-29.06-15.78-55.98-34.6-80.61-56.54-40.72-36.29-73.81-78.55-98.88-127.11-17.09-33.09-29.97-67.65-38.12-103.95-4.03-17.95-7.07-36.07-8.7-54.42-.29-3.27-.09-6.79-1.89-9.84v-68.91ZM437.83,13.25C206.31,11.28,19.59,198.65,13.15,424.11c-6.95,243.22,189.38,436.18,420.83,437.53,239.46,1.39,425.54-190.55,428.92-418.95,3.5-236.75-192.21-432.6-425.06-429.45Z" style="fill: #b8282f; stroke-width: 0px;"/>
  <path d="m97.31,442.28c-1.23-190.31,157.1-349.98,354.32-344.45,181.86,5.1,318.14,149.05,332.56,307.55,9.84,108.15-22.12,201.99-98.51,279.05-68.32,68.93-152.42,102.47-249.77,101.42-183.6-1.99-339.08-153.57-338.59-343.57Zm174.87,284.95c1.58,8.9,3.92,10.5,13.01,9.12,1.92-.29,3.92-.13,5.88-.18.29,1.56,1.67,2.01,2.82,2.58,40.89,20.43,84.3,31.57,129.83,34.05,21.42,1.16,42.86.33,64.21-2.71,22.05-3.15,43.62-8.07,64.56-15.61,40.91-14.74,77.75-36.31,110.13-65.46,40.75-36.68,71.19-80.32,90.37-131.76,8.57-22.99,14.18-46.7,17.75-70.91,2.82-19.14,2.13-38.46,2.13-57.73,0-17.1-2.14-33.99-5.42-50.7-6.02-30.62-16.27-59.8-30.56-87.6-28.23-54.91-68.87-98.51-121.24-130.81-51.52-31.77-107.76-48.18-168.62-48.88-41.62-.48-82.09,5.36-120.83,20.39-87.13,33.82-150.5,93.09-188.74,178.61-15.26,34.13-24.28,70.02-26.28,107.25-1.91,35.66-.35,71.24,8.84,106.15,8.99,34.19,22.49,66.47,41.22,96.35,15.68,25.02,35.24,47.05,56.79,67.3,16.55,15.55,35.27,28.16,54.17,40.55Z" style="fill: #b8282f; stroke-width: 0px;"/>
  <path d="m580.08,63c-4.71,14.09-9.52,28.15-14.04,42.31-.96,2.99-2.19,4.55-5.19,3.12-2.72-1.29-7.69-.65-5.95-6.34,5.05-16.45,10.01-32.93,15.02-49.4,1.18-3.89,3.56-5.07,7.61-3.87,14.92,4.44,15.44,5.02,15.32,20.63-.08,10.14-.15,20.28-.22,30.42,0,.16.08.32.14.53,1.84.23,2.46-1.41,3.44-2.36,7.84-7.69,15.58-15.48,23.44-23.15,5.15-5.02,7.43-5.29,13.7-2.14q11.74,5.9,5.6,17.5c-6.6,12.45-13.37,24.83-19.76,37.39-1.9,3.74-3.45,5.42-7.83,3.2-4.56-2.31-4.1-4.84-2.18-8.68,5.69-11.41,11.08-22.97,16.51-34.51.46-.97,1.51-1.88.88-3.44-1.32-.26-1.76,1.01-2.44,1.7-10.13,10.33-20.3,20.64-30.31,31.09-2.26,2.36-4.34,3.2-7.41,1.71-3.2-1.56-5.94-2.74-5.85-7.37.31-16.11.12-32.23.12-48.35-.19,0-.39.01-.58.02Z" style="fill: #2a2425; stroke-width: 0px;"/>
  <path d="m617.16,746.63c.39-.5.54-.85.8-1.02,10.85-7.31,7.17-7.45,16.53.64,9.42,8.15,18.5,16.7,27.82,25.16,1.23-1.96-.27-3.08-.77-4.26-5.05-11.9-9.99-23.86-15.48-35.56-2.31-4.92.47-6.71,3.5-9.29,3.32-2.83,5.53-1.87,8.37.72,10.32,9.42,20.83,18.62,31.33,27.96,1.16-1.66-.21-2.64-.66-3.69-5.25-12.18-10.64-24.31-15.88-36.5-1.5-3.49,3.08-9.9,6.82-9.68,1.95.11,1.91,2.09,2.41,3.35,5.35,13.58,10.61,27.2,15.89,40.81,1.14,2.94,2.23,5.9,3.35,8.85,2.38,6.28.68,9.93-5.55,12.56-2.71,1.15-4.09-.74-5.62-2.09-10.6-9.35-21.13-18.79-32.54-28.95,3.55,8.34,6.75,15.78,9.87,23.24,2.56,6.12,4.89,12.34,7.59,18.4,1.26,2.82,1.05,4.76-1.92,5.95-2.89,1.15-4.39,5.91-8.7,3.38-.42-.25-.75-.66-1.13-.98-15.35-13-30.7-26.01-46.05-39Z" style="fill: #2a2425; stroke-width: 0px;"/>
  <path d="m80.69,248.66c18,.08,37.59,14.88,39.46,30.01,2.26,18.31-10.52,40.28-35.76,33.66-3.19-.84-6.39-1.75-9.48-2.91-18.51-6.97-25.2-23.16-17.67-41.44,3.85-9.33,9.68-16.08,19.65-18.73,1.59-.42,3.26-.52,3.8-.6Zm2.22,14.05c-8.26-.27-12.71,3.13-15.46,9.11-2.75,5.99-3.15,11.88,1.44,17.19,5.99,6.91,14.22,9.39,22.81,10.91,7.04,1.24,11.76-.91,15.21-6.65,3.6-5.99,3.66-12.63-.49-17.65-6.43-7.78-15.3-11.21-23.52-12.92Z" style="fill: #2a2425; stroke-width: 0px;"/>
  <path d="m72.27,332.87c9.1-5.95,19.45-4.87,29.46-5.5.71-.04,1.76.3,2.15.83,1.56,2.16-2.36,11.14-5.11,11.5-5.76.76-11.56,1.28-17.35,1.87-5.06.52-8.34,2.95-9.8,8.05-.78,2.7-.12,3.28,2.43,3.95,6.29,1.65,12.82,2.26,18.99,4.46,5.61,2.01,1.86,5.84,1.68,8.73-.16,2.64-1.68,4-5.19,3.19-17.44-4.03-34.95-7.73-52.48-11.35-4.4-.91-5.89-2.94-4.73-7.29,1.66-6.21,3-12.5,4.68-18.7.69-2.53,1.65-5.07,2.96-7.34,3.33-5.74,7.78-10.12,15.1-9.36,9.01.93,14.13,5.33,16.33,13.56.3,1.11.58,2.24.87,3.38Zm-8.72,7.34c.24-5.17-2.45-8.84-7.21-9.82-4.83-1-7.88.83-9.96,5.97-3.78,9.34-3.68,9.53,6.31,12.05,9.31,2.35,10.4,1.53,10.86-8.2Z" style="fill: #2a2425; stroke-width: 0px;"/>
  <path d="m704.75,190.75c-6.11-.02-11.56-1.97-16.23-5.6-5.64-4.38-10.98-9.12-16.43-13.74-2.19-1.85-2.89-3.84-.81-6.4,10.97-13.56,21.86-27.17,32.78-40.77,2.02-2.52,4.16-2.24,6.38-.26,5.09,4.53,10.46,8.78,15.22,13.63,17,17.29,14.4,36.06-6.45,48.57-4.5,2.7-9.24,4.45-14.46,4.58Zm19.31-34.19c-.05-5.74-7.11-16.52-12.02-18.61-1.64-.7-2.11.58-2.75,1.32-7.96,9.15-15.84,18.36-23.78,27.53-.8.93-1.38,1.5-.4,2.86,4.82,6.72,14.12,10.58,20.92,8.49,9.54-2.94,18.09-13.18,18.03-21.59Z" style="fill: #2a2425; stroke-width: 0px;"/>
  <path d="m360.15,64.58c9.53,5.07,13.05,14.82,18.58,22.94,1.44,2.11.41,3.58-2.04,4.29-7.46,2.16-8.68,1.7-12.91-4.82-2.61-4.03-5.3-8.01-8.1-11.92-1.37-1.91-3.29-3.3-5.65-3.87-5.11-1.24-7.53,1.13-6.25,6.11,1.35,5.29,2.57,10.61,4.17,15.83,1.3,4.23-1.72,4.97-4.36,5.53-2.72.58-6.1,2.69-7.54-2.38-4.87-17.15-10.01-34.23-15-51.35-.97-3.31-.38-5.9,3.59-6.73,7.78-1.62,15.48-3.73,23.33-4.9,14.03-2.09,24.23,9.63,19.88,22.39-1.34,3.94-4.24,6.54-7.71,8.86Zm-13.99-20.83c-10.5.12-11.14.96-8.44,11.05,2.39,8.94,3.56,9.49,12.1,5.52,4.23-1.97,6.28-5.14,5.27-9.94-.99-4.67-3.68-6.69-8.92-6.63Z" style="fill: #2a2425; stroke-width: 0px;"/>
  <path d="m127.73,159.98c.95.38,2.04.77,3.1,1.23,17.17,7.49,34.35,14.96,51.5,22.5,1.95.86,4.91,1.23,4.24,4.37-.62,2.9-6.74,7.23-8.89,6.74-.16-.04-.36-.04-.48-.13-10.12-8.17-15.95-1.94-21.21,6.28-.44.69-1,1.36-1.63,1.88-3.31,2.78-3.21,5.52-.27,8.58,1.48,1.54,2.44,3.56,3.79,5.24,1.45,1.82,1.39,3.41.23,5.44-3.87,6.8-5.39,6.97-9.69.6-10.22-15.14-20.3-30.37-30.65-45.42-2.16-3.14-2.37-5.62.17-8.4,2.13-2.33,4.14-4.77,6.28-7.09.88-.95,1.83-1.97,3.51-1.82Zm1.75,14.4c4.98,7.93,9.4,14.86,13.7,21.86,1.27,2.08,2.18,1.92,3.59.14,2.96-3.75,6.06-7.38,9.33-11.33-8.8-3.53-17.18-6.89-26.61-10.67Z" style="fill: #2a2425; stroke-width: 0px;"/>
  <path d="m770.25,280.68c-3.22.39-6.19.72-9.15,1.11-1.87.25-3.22-.32-4.02-2.09-1.05-2.33-3.79-4.57-2.4-7.08,1.18-2.15,4.32-1.79,6.79-2.03,17.19-1.71,34.39-3.4,51.56-5.36,3.47-.4,5.2.79,6.68,3.64q5.87,11.29-3.85,19.56c-11.77,10.02-23.46,20.13-35.33,30.02-1.56,1.3-3.31,4.71-6.1,1.87-2.93-2.99-3.49-9.62-1.37-11.67.12-.12.26-.2.38-.32,2.64-2.7,7.67-4.08,7.98-7.63.28-3.34-2.59-6.94-4.08-10.43-.98-2.28-2.08-4.52-2.92-6.86-.78-2.18-1.95-3.42-4.15-2.72Zm40.1-3.94c-9.92.77-18.5,1.43-27.56,2.13,2.5,5.62,4.75,10.68,7.17,16.14,6.72-6.02,12.99-11.64,20.39-18.27Z" style="fill: #2a2425; stroke-width: 0px;"/>
  <path d="m758.74,631.94c-.2-3.64,2.35-6.08,3.94-8.93,1.09-1.95,2.83-1.31,4.44-.94,7.76,1.81,15.52,3.66,23.28,5.48,1.44.34,2.9.58,4.3.85.88-1.77-.53-2.27-1.27-2.93-6.58-5.87-13.09-11.82-19.88-17.43-2.52-2.08-2.57-3.77-.95-6.21,1.48-2.22,1.82-5.09,6.08-4.14,9.52,2.13,19.2,3.52,29.25,4.52-3.63-2.94-7.29-5.85-10.89-8.83-4.1-3.39-8.17-6.82-12.22-10.28-4.86-4.14.52-6.86,1.88-9.63,1.63-3.34,3.38.47,4.36,1.37,9.6,8.73,18.83,17.86,28.52,26.49,3.86,3.44.65,5.78-.18,8.63-.89,3.06-2.99,3.56-5.78,3.01-7.66-1.49-15.33-2.9-22.99-4.39-1.45-.28-2.86-.72-4.7-.1,7.13,6.03,13.65,12.45,20.59,18.34,4.5,3.82.73,6.62.05,9.6-.61,2.69-3.61,3.01-6.16,2.57-12.11-2.07-24.21-4.2-36.31-6.31-1.8-.31-3.61-.58-5.41-.87l.06.12Z" style="fill: #2a2425; stroke-width: 0px;"/>
  <path d="m389.76,820.19c.52-9.02,1.16-19.6,1.67-30.19.02-.43-.13-.93.22-1.14,3.25-1.85,6.52-.13,9.76.1,2.57.18,1.67,2.51,1.59,3.97-.45,8.47-1.09,16.92-1.56,25.39-.24,4.31-.54,8.65-.35,12.96.33,7.25,5.58,12.51,12.21,12.68,6.34.17,11.76-4.69,12.49-11.82,1.25-12.23,2.19-24.49,3.22-36.74.22-2.61.15-5.62,4.05-4.65,3.09.77,8.47-1.83,7.64,5.38-1.48,12.85-1.45,25.86-3.79,38.64-2.34,12.76-11.5,19.11-26.5,18.22-11.9-.7-19.94-8.73-20.63-20.76-.2-3.48-.03-6.98-.03-12.04Z" style="fill: #2a2425; stroke-width: 0px;"/>
  <path d="m306.18,51.63c.45,2.22-1,2.8-2.73,3.38-5.81,1.95-11.56,4.07-17.37,6-2.51.83-3.17,1.84-2.06,4.54,4.55,11.04,4.45,11.09,15.56,7.14,1.41-.5,2.83-.98,4.17-1.62,3.23-1.56,5.45-1.35,6.78,2.61,1.31,3.89.31,5.8-3.64,6.85-3.82,1.02-7.46,2.73-11.25,3.88-2.42.74-2.98,1.57-2.02,4.19,5.11,13.84,5.02,13.88,18.6,9.03,1.1-.39,2.17-.84,3.26-1.24,5.41-1.98,6.84-1.09,8.02,4.55.48,2.29-.26,3.33-2.37,4.08-8.42,3.01-16.82,6.06-25.17,9.27-2.77,1.07-4.42.38-5.57-2.22-7.4-16.66-14.83-33.31-22.21-49.98-1.27-2.86-.11-4.81,2.73-5.85,9.81-3.58,19.61-7.2,29.45-10.7,3.29-1.17,5.71,1.46,5.82,6.08Z" style="fill: #2a2425; stroke-width: 0px;"/>
  <path d="m483.93,85c1.68-17.64,3.36-35.01,4.96-52.39.28-3.05,1.92-4.15,4.67-3.69,10.64,1.77,21.26,3.62,31.88,5.47,3.9.68,2.51,3.67,2.36,5.9-.18,2.64-1.43,4.34-4.55,3.73-6.02-1.18-12.09-2.12-18.08-3.46-2.31-.51-2.98-.31-3.48,2.24-2.41,12.17-2.52,12.14,9.76,14.17,1.31.22,2.59.84,3.89.84,4.86,0,5.25,2.8,4.57,6.62-.74,4.15-3.25,3.66-6.29,2.9-3.7-.93-7.53-1.29-11.22-2.23-3.15-.81-4.18.46-4.42,3.33-.27,3.31-.42,6.67-1.19,9.88-.79,3.31.88,3.95,3.44,4.41,5.22.93,10.39,2.24,15.65,2.9,4.13.52,3.23,3.22,2.74,5.47-.47,2.16-.37,5.09-4.49,4.23-8.6-1.79-17.31-3.08-25.98-4.58-3.42-.59-4.9-2.56-4.22-5.75Z" style="fill: #2a2425; stroke-width: 0px;"/>
  <path d="m661.67,89.57c1.62-.03,2.83.88,4.06,1.73,8.22,5.63,16.35,11.4,24.7,16.84,3.02,1.97,2.55,3.76.85,6.04-1.72,2.3-3.16,4.63-6.63,1.91-4.83-3.8-10.04-7.1-14.98-10.76-2.02-1.49-2.96-1.55-4.49.86-6.27,9.94-6.39,9.86,3.35,16.63,1.23.85,2.34,1.91,3.66,2.58,3.39,1.72,4.01,3.68,1.69,7-2.44,3.49-4.57,2.86-7.38.67-3.14-2.45-6.6-4.49-9.74-6.93-2.31-1.8-3.55-1.4-4.9,1.11-2.1,3.9-6.6,7.86-6.2,11.35.34,2.93,6.23,5.22,9.68,7.76,1.2.89,2.45,1.71,3.7,2.54,2.57,1.7,5.05,3.06,2.33,6.92-2.6,3.68-4.73,3.53-8.09,1.08-6.43-4.7-13.11-9.07-19.76-13.46-2.91-1.92-3.51-4.02-1.68-7.09,8.83-14.81,17.57-29.67,26.33-44.53.81-1.37,1.69-2.48,3.48-2.24Z" style="fill: #2a2425; stroke-width: 0px;"/>
  <path d="m220.64,98.14c.16-17.82,15.4-31.73,30.52-30.58,4.05.31,7.89,4.51,8.12,8.64.14,2.58-1.44,2.1-2.94,1.92-4.9-.61-9.6-.07-14.02,2.28-6.32,3.36-9.58,9.77-7.78,16.7,2.59,9.99,7.45,18.63,17.6,22.66,6.36,2.53,13.62-.84,18.53-7.35,1.23-1.63,1.31-5.06,4.54-4.24,2.26.57,4.58,8.03,3.28,10.25-6.24,10.65-22.3,18.96-35.37,11.81-13.46-7.36-21.15-19.23-22.49-32.09Z" style="fill: #2a2425; stroke-width: 0px;"/>
  <path d="m382,55.99c-.77-28.42,24.74-36.94,42.03-28.84,3.5,1.64,5.54,7.87,3.83,11.15-1.02,1.96-2.49,1.17-3.78.42-3.32-1.94-6.73-3.58-10.67-3.79-10.1-.52-16.13,4.39-17.29,14.43-.68,5.84,0,11.65,2.15,17.14,4.24,10.9,14.43,14.35,24.77,8.8,1.8-.96,3.51-4.4,6.05-1.76,2.04,2.12.83,8.68-1.59,10.45-8.57,6.25-27,7.51-36.4-3.85-6.7-8.09-8.72-17.66-9.1-24.14Z" style="fill: #2a2425; stroke-width: 0px;"/>
  <path d="m789.91,238.27c-.11-15.27-12.36-22.97-25.67-16.47-3.14,1.53-6.06,3.44-8.67,5.79-9.87,8.89-8.96,20.65,2,28.09,1.7,1.15,5.59,1.05,4.35,4.56-.98,2.8-7.35,4.48-10.13,2.99-5.79-3.1-9.75-8.05-12.52-13.81-3.92-8.13-4.13-16.52.85-24.26,6.66-10.35,15.96-17.23,28.4-19.22,4.21-.67,8.26.16,12.17,1.8,10.3,4.33,19.25,17.15,19.24,27.62,0,4.07-3.7,8.28-7.6,8.18-4.53-.11-1.49-3.81-2.4-5.29Z" style="fill: #2a2425; stroke-width: 0px;"/>
  <path d="m112.12,225.2c-5.67-7.27-9.27-14.01-13.6-20.24-2.7-3.89-2.62-6.83.16-10.65,5.42-7.45,5.29-7.58,9.71.64,4.71,8.76,9.61,17.43,14.15,26.27,1.97,3.85,4.58,6.7,8.36,8.78,3.48,1.92,6.52,4.68,10.08,6.4,4.73,2.28,4.02,4.9,1.81,8.59-2.29,3.83-4.63,4.77-8.31,1.87-9.89-7.78-20.95-11.4-33.73-10.48-7.09.51-14.28-.6-21.43-.79-3.72-.1-4.95-1.35-2.97-4.79,1.07-1.87,2.13-3.74,3.17-5.63,1.47-2.65,3.5-3.39,6.62-3.05,8.23.89,16.51,1.32,26,3.08Z" style="fill: #2a2425; stroke-width: 0px;"/>
  <path d="m47.99,563.68c0-4.09,5.13-7.14,8.87-5.28,1.64.81.98,2.33.96,3.5-.07,5.05.53,9.93,2.97,14.46,1.85,3.43,4.47,6.07,8.6,5.56,4.3-.54,6.53-3.56,7.14-7.78.8-5.58,1.18-11.27,2.51-16.72,3.18-13.05,18.21-17.09,27.6-7.46,5.92,6.06,8.56,13.68,8.94,22.08.18,4-2.72,3.81-5.43,4-2.69.19-4.3-.2-4.3-3.62,0-3.96-.78-7.92-2.84-11.48-1.82-3.13-4.34-5.19-8.08-4.68-3.98.55-5.3,3.77-5.87,7.16-.85,5.06-1.27,10.18-2.12,15.24-1.24,7.42-5.3,12.17-12.95,13.93-7.56,1.74-13.4-.63-18.12-6.37-5.36-6.54-7.63-14.21-7.89-22.55Z" style="fill: #2a2425; stroke-width: 0px;"/>
  <path d="m498.85,795.92c-13.44-.13-21.88,5.42-23.9,15.65-4.07,20.63,11.24,34.23,31.23,27.67,2.74-.9,5.12-2.49,6.31,2.07.98,3.78.69,5.84-3.57,6.88-12.5,3.08-24.82,5.48-35.73-4.25-11.32-10.09-12.95-23.07-9.02-36.47,3.63-12.36,13.3-18.83,26.06-20.75,4.31-.65,8.56-.95,12.88-.39,3.1.41,4.55,1.5,3.96,5.09-.5,3.07-1.01,5.15-4.73,4.53-1.13-.19-2.32-.03-3.49-.03Z" style="fill: #2a2425; stroke-width: 0px;"/>
  <path d="m693.89,716.52c-.05-11.9,10.97-23.27,22.69-23.42,12.39-.16,24.43,11.97,24.57,24.74.13,11.75-11.06,22.98-23.02,23.11-12.12.13-24.18-12.03-24.23-24.43Zm37.02,4.72c.06-8.13-9.34-17.69-17.39-17.68-5.65,0-10.29,5.5-9.36,11.1,1.09,6.56,8.5,14.32,15.06,15.77,5.57,1.23,11.65-3.54,11.69-9.18Z" style="fill: #2a2425; stroke-width: 0px;"/>
  <path d="m132.52,661.82c-2.92-.02-5.32,1.5-7.63,3.11-5.73,4-11.43,8.03-17.07,12.16-5.38,3.95-5.72-2.16-8.07-4.03-2.9-2.31-.73-3.73,1.24-5.19,9.94-7.34,19.81-14.76,29.75-22.09,1.47-1.08,3.41-3.17,4.88-.28,1.16,2.26,6.26,3.63,2.27,7.35-1.56,1.45.3,1.36.57,1.97.65,1.47,2.22,1.34,3.38,1.85,12.5,5.49,15.07,18.63,4.9,27.64-7.08,6.27-14.9,11.7-22.42,17.47-1.24.95-2.18,1.27-3.74-.24-1.96-1.9-3.06-4.19-4.22-6.45-.71-1.37-.68-2.9,1.5-3.94,7.87-3.74,14.27-9.6,20.77-15.24,2.62-2.27,4.07-5.34,2.26-8.87-1.71-3.32-4.32-5.46-8.37-5.21Z" style="fill: #2a2425; stroke-width: 0px;"/>
  <path d="m247.82,798.68c-.03-6.16,2.28-10.99,4.46-15.79,2.59-5.73,5.84-11.17,8.3-16.94,2.54-5.95,5.59-1.34,8.37-.73,3.73.82,3.36,3.06,1.91,5.88-3.63,7.06-7.29,14.12-9.9,21.65-2.01,5.79-1.18,8.8,3.13,11.06,4.3,2.26,8.42,1.17,11.51-3.59,4.15-6.39,7.67-13.15,10.42-20.27,1.61-4.18,3.42-4.92,8.78-2.65,3.06,1.29,4.02,3.43,2.35,6.73-5.61,11.07-11.02,22.23-16.55,33.33-.77,1.55-1.51,3.81-3.94,2.31-2.18-1.35-6.24-1.62-5.19-5.43,1.03-3.75-.46-3.02-2.8-2.47-5.8,1.38-11.26.61-15.91-3.36-3.16-2.69-5.16-6.05-4.94-9.73Z" style="fill: #2a2425; stroke-width: 0px;"/>
  <path d="m758.69,631.82c-.64,1.86,1.1,2.05,2.01,2.67,9.59,6.58,19.27,13.04,28.8,19.7,1.71,1.19,5.5,1.63,3.34,5.3-1.72,2.92-3.19,6.64-7.88,4.33-.24-.12-.63.08-1.14.15.16,4.46.07,8.95-1.98,13.07-3.79,7.62-12.53,10.75-20.31,6.53-8.43-4.57-16.56-9.74-24.53-15.1-4.14-2.78-1.12-5.86.62-8.85,1.8-3.08,3.47-2.84,6.12-1.04,6.6,4.47,13.26,8.88,20.14,12.91,4.95,2.9,9.09,2.03,11.54-1.6,2.56-3.8,1.88-8.43-2.39-11.88-5.55-4.49-11.48-8.51-17.13-12.88-1.74-1.35-5.32-2.01-4.64-4.51.91-3.34,2.9-6.66,6.57-8.12.37-.15.78-.05.94-.55,0,0-.07-.13-.07-.13Z" style="fill: #2a2425; stroke-width: 0px;"/>
  <path d="m78.45,628.88c-5.62-3.09-8.83-6.56-10.98-11.04-2.79-5.81-1.89-11.74,2.24-15.6,4.79-4.48,11.99-5.49,17.43-2.28,4.86,2.86,8.04,7.33,11.11,11.91.88,1.31,1.16,3.9,3.77,2.91,2.06-.78,2.86-2.52,3.06-4.68.5-5.42-2.71-9.04-6.06-12.54-1.85-1.93-3.48-3.43-.47-5.87,2.54-2.06,4.34-2.34,6.58.4,4,4.9,7.93,9.72,9.25,16.2,1.27,6.23-.66,12.25-5.89,15.67-8.62,5.65-18.01,9.93-27.1,14.74-1.44.76-2.73.82-3.18-.83-.71-2.61-4.4-4.54-1.95-7.83.44-.59,1.45-.77,2.2-1.14Zm6.17-5.69c2.97-.54,6.92-.99,8.21-3.52,1.37-2.68-2.06-5.04-3.83-7.29-.2-.26-.45-.48-.7-.7-2.74-2.49-5.71-4.04-9.32-1.8-2.69,1.67-3.94,4.26-2.77,7.21,1.41,3.57,4.19,5.82,8.41,6.11Z" style="fill: #2a2425; stroke-width: 0px;"/>
  <path d="m838.87,554.55c-.53,13.84-7.12,23.95-17.26,26.97-8.4,2.51-20.24-1.55-26.36-9.04-5.54-6.77-6.38-15.89-2.19-23.77,3.69-6.92,11.12-10.42,19.79-9.33,10.26,1.3,10.4,1.46,7.46,11.21-1.62,5.38-3.41,10.7-5.07,16.06-1.35,4.34-.49,5.25,4.09,4.53,3.79-.59,6.22-2.84,7.93-6.14,1.77-3.42,3.15-6.98,3.54-10.8.29-2.84-.28-5.54,4.33-5.05,4.36.45,4.06,2.92,3.75,5.34Zm-40.15,3.56c-.31,3.27,1.35,5.85,3.73,8.1,2.03,1.92,3.6,2.24,4.61-1,1.38-4.41,2.94-8.77,4.42-13.15.5-1.47.38-2.39-1.51-2.83-5.79-1.34-11.19,2.75-11.26,8.88Z" style="fill: #2a2425; stroke-width: 0px;"/>
  <path d="m218.12,158.16c.1,1.99-1.19,2.66-2.16,3.5-5.65,4.89-11.34,9.72-16.97,14.64-2.61,2.28-4.91,2.24-7.34-.28-12.67-13.16-25.35-26.31-38.13-39.36-2.01-2.05-1.85-3.63,0-5.44,1.07-1.05,2.16-2.07,3.19-3.15,3.2-3.36,5.66-3.1,8.83.6,9.39,10.97,19.29,21.5,28.75,32.41,2.12,2.44,3.33,2.35,5.45.35,2.77-2.62,5.73-5.05,8.74-7.38,1.41-1.09,2.59-3.45,5.03-1.75,2.26,1.56,3.72,3.71,4.6,5.9Z" style="fill: #2a2425; stroke-width: 0px;"/>
  <path d="m441.07,55.15c0-8.31.3-16.64-.12-24.93-.23-4.64,1.68-5.88,5.71-5.59.66.05,1.34.14,1.99.09,4.66-.35,6.37,1.51,6.17,6.4-.55,13.78-.51,27.59-.93,41.37-.1,3.28.49,4.78,4.16,4.71,4.14-.07,8.28.64,12.43.82,4.45.2,3.69,3.32,3.62,6.08-.07,2.78-.75,4.89-4.32,4.59-7.96-.66-15.93-1.24-23.9-1.68-3.35-.19-4.12-2.04-4.1-4.94.06-8.98.02-17.96.02-26.93h-.75Z" style="fill: #2a2425; stroke-width: 0px;"/>
  <path d="m840.07,326.1c.43,1.88-1.52,2.19-3.61,2.73-13.46,3.51-26.88,7.22-40.36,10.64-3.28.83-4.83,1.69-3.43,5.46,1.43,3.86,2.07,8.01,3.19,12,.94,3.37-.72,4.37-3.69,4.89-2.69.47-5.28,1.69-6.31-2.27-1.96-7.52-3.91-15.05-6.03-22.53-1-3.52-.2-5.47,3.56-6.58,16.67-4.93,33.3-10.04,49.9-15.22,2-.62,3.09-.41,4.03,1.41,1.39,2.68,2.22,5.51,2.76,9.47Z" style="fill: #2a2425; stroke-width: 0px;"/>
  <path d="m236.44,799.35c-1.48-.8-2.38-1.21-3.2-1.75-8.08-5.23-16.1-10.55-24.23-15.71-2.97-1.89-3.43-3.46-1.29-6.68,9.75-14.63,19.2-29.45,28.67-44.27,1.58-2.47,2.57-5.13,6.16-2.17,2.84,2.34,6.82,3.44,3.35,8.6-7.87,11.69-15.12,23.8-22.95,35.51-2.42,3.61-2.38,5.51,1.56,7.68,4.93,2.72,9.57,5.99,14.29,9.08,1.14.75,3.15,1.3,2.01,3.28-1.28,2.23-2.88,4.27-4.36,6.42Z" style="fill: #2a2425; stroke-width: 0px;"/>
  <path d="m579.93,827.69c.43,2.07-.9,2.82-2.67,3.35-9.5,2.86-19,5.72-28.47,8.65-2.76.85-3.99-.47-4.7-2.84-5.27-17.61-10.56-35.22-15.81-52.83-.8-2.69.04-4.64,3.06-4.69,2.67-.04,6.1-4.33,7.82,1.76,4.01,14.15,8.62,28.14,12.57,42.31,1.13,4.05,2.56,4.85,6.4,3.49,4.82-1.71,9.86-2.85,14.81-4.18,4.81-1.29,6.76.1,6.97,4.98Z" style="fill: #2a2425; stroke-width: 0px;"/>
  <path d="m136.02,716.12c-.2-4.8,1.92-7.63,4.37-10.11,5.02-5.09,10.22-10,15.4-14.93,1.82-1.73,3.58-3.26.28-5.27-2.15-1.31-2.07-3.06.12-4.04,1.91-.85,2.72-5.94,5.97-1.99,2.13,2.59,3.53,2.44,5.78.09,2.55-2.67,10.71-.34,12.33,3.11.42.89-.06,1.17-.46,1.55-.96.92-1.9,1.91-3,2.62-4.13,2.65-4.11,5.04-.32,8.25,3.61,3.06,2.31,7.47-2.32,8.6-2.41.58-3.46-1.85-4.43-3.25-2.7-3.91-5.02-3.08-7.79-.22-3.81,3.94-7.79,7.73-11.66,11.62-2.73,2.75-3.58,5.67-.24,8.54,2.51,2.16,1.74,3.85-.42,5.6-2,1.62-3.52,3.93-6.54.96-3.52-3.47-6.57-6.97-7.08-11.13Z" style="fill: #2a2425; stroke-width: 0px;"/>
  <path d="m293.96,810.66c.61-8.31,4.43-17.04,13.52-21.15,8.59-3.89,17.86-2.49,26.23,2.47,3.21,1.9,2.25,4.19.92,6.74-1.65,3.16-3.52,2.38-5.99.97-8.89-5.09-17.13-2.93-20.96,5.3-4.82,10.36.31,19.57,11.73,20.88,2.47.28,5.03.37,4.39,3.77-.49,2.59-.57,5.4-4.89,5.33-13.36-.21-24.86-10.43-24.94-24.32Z" style="fill: #2a2425; stroke-width: 0px;"/>
  <path d="m766.32,182.41c-.08,1.32-1.3,1.8-2.16,2.49-13.82,10.96-27.74,21.78-41.44,32.88-3.82,3.1-5.31.15-7.04-2.02-1.71-2.14-4.44-4.08-.58-7.31,13.01-10.9,25.84-22.02,38.5-33.32,3.74-3.34,6.18-2.9,8.83.91,1.42,2.04,3.24,3.81,3.9,6.37Z" style="fill: #2a2425; stroke-width: 0px;"/>
  <path d="m763,700.77c-2.26,2.57-4.21,5.31-6.68,7.45-2,1.74-3.02-.97-4.36-1.86-6.72-4.48-12.98-9.82-19-14.94-8.76-7.46-17.75-14.83-26.11-22.84-1.39-1.33-1.43-2.4-.16-3.76,1.02-1.09,2-2.24,2.8-3.49,1.86-2.91,3.5-2.78,6.13-.54,14.79,12.57,29.75,24.94,44.64,37.39.88.73,1.66,1.57,2.73,2.59Z" style="fill: #2a2425; stroke-width: 0px;"/>
  <path d="m91.84,659.24c-2.58-1.8-3.6-4.79-5.12-7.44-1.38-2.4,1.02-3.78,1.9-4.24,10.94-5.58,21.03-12.57,31.43-19.01,5.57-3.45,6.25,1.44,8.13,3.68,2.28,2.72.7,4.8-2.25,6.52-10.47,6.12-20.78,12.5-31.15,18.78-.84.51-1.71.99-2.94,1.71Z" style="fill: #2a2425; stroke-width: 0px;"/>
  <path d="m52.85,403.33c0-7.29,5.28-12.86,12.2-12.9,7.16-.04,12.91,5.7,12.94,12.9.03,6.89-5.73,12.96-12.37,13.04-7.05.09-12.77-5.76-12.76-13.04Z" style="fill: #2a2425; stroke-width: 0px;"/>
  <path d="m828.12,405.86c.07,6.91-4.92,12.3-11.51,12.45-6.56.14-12.73-6.39-12.69-13.43.04-6.42,5.7-12.13,12.04-12.14,6.61-.01,12.09,5.89,12.17,13.12Z" style="fill: #2a2425; stroke-width: 0px;"/>
  <path d="m200.35,740.25c-.88,2.1-2.16,3.82-3.89,5.13-1.66,1.26-2.34-.65-3.2-1.35-4.49-3.68-8.86-7.5-13.28-11.25-1.32-1.12-2.76-2.19-.68-3.84,1.62-1.28,2.57-4.76,5.47-2.47,5.07,4.02,9.88,8.35,14.78,12.58.35.3.53.79.8,1.2Z" style="fill: #2a2425; stroke-width: 0px;"/>
  <path d="m598.45,819.17c0,3.65-2.91,6.63-6.56,6.7-3.8.08-7.73-3.71-7.78-7.5-.05-3.53,3.42-6.74,7.25-6.7,3.85.04,7.09,3.47,7.09,7.5Z" style="fill: #2a2425; stroke-width: 0px;"/>
  <path d="m534,838.63c.02,4.49-2.31,6.56-7.35,6.54-3.87-.02-6.24-3.07-6.13-7.89.07-3.36,3.31-6.35,6.88-6.37,3.88-.02,6.59,3.15,6.61,7.72Z" style="fill: #2a2425; stroke-width: 0px;"/>
  <path d="m459.2,846.84c.03,4.08-3.17,7.52-6.99,7.49-3.75-.02-6.59-3.13-6.62-7.22-.02-4.31,2.48-7.13,6.45-7.25,4.42-.13,7.12,2.5,7.16,6.98Z" style="fill: #2a2425; stroke-width: 0px;"/>
  <path d="m778.13,533.88c3.24,4.1,5.75,8.15,8.02,12.37,1,1.86,1.17,3.8.49,5.76-.85,2.43-2.37,3.26-4.33,1.11-2.43-2.67-5.37-5.18-6.81-8.35-1.68-3.68,1.6-6.99,2.63-10.89Z" style="fill: #2a2425; stroke-width: 0px;"/>
  <path d="m144.14,625.01c-.89,2.6-1.27,5.94-5.29,5.93-4.23-.02-7.03-2.89-6.83-6.74.19-3.78,2.54-5.87,5.99-5.86,3.81.01,5.79,2.61,6.13,6.67Z" style="fill: #2a2425; stroke-width: 0px;"/>
  <path d="m512.15,514.35c.83-4.55,1.73-9.1,2.46-13.67.18-1.16.87-3.02-1.08-3.23-1.36-.15-1.5,1.47-1.73,2.6-1.97,9.92-3.41,19.97-6.02,29.72-11.46,42.89-23.77,85.52-45.23,124.79-4.45,8.14-9.49,15.96-14.21,23.95-.44.75-1.41,1.52-.49,2.58,0,0,.09-.12.09-.12-1.29-.29-.74.64-.77,1.17,1.89,3.07,5.4,3.57,8.2,5.19,3.77,2.19,3.52,4.76-.04,7.29-3.32,2.37-6.26,2.3-9.57.28-6.49-3.96-13.43-5.01-21.14-5.1-8.96-.11-13.48,3.59-15.87,12.07,6.26-.31,12.06,1.91,18.17,2.19,7.58.35,15.13,2.05,22.1,4.47,12.68,4.41,25.68,6.85,38.76,9.13,3.69.64,7.47-.6,10.07-3.12,8.99-8.72,7.3-26.09-2.67-33.34-10.62-7.74-22.42-13.03-34.61-17.63,6.14-10.87,3.78-9.15,14.4-5.42,9.85,3.46,19.63,7.29,28.45,13.05,13.36,8.71,17.02,18.49,12.72,33.67-3.78,13.38-13.55,20.45-28.42,21.21-13.42.69-25.95-3.02-38.46-6.95-42.67-13.42-84.6-9.28-126.04,5.34-10.16,3.59-20.11,7.76-30.16,11.66-1.96.05-3.95-.11-5.88.18-9.08,1.38-11.43-.22-13.01-9.12,6.05-7.46,12.82-14.19,20.54-19.92,19.18-14.21,41.15-21.89,64.11-27.23,3.23-.75,7.91-.52,9.3-2.54,1.76-2.55-2.75-5.3-3.62-8.42-.48-1.75-1.72-3.35-1.94-5.1-.72-5.76-4.11-6.77-9.09-5.8-2.1.41-4.32.36-6.48.33-8.04-.09-9.85-1.63-10.88-9.68-.28-2.16-1.13-3.94-2.63-5.19-19.92-16.69-17.6-40.03-5-60.24,3.88-6.23,8.09-12.2,12.79-17.79,1.94-2.3,2.04-3.95.41-6.53-11.29-17.92-16.55-37.86-18.73-58.67-3.45-33.02-.71-65.72,5.67-98.2,1.15-5.88,1.69-11.83,1.42-17.86-.1-2.2-.62-3.82-2.83-4.71-6.25-2.5-9.29-7.94-10.02-13.88-1.91-15.49,1.73-29.7,12.16-41.75,2.62-3.02,5.79-5.05,10.02-4.49,3.73.5,6.65,2.27,7.55,6.15,1.05,4.55,3.73,4.52,7.08,2.77,5.13-2.7,8.92-6.85,12.36-11.41,2.3-3.05,4.71-6,8.43-7.54,6.68-2.76,11.08-.86,13.02,5.99,2.36,8.32,1.88,16.88.86,25.27-1.88,15.5-5.65,30.57-12.6,44.68-2.73,5.54-5.83,10.85-10.55,14.97-7.63,6.64-15.14,4.21-17.32-5.64-.72-3.23-.99-6.57-1.58-10.65-3.34,5.15-4.46,10.46-5.62,15.61-6.86,30.54-8.5,61.45-6.35,92.64,1.41,20.44,6.25,39.88,15.95,58.01.82,1.54.98,4.35,3.91,3.44,2.54-.79,4.46-1.79,4.65-5.34,1.02-18.58,2.61-37.13,3.6-55.72.32-5.92,3.06-9.59,7.91-12.2,1.31-.71,2.71-1.28,4.11-1.79,7.72-2.77,15.26-5.09,21.24-11.84,5.06-5.71,13.13-6.62,20.91-5.72,3.03.35,5.27,1.98,5.58,4.83.83,7.59,1.51,15.23-2,22.52-2.88,5.97-7.55,9.64-14.08,9.32-7-.34-13.27-3.44-15.3-10.71-1.37-4.89-3.59-4.54-7.42-3.66-6.55,1.51-9.66,5.04-10.31,11.92-3.92,41.74-6.74,83.51-4.8,125.48.66,14.3,1.65,28.55,5.46,42.41,1.89,6.87,4.14,13.67,10.07,18.44,1.69,1.36,3.35,2.44,6.81,2-11.04-7.63-13.26-18.78-15.65-29.85,6.14-5.21,8.02-12.31,8.73-19.88.13-1.42.23-3.48-1.42-3.89-4.39-1.09-6.15-5.99-10.55-6.91.07-14.2-1.32-28.38-.43-42.58.15,2.8-.7,5.71.49,8.76,1.33-1.32,2.14-2.36,3.17-3.11,10.8-7.93,22.73-13.69,35.29-18.23,12.67-4.58,25.43-8.93,38.02-13.73,12.16-4.64,24.34-9.33,36.15-14.78,5.89-2.72,13.34-4.03,15.66-11.92.55-1.87,2.4-3.93.8-5.39-1.45-1.32-3.39.68-4.75,1.68-15.59,11.42-33.62,17.3-51.95,22.05-18.19,4.71-36.2,10.29-54.73,13.56-5.77,1.02-11.74,2.02-17.72.9,1.17-19.84-2.07-15.64,14.9-23.77,18.46-8.84,38.31-13.82,57.92-19.37,18.09-5.12,34.65-13.32,49.66-24.62,1.81-1.36,3.92-2.46,5.26-4.77-2.14-1.24-3.49.37-4.94,1.08-4.9,2.42-9.45,5.55-14.89,6.82-6.96,1.62-10.95-.46-12.9-7.27-.96-3.34-1.53-6.8-2.01-10.25-.64-4.58,1.66-7.95,4.98-10.79,5.38-4.61,17.04-6.89,24.38-.19,3.95,3.61,7.62,7.43,11.12,11.43,1.56,1.79,2.32,2.6,4.35.32,9.58-10.8,16.71-22.8,18.68-37.31,1.3-9.55-1.24-18.48-5.81-26.81-1.67-3.04-3.73-5.89-5.8-8.68-5.89-7.94-9.71-8.7-18.48-3.76-5.51,3.1-9.35,7.85-12.89,12.96-3.65,5.26-8.05,9.72-14.14,12.2-8.47,3.46-13.87.4-15.72-8.45-1.01-4.85-.19-9.54.4-14.96-9.26,3.38-17.77,6.65-24.7,13.14-4.61,4.31-9.46,8.37-14.33,12.39-1.51,1.24-3.42,1.98-5.14,2.97-.94.54-1.97.87-2.66-.14-.8-1.16.37-1.73,1.06-2.36,3.54-3.19,7.51-5.94,11.12-10.49-7.75.98-14.8.6-21.29,3.85-1.03.51-2.16.83-3.26,1.16-1.02.31-2.13.16-2.64-.78-.62-1.15.54-1.78,1.23-2.39,4.35-3.88,9.79-4.81,15.27-5.09,7.25-.37,13.61-2.56,19.17-7.28,4.61-3.91,10.15-6.33,15.69-8.55,2.49-1,3.43-2.18,3.19-4.71-.54-5.85-1.08-11.39-7.3-14.72-4.43-2.37-6.85-6.93-7.41-11.87-.52-4.5-2.84-6-6.89-6.03-1.33-.01-2.67-.03-3.99-.21-1.94-.26-3.41-1.22-4.05-3.2-.71-2.2.12-3.89,1.75-5.3.5-.43,1-.96,1.6-1.16,11.33-3.69,22.23-8.59,34.27-10.12,11.01-1.4,21.83-.51,33.22,1.28-.36-2.42-1.89-4.44-.91-6.37.79-1.57.13-6.59,4.37-2.28,1.25,1.27,2.85,0,3.84-1.18,1.04-1.25,1.91-2.65,2.89-4.03,2.78,4.21.86,8.44-7.13,14.54,8.93,1.63,15.76,8.49,25.27,3.79,5.5-2.72,11.75-3.52,17.95-3.61,2.56-.04,5.02-.58,7.03-2.04,6.2-4.5,12.23-9.22,16.27-15.93,2.59-4.3,2.11-7.47-2.12-10.01-5.69-3.41-11.68-6.35-17.48-9.59-2.1-1.17-3.79-.66-5.47.69-3.89,3.12-7.8,6.21-11.66,9.37-1.7,1.39-3.45,2.57-5.71,2.8-4.17.43-5.86-1.8-4.27-5.66.13-.31.27-.61.43-.9,1.5-2.81,3.45-5.94.55-8.62-2.96-2.74-6.7-2.61-10.17-.42-2.24,1.41-4.4,2.95-6.61,4.42-1.65,1.09-3.24,2.34-5.01,3.19-2.33,1.12-5.25,1.67-6.82-.61-1.6-2.32,1.2-3.76,2.63-5.19,3.57-3.57,7.78-6.5,12.46-8.11,4.99-1.71,8.15-5.42,11.86-8.59,1.79-1.53,2.04-3.2.28-5.12-2.84-3.11-1.68-5.79,1.32-7.95,7.58-5.45,8.8-13.18,8-21.7-.18-1.87-1.63-2.83-2.58-4.15-2.76-3.89-1.46-9.72,2.78-12.32,4.27-2.62,10.11-.96,12.37,3.54,1.56,3.1,1.54,6.23-.76,8.88-2.89,3.33-1.74,6.86-.95,10.39.29,1.31,1.03,2.63,2.56,2.7,1.3.06,2.07-1.1,2.52-2.14,1.09-2.54,2.54-4.97.88-7.99-1.82-3.32-.16-6.2,2.17-8.53,2.36-2.36,5.37-2.79,8.25-1.04,2,1.22,3.04,1.16,4.96-.56,5.08-4.53,12.34-2.17,14.14,4.42.58,2.11.77,3.15,3.58,3.27,6.59.3,8.37,3.84,7.19,12.68-2.74,1.52-6.77,1.78-7.08,7.56,3.33-2.88,5.63-4.84,7-7.67,2.58-1.65,2.91-3.74,2.25-6.75-2.44-11.12,6.22-20.87,17.03-19.43,1.69.22,3.87.07,3.72,2.84-11.07-1.02-16.6,1.81-18.46,9.44-1.56,6.39,1.99,13.38,8.1,15.97,6.06,2.57,14.15.17,17.24-5.1,3.61-6.17,1.96-12.95-4.46-18.38,3.4-.11,4.74.6,6.47,3.4,5.55,8.97.07,21.33-10.31,23.28-5.96,1.12-9.34,8.15-6.57,13.65,1.67,2.67-1.01,2.75-2.22,3.53-2.02,1.3-1.68,3.03-1.1,4.79.42,1.27,1.18,2.77,2.6,2.62,1.95-.2,1.12-2.43,1.87-3.59.35-.55.48-1.29.92-1.74,3.31-3.42,2.16-5.06-2.13-5.54-.68-1.63.95-2.79.78-4.52-.41-4.1,2.26-6.61,5.84-7.63,3.6-1.03,6.88.62,8.35,3.89,1.33,2.96,2.72,3.02,5.59,2.59,6.11-.92,11.03,4.87,9.22,10.81-.79,2.59-.39,3.78,1.73,5.23,2.59,1.77,3.23,4.61,2.36,7.57-.92,3.11-3,5.12-6.33,5.63-.16.03-.33.07-.49.06-4.33-.15-6.68,2.42-8.12,6.07-.42,1.07.22,1.83,1.35,2.23,2.38.86,9.13-1.53,10.52-4.08,1.85-3.4,4.49-5.29,8.37-5.28,4.71.01,8.75,4.15,8.52,8.65-.25,4.88-5.59,9.52-10.16,8.83-9.08-1.38-19.28,5.34-20.95,14.34-.84,4.56-2.62,6.69-7.3,5.5-2.19-.56-3.7.59-4.58,2.16-1.26,2.27,1.32,2.66,2.42,3.5,8.27,6.27,8.4,7.01,1.17,14.81-4.55,4.91-10.11,8.65-15.44,12.6-3.4,2.52-4.07,5.43-3.72,9.43,2.24,25.31.71,50.45-3.78,75.44-3.47,19.36-14.6,34.21-28.09,47.64-11.3,11.25-24.65,19.64-38.67,27.04-.57.3-1.27.33-2.18.56-.48-3.85.98-7.21,1.82-10.66,23.52-12.57,42.15-29.69,51.09-55.57,1.74-5.02,4.18-10.21,1.79-16.75-.93,1.85-1.51,2.83-1.93,3.88-5.92,14.78-15.18,27.12-27.06,37.65-7.03,6.23-16.12,10.2-20.84,18.97-.09.17-.63.11-.95.15Zm36.26-257.22c-1.63,1.69-4.88,2.59-2.97,6.79,1.31-2.62,4.26-3.66,2.93-6.76.14.04.29.07.43.12.06.02.1.08.16.12-.18-.09-.36-.19-.55-.28Zm39.91,68.92c2.69,3.21,5.39,6.43,8.33,9.93.55-2.69,1.39-5.14,3.68-5.3,4.28-.31,2.8-2.46,1.87-4.51-.94-2.09-2.07-4.08-4.25-5.54-1.8,3.7-3.21,8.35-8.81,4.63-1.3-4.76.87-7.43,5.58-8.59-2.22-3.63-4.96-6.23-8.92-8.75.64,6.37-2.78,8.28-8.41,8.11,4.19,3.84,7.56,6.93,10.93,10.02Zm-240.69,313.75c1.25.8,2.67,1.44,3.72,2.45,1.44,1.4,3.03,2.45,4.8,1.28,1.66-1.1,1.84-3.16,1.24-4.99-.81-2.47-.13-4.98-.5-7.42-.41-2.66,1.06-5.7-1.53-7.93.26-.91.86-1.81-.39-3.45-5.69,9.25-11.28,18.18-13.07,28.8-.87,5.19.6,5.97,5.96,3.85-2.55-.42-3.46-1.82-2.95-4.22.62-2.89,1.27-5.77,2.74-8.38Zm214.32-336.26c-.2.47-.07.79.45.87.11.02.25-.15.37-.23-.31-.18-.61-.37-.92-.55-1.12-3.55-.77-6.81,2.08-9.45,1.34-1.24,1.31-2.26-.23-3.08-3.65-1.94-7.04-4.55-11.66-4.96,3.42,4.75.07,7.92-5.46,10.64,5.92,1.27,9.67,6.05,15.37,6.76Zm-174.42,351.6c.06,2.46,1.88,3.3,3.78,4.03,14.53,5.53,29.26,10.6,42.94,18.15,1.32.73,2.37.89,3.39-.57,2.98-4.3,6.02-8.55,9.1-12.78,1.57-2.16,1.39-2.99-1.44-4.12-11.84-4.73-23.44-10.06-35.27-14.82-5.42-2.18-10.01-6.22-16.04-6.95.33-1.62.62-3.25,1-4.85q1.67-6.97,8.33-3.76c.75.36,1.49.75,2.23,1.12,13.79,6.96,28.03,12.91,42.24,18.95,4.59,1.95,6.77.99,8.71-3.48,3.23-7.44,6.93-14.7,9.37-22.45,6.46-20.5,12.83-41.02,19.98-61.3,1.93-5.49,4.43-10.86,5.19-17.04-10.39,3.13-19.42,8.17-28.97,11.94-18.68,7.38-37.96,13.14-56.48,20.94-12.06,5.08-23.08,11.66-32.38,21.05-3.39,3.42-3.11,5.8.03,9.05,3.88,4.03,7.55,7.84,13.86,7.46,2.26-.14,4.53,1.03,6.24,2.78.93.95,1.34,1.76.99,3.42-3.02,14.64-7.74,28.7-13.86,42.32-.51,1.14-1.68,2.38-.43,4.26,4.14-3.82,5.03-9.04,7.5-13.35Zm116.62-261.06c10.01-1.2,19.94.3,29.89.08,8.37-.19,16.56-1.12,24.08-5.27,10.04-5.54,18.63-12.75,25.74-21.73,3.01-3.8,4.22-8.14,4.3-12.98.05-3.1-1.29-4.69-4.13-5.2-5.39-.98-10.78-2.21-16.29-.71-10.16,2.77-20.46,4.13-31.03,3.23-7.98-.68-15.62.96-22.65,4.65-3.93,2.06-7.29,1.74-11.24.11-16.45-6.81-33.53-9.38-51.26-6.77-5.25.77-9.95,2.56-13.3,7-1.13,1.5-1.56,2.91-.45,4.54,1.06,1.57,1.55,4.17,4.12,3.62,6.38-1.37,9.36,2.95,12.58,7.03,1.81,2.29,2.86,4.44-.39,6.45-1.32.82-2.27,1.82-1.61,3.69,1.44,4.09,2.23,8.33,2.41,12.68.09,2.22,1.11,2.91,3.26,1.9,2.84-1.34,5.64-2.73,8.89-2.98,7.46-.58,14.91-1.24,22.35-1.98,4.12-.41,8.76-.39,11.31-4.19,6.17-9.17,15.51-12,25.58-13.41,6.31-.89,12.63-.52,18.66,1.83,1.15.45,2.9.97,2.64,2.52-.26,1.54-1.76,2.26-3.39,2.46-2.2.27-4.28-.22-6.4-.69-13.99-3.03-26.78,2.34-33.66,14.11Zm-133.85,291.98c-4.07-.89-7.86,1.23-11.84,2.16-13.48,3.17-26.53,7.47-39.2,13.25-11.64,5.3-21.08,13.07-29.76,22.11-1.02,1.06-2.04,2.03-1.3,3.34,1.05,1.86,2.5.61,3.84.07,9.03-3.62,17.92-7.71,27.17-10.65,12.86-4.08,25.93-7.55,39.22-10.14,10.26-1.99,20.63-3.19,31-3.89,4.45-.3,6.97-1.89,9.2-5.14,1.74-2.53,1.44-3.84-1.93-4.06-5.79-.37-11.75-.8-16.55-4.36-3.02-2.24-5.97-3.34-9.85-2.7Zm202.04-393.4c14.21,10.69,27.58,20.89,35.22,36.55.76,1.56,1.71,1.33,2.56.07,2.82-4.18,6.71-6.85,11.53-8.22,1.47-.42,1.9-1.2,1-2.53-.65-.96-.52-2.9-2.6-2.08-.93.36-1.85.75-2.79,1.08-8.56,3.03-15.19-2.28-14.11-11.24.41-3.38,1.67-6.39,3.5-9.24.77-1.19,2.13-2.62.74-3.99-1.62-1.61-2.55.47-3.72,1.16-1.86,1.09-3.6,2.49-5.6,3.19-7.74,2.73-13.7-1.96-13.06-10.1.26-3.35,1.14-6.56,2.65-9.54,1.19-2.36,3.79-4.67,3.65-6.86-.16-2.47-4.4-2.31-6.1-4.34-3.27-3.91-5.38-1.97-7.28,1.32-2.49,4.31-6.08,7.42-10.53,9.6-5.25,2.57-9.91.91-12.36-4.43-1.62-3.53-1.36-7.1-.37-10.72.34-1.22,1.15-2.72-.6-3.43-1.65-.67-2.27.82-3.02,1.91-1.04,1.5-1.94,3.19-3.28,4.37-3.65,3.22-7.56,6.46-12.89,4.7-5.26-1.74-7.27-5.97-7.28-11.28,0-.33-.01-.66-.01-1,0-1.66-.69-2.34-2.46-2.22-1.63.11-2.54.59-2.32,2.35.58,4.76-.17,9.27-2.54,13.48-.92,1.63-.46,2.39,1.47,2.46,15.8.6,29.52,7.36,43.09,14.56,1.11.59,2.06,1.82,4.16,1.09-1.53-5.78.76-9.96,6.31-12.37,4.14-1.8,6.15-.46,6.64,4.08.72,6.67-3.6,9.41-9.61,11.63Zm-216.42,272.31c-.45-.14-.9-.28-1.35-.43-7.78,8.66-14.69,17.9-19.37,28.72-5.03,11.63-5.48,23.08.45,34.61,1.8,3.51,3.29,2.57,5.02.41,1.53-1.91,2.45-4.4,4.2-6.03,8.83-8.19,12.84-17.71,11.27-30.09-1.13-8.93-.22-18.13-.22-27.2Zm160.09-276c-1.98-.68-3.38,1.82-3.97,3.79-.82,2.71,2.28,2.17,3.63,2.64,28.86,9.92,53.7,26,74.64,48.15.99,1.05,1.8,3.45,3.86,1.87,1.81-1.38,2.6-3.46,1.26-5.7-.77-1.27-1.7-2.46-2.64-3.62-12.47-15.27-27.52-27.31-45.22-36.04-9.7-4.79-19.58-9.06-31.56-11.1Zm-156.64,103.18c1.17-1.26,1.72-1.66,2.01-2.19,10.78-19.6,15.8-40.62,15.53-62.93-.02-1.43.1-3.3-1.74-3.61-1.55-.26-2.11,1.48-2.7,2.57-5.03,9.23-8.03,19.22-10.47,29.36-2.83,11.74-5,23.59-2.63,36.81Zm134.12,5.44q-11.2-.27-16.59,7.75c-.28.41-.53.85-.86,1.21-2.03,2.22-4.28,5.1-7.48,3.54-3.74-1.83.17-4.52.13-6.86-.02-1.19,1.88-2.47.15-3.48-1.26-.73-2.62.25-3.68.95-2.11,1.38-2.81,3.72-3.11,6.01-.47,3.61-.75,7.26-.22,10.92.33,2.23.88,4.41,3.15,5.27,2.23.85,3.65-1.04,5.02-2.33,2.05-1.93,4.03-3.98,5.77-6.19,4.81-6.09,9.37-12.38,17.73-16.79Zm44.35-117.54c.87,3.88-.04,6.69-3.34,8.19-1.77.81-3.38-.22-4.39-1.53-2.8-3.63,1.7-5.3,2.6-7.89-.51-.33-.79-.66-1.06-.66-3.54.03-9.07-4.45-8.9,4.14.03,1.51-1.45,4.65-4.35,3.15-2.54-1.31-3.36-3.56-1.07-6.07.55-.61,1.09-1.32-.11-2.23-3.74,1.97-1.92,5.54-1.91,8.24,0,2.95,2.86,1.94,4.68,1.9,4.42-.1,8.47,1.36,12.49,2.89,3.99,1.52,7.92,3.18,13.35,5.38-2.95-3.66-2.59-6.62-.16-8.34,5.66-4.01,1.02-4.43-1.69-5.46-1.82-.69-3.76-1.06-6.13-1.7Zm-9.22,120.72c2.35,3.51,4,6.33,6,8.88,1.92,2.45,14.49,1.35,16.04-1.27.23-.4.19-.95.29-1.43.43-2.26.68-4.58,1.34-6.77.65-2.17.26-2.73-1.99-2.18-6.74,1.65-13.64,2.28-21.67,2.77Zm30.1-56.16c5.09-2.08,10.44-1.97,15.72-2.54,3.39-.36,5.04-4.4,2.99-6.74-1.72-1.96-3.91-3.52-5.82-5.33-1.62-1.53-2.85-1.17-4.11.46-3.08,4-5.87,8.26-10.22,11.13-.53.35-.9,1.59-.69,2.18.17.47,1.35.56,2.11.83Zm-205.23,22.31c.16-.43.37-.85.46-1.29,2.65-13.3,5.85-26.43,12.58-38.39,2.24-3.97,5.02-7.81,9.8-8.45,4.81-.64,3.51-2.65,1.85-5.12-2.76-4.1-4.81-1.23-6.49.94-6.68,8.63-10.57,18.65-13.83,28.91-2.4,7.55-4.3,15.22-4.38,23.39Zm222.46-51.8c-.76-5.88,2.39-8.55,7.12-10.47-3.57-2.72-6.55-5.04-9.57-7.3-1.24-.93-2.3-1.34-2.7.88-.7,3.96-3.72,5.7-7.7,6.86,4.29,3.35,8.12,6.34,12.85,10.04Zm-254.98,46.87c5.99-2.81,10.14-10.64,9.07-16.66-.46-2.55-2.5-3.45-4.54-4.03-2.54-.72-2.4,1.7-2.86,3.08-1.89,5.7-2.14,11.55-1.67,17.6Zm52.08,192.02c2.26-.26,4.54-.43,6.79-.79,5.7-.92,11.4-1.9,17.09-2.91,1.38-.25,3.77-.58,1.74-2.55-2.34-2.26-5.34-4.48-8.9-3.27-6.03,2.05-11.72,4.93-16.72,9.52Zm43.93-9.56c-.02-.2.02-.4-.06-.52-2.29-3.19-5.37-5.5-9.08-6.48-3.18-.84-6.01,1.17-8.82,2.5-.18.08-.21,1.05.02,1.32,2.17,2.47,3.99,6.05,7.14,6.57,3.42.57,7.04-1.15,10.36-2.62.22-.1.3-.52.43-.76Zm189.99-258.47c.14,4.38,2.78,7.09,6.33,6.72,3.68-.38,6.48-2.11,6.28-6.27-.19-3.82-2.34-6.39-6.35-6.16-3.66.21-6.3,2.08-6.26,5.72Zm-82.77-33.16c3.91.1,6.74-2.18,6.73-5.71,0-3.79-1.74-6.4-5.78-6.77-3.37-.31-6.71,2.65-6.86,5.86-.16,3.53,2.52,6.53,5.9,6.62Zm-117.24,229.79c0,1.48-.27,3.03.06,4.43.61,2.59,2.03,3.3,4.14,1.15,2.95-3.01,4.78-12.02,3.22-15.89-.44-1.09-.87-2.2-2.23-2.34-1.32-.13-2.11.69-2.74,1.74-1.99,3.37-2.59,7.07-2.45,10.91Zm230.09-168.24c-.51-3.45-2.4-5.92-6.47-5.69-3.86.22-6.21,2.34-6.05,6.38.16,3.94,2.48,6.24,6.38,6.06,3.77-.18,6.07-2.39,6.13-6.75Zm-297.85,14.81c-.03-2.63-.97-4.39-2.88-5.31-1.9-.91-3.14.61-4.14,1.88-1.63,2.07-3.07,4.29-4.57,6.46-.99,1.43-1.09,2.81.56,3.8,1.73,1.04,3.42,3.85,5.41,2.31,2.98-2.3,4.89-5.72,5.62-9.13Zm218.37-84.63c-3.45.44-6.08,2.02-5.89,6.21.17,3.75,1.74,6.49,6.01,6.23,3.73-.22,6.35-1.92,6.22-6.14-.12-3.88-1.98-6.17-6.34-6.3Zm-77.88,245.31c12.78-4.89,13.32-7.06,4.46-15.82-.55-.55-1.23-.98-2.21-1.74-.77,6.01-1.48,11.57-2.25,17.56Zm-3.78-11.81c0-.82.1-1.66-.02-2.47-.23-1.59-.22-3.68-2.22-3.9-1.66-.19-2.17,1.64-2.84,2.96-1.75,3.49-2.2,7.17-1.96,11.01.1,1.51.16,3.16,1.93,3.57,1.56.36,2.28-1.1,2.94-2.18,1.66-2.75,2.21-5.81,2.18-8.99Zm124.1-193.96c3.14-.36,5.65-1.5,5.35-5.16-.26-3.14-1.87-5.49-5.39-5.19-2.84.24-5.2,1.59-5.05,4.97.14,3.14,1.46,5.43,5.08,5.39Zm-24.75-25.26c-.37-2.3-1.76-4.44-5.29-4.3-3.05.13-5.1,1.61-5.14,4.81-.04,3.27,1.72,5.38,5.09,5.44,3.25.05,5.27-1.6,5.35-5.95Zm-26.34-5.63c.1-4.6-1.47-6.6-4.91-6.64-3.3-.04-5.33,1.65-5.33,5.07,0,3.06,1.63,5.14,4.73,5.23,3.12.09,5.34-1.41,5.51-3.66Zm70.12,51.5c2.37-.16,4.48-1.57,4.48-4.79,0-3.16-1.54-5.63-5-5.55-3.02.07-5.67,1.47-5.47,5.08.17,3.13,1.72,5.34,5.99,5.26Zm-151.88,224.46c-.69-2.47-2.43-4.29-3.81-6.34-1.76-2.63-4.22-1.95-6.13-.8-2.76,1.66.13,3.07.88,4.29,1.12,1.81,2.73,3.32,4.18,4.93,1.07,1.19,2.28,1.11,3.57.29.9-.57,1.66-1.13,1.32-2.36Zm74.79-70.85c-3.08.35-7.71-.44-7.51,3.61.2,3.97,5.01,2.34,7.81,2.85,3.38.61,4.42-2.37,4.33-4.66-.12-2.99-3.07-1.21-4.63-1.8Zm6.9-32.82c-1.73.28-3.85.62-5.96.99-2.37.41-1.97,2.24-1.98,3.88,0,2.33,1.57,2.15,3.1,1.95,1.97-.27,3.92-.65,5.88-.94,2.06-.3,3.44-1.3,3.38-3.52-.07-2.84-2.27-2.25-4.43-2.34Zm-14.01,54.99c-3.23-.96-6.04-1.94-8.92-2.6-1.78-.41-3.32.48-3.98,2.21-.59,1.55.66,2.35,1.75,3.17,5.58,4.19,6.04,4.11,11.16-2.77Zm10.93-37c1.09-.22,2.21-.48,3.34-.66,2.83-.46,4.09-2.48,3.67-4.91-.45-2.59-2.94-1.18-4.53-1.28-1.1-.06-2.23.53-3.37.63-2.35.21-4.38.77-4.08,3.69.33,3.22,3,2.18,4.97,2.52Zm-13.07,25.03c-2.17-.37-3.34.86-4.24,2.6-.56,1.08-.48,1.91.78,2.26,2.5.7,5,1.57,7.55,1.93,2.38.33,3.67-1.68,4.06-3.54.55-2.57-2.01-1.89-3.34-2.29-1.56-.48-3.2-.65-4.81-.96Zm10.32-47.16c1.74-.26,4.19-.54,6.6-1,1.64-.31,2.5-1.33,2.4-3.15-.13-2.18-1.6-2.24-3.11-2.04-2.43.32-4.83.93-7.26,1.2-1.82.2-3.12.35-2.88,2.82.26,2.61,1.98,2.09,4.25,2.17Zm-65.06,103.19c-.02-2.07-5.55-8.43-6.99-8.05-1.47.39-3.41.68-3.46,2.84-.04,2.01,5.33,8.26,6.92,7.95,1.62-.31,3.06-1.2,3.53-2.75Zm9.21-7.06c-1.22-2.43-1.89-5.83-4.85-6.72-1.26-.38-5.23,1.26-4.47,3.25,1.07,2.79,2.71,6.3,6.24,7.04,1.45.31,2.82-1.46,3.08-3.57Zm-153.16-162.73c-.05.15.55,1.23,2.04,1.62,1.48.39,3.11.34,3.81-1.32.68-1.63,1.04-3.4,1.47-5.13.33-1.3,1.55-3.07-.96-3.37-1.64-.2-3.78-.85-4.56,1.6-.55,1.7-.95,3.45-1.8,6.6Zm1.44,33.85c2.65-4.38,3.46-8.23,4.34-12.03.23-.97.7-2.43-.77-2.99-1.27-.49-2.25.44-2.98,1.3-3.5,4.09-2.28,8.46-.59,13.71Zm79.8,144.97c2.49,4.32,5.42,7.21,9.1,9.36,1.03.6,2.32.47,3.22-.43,1.22-1.23,0-2.15-.71-2.89-2.95-3.08-6.15-5.78-11.61-6.04Zm102.41-47.82c-1.61.26-2.74.61-2.8,2.4-.08,2.22,3.48,6.55,5.5,6.15,1.96-.38,4.82-2.08,4.39-3.36-1.03-3.01-4.7-3.6-7.09-5.19Zm-91.59,44.65c2.19,4.32,5.4,7.06,8.99,9.44.91.6,1.84.71,2.78.15.75-.45.47-1.11.27-1.74-.94-2.93-7.61-7.58-12.04-7.85Zm117.31-82.04c-.17.01-1.67-.03-3.12.23-1.63.29-1.63,1.89-2,3.1-.29.94.15,1.6,1.18,1.66,3.14.18,6.3.38,9.28-.91,1.21-.52,1.63-1.66,1.36-2.88-.27-1.25-1.42-1.17-2.4-1.2-.99-.03-1.98,0-4.3,0Zm-213.43-77.21c-.78-1.87-.02-5.36-3.09-6.1-1.45-.34-4.29,1.24-3.72,3.63.58,2.43,1.71,5.27,4.57,5.92,1.75.4,2.51-1.2,2.24-3.45Zm75.19,98.23c-6.04,3.56-6.77,7.43-3.03,16.23,1.08-5.76,2-10.67,3.03-16.23Zm162.39-200.02c.88-1.54-.68-3.44-.94-3.22-2.5,2.17-4.82,4.57-6.94,7.12-.89,1.07.4,1.67,1.3,2.04,1.87.77,3.61.22,5.09-.92,1.63-1.26.66-3.46,1.49-5.01Zm29.59,24.46c2.22-.1,7.5-4.04,7.55-5.65.05-1.69-.55-2.08-2.4-2-3.98.17-6.08,2.04-6.66,5.82-.16,1.07,0,2.06,1.51,1.82Zm-140.72,239.84c0-1.27-5.36-8.74-6.64-9.09-1.64-.46-2.88.08-2.13,1.93,1.39,3.41,3.61,6.28,6.79,8.27,1.22.77,1.81.13,1.97-1.11Zm-57.81,140.22c-3-2.3-5.87-2.97-8.54-4.03-1.21-.48-2.48-1.38-3.66-.4-.86.72,0,1.8.13,2.73.25,1.86,1.39,2.5,3.05,2.4,2.73-.16,5.46-.41,9.01-.69Zm49.67-135.65c-4.8-9.66-6.93-11.43-11.36-9.94,2.9,3.74,5.41,7.7,11.36,9.94Zm-95.83-144.69c1.64,2.5.91,7.2,4.84,7.03,2.8-.12,4.46-3.2,6.22-6.78-4.24,2.07-7.65,2.37-11.06-.25Zm-2.08-48.56c-3.64,3.39-4.99,9.07-3.33,14.01,2.42-4.26,3.83-10.18,3.33-14.01Zm-9.06-3.39c2.17,0,5.61-4.25,5.47-6.67-.06-1.12-.74-1.46-1.59-1.34-3.65.53-4.94,3.57-6.11,6.38-.68,1.63,1.15,1.49,2.22,1.62Zm216.35-76.16c.43,1.41-1.01,4.05,1.34,3.98,2.77-.08,3.77-3.1,3.99-5.39.15-1.54.21-4.69-2.17-4.68-4.05.02-2.38,3.84-3.15,6.08Zm-54.68,240.59c-1.35-1.78-1.71-4.85-4.6-5.48-.89-.19-2.95.92-2.25,2.48,1,2.24,1.7,5.15,4.9,5.43,1.22.11,2.22-.57,1.95-2.43Zm-113.64,176.54c4.04,3,9.74,2.98,13.18.2-4.35-1.08-8.36-.36-13.18-.2Zm105.75-170.67c-.94-1.98-1.86-4.49-4.46-5.6-1.31-.57-2.47.68-2.31,1.77.39,2.66,1.8,4.99,4.28,6.18,1.23.59,2.04-.58,2.49-2.35Zm-155.98-147.16c-.21-1.56.67-3.9-2.2-3.92-1.99-.02-2.26,1.53-2.09,3.13.23,2.1.26,4.93,2.82,4.99,1.86.05,1.28-2.58,1.46-4.21Zm227.72,34.44c-.84,4.9-1.33,9.81.16,14.67.99-4.89.93-9.78-.16-14.67Zm-24.76-136.92c.51-1.7.29-3.49-.87-3.24-3.3.72-2.27,4.59-4.05,6.62-.65.74.18,1.55,1.18,1.48,3.39-.22,3.45-2.93,3.74-4.85Zm64.48,49.07c2.63-2.06,4.87-3.5,6.66-5.38.58-.61-.97-2-1.78-1.55-2.06,1.14-4.83,1.8-5.05,4.83-.06.89-.04,2.08.17,2.11Zm-.75,21.6c-2.45,3.4-4.63,6.13-8.94,3.74.75,2.19,1.53,3.79,3.31,2.62,2.11-1.39,6.43-.48,5.63-6.36Zm-37.15-35.38c-.09-1.24-.74-2.05-1.87-1.69-1.83.59-2.92,1.98-2.96,3.99-.02,1.14.47,1.96,1.73,1.62,1.99-.53,2.62-2.22,3.09-3.92Zm12.21,16.04c1.74-.26,2.56-1.41,2.69-3.03.11-1.34-.59-2.46-1.98-2.11-1.65.41-2.95,1.55-2.74,3.55.12,1.12.79,1.77,2.03,1.59Zm25.98-9.95c4.33-1.47,4.02-3.81,3.29-6.91-2.34,1.92-2.4,4.17-3.29,6.91Zm-55.96-14.11c-.04-1.09-.45-1.85-1.74-1.78-1.78.09-2.76,1.18-2.89,2.8-.1,1.26.73,2.37,2.08,2.23,1.73-.18,2.29-1.64,2.55-3.25Zm-200.35,49.99c3.77-2.1,4.57-4.42,5.12-7.84-2.52,2.22-3.64,4.33-5.12,7.84Zm242.3-15.21c1.35-.35,2.29-1.17,2.39-2.62.08-1.07-.46-1.93-1.65-1.9-1.56.03-2.29,1.1-2.39,2.52-.07,1.05.4,1.87,1.65,2.01Z" style="fill: #2a2425; stroke-width: 0px;"/>
  <path d="m481.1,152.41q-5.56-6.99,2.81-11.11c4.77-2.37,9.5-4.76,14.45-6.77,3.27-1.32,4.87-.66,6.04,2.58,1.09,3.02,2.93,5.64-1.61,7.68-5.87,2.63-11.5,5.81-17.67,8.98,2.19,2.5,4.86,2.08,7.09,2.48,15.49,2.81,16.8,4.65,13.54,19.66q-1.86,8.55-10.95,7.87c-2.39-.18-4.79-.29-7.76.03,5.94,3.12,7.9,7.67,6.07,13.68-1.53,5.03-2.34,10.77-10.01,10.21,1.02,2.69,3.38,2.57,4.95,3.48,5.46,3.14,7,5.91,6.24,12.21-.42,3.46-.99,6.91-1.42,10.38-.37,2.96-1.94,3.82-4.83,3.4-11.04-1.61-22.7-1.54-32.86-5.7-8.97-3.67-17.04-2.19-25.6-1.25-2.83.31-5.62.74-8.31-.65-.9-.47-1.75-.56-2.8-.02-6.84,3.58-13.99,5.77-21.84,4.46-.62-.1-1.55-.19-1.88.16-5.75,5.88-13.63,2.96-20.31,4.94-2.99.88-5.6-1.36-8.29-2.47-1.67,2.74,2.91,5.31-.29,7.45-2.06,1.38-4.35,2.44-6.6,3.51-7.96,3.79-15.93,7.55-23.92,11.27-2.89,1.35-5.87,2.47-9.15,1.53-2.24-.64-3.24.97-4.59,2.21-5.59,5.13-10.21,11.53-18.02,13.76-1.35.39-1.43,1.69-2.1,2.58-4.23,5.7-8.21,11.68-15.15,14.6-.58.24-1.39.69-1.49,1.17-1.67,7.48-8.71,10.15-13.46,14.78-4.6,4.48-9.91,3.78-13.39-.82-10.62-14.06-21.22-28.14-31.83-42.2-.5-.66-1.06-1.29-1.52-1.98-5.69-8.53-5.58-10.37,1.02-18.38.85-1.03,1.68-2.07,2.57-3.05,7.05-7.69,8.6-7.85,17.64-2.22,1.6,1,3,2.6,5.67,2.36-1.26-4.53-4.11-7.96-6.41-11.62-1.51-2.42-1.4-4.16.63-6.09,6.02-5.74,11.73-11.83,18.05-17.23,3.96-3.38,8.01-.56,11.15,2.1,6.6,5.59,12.95,11.47,19.26,17.38,6.56,6.14,12.93,12.47,19.43,18.66.89.85,1.62,2.73,3.1,1.92,1.91-1.05.34-2.72-.15-3.88-6.02-14.25-11.64-28.64-15.91-43.53-1.24-4.3-3.97-9.12-2.95-12.87,1.09-4.01,7.17-4.65,11.17-6.45,7.27-3.27,14.7-6.24,22.19-8.97,5.53-2.01,9.37.26,11.12,5.81.9,2.85,1.57,5.88,3.05,8.42,2.74,4.69.98,7.08-3.34,9.15-2.7,1.3-5.69,2.46-8.55,6.08,7.29-1.1,11.2,1.38,12.67,7.57,1.2,5.03,4.95,10.28-2.58,13.5,1.61,2.24,3.04,1.06,4.34.81,6.53-1.29,10.4.45,13.62,6.1.52.92.69,2.55,2.3,1.99,1.42-.49.94-1.91.94-3.02-.06-14.81-2.11-29.5-2.68-44.28-.22-5.66-.29-11.28.57-16.92.45-2.93,1.92-4.36,4.59-5.14,3.84-1.11,7.6-2.49,11.44-3.57,6.81-1.9,9.71-.5,12.75,6.01,1.24,2.65,2.39,5.34,3.58,8.01.52-.03,1.03-.06,1.55-.1.21-4.1.72-8.2.55-12.28-.18-4.38,1.51-6.21,5.87-6.67,6.61-.69,13.15-2.05,19.75-2.91,6.4-.83,8.59.37,10.51,6.36,4.97,15.54,7.6,31.66,11.22,47.53.75,3.31,1.43,6.63,2.42,11.24,2.19-4.15,2.55-7.39,3.14-10.52,3.21-17.03,7.67-33.71,13.02-50.19,1.14-3.5,2.74-4.36,6.11-3.53,3.37.83,6.81,1.6,10.34,1.37,1.21.62,2.25.98,1.73-1.1Zm-66.65,51.42c2.78,4.9,4.05,10.35,5.63,15.7.6,2.05,1.03,4.46,4.06,4.06,3.95-.53,7.89-1.18,11.83-1.78,2.9-.44,3.91-2.04,3.29-4.93-1.19-5.52-2.13-11.1-3.36-16.61-3.02-13.61-6.18-27.19-9.2-40.8-.82-3.68-2.76-4.87-6.45-4.04-4.37.98-8.81,1.82-13.26,2.26-4.94.48-6.25,3.18-6.19,7.69.1,7.31-.35,14.62-1.68,21.84-.26,1.39,0,3.56-1.65,3.86-1.78.32-2.04-1.82-2.65-3.12-2.52-5.41-5.06-10.82-7.49-16.27-4.39-9.82-4.31-9.64-14.76-6.74-4.76,1.32-7.11,3.73-6.8,8.73.21,3.31-.02,6.65.19,9.96.83,12.76,1.86,25.5,2.62,38.26.62,10.34.5,10.35,10.93,9.17,6.94-.78,6.83-.77,5.99-8.03-.81-7.09-1.36-14.21-2.11-22.26,2.39,2.01,3.03,3.63,3.74,5.34,2.53,6.13,5.3,12.16,7.88,18.26,1.1,2.6,2.78,3.29,5.54,2.79,10.08-1.83,10.08-1.76,11.3-12.15.25-2.15.59-4.28.81-6.43.18-1.74-.23-3.66,1.79-4.75Zm-133.12,53.34c5.21,1.26,7.87,4.04,10.78,6.32q9.68,7.58,18.77-.74c.49-.45.95-.93,1.44-1.38,1.72-1.63,2.04-3.07.14-5.01-14.18-14.53-28.47-28.93-43.6-42.49-2.01-1.8-3.5-1.9-5.44.07-3.15,3.2-6.49,6.22-9.78,9.27-5.82,5.4-5.77,5.36-1.41,12.21,3.92,6.16,8.01,12.25,10.81,19.05.36.88,1.15,1.91.37,2.77-1.08,1.2-2.13.06-3.06-.48-5.75-3.34-11.46-6.76-17.22-10.09-8.67-5.02-8.57-4.91-15.25,2.97-3.13,3.69-3.73,6.85-.81,11.09,8.78,12.74,18.78,24.53,28.21,36.76,7.9,10.24,7.88,10.11,17.36,1.16,2.31-2.18,2.06-3.78.3-5.87-4.5-5.34-9-10.69-13.42-16.1-.8-.98-2.59-1.8-1.29-3.83,7.35,3.7,13.92,8.51,20.67,13.03,1.22.82,2.3,2.08,3.95,1.87,4.24-.53,9.49-10.16,7.66-14.08-2.5-5.36-5.06-10.7-9.17-16.5Zm50.12-79.83c-.33.06-.66.09-.98.17-9.52,2.57-18.25,7.07-27.09,11.28-1.72.82-1.5,2.31-1.08,3.87,5.32,19.94,13.32,38.89,21.21,57.88,1.23,2.96,3.16,4.14,6.27,2.63,8.36-4.06,16.73-8.1,25.09-12.16,1.42-.69,2.4-1.46,2.03-3.44-1.5-8.13-5.71-10.68-13.51-8.03-2.2.75-4.47,1.32-6.64,2.14-2.38.9-4.48,1.38-5.8-1.57-1.18-2.63-2.6-5.18.55-7.51,1.6-1.18,2.93-2.78,4.62-3.79,4.86-2.89,2.26-6.93,1.25-10.18-1.13-3.61-4.41-1.43-6.88-1.21-1.85.16-3.65,2.03-5.59.19-4.56-4.32-4.01-9.2,1.39-12.05.88-.46,1.82-.81,2.72-1.24q9.28-4.42,5.66-14.06c-.17-.47-.29-.95-.47-1.42-.48-1.29-1.44-1.74-2.76-1.5Zm160.25-1.51c5.54.09,5.72-.04,7.23-5.41.36-1.28.54-2.63,1.06-3.83,1.26-2.91.16-4.22-2.73-4.92-7.45-1.82-14.98-3.09-22.58-4.07-7.43-.95-7.68-.84-10.04,6.12-6.11,18.01-9.52,36.64-12.89,55.29-.73,4.06.8,5.27,4.51,5.74,6.76.86,13.48,2.09,20.21,3.24,9.73,1.67,9.57,1.68,10.84-8.15.46-3.59-.66-5.2-4.06-5.98-3.89-.88-7.68-2.19-11.54-3.19-1.64-.42-2.62-1.08-2.72-2.95-.31-5.6,1.24-7.46,6.76-7.79,1.16-.07,2.33-.22,3.49-.22,4.62-.03,6.25-2.81,6.89-6.93.66-4.25-2.66-4.3-5.11-5.4-1.75-.78-4.09-.76-4.67-3.19-1.44-6.04,2.25-10.03,8.41-9.18,2.31.32,4.62.54,6.94.81Zm-5.58-27.68c4.47-2.48,9.66-5.31,14.79-8.24.77-.44.94-1.37.31-2.14-.63-.78-1.44-.51-2.25-.25-5.38,1.72-10.14,4.73-15.16,7.19-.79.39-1.37,1.04-.98,1.96.42.99,1.28,1.46,3.29,1.47Zm-168.19,101.01c-.11-.11-.25-.33-.33-.31-.24.05-.45.2-.67.31.11.11.24.33.33.31.24-.05.45-.2.67-.31Z" style="fill: #2a2425; stroke-width: 0px;"/>
  <path d="m458.58,663.59c12.19,4.59,23.98,9.89,34.61,17.63,9.97,7.26,11.66,24.62,2.67,33.34-2.6,2.52-6.39,3.77-10.07,3.12-13.09-2.28-26.09-4.72-38.76-9.13-6.97-2.43-14.52-4.12-22.1-4.47-6.12-.28-11.91-2.5-18.17-2.19,2.39-8.48,6.92-12.18,15.87-12.07,7.71.09,14.65,1.14,21.14,5.1,3.3,2.02,6.25,2.08,9.57-.28,3.56-2.54,3.81-5.11.04-7.29-2.8-1.63-6.31-2.12-8.2-5.19.26-.39.52-.78.77-1.17,0,0-.09.12-.09.12,5.66-4.81,8.31-11.79,12.73-17.5Z" style="fill: #b8282f; stroke-width: 0px;"/>
  <path d="m370.07,560.49c5.97,1.12,11.94.12,17.72-.9,18.53-3.27,36.54-8.85,54.73-13.56,18.33-4.75,36.35-10.63,51.95-22.05,1.36-1,3.29-2.99,4.75-1.68,1.61,1.45-.25,3.52-.8,5.39-2.32,7.89-9.77,9.2-15.66,11.92-11.81,5.45-23.98,10.14-36.15,14.78-12.59,4.8-25.35,9.15-38.02,13.73-12.55,4.54-24.49,10.3-35.29,18.23-1.03.75-1.84,1.79-3.17,3.11-1.18-3.05-.34-5.96-.49-8.76.14-6.74.28-13.48.42-20.22Z" style="fill: #b8282f; stroke-width: 0px;"/>
  <path d="m512.15,514.35c.33-.05.86.02.95-.15,4.72-8.77,13.81-12.75,20.84-18.97,11.89-10.53,21.15-22.87,27.06-37.65.42-1.05,1-2.03,1.93-3.88,2.39,6.54-.05,11.73-1.79,16.75-8.95,25.88-27.57,43-51.09,55.57.7-3.89,1.4-7.78,2.09-11.66Z" style="fill: #b8282f; stroke-width: 0px;"/>
  <path d="m300.83,612.56c-1.03-9.88,1.79-19.91,7.89-29.08,1.67-2.51,3.44-4.96,6.31-6.17,1.17-.49,2.68-.96,3.79.1,1.27,1.21.24,2.49-.37,3.59-1.77,3.19-3.95,6.18-5.41,9.5-5.41,12.32-5.49,25.1-2.81,38.06.27,1.3.58,2.59.7,3.91.2,2.14.65,4.37-2.61,4.84-2.91.42-4.46-.89-5.21-3.41-1.96-6.59-2.49-13.35-2.28-21.34Z" style="fill: #2a2425; stroke-width: 0px;"/>
  <path d="m626.73,350.5c-.39,2.77-1.12,5.7-3,8.08-5.78,7.38-12.59,13.6-20.98,17.95-1.01.53-2.13.88-3.24,1.19-1.3.37-2.83.6-3.49-.86-.57-1.26.69-2.12,1.55-2.83,3.59-2.94,7.32-5.71,10.82-8.75,3.25-2.82,6.49-5.7,8.56-9.59,1.78-3.34,2.22-6.52-1.04-9.35-1.19-1.03-2.93-2.17-1.45-4.08,1.35-1.75,3.35-2.08,5.42-1.53,3.44.91,6.9,5.8,6.84,9.77Z" style="fill: #2a2425; stroke-width: 0px;"/>
  <path d="m591.79,463.24c-.4,1.43-.66,2.92-1.21,4.28-5.03,12.43-12.24,23.46-21.76,32.9-2.11,2.09-5.32,5.64-7.88,3.18-2.09-2.01,2.1-4.32,3.73-6.32,8.29-10.17,16.26-20.5,19.2-33.7.75-3.38,3.6-3.69,6.16-3.76,2.01-.06,1.86,1.9,1.76,3.42Z" style="fill: #2a2425; stroke-width: 0px;"/>
  <path d="m308.7,177.39c-.32-.09-.64-.2-.97-.26-8.85-1.61-9.13-2.09-4.18-9.39,3.82-5.62,8.05-10.97,11.8-16.63,2.43-3.67,4.52-1.53,6.49.05,2.04,1.63,6.19,2.45,3.19,6.68-4.13,5.82-8.12,11.73-12.15,17.61-1.02,1.49-2.28,2.4-4.18,1.94Zm11.55-21.68c.36-1.3.02-1.89-.6-2.18-1.37-.65-2.17.36-2.93,1.21-3.76,4.22-6.79,8.98-9.8,13.74-.66,1.05-1.67,2.34.18,3.33,1.56.83,2.55-.15,3.34-1.25,2.5-3.51,4.96-7.04,7.36-10.62,1.01-1.5,1.83-3.14,2.46-4.24Z" style="fill: #2a2425; stroke-width: 0px;"/>
  <path d="m545.77,539.52c1.6-3.04,4.29-4.44,6.57-6.16,10.49-7.94,20.02-16.97,29.75-25.77,1.86-1.68,4.44-4.62,6.62-2.14,1.63,1.85-1.85,3.73-3.33,5.25-9.74,10.03-20.07,19.38-31.97,26.84-2.16,1.35-4.33,2.95-7.64,1.98Z" style="fill: #2a2425; stroke-width: 0px;"/>
  <path d="m401.49,359.23c.02-2.5,1.28-4.44,2.97-6.09,4.68-4.58,10.1-8.07,16.3-10.23,1.95-.68,4.7-1.66,5.77.69,1.05,2.29-1.72,3.31-3.32,4.22-3.61,2.03-7.3,3.91-10.6,6.44-2.58,1.98-4.07,3.99-.73,6.72,1.17.96,2.98,2.11,1.8,4.09-1.17,1.97-3.18,2.27-5.24,1.71-3.86-1.06-6.32-3.5-6.95-7.56Z" style="fill: #2a2425; stroke-width: 0px;"/>
  <path d="m370.08,623.29c4.4.92,6.16,5.82,10.55,6.91,1.64.41,1.55,2.47,1.42,3.89-.71,7.57-2.59,14.67-8.73,19.88-1.9-10.14-3.64-20.29-3.24-30.67Z" style="fill: #b8282f; stroke-width: 0px;"/>
  <path d="m497.08,320.54c6.04.15,11.26,1.57,15.87,4.76,1.23.85,3.18,1.87,2.03,3.91-.88,1.55-2.66,2.22-4.34,1.79-2.06-.52-4.06-1.41-5.95-2.39-6.28-3.23-12.54-3.49-19.03-.52-2.57,1.17-6.77,3.71-7.92.77-1.23-3.16,3.63-4.13,6.31-5.32,4.26-1.89,8.8-2.83,13.03-3.01Z" style="fill: #2a2425; stroke-width: 0px;"/>
  <path d="m327.8,681.61c-1.92,2.48-4.88,3.07-7.52,3.22-6.96.4-12.66,3.26-18.07,7.36-2.5,1.89-6.46,5.8-8.37,3.15-2.11-2.93,3.09-4.88,5.51-6.6,7.49-5.32,16.23-7.19,25.21-8.17,1.24-.14,2.24.21,3.25,1.05Z" style="fill: #2a2425; stroke-width: 0px;"/>
  <path d="m518.79,326.07c2.26-3.24,5.73-3.75,8.75-4.22,8.04-1.25,15.82.18,23.17,3.71,1,.48,2.46.87,2.29,2.24-.2,1.61-1.73,1.73-3.08,1.86-2.37.23-4.73-.06-6.81-1.11-7.31-3.69-14.89-3.89-22.68-2.1-.38.09-.85-.18-1.64-.37Z" style="fill: #2a2425; stroke-width: 0px;"/>
  <path d="m535.56,328.64c3.71,3.98,2.24,7.21.56,10.23-1.84,3.31-4.46,5.82-8.65,5.65-3.57-.15-3.52-2.78-3.57-5.36-.04-2.1.61-3.87,2.48-5.68.37,2.37,1.66,3.56,3.87,3.02,3.61-.88,4.56-3.9,5.3-7.85Z" style="fill: #2a2425; stroke-width: 0px;"/>
  <path d="m626.15,375.96c-5.18,5.97-11.14,9.7-17.75,12.45-1.13.47-2.88,1.17-3.63-.22-.96-1.78,1.19-1.95,2.11-2.63,3.45-2.56,6.93-5.07,10.48-7.48,2.39-1.63,4.77-3.59,8.8-2.13Z" style="fill: #2a2425; stroke-width: 0px;"/>
  <path d="m591.01,490.09c-1.19-.34-3.04-.23-2.99-1.85.07-2.41,2.29-3.05,4.21-3.54,1.42-.36,2.88.13,2.92,1.82.07,2.66-2.3,2.85-4.14,3.57Z" style="fill: #2a2425; stroke-width: 0px;"/>
  <path d="m627.94,455.56c-.64,2.21-2.38,3.28-4.42,3.27-1.29,0-3.19-.58-2.91-2.63.31-2.24,2.12-2.71,4.03-2.8,1.58-.08,3.02.15,3.3,2.16Z" style="fill: #2a2425; stroke-width: 0px;"/>
  <path d="m370.31,686.05c3.88-.63,6.82.46,9.85,2.7,4.81,3.56,10.76,3.99,16.55,4.36,3.36.21,3.66,1.53,1.93,4.06-2.23,3.25-4.76,4.84-9.2,5.14-10.37.7-20.74,1.89-31,3.89-13.29,2.58-26.35,6.05-39.22,10.14-9.25,2.94-18.14,7.04-27.17,10.65-1.34.54-2.79,1.78-3.84-.07-.74-1.31.28-2.28,1.3-3.34,8.68-9.05,18.12-16.81,29.76-22.11,12.67-5.77,25.72-10.08,39.2-13.25,3.98-.94,7.77-3.06,11.84-2.16Z" style="fill: #b8282f; stroke-width: 0px;"/>
  <path d="m387.53,655.13c2.15-5.69,4.3-11.38,6.45-17.07,6.02.73,10.62,4.77,16.04,6.95,11.83,4.76,23.43,10.09,35.27,14.82,2.83,1.13,3.01,1.96,1.44,4.12-3.08,4.23-6.12,8.48-9.1,12.78-1.02,1.47-2.06,1.3-3.39.57-13.68-7.55-28.4-12.62-42.94-18.15-1.9-.72-3.72-1.56-3.78-4.03Z" style="fill: #b8282f; stroke-width: 0px;"/>
  <path d="m355.93,564.96c0,9.08-.91,18.27.22,27.2,1.57,12.38-2.44,21.9-11.27,30.09-1.75,1.63-2.67,4.12-4.2,6.03-1.73,2.16-3.21,3.1-5.02-.41-5.93-11.54-5.48-22.98-.45-34.61,4.67-10.81,11.58-20.06,19.37-28.72.45.14.9.28,1.35.43Z" style="fill: #b8282f; stroke-width: 0px;"/>
  <path d="m558.72,344.58c-.76-.27-1.94-.37-2.11-.83-.22-.58.16-1.83.69-2.18,4.35-2.87,7.14-7.13,10.22-11.13,1.26-1.63,2.49-1.99,4.11-.46,1.91,1.81,4.09,3.36,5.82,5.33,2.05,2.34.39,6.38-2.99,6.74-5.28.57-10.63.46-15.72,2.54Z" style="fill: #b8282f; stroke-width: 0px;"/>
  <path d="m355.34,623.19c2.59,2.23,1.12,5.28,1.53,7.93.38,2.44-.31,4.95.5,7.42.6,1.83.42,3.89-1.24,4.99-1.76,1.17-3.35.11-4.8-1.28-1.05-1.01-2.46-1.65-3.72-2.45,1.81-5.89,4.96-11.15,7.71-16.6Z" style="fill: #b8282f; stroke-width: 0px;"/>
  <path d="m389.32,682.53c4.82-.16,8.82-.89,13.18.2-3.44,2.79-9.13,2.81-13.18-.2Z" style="fill: #b8282f; stroke-width: 0px;"/>
  <path d="m566.82,399.14c1.09,4.89,1.15,9.78.16,14.67-1.5-4.86-1-9.77-.16-14.67Z" style="fill: #b8282f; stroke-width: 0px;"/>
  <path d="m484.08,356.61c3.62.48,8.6.01,12.66,3.26,4.28,3.42,4.35,6.95-.16,10-6.07,4.1-12.56,7.28-20.12,7.65-3,.15-5.26-.69-6.3-3.63-.95-2.69-.6-5.23,1.42-7.4,4.54-4.86,14.13-4.67,18.11.53.78,1.03,1.07,2.11,2.48,1.22,1.21-.76,1.91-1.77,1.15-3.34-1.52-3.11-4.42-3.85-7.41-4.26-2.46-.33-4.98-.26-7.46-.53-1.07-.12-2.64-.2-2.57-1.72.06-1.32,1.42-1.68,2.59-1.75,1.49-.09,2.99-.02,5.6-.02Z" style="fill: #2a2425; stroke-width: 0px;"/>
  <path d="m456.53,353.6c2.25-.37,4.31.25,6.39.85,1.43.42,3.37.61,3.22,2.43-.12,1.46-1.79,2.37-3.28,2.65-1.27.23-2.73.31-3.92-.09-3.02-1.03-5.76-.83-8.63.58-1.57.78-4.04,1.42-4.93-.41-1.16-2.39,1.43-3.34,3.06-4.29,2.49-1.43,5.21-2.15,8.08-1.71Z" style="fill: #2a2425; stroke-width: 0px;"/>
</svg>