<?xml version="1.0" encoding="UTF-8"?>
<svg id="a" data-name="Layer 1" xmlns="http://www.w3.org/2000/svg" viewBox="0 0 882.44 883.5">
  <path d="m441.23,883.5C193.6,881.72,17.33,688.57,1.5,479.74c-9.82-129.52,28.51-243.2,116.51-338.6C195.1,57.58,291.63,10.42,405.09,1.54c126.67-9.91,238.78,27.93,332.74,113.4,93.84,85.36,142.88,193.32,144.57,320.11,3.34,250.47-197.03,447.48-441.17,448.45Zm.53-12.84c237.13-.38,430.69-195.04,427.57-435.12-3-229.82-190.06-422.67-429.31-422.11C203.19,13.99,12.44,206.93,12.93,442.84c.49,235.14,193.09,427.75,428.84,427.82Z" style="stroke-width: 0px;"/>
  <path d="m440.89,845c-223.95-.81-404.13-181.41-403.73-403.72.4-221.93,181.67-402.69,405.28-402.25,223.64.44,408.55,183.22,403.43,412.55-4.84,217.12-183.07,393.65-404.98,393.42Zm-221.79-428.21c.41,2.9.82,5.8,1.13,8,10.99,1.13,21.19,2.55,31.44,3.04,3.69.18,7.56-1.68,11.18-3.06.63-.24,1-3.11.39-4.08-.5-.79-2.81-1.07-4-.66-2.32.79-4.3,2.55-6.62,3.32-8.22,2.76-13.4-1.74-11.84-10.11-7.73-1.67-14.7,1.25-21.76,3.62,2.67-2.02,5.13-5.33,8.05-5.81,6.48-1.05,13.29-1.51,19.77-.67,7.11.92,14.01,3.57,21.32,5.55,0-.94-.14-2.07.02-3.16,1.11-7.33.93-15.22,3.71-21.87,7.4-17.74,28.06-20.15,40.8-8.23,7.37,6.9,10.62,15.64,11,25.45.15,3.97.96,6.64,4.68,8.91,3.6,2.2,6.6,5.57,9.37,8.84,1.36,1.61,1.61,4.16,2.36,6.29-.44.17-.89.33-1.33.5-1.12-2.2-2.24-4.4-3.47-6.8-4.97,5.66-6.23,21.39-2.29,27.34,1.63-1.41,3.22-2.78,4.81-4.16-.46-.12-.92-.24-1.37-.37.41-4.24.83-8.47,1.24-12.71.65.06,1.31.12,1.96.18-.31,2.74-.63,5.48-.94,8.22.36.21.73.42,1.09.64,3.11-2.88,6.58-5.46,9.27-8.69,11.09-13.3,21.95-26.79,32.91-40.2.97-1.19,2.1-2.25,3.16-3.37.41.35.82.7,1.23,1.05-12.28,15.33-24.57,30.66-36.45,45.5,1.78,4.95,3.37,9.35,5.35,14.86,9.03-14.69,17.5-28.46,25.96-42.23.59.35,1.18.71,1.77,1.06-9.03,14.87-18.06,29.74-27.1,44.61,4.3-1.13,7.65-3.46,11.36-4.65,5.62-1.81,7.82-6.28,10.1-10.91,5.93-12.11,11.81-24.24,17.82-36.3,1.31-2.62,3.07-5.01,4.62-7.51.4.24.8.47,1.21.71-7.9,17.26-18.04,33.52-24.11,51.97,6.67-1.43,12.74-3.6,18.89-5.48,4.56-1.39,9.2-2.59,13.88-3.48.98-.19,2.63,1.12,3.29,2.16.29.46-.94,2.28-1.86,2.99-1.66,1.27-3.61,2.17-5.52,3.27,3.66,3.77,6.59,4.77,11.72,1.95,6.54-3.59,14.14-5.34,21.42-7.43,3.99-1.14,7.18,1.64,8.35,4.86,1.1,3.01.54,6.73.17,10.08-.09.79-2.52,2.11-3.57,1.87-7.25-1.66-14.43-3.66-21.62-5.6-.1-.03-.05-.58-.11-1.45,2.18.25,4.31.25,6.32.76,4.51,1.14,8.91,2.79,13.47,3.67,1.23.24,3.83-1.27,4.12-2.41,1.58-6.13-2.78-10.62-9.02-9.52-2.44.43-4.97.97-7.16,2.06-5.24,2.59-10.3,5.53-15.18,8.19.31,3.34.79,6.13.77,8.92-.03,3.83.15,7.13,2.91,10.54,1.37,1.7.66,6.53-.84,8.81-3.15,4.8-6.56,1.07-9.83-1.32-10.07,8.83-22.49,11.72-35,13.48.4,4.8,1.75,9.26.91,13.26-2.22,10.58-14.86,19.56-25.79,19.02-5.38-.27-10.74-.92-16.08-1.4-1.62,8.05-4.89,11.93-9.14,10.96-4.98-1.14-6.41-6.58-3.95-15.89-13.35-5.01-26.18-11.85-42.51-11.75,1.77,4.62,2.76,8.47,4.64,11.83,5.2,9.28,14.2,13.4,23.9,15.76,22.41,5.46,44.75,3.91,66.59-2.79,19.73-6.05,39.12-13.17,58.7-19.71,21.62-7.22,43.67-10.51,66.43-6.72,5.34.89,10.73,1.49,16.89,2.34,0-3.06.05-5.51,0-7.95-.37-16.62-.79-33.24-1.15-49.87-.37-17.26-.65-34.53-1.01-51.79-.27-13.13-.58-26.26-.89-39.39-.33-14.12-.75-28.23-1-42.35-.06-3.22-1.46-4.46-4.54-4.45-5.16.02-10.34-.35-15.49-.04-2.06.12-4.63,1.08-5.94,2.56-8.24,9.27-18.47,13.52-30.69,12.35-4.09-.39-5.98,1.19-7.91,4.29-10.6,16.93-21.21,33.86-32.12,50.59-6.24,9.56-6.39,9.25-15.75,2.25-3.27-2.45-3.57-4.36-1.4-7.77,11.71-18.4,23.17-36.96,34.84-55.39,1.6-2.53,1.09-4.05-.34-6.53-3.02-5.24-6.5-10.72-7.5-16.5-2.04-11.84,1.81-23.06,7.43-33.38,1.88-3.45,5.42-6.34,8.84-8.49,3.25-2.04,9.23-1.8,10.53-4.34,1.53-2.98-1.08-7.88-1.22-11.97-.73-21.98-1.37-43.96-1.75-65.95-.07-4.26-1.49-5.48-5.55-5.34-20.67.73-41.15,2.59-61.36,7.41-54.64,13.04-100.74,40.54-138.26,82.06-35.4,39.17-57.05,85.22-65.48,137.38-1.18,7.28-1.68,14.68-2.5,22.02.39.3.78.61,1.17.91,6.36-7.22,15.18-4.65,22.88-6.33,6.64-1.44,12.99.44,15.61,8.18.47,1.37,1.59,2.52,2.41,3.76,1.51-4.35,2.82-8.1,4.12-11.86Zm424.5,200.96c1.62-1.77,2.87-3.03,4-4.39,15.42-18.51,28.34-38.65,38.29-60.59,20.49-45.17,27.99-92.52,22.42-141.78-3.6-31.87-12.75-62.15-27.43-90.76-21.93-42.74-53.03-77.16-93.15-103.44-28.03-18.36-58.61-30.62-91.33-37.66-6.49-1.4-6.5-1.48-7.65,5.08-2.83,16.22-5.41,32.5-8.71,48.63-1.77,8.65-2.04,17.95-8.26,25.29-.37.43,1.18,2.91,2.25,4.07,3.21,3.48,7.21,6.4,9.79,10.27,2.34,3.5,2.98,8.09,4.88,11.95.67,1.36,2.77,2.69,4.31,2.81,3.62.28,7.31-.35,10.96-.3,3.89.05,4.91-1.63,5.17-5.44.27-3.98,1.26-8.25,3.18-11.7,4.01-7.21,11.19-10.3,18.96-11.57,5.18-.85,10.51-1.07,15.78-1.05,13.39.03,25.61,3.47,31.56,16.66,3.63,8.05,6.43,17,7.11,25.73,1.56,20.21,1.67,40.53,2.21,60.81.23,8.64-.08,17.29.05,25.94.34,23.6.8,47.2,1.18,70.8.16,10.13.14,20.27.35,30.4.35,17.28.91,34.56,1.16,51.84.09,6.34,1.09,11.44,6.76,15.89,17.84,13.99,31.07,31.84,40.87,52.26,1.56,3.26,3.31,6.43,5.29,10.26Zm-452.85-76.72c5.2,10.32,10.2,21.19,16.02,31.6,25.52,45.67,61.76,80.54,107.66,105.41,1.74.94,4.62.72,6.62.02,4.15-1.44,7.47-.47,7.92,3.78.38,3.61,2.43,4.67,5.12,5.81,24.68,10.44,50.2,18.26,76.93,20.18,19.52,1.4,39.2.48,58.81.45,2.99,0,5.99-.38,6.01-4.83.04-8.1,3.54-15.24,9.25-20.39,6.04-5.44,6.41-10.4,4.09-17.81-6.3-20.13-1.42-47.45,20.86-59.18.97-.51,1.85-3.15,1.36-3.99-.75-1.31-2.62-2.39-4.18-2.7-1.29-.25-2.83.76-4.26,1.19-10.19,3.12-12.33,2.35-17.99-6.74-1.56-2.5-3.15-3.75-6.48-2.96-6.64,1.57-12.95.48-18.06-4.48-1.15-1.11-1.88-2.65-2.76-3.93-9.48,8.31-13.53,8.35-26.28.95-6.26,7.58-13.98,5.71-21.93,3.4-2.64-.77-5.55-.59-8.33-.91-3.71-.42-7.68-.22-11.06-1.53-4.55-1.76-5.33-1.81-6.22,3.04-1.67,9.2-6.29,12.65-15.3,11.43-5.98-.81-7.94-3.83-6.27-9.57.3-1.04.35-2.15.55-3.39-1.13-.29-1.9-.64-2.69-.67-26.03-.97-50.92-8.03-75.81-14.74-19.39-5.23-36.11-15.25-48.76-31.28-.79-1-1.26-2.25-1.19-2.12-3.78,2.99-6.63,7.14-9.37,7.06-11.13-.3-22.23-1.89-34.27-3.1Zm397.34,5.37c0-7.76.1-15.03-.02-22.3-.35-20.27-.87-40.53-1.18-60.8-.32-21.6-.4-43.21-.73-64.81-.39-26.1-.88-52.2-1.42-78.29-.29-14.16-.84-28.31-6.2-41.71-3.31-8.27-8.57-14.55-17.65-16.92-11.71-3.07-23.41-3.07-34.97.41-9.34,2.81-14.27,9.78-15.03,19.61-.3,3.87.88,5.5,4.89,5.4,7.16-.19,14.32,0,21.48-.08,7.98-.1,14.4,6.67,14.48,15.23.08,9.11-7.51,15.32-14.05,14.84-7.29-.54-14.65.06-21.98-.03-2.98-.03-4.2,1.02-4.09,4.06.2,5.47.11,10.95.24,16.42.69,28.58,1.46,57.15,2.1,85.73.63,28.43,1.16,56.85,1.66,85.28.07,4.03,1.68,5.84,5.74,7.22,12.42,4.21,24.85,8.59,36.77,14.03,10.07,4.6,19.43,10.75,29.96,16.71Zm53.79,108.93c3.62-6.78,3.39-13.15,2.58-19.53-1.91-15.09-8.74-28.04-17.11-40.51-9.23-13.74-18.8-27.16-31.5-37.88-23.06-19.46-50.01-31.42-78.84-39.41-25-6.92-50.28-8.86-75.37-.98-19.36,6.08-38.46,13-57.54,19.93-26.63,9.68-53.69,13-81.42,5.88-14.6-3.74-26.66-10.83-29.76-27.31-.99-5.27-4.81-6.49-9.19-6.46-8.82.05-17.64.41-26.46.68-4.93.15-5.48,1.22-4.42,6.29.7,3.36,1.6,7.03.93,10.25-.75,3.62-.07,6.42,2.27,8.64,6.85,6.49,13.25,13.77,21.05,18.87,21.79,14.25,46.94,19.11,72.09,23.47,1.23.21,3.18-.86,4.05-1.94,3.93-4.84,9.07-6.67,15.02-6.4,5.98.26,11.97.74,17.92,1.35,3.97.41,6.28-.72,6.75-5.05.41-3.74,1.33-7.43,2.02-11.14.46,0,.92.02,1.38.03,1.26,3.2,2.33,6.49,3.88,9.55.55,1.08,2.45,2.43,3.39,2.21,11.16-2.64,22.48-4.92,33.33-8.56,14.04-4.71,28.34-6.19,42.87-5.15,35.81,2.56,67.71,14.87,94.7,39.07,2.21,1.98,5.32,3.71,8.19,4.05,14.03,1.68,27.75,4.7,40.03,11.68,18.93,10.77,36.55,23.06,39.18,48.37Zm-146.67,17.19c5.33-2.79,10.26-5.51,15.32-7.96,4.32-2.1,7.72-4.82,9.8-9.4,3.7-8.12,10.11-13.63,19.09-14.08,8.87-.45,17.81.92,26.73,1.02,13.92.16,21.49,9.49,29.2,19.08,4.23,5.26,8.67,10.59,13.95,14.7,7.18,5.59,14.56,3.77,19.84-3.56,1.35-1.88,2.69-3.85,4.39-5.39,3.75-3.39,5.3-7.6,5.24-12.47-.13-9.77-5.52-17.26-11.2-24.43-8.68-10.96-21.3-16.28-33.46-22.03-25.79-12.19-51.92-12.15-77.63-.12-28,13.1-32.06,40.85-21.26,64.64Zm-232.73-241.09c.59,1.12.85,1.95,1.37,2.56,3.23,3.76,2.87,6.7-1.07,10.03-6.96,5.87-14.84,9.49-23.66,11.1-4.84.88-9.79,1.09-14.94,1.63.07,1.12.02,1.94.18,2.72,2.65,13.36,5.3,26.71,7.99,40.06,1.43,7.08,1.88,7.43,9.24,7.06,2.49-.13,4.98-.36,7.46-.63,17.01-1.88,33.55-.05,49.5,6.31,12.05,4.8,23.95,10.07,36.2,14.3,11.68,4.02,22.15.88,30.17-8.56,4.02-4.73,6.97-10.25,3.37-17.18-5.34.69-9.89,2.53-12.02,7.66-1.5,3.63-3.91,4.92-7.58,5.23-13.42,1.13-26.61-.17-39.61-3.47-20.98-5.33-40.14-15.05-59.34-24.68-3.52-1.76-6.42-2.82-10.02.08-1.59,1.28-4.44,1-6.71,1.43-.37-.67-.73-1.34-1.1-2.01,9.51-1.77,12.15-8.5,12.51-16.88.58.05,1.15.11,1.73.16.83,2.75,1.66,5.5,2.42,8,7.19-.54,14.73-1.33,22.3-1.58,4.11-.14,9.28,2.3,12.09.55,2.98-1.85,3.59-7.36,5.51-11.14.93-1.83,2.5-3.34,3.78-4.99,1.43,1.31,2.87,2.61,5.05,4.61,2.66-4.11,5.87-7.97,7.83-12.39,2.39-5.39,4.59-10.46,8.61-15.18,11.86-13.93,8-43.07-6.44-54.55-8.63-6.86-21.19-5.96-27.57,2.66-2.97,4.02-5.48,8.97-6.36,13.83-1.39,7.73-1.23,15.73-1.69,22.97-3.04,3.4-5.98,6.69-9.19,10.28Zm215.66,276.87c7.24-1.63,12.84-3.07,18.52-4.12,13.24-2.45,26.46-5.16,39.79-6.93,14.74-1.96,29.07.23,43.1,5.52,7.34,2.76,14.54.37,19.17-5.98,4.54-6.23,5.61-13.42,1.64-20.67-6.28-11.47-16.55-17.03-28.97-18.91-24.97-3.78-47.86,2.46-69.15,15.32-9.26,5.59-17.27,12.65-21.52,22.88-1.5,3.62-1.61,7.81-2.57,12.89Zm256.28-423.03c.3.37.6.75.9,1.12-6.29,9.35-12.58,18.71-19.61,29.16,12.65,1.85,23.85,3.48,36.04,5.26-1.55,1.67-1.82,2.17-2.23,2.36-6.19,2.86-12.36,5.77-18.61,8.48-12.31,5.34-12.15,5.22-7.03,17.47,1.88,4.5,3.96,5.17,8.27,3.2,16.33-7.48,32.8-14.69,49.22-21.96,11.25-4.99,11.15-4.92,6.26-16.22-1.62-3.75-3.83-5.73-8.01-6.35-9.21-1.36-18.34-3.28-27.51-4.88-3.73-.65-5.01-2.05-2.68-5.65,3.89-6,7-12.61,11.47-18.11,5.94-7.32,6.4-14.08,1.67-22.12-2.17-3.69-3.77-4.65-7.69-2.87-16.2,7.36-32.51,14.51-48.79,21.69-12.71,5.61-12.58,5.51-6.68,18.09,1.9,4.04,4.05,4.47,7.79,2.7,7.21-3.42,14.55-6.57,21.88-9.74,1.7-.73,3.56-1.1,5.34-1.63Zm-427.09,165.55c-.88,7.22-1.55,13.13-2.34,19.03-.67,4.99-4.06,7.49-7.17,4.97-2.22-1.79-3.51-4.87-4.82-7.57-.6-1.25-.25-2.96-.37-5.15-4.55,6.31-7.18,17.39-6.88,26.37.14,4.08,1.67,7.07,5.45,8.72,6.25,2.72,12.36,5.93,18.84,7.98,19.28,6.11,37.71,5.7,53.72-8.8,9.37-8.49,19.11-16.15,32.83-15.5,1.27.06,2.58-.95,4.83-1.84-11.02-7.65-23-2.21-33.84-5.49.21-.82.15-1.89.65-2.32,12.64-10.81,27.09-18.76,41.85-26.52-1.96-.34-3.93-.5-5.53.19-9.44,4.08-18.94,8.07-28.1,12.72-2.78,1.41-4.64,4.75-6.76,7.34-1.01,1.23-1.64,2.77-2.44,4.17-.3-.17-.6-.35-.91-.52.2-1.68.4-3.37.61-5.13-4.25.14-7.1,5.07-12.11,2.47,1.7-2.12,3.11-3.88,4.92-6.13-5.21,1.38-5.66,1.13-6.84-3.35-.76-2.89-1.35-5.83-2.23-8.69-.53-1.74-1.46-3.36-2.48-5.63-5.04,4.75-9.19,9.03-13.72,12.86-9.13,7.74-11.35,7.49-19.14-1.33-1.24.66-2.51,1.33-3.86,2.04-1.2-1.4-2.24-2.63-4.18-4.9Zm150.19,118.77c.7.16,1.4.32,2.1.48.21,1.73.76,3.5.59,5.19-1.04,10.38,5.97,13.25,14.19,12.35,3.6-.39,6.91-3.45,10.48-5.37.94,3.14,1.69,6.94,3.26,10.37.93,2.04,3.11,4.92,4.75,4.94,4.56.04,9.43-.51,13.55-2.29,1.71-.74,1.77-5.22,2.65-7.97.5-1.57.95-3.22,1.78-4.61.43-.73,1.64-1.01,3.45-2.02-.46,2.54-1.03,3.97-.92,5.35.36,4.55.71,9.15,1.69,13.59.22.99,3.14,2.24,4.55,1.98,7.81-1.45,15.54-3.36,23.31-5.03,2.48-.53,5.02-.82,7.53-1.22.17-.47.35-.93.52-1.4-3.27-3.02-6.39-6.21-9.82-9.04-12.27-10.1-26.43-16.61-41.46-21.39-26.52-8.43-53.09-10.93-79.8-.78-8.93,3.39-18.11,5.25-27.74,5.52-10.49.29-11.18,1.64-8.22,11.56.08.27.45.45.69.68,2.78.14,5.22,1.52,7.78,1.78,3.14.33,6.44.05,9.54-.61,1.55-.33,2.79-2.09,4.35-3.34,2.89,6.58,8.27,7.58,14.22,7.22,6.47-.39,7.29-1.28,8.16-7.58.27-1.94,1.04-3.82,1.57-5.72.59-.06,1.18-.12,1.77-.18,1.2,2.42,2.46,4.81,3.6,7.26,2.73,5.89,4.36,6.67,12.39,6.21,4.89-.28,5.51-4,6.57-7.54.85-2.83,1.94-5.59,2.92-8.38Zm248.19,125.97l-.77,1.41c-1.58-.2-3.17-.3-4.72-.62-9.47-1.91-18.91-3.94-28.39-5.79-17.02-3.32-11.32-5.11-24.77,6.91-2.62,2.34-2.64,4.07-.3,6.57,14.47,15.4,28.87,30.88,43.26,46.36,1.95,2.09,3.75,2.49,5.92.32,2.47-2.47,4.98-4.92,7.65-7.17,2.63-2.23,2.66-4.14.26-6.63-6.46-6.71-12.78-13.56-19.1-20.41-1.37-1.48-2.48-3.19-4.59-5.93,3.1.24,4.72.2,6.26.51,9.63,1.94,19.27,3.83,28.85,6,13.6,3.08,13.46,3.05,23.56-6.32,3.31-3.07,3.01-5.04.09-8.1-12.06-12.65-23.81-25.61-35.87-38.26-11.71-12.29-7.03-11.95-20.27-.2-2.45,2.17-2.43,3.92-.23,6.22,5.17,5.41,10.21,10.96,15.28,16.46,2.65,2.87,5.25,5.78,7.88,8.67Zm-255.73-494.61c.31.01.63.02.94.03,0,1-.04,2,0,3,.61,14.64,1.07,29.29,1.93,43.91.29,4.88,4.78,8.85,9.05,9.1,3.45.2,8.18-3.51,9.43-7.61.97-3.18,1.91-6.39,2.52-9.66,3.93-21.1,7.93-42.2,11.57-63.36,1.37-8.01,2.34-16.16,2.57-24.27.22-7.72-4.4-13.16-11.06-16.52-6.29-3.17-12.14-1.66-17.71,2.44-4.68,3.45-7.12,8.05-7.39,13.57-.8,16.45-1.27,32.91-1.88,49.37Zm237.11,72.89c.74-3.04,1.16-4.41,1.4-5.81,1.05-6.06,2.22-12.1,3.01-18.2.49-3.8,2.04-4.9,5.93-4.55,10.41.92,21.42-5.49,25.77-14.69,4.87-10.31,3.18-19.84-4.24-28.24-6.49-7.35-13.41-14.33-19.99-21.61-2.53-2.81-4.5-2.58-6.99-.01-3.12,3.22-6.5,6.18-9.78,9.25-11.78,11.01-23.59,21.99-35.34,33.03-1.6,1.51-4.2,3.1-1.79,5.72,3.46,3.76,7.19,7.27,10.81,10.89,3.32-2.65,6.63-5.29,9.94-7.95.26-.21.44-.55.73-.68,2.08-.93,4.17-1.82,6.26-2.73,1.02,2.59,2.92,5.2,2.88,7.77-.07,4.09-1.36,8.17-2.26,12.23-1.1,4.94-2.28,9.62,2.45,13.74,3.77,3.28,6.93,7.25,11.22,11.83Zm-470.98-22.15c-3.4,0-5.17-.1-6.93.02-5.98.39-11.95.82-17.92,1.32-3.18.27-4.8-.75-5.38-4.21-1.94-11.57-9.94-20.01-20.76-22.2-11.73-2.38-20.44,2.41-26.91,11.89-5.15,7.55-9.97,15.34-15.15,22.87-2.17,3.15-1.99,5.06,1.36,7.24,17.42,11.33,34.73,22.82,52.05,34.32,2.7,1.79,4.76,1.95,6.59-1.14,1.77-3,3.67-5.96,5.73-8.77,1.82-2.48,1.28-4.24-1.1-5.8-2.92-1.92-6.02-3.63-8.66-5.89-1.66-1.42-2.6-3.67-3.86-5.55,2.21-1.43,4.28-3.77,6.64-4.12,5.73-.85,11.62-.63,17.42-1.15,1.85-.17,4.29-.76,5.29-2.06,3.81-4.93,7.15-10.23,11.59-16.76Zm139.7,493.44c-20.02-.09-37.49,17.41-37.54,37.64-.05,20,17.22,37.67,36.91,37.77,21.31.11,38.48-16.84,38.62-38.13.13-19.84-17.54-37.18-37.99-37.28Zm-38.12-649.21c.52,1.57.79,2.36,1.04,3.15,6.47,19.92,13.01,39.82,19.36,59.78,1.08,3.4,2.58,3.95,5.86,2.84,11.97-4.05,24.11-7.58,36.04-11.74,13.11-4.57,12.73-1.31,8.02-16.09-1.27-4-3.22-4.73-7.04-3.41-8.17,2.83-16.47,5.28-24.69,7.95-2.96.96-4.66.17-5.63-2.94-.91-2.93.04-4.37,2.76-5.23,4.6-1.46,9.15-3.07,13.75-4.55,15.71-5.08,12.48-2.28,8.53-16.93-.88-3.27-2.45-4.22-5.83-3.04-7.06,2.47-14.27,4.5-21.38,6.84-3.01.99-4.89.82-6.04-2.77-1.21-3.79.88-4.81,3.6-5.68,7.12-2.28,14.25-4.53,21.39-6.77q8.05-2.53,5.19-10.73c-.61-1.73-1.26-3.45-1.68-5.23-.68-2.91-2.31-3.86-5.12-2.94-15.01,4.93-30.04,9.8-45.02,14.83-1.27.43-2.21,1.87-3.11,2.66Zm-172.72,218.43c-1.03-.88-2.02-2.17-3.33-2.78-2.7-1.27-5.65-2.02-8.34-3.3-3.37-1.61-5.17-.7-6.42,2.77-2.48,6.88-5.35,13.62-7.85,20.5-1.13,3.13-2.83,4.3-6.04,3.11-3.04-1.12-3.51-3-2.33-5.89,2.27-5.54,4.38-11.14,6.44-16.77,5.36-14.64,6.93-11.41-8.35-17.45-2.87-1.13-4.34-.18-5.36,2.49-5.54,14.44-11.11,28.87-16.72,43.28-1.12,2.89-.51,4.61,2.55,5.78,19.57,7.48,39.12,15.04,58.63,22.7,3.41,1.34,5.08.61,6.37-2.86,4.34-11.69,9.09-23.22,13.41-34.92,5.06-13.68,6.42-11.04-7.63-16.79-3.77-1.54-5.41-.48-6.7,3.06-3.03,8.28-6.36,16.44-9.45,24.7-1.18,3.15-3.14,3.37-5.91,2.3-2.78-1.07-3.41-2.78-2.31-5.48,2.31-5.71,4.51-11.46,6.72-17.2.83-2.17,1.58-4.37,2.61-7.25Zm378.21-230.11c-1,1.24-2.64,2.5-3.23,4.13-6.99,19.06-13.7,38.23-20.81,57.25-1.68,4.49-.88,6.61,3.68,8.11,14.61,4.82,11.4,6.13,16.62-7.64,5.1-13.46,2.24-13.48,16.99-7.91,13.56,5.12,12.2,2.77,7.41,16.48-4.33,12.38-4.37,12.19,8.05,16.8,4.27,1.59,6.26.79,7.78-3.59,5.73-16.51,12-32.83,17.63-49.37,5.45-16.03,7.12-11.73-8.82-17.98-3.55-1.39-5.2-.11-6.31,3.19-1.9,5.68-4.07,11.27-6.01,16.94-1.09,3.17-2.99,4.16-6.14,2.98-4.83-1.81-9.63-3.74-14.56-5.24-3.96-1.21-4.97-3.27-3.5-7.08,2.17-5.58,4.29-11.2,6.02-16.92.45-1.48-.08-4.48-1.05-4.96-4-1.97-8.35-3.24-13.74-5.19Zm-37.91,206.24c-5.71-6.78-11-13.37-16.64-19.66-3.41-3.8-7.59-6.06-13.17-5.9-23.28.65-37.92,23.78-28.76,45.77,6.39,15.35,24.52,22.76,41.03,16.91,15.9-5.63,24.82-25.33,19.27-39.15-.63.74-1.19,1.39-1.73,2.03Zm83.02,487.07h-.1c0,11.48.06,22.97-.03,34.45-.03,3.99,1.37,5.22,5.11,3.49,3.17-1.46,6.33-2.98,9.61-4.14,4.1-1.46,6.44-3.9,6-8.49-.38-3.94,1.69-6.02,5.27-7.35,4.82-1.8,9.38-4.33,14.26-5.94,2.22-.73,6.01-1.03,7.22.25,4.62,4.87,9.15,4.31,14.3,1.48,2.03-1.12,4.24-1.91,6.37-2.86,5.08-2.27,5.24-2.97,1.28-6.76-14.54-13.91-29.05-27.85-43.69-41.65-10.51-9.91-7.11-8.55-19.99-3.59-4.27,1.64-5.77,4.24-5.69,8.67.2,10.81.07,21.63.07,32.45Zm67.09-557.98c.71-2.47,1.29-3.96,1.55-5.51,3.38-20.03,6.03-40.21,10.36-60.03,2.07-9.5-.54-14.54-8.62-18.55-3.73-1.85-6.58-2.24-10.07.29-6.06,4.4-12.37,8.45-18.58,12.64-12.28,8.29-24.57,16.57-36.83,24.89-4.05,2.75-4.04,3.49.08,6.26,2.9,1.95,6.01,3.62,8.76,5.76,3.4,2.64,6.52,2.82,9.93.15,2.99-2.33,5.95-2.26,9.14.03,4.19,3,8.54,5.81,12.99,8.42,3.32,1.94,4.5,4.45,4.07,8.26-.25,2.16-.31,5.47.96,6.48,4.87,3.88,10.32,7.03,16.27,10.93Zm103.31,223.55c3.2-1.53,5.29-2.41,7.26-3.5,18.45-10.26,36.78-20.74,55.38-30.73,4.85-2.6,6.44-5.74,5.3-10.78-.26-1.13-.55-2.33-.44-3.45.58-6.08-2.9-8.3-8.16-9.88-18.63-5.59-37.14-11.55-55.71-17.31-3.43-1.06-6.94-1.84-11.65-3.07.53,5.87,1.18,10.74,1.34,15.62.14,4.31,1.93,6.82,6.15,7.79,3.46.79,5.24,2.83,5.38,6.69.18,4.96.84,9.94,1.62,14.85.72,4.5-.4,7.71-4.66,9.88-1.47.75-3.44,2.57-3.4,3.85.18,6.37.94,12.73,1.59,20.05Zm-270.43,340.1c-.14,0-.28-.01-.41-.02,0-3.83,0-7.66,0-11.49,0-13.91,0-13.75-14.1-13.74-4.5,0-5.65,1.66-5.57,5.9.23,12.16.16,24.32.05,36.48-.08,8.52-5.51,13.39-13.77,12.62-6.54-.61-10.52-5.3-10.58-12.83-.09-12.33-.15-24.66.04-36.98.06-3.95-1.33-5.44-5.23-5.15-3.15.24-6.33.18-9.49.02-3.58-.19-5.05,1.09-5,4.88.19,12.99-.08,25.99.16,38.98.3,16.26,11.35,27.75,28.05,29.62,17,1.9,31.25-7.34,34.35-23.44,1.56-8.08,1.06-16.55,1.5-24.84Zm-.77-659.33c17.43.37,27.91-7.59,30.22-21.54,2.27-13.76-5.95-27.18-20.39-30.53-10.77-2.49-22.04-2.87-33.1-4.02-3.57-.37-3.7,2.45-3.99,5.03-2.21,19.62-4.43,39.23-6.74,58.84-.82,6.94-.65,7.34,6.13,8.21,2.8.36,5.63.53,8.43.88,2.97.37,4.3-.99,4.57-3.84.33-3.47.89-6.92,1.13-10.4.21-3.07,1.78-4.03,4.62-3.67,3.63.45,7.26.83,9.12,1.03ZM131.04,677.47c2.08,5.33,3.47,11.08,6.37,15.92,11.38,19.04,32.18,21.98,48.69,7.24,7.07-6.32,14.08-12.7,21.07-19.1,9.73-8.92,9.6-8.84.69-18.53-3.01-3.27-5.21-3.64-8.56-.44-8.54,8.16-17.28,16.12-26.11,23.97-6.33,5.63-13.73,5.4-18.6-.2-4.79-5.51-4.12-12.37,2.01-18.11,7.41-6.94,15.01-13.68,22.45-20.59,9.05-8.41,8.92-6.06.99-14.99-.88-.99-1.89-1.89-2.67-2.97-2.26-3.13-4.33-2.63-6.93-.22-9.39,8.71-19.07,17.12-28.35,25.94-6.09,5.79-10.02,12.86-11.04,22.07Zm-3.92-294.16c-2.31,2.52-4.54,5.18-7.02,7.59-3.6,3.49-4.66,6.54-1.75,11.6,5.33,9.26,1.28,20.95-7.9,25.69-9.07,4.69-20.37,1.3-25.04-7.51-5.03-9.5-2.2-21.96,7.38-25.62,7.75-2.96,8.94-7.51,7.96-14.32-.17-1.14-.1-2.33-.09-3.49,0-3.22-1.18-4.33-4.66-3.63-17.79,3.57-31.03,18.93-31.54,36.93-.56,19.46,12.44,35.51,31.26,38.62,18.09,2.98,36.4-8.97,41.76-27.27,4.2-14.33-.02-30.5-10.35-38.58Zm55.54-187.08c.46,3.12.6,6.32,1.44,9.33,5.16,18.52,21.54,29.43,40.53,27.16,18.5-2.21,33.41-18.2,34.16-36.64.38-9.42.46-8.98-8.74-7.4-6.64,1.14-10.15,3.3-11.09,10.85-1.31,10.49-11.79,16.43-22.56,14.37-9.4-1.8-15.85-11.56-14.21-21.53,1.62-9.9,11.23-17.85,20.97-15.37,7.54,1.92,11.1-.43,13.94-6.57.69-1.49,1.82-2.77,2.78-4.13,1.74-2.46.72-3.87-1.69-5.01-24.91-11.82-55.24,7.33-55.53,34.94Zm84.87,529.69c-.09-1-.19-1.99-.28-2.99-2.07-21.33-22.07-36.83-43.87-33.98-20.71,2.7-34.46,21.83-31,43.13,4,24.63,33.84,39.3,55.85,27.36,1.03-.56,2.41-2.66,2.13-3.11-2.74-4.35-5.38-8.94-9.01-12.47-1.24-1.21-5.23.25-7.92.73-10.51,1.88-20.17-4.63-22.33-15.14-2.03-9.88,4.6-19.84,14.44-21.74,10.95-2.11,21.31,4.2,22.6,14.99.75,6.27,3.62,8.29,9.03,8.76,1.16.1,2.3.39,3.44.61,7.1,1.41,7.55,1.01,6.91-6.16Zm203.8,34.08c1.54,2.65,2.33,4.25,3.34,5.69,11.6,16.66,23.68,33.01,34.66,50.07,4.75,7.38,9.46,9.72,17.84,7.13,4.45-1.37,6.69-3.08,7.69-7.64,4.01-18.2,8.37-36.33,12.58-54.48,1.15-4.94,2.21-9.91,3.56-15.96-4.71.85-8.38,1.54-12.05,2.16q-8.31,1.41-10.14,9.73c-2.44,11.05-4.89,22.1-7.43,33.13-.38,1.65-1.22,3.19-2.23,5.76-1.83-2.15-3.08-3.39-4.06-4.81-6.93-9.98-13.73-20.05-20.78-29.95-1.22-1.71-3.55-3.91-5.22-3.79-5.56.4-11.06,1.75-17.75,2.95ZM328.1,167.88c-1.93-3.88-3.78-7.23-5.28-10.74-1.56-3.63-3.66-4.13-7.05-2.29-6.72,3.64-13.57,7.03-20.38,10.51-5.66,2.9-6.29,2.69-9.11-2.87-5.2-10.22-10.41-20.45-15.63-30.66q-5.68-11.11-16.79-5.88c-.75.35-1.51.7-2.27,1.02-2.93,1.22-3.47,3.04-1.99,5.92,9.7,18.93,19.33,37.9,28.92,56.88,1.19,2.36,2.68,3.3,5.16,2.03,13.9-7.13,27.81-14.24,41.68-21.43,1.06-.55,1.83-1.63,2.76-2.49Zm-26.78,561.13c.54-.61,1.08-1.21,1.62-1.82-1.4-.53-2.85-.96-4.2-1.6-3.3-1.57-6.64-3.1-9.81-4.91-2.88-1.64-4.45-.88-5.84,1.98-9.23,18.98-18.53,37.94-27.9,56.85-1.52,3.07-.96,4.66,2.22,6.18,10.96,5.2,21.7,10.87,32.68,16.04,14.17,6.66,10.13,8.27,17.71-6.34,1.79-3.44.62-5.07-2.53-6.53-6.78-3.16-13.46-6.53-20.17-9.85q-6.55-3.24-3.42-9.64c5.99-12.25,11.99-24.5,17.98-36.76.58-1.19,1.1-2.4,1.65-3.61Zm186.9-413.61c4.26,0,9.53.06,14.81-.01,11.81-.17,23.64-.16,35.44-.72,7.5-.35,10.86-4.95,10.79-13.31-.06-6.72-4.1-11.69-10.88-11.91-14.81-.47-29.64-.43-44.46-.43-1.07,0-2.96,1.29-3.08,2.17-1.03,7.91-1.76,15.86-2.61,24.21Zm144.13,390.92l-1.97,1.65c-3.5,2.22-6.92,4.6-10.54,6.62-3.62,2.02-3.86,4.08-1.58,7.55,9.58,14.59,19.01,29.29,28.28,44.08,8.15,13.01,8.3,13.09,20.69,3.97,2.39-1.76,2.79-3.28,1.19-5.78-11.54-17.88-23.02-35.81-34.45-53.76-.81-1.27-1.09-2.88-1.62-4.33Zm-187.32-375.49c-3.25-1.89-5.7-3.27-8.1-4.73-2.26-1.38-3.81-1.08-5.3,1.31-11.35,18.2-22.83,36.32-34.13,54.55-.66,1.07-.72,3.57,0,4.24,2.48,2.27,5.44,4.01,8.66,6.26,13.2-20.92,25.94-41.12,38.87-61.63Zm-74.37,162.67c.14.5.28,1,.42,1.5,8.66-2.73,17.49-5.03,25.94-8.3,9.65-3.74,14.54-11.09,14.12-21.78-.26-6.59-9.57-13.14-15.27-9.93-8.63,4.86-16.84,10.45-25.23,15.73.13.49.27.98.4,1.48,1.87.2,3.73.5,5.61.57,6.13.22,12.36-.24,18.35.77,2.92.49,5.38,3.66,8.05,5.62-2.98,1.28-5.87,3.32-8.96,3.69-9.07,1.07-17,4.12-23.43,10.66Zm-130.3-64.93c-7.1.89-13.95,1.65-20.74,2.71-1.13.18-3.07,2-2.91,2.56,1.69,5.71,3.66,11.34,5.75,16.92.26.7,1.57,1.35,2.45,1.43,13.19,1.17,25.09-2.16,35.15-10.9,1.01-.87,1.24-4.37.38-5.28-1.59-1.68-3.57-2.28-6.12.47-2.08,2.24-6.36,3.36-9.58,3.19-1.45-.08-2.76-4.46-3.95-6.97-.39-.81-.22-1.89-.42-4.13Zm-59.5,92.87c4.07-9.37-9.16-67.94-15.75-72.21-.34.53-.91,1.03-.98,1.6-1.16,8.41-2.39,16.8,1.31,25.01,1.07,2.37,1.97,5.11,1.88,7.65-.44,12.68,5.08,23.5,10.27,34.44.56,1.18,1.85,2.02,3.27,3.51Zm340.18,137.65c23.14-6.47,46.02-10.39,68.79.93-1.24-1.64-2.87-2.68-3.82-4.16-4.28-6.65-10.32-9.44-18.13-10.37-11.11-1.31-22.09-3.06-33.03.61-6.36,2.14-11.18,6.14-13.82,12.98Zm-144.14-96.18c-3.32,7.4-6.42,14.32-9.52,21.24-1.02,2.27-2.48,4.48-2.88,6.86-.25,1.49.65,4.11,1.84,4.76,6.88,3.78,14.29-.32,14.84-8.09.61-8.57-1.11-16.77-4.28-24.77Zm-58.75-110.62c1.66,3.81,3.14,7.24,6.91,5.83,2.05-.77,4.26-3.95,4.47-6.22.6-6.36.38-12.83.05-19.24-.07-1.3-1.89-3.31-3.21-3.59-3.51-.77-6.77.91-7.04,4.51-.26,3.37.91,6.94,1.9,10.28.8,2.68,2.28,5.15,3.79,8.43h-6.89Zm50.68,122.54c-19.67-2.78-29.04-4.16-31.32,3.47,8.18.82,16.42,1.44,24.6,2.55,5.07.69,6.31-1.9,6.72-6.02Zm-195.58-112.41c4.47-5.68,7.81-10.36,11.62-14.62,2.8-3.13,3.05-5.63-.83-8.79-4.24,7.14-12.7,11.95-10.78,23.41Zm44.36-16.9c-.22-4.09-.65-7.54-5.87-7.83-2.48-.14-4.94-.73-7.43-.95-4.14-.37-6.03,1.15-4.36,5.45,5.79,1.09,11.49,2.16,17.65,3.32Zm111.8,85.02c-1.81-1.73-3.45-4.62-5.47-4.93-3.63-.54-4.87,2.5-4.78,5.9.08,3,.56,5.87,4.32,5.98,3.96.11,4.7-2.89,5.93-6.95Zm-133.88-99.69c2.27,5.38,2.3,5.4,6.52,3.42,2.4-1.13,4.91-2.1,7.14-3.51.92-.58,1.26-2.1,1.86-3.2-1.21-.5-2.65-1.7-3.6-1.39-4.05,1.32-7.95,3.08-11.91,4.68Zm222.94,49.98c-1.86-2-3.19-3.41-4.51-4.83-1.29,1.57-3.61,3.15-3.59,4.71.01,1.66,2.22,3.31,3.47,4.97,1.35-1.41,2.69-2.82,4.63-4.85Zm-114.13-18.32c-.53-.27-1.05-.54-1.58-.81-1.96,2.38-4.2,4.61-5.7,7.25-.46.81,1.12,2.77,1.77,4.21,1.16-.55,3.06-.83,3.36-1.68,1.02-2.88,1.47-5.96,2.14-8.97Zm21.02,216.88c-4.5,2.19-3.74,5.14-2.87,7.97.76,2.49,1.73,5.02,5.67,4.17-.92-3.98-1.77-7.7-2.8-12.14Zm-153.81-226.35c2.84-4.12,5.08-7.38,7.33-10.65-.29-.3-.57-.61-.86-.91-3.02,1.97-6.05,3.94-9.29,6.04.95,1.86,1.66,3.26,2.81,5.51Zm16.76-16.82c-.63.31-1.26.63-1.88.94,1.21,2.3,2.38,4.62,3.69,6.86.11.19,1.12-.14,1.72-.23-.68-2.17-1.29-4.36-2.08-6.48-.18-.48-.95-.74-1.44-1.1Zm9.56,3.35c-1.47-2-2.78-3.77-4.08-5.54-.7.52-2.06,1.4-2,1.51,1.13,2.04,2.42,3.99,3.67,5.96.71-.57,1.42-1.13,2.41-1.93Z" style="stroke-width: 0px;"/>
  <path d="m416.03,411.18c-7.05,10.04-13.65,19.22-24.61,23.94-1.33.57-3.34-.42-5.04-.69.23-1.36-.04-3.35.76-3.97,8.59-6.68,17.35-13.14,26.09-19.62.27-.2.92.09,2.79.35Zm-28.14,20.54c.46.59.92,1.17,1.38,1.76,9.63-2.59,14.39-10.87,20.95-17.06-.32-.38-.65-.76-.97-1.14-7.12,5.48-14.24,10.96-21.36,16.43Z" style="stroke-width: 0px;"/>
  <path d="m397.47,515.27c-2.05-2.27-4.8-4.23-5.93-6.89-1.07-2.49,3.68-6.39,7.01-6.16,3.71.26,6.35,1.99,6.61,6.03.2,3.1-3.11,6.03-7.68,7.01Zm1.44-2.07c1.81-2.21,4.06-4.05,3.75-4.77-.67-1.54-2.67-3.42-4.13-3.43-1.43,0-2.87,2.14-4.31,3.34,1.3,1.34,2.59,2.68,4.69,4.85Z" style="stroke-width: 0px;"/>
  <path d="m344.43,621.17c.64.91,1.17,1.3,1.17,1.7.06,10.37-1.21,20.49-6.91,29.45-.75,1.19-2.95,1.85-4.52,1.93-.63.03-2.22-2.49-1.92-3.35,3.29-9.52,6.85-18.95,10.4-28.37.18-.49.96-.75,1.78-1.36Zm-10.09,30.09c.67.21,1.34.43,2.01.64,5.05-6.58,5.45-14.61,6.62-22.41-.41-.13-.82-.26-1.23-.39-2.47,7.38-4.94,14.77-7.41,22.15Z" style="stroke-width: 0px;"/>
  <path d="m304.08,592.75c4.62.02,7.8,2.63,7.82,6.43.03,4.12-3.78,7.49-8.35,7.39-3.73-.08-7.54-3.72-7.53-7.19,0-4.09,3.12-6.65,8.07-6.62Zm-.29,13.27c2.75-3.06,4.38-4.87,6.01-6.69-2.02-1.62-3.94-4.32-6.08-4.51-1.71-.15-5,2.62-5.18,4.35-.18,1.7,2.69,3.71,5.25,6.85Z" style="stroke-width: 0px;"/>
  <path d="m320.66,476.01c-4.42-.11-11.42-5.62-10.51-8.29.68-2.01,3.26-4.76,5.02-4.78,6.99-.08,10.12,2.79,10,7.74-.08,3.44-1.83,5.17-4.51,5.33Zm2.63-4.56c-.24-6.6-5.22-4.53-7.98-5.93-.47-.24-1.89,1.39-2.87,2.16,2.43,1.97,4.71,4.2,7.39,5.74.66.38,2.6-1.45,3.46-1.97Z" style="stroke-width: 0px;"/>
  <path d="m373.74,482.57c-3.22,2.49-5.14,5.09-6.65,4.87-1.99-.29-3.65-2.79-5.45-4.34,1.54-1.69,2.96-4.56,4.67-4.75,1.84-.2,3.96,2.11,7.43,4.22Z" style="stroke-width: 0px;"/>
  <path d="m707.3,219.36c-1.94,2.23-3.5,5.44-5.94,6.41-2.26.9-5.5-.47-8.24-1.12-.82-.19-1.4-1.35-2.09-2.07-7.29-7.57-6.83-11.08,2.26-16.49.79-.47,1.88-.82,2.75-.69,2.95.46,10.41,10.11,11.27,13.96Z" style="stroke-width: 0px;"/>
  <path d="m167.89,253.61c-.06,4.06-7.28,14.66-9.39,13.51-4.05-2.2-8.49-4.85-10.88-8.54-1.75-2.69,8.23-12.97,11.81-13,4.7-.05,8.52,3.59,8.46,8.03Z" style="stroke-width: 0px;"/>
  <path d="m374.25,782.7c.01,10.76-7.91,19.25-18.06,19.35-10.09.1-18.27-8.42-18.31-19.07-.04-10.79,7.96-19.39,18-19.36,10.19.03,18.36,8.5,18.37,19.07Z" style="stroke-width: 0px;"/>
  <path d="m589.48,762.99c3.3,3.27,6.67,6.47,9.8,9.9.38.42-.34,2.77-1.03,3.05-2.96,1.19-6.1,1.94-9.17,2.85-.39-2.68-.91-5.36-1.14-8.05-.19-2.25-.04-4.53-.04-6.8.53-.32,1.05-.63,1.58-.95Z" style="stroke-width: 0px;"/>
  <path d="m625.37,163.43c-.82,4.61-1.55,9.23-2.57,13.79-.12.53-2.13,1.25-2.78.92-2.5-1.26-4.96-2.72-7.05-4.55-.52-.45-.06-3.15.77-3.82,3.17-2.57,6.67-4.74,10.05-7.06.53.24,1.06.47,1.59.71Z" style="stroke-width: 0px;"/>
  <path d="m776.21,400.35c-4.01,2.13-7.97,4.38-12.09,6.28-.65.3-2.76-.76-2.91-1.47-.59-2.73-.83-5.57-.82-8.37,0-.71,1.58-2.13,2.15-2,4.55,1.06,9.03,2.42,13.54,3.68.04.63.09,1.25.13,1.88Z" style="stroke-width: 0px;"/>
  <path d="m456.84,99.33c.31-11.55,2.91-13.3,14.47-10.17,5.56,1.51,8.08,5.41,6.95,10.74-.98,4.58-4.05,6.29-9.92,5.59-2.13-.25-4.28-.47-6.42-.58-3.89-.19-5.93-1.85-5.08-5.59Z" style="stroke-width: 0px;"/>
</svg>