<?xml version="1.0" encoding="UTF-8"?>
<svg id="a" data-name="Layer 1" xmlns="http://www.w3.org/2000/svg" viewBox="0 0 868.56 901.15">
  <path d="m824.74,614.34h43.82c-59.07,166.75-247.48,312.12-473.77,283.09C137.21,864.39-4.12,642.51.09,450.53c3.11,0,6.26,0,9.41,0,64.66,0,129.32-.15,193.98.13,13.3.06,23.53-5.03,31.85-14.81,25.63-30.13,25.41-80.19-.3-110.19-8.78-10.25-19.44-15.36-33.2-15.29-56.95.28-113.9.15-170.85.16-2.44,0-4.89,0-7.52,0C60.71,181.8,186.04,36.94,377.79,5.92c215.57-34.87,410.76,88.06,486.32,267.68-79.95,113.42-159.96,226.92-240.13,340.66h-58.03c30.33-42.13,60.09-83.47,89.93-124.91-36.19-61.43-72.21-122.57-108.48-184.12-21.52,0-42.87-.04-64.22.01-26.36.07-52.73.58-79.08.21-18.9-.27-32.02,8.18-39.72,24.77-11.27,24.31-12.66,48.82,1.47,72.73,5.46,9.23,13.45,13.8,24.64,13.66,31.33-.39,62.69.56,93.99-.46,26.53-.86,45.83,10.41,60.71,31.15,13.95,19.44,22.41,40.96,22.5,65.1.14,40.79-36.17,89.05-74.55,99.42-5.22,1.41-10.74,2.4-16.13,2.41-53.72.16-107.43.09-161.15.06-1.69,0-3.39-.22-6.07-.41v-45.75c2.48,0,5.6,0,8.72,0,44.76.01,89.53.06,134.29.02,28.95-.03,49.36-15.83,56.64-44,4.84-18.72-.1-35.4-11.84-50.2-5.59-7.05-13.37-9.95-22.36-9.91-23.62.11-47.48-1.99-70.81.6-38,4.21-61.14-14.19-80-43.98-33.83-53.44-6.86-125.36,36.54-148.66,12.4-6.66,25.41-11.33,39.65-11.34,58.44-.05,116.87.01,175.31.04.99,0,1.97.16,3.81.31,35.85,58.91,71.92,118.18,108.58,178.43,41.83-59.3,83.02-117.7,124.13-175.99-60-122.89-202.71-229.36-380.9-221.47-164.54,7.28-290.14,111.23-342.42,219.05,3,0,5.64,0,8.27,0,32.58,0,65.2,1,97.72-.29,29.72-1.18,52.64,10.43,71,32.39,21.52,25.74,35.81,55.01,32.78,89.27-3.76,42.61-21.8,78.61-56.59,104.89-11.89,8.98-25.59,12.13-40.62,11.79-51.21-1.15-102.44-1.71-153.66-2.48-1.19-.02-2.38.22-3.57.34,10.34,124.99,100.97,289.11,288.96,345.4,98.31,29.44,195.04,22.12,288.24-21,93.34-43.19,160.18-113.16,203.05-207.02Z" style="stroke-width: 0px;"/>
</svg>