<?xml version="1.0" encoding="UTF-8"?>
<svg id="a" data-name="Layer 1" xmlns="http://www.w3.org/2000/svg" viewBox="0 0 953.08 954.1">
  <path d="m895.97,704.61c-17.72,32.7-39.11,62.79-63.86,90.59-34.6,38.85-74.57,70.99-119.64,96.75-42.07,24.04-86.76,41.51-134.32,51.23-15.04,4.69-85.91,11.4-108.19,10.9-17.89-.41-36.53-1-54.58-2.93-4.81-.99-9.59-2.2-14.44-2.94-44.04-6.74-86.09-19.88-126.45-38.69-40.69-18.96-77.81-43.34-111.67-72.75-34.54-30-64.08-64.34-88.68-102.87-30.4-47.62-51.72-99.07-63.8-154.27-5.54-25.31-8.88-71.32-9.37-80-2.07-36.19-1.44-78.33,8.74-121.57s23.2-82.44,43.05-120.66c17.14-33.01,37.87-63.62,62.3-91.75,30.73-35.4,65.6-65.93,105.07-91.21,42.81-27.41,89-47.15,138.12-59.95,21.53-5.61,43.5-9.22,65.59-11.97,4.13-.51,61.67-3.23,74.19-2.33s53.56,5.3,73.19,9.14c43.14,8.44,84.26,23.01,123.32,43.15,33.31,17.17,64.24,37.94,92.61,62.53,35.42,30.69,66.12,65.44,91.33,104.97,32.38,50.78,54.79,105.59,66.02,164.84.92,4.87,9.37,59.75,8.54,100.76-2.33,115.12-42.17,191.59-57.05,219.05ZM477.77,8.22c-129.36,1.88-240.47,46.19-331.74,137C54.76,236.03,8.18,347.04,7.82,475.37c-.73,262.93,210.39,469.81,467.28,470.25,128.88.22,240.37-45.67,331.81-136.54,91.69-91.12,138.14-202.86,138.08-331.89-.06-128.32-45.92-239.57-136.87-330.71C716.94,55.13,605.71,10.39,477.77,8.22Z" style="fill: #231f20; stroke-width: 0px;"/>
  <path d="m834.22,477.04c1.7,193.09-156,358.42-357.91,358.35-202.07-.07-358.18-165.67-358.02-358.58.16-195.71,160.7-358.25,358.67-357.97,197.5.28,358.9,162.76,357.26,358.2Zm-8.47.22c1.03-190.85-155.27-349.41-349.06-349.54-194.31-.13-350.7,158.78-349.42,349.7.65,96.37,34.78,179.02,102.69,247.02,68.05,68.13,151.48,102.25,247.41,102,95.94-.26,179.09-34.95,246.89-103.31,67.3-67.86,100.43-150.41,101.49-245.86Z" style="fill: #231f20; stroke-width: 0px;"/>
  <path d="m579.6,915.45c-12.3-19.95-24.13-39.15-37.02-60.07.33,5.17.48,8.54.76,11.89.87,10.53,1.86,21.05,2.65,31.59.18,2.47.03,5.05-.45,7.48-1.64,8.24-6.39,14.33-14.12,17.45-8.88,3.58-18.27,5.06-27.84,3.54-12.36-1.96-20.52-8.94-22.17-21.56-2.04-15.67-3.19-31.46-4.7-46.96,7.9-3.27,8.67-3.37,21.68-2.98.7,4.41,1.65,8.95,2.11,13.54.83,8.31,1.31,16.64,2.04,24.96.22,2.47.52,4.99,1.21,7.36,1.61,5.5,4.37,7.56,9.51,7.53,5.54-.03,8.68-2.5,9.93-8.15.41-1.86.5-3.87.34-5.78-1.08-13.57-2.27-27.13-3.4-40.69-.02-.24.23-.49.66-1.37,6.44-.73,13.33-1.21,20.1-2.35,6.83-1.15,13.56-2.94,21.34-4.68,6.85,11.61,13.99,23.72,21.13,35.83.37-.1.73-.2,1.1-.3v-41.52c7.16-2.06,13.96-4.01,21.65-6.22,1.03,25.19-2.27,49.47-1.86,74.42-4.39,1.48-8.22,2.93-12.16,4.05-3.97,1.13-8.04,1.92-12.52,2.97Z" style="fill: #231f20; stroke-width: 0px;"/>
  <path d="m743.3,792.22c-3.74-5.12-7.42-10.28-11.24-15.34-2.99-3.97-6.14-7.81-9.72-12.33,2.8-2.41,5.2-4.59,7.72-6.63,2.57-2.08,5.25-4.03,8.58-6.56,15,18.49,29.8,36.72,45.02,55.47-5.71,4.76-11,9.17-16.62,13.85-12.92-5.1-25.78-10.17-38.64-15.25-.31.32-.61.64-.92.95,7.2,9.1,14.4,18.19,22.1,27.93-5.37,4.51-10.2,8.57-15.78,13.26-15.66-17.83-29.81-36.55-44.88-54.8,4.41-6.74,11.4-9.63,16.55-15.43,9.35,3.83,18.53,7.66,27.76,11.34,3.32,1.32,6.79,2.27,10.19,3.38.21.26.42.53.44.55-.02-.02-.3-.21-.58-.4Z" style="fill: #231f20; stroke-width: 0px;"/>
  <path d="m458.92,98.74c.89-23.48,1.75-46.2,2.62-69.32,2.58-.33,4.42-.78,6.26-.76,9.19.09,18.39.02,27.56.53,10.4.58,19.56,3.79,25.34,13.49,7.57,12.7,6.88,34.97-1.79,46.9-3.39,4.67-7.99,7.94-13.56,9.12-5.39,1.15-10.98,1.91-16.48,1.92-8.6.02-17.21-.72-25.81-1.17-1.06-.06-2.11-.36-4.14-.72Zm23.29-16.43c5.14,2.51,9.17,1.4,13.15.27,3.51-1,5.78-3.65,6.51-6.95,1.56-7.03,2.23-14.18.24-21.31-.87-3.12-2.76-5.32-5.73-6.67-3.89-1.77-7.83-2.45-12.45-.89-2.24,11.68-1,23.55-1.72,35.56Z" style="fill: #231f20; stroke-width: 0px;"/>
  <path d="m470.01,889.07c-1.01,5.15-1.42,10.5-3.13,15.4-5.28,15.21-21.05,25.39-39.24,22.28-15.57-2.67-26.12-10.83-29.82-26.37-3.89-16.36,1.82-34.85,16.76-43.7,19.58-11.61,55.71-2.06,55.43,32.39Zm-22-1.27c-.26-.08-.52-.17-.78-.25-.12-1.94-.06-3.91-.41-5.81-1.11-5.98-5.56-10.36-10.92-10.98-6.75-.78-11.36,1.53-14.06,7.81-3.02,7.02-4.29,14.33-1.35,21.81,2.02,5.12,5.86,8.16,11.24,8.62,5.49.48,9.98-2,12.12-7.05,1.9-4.5,2.81-9.41,4.16-14.14Z" style="fill: #231f20; stroke-width: 0px;"/>
  <path d="m224.36,763.46c6.16,4.53,11.7,8.61,17.61,12.96-1.59,2.57-2.76,4.74-4.2,6.71-6.39,8.78-12.89,17.48-19.25,26.28-1.45,2.01-2.79,4.19-3.72,6.48-1.85,4.58-.74,8.47,2.78,11.13,4.13,3.11,9.31,3.21,13.01-.17,2.24-2.04,4.11-4.53,5.92-6.98,7.45-10.06,14.81-20.18,22.64-30.89,5.81,4.23,11.38,8.28,17.37,12.64-.88,1.8-1.47,3.6-2.52,5.06-7.84,10.82-15.64,21.68-23.74,32.32-5.83,7.65-13.19,13.11-23.46,11.72-4.04-.55-8.08-2.1-11.8-3.87-6.61-3.13-12.23-7.74-17.01-13.29-7.02-8.14-9.21-17.21-3.95-26.99,3.02-5.61,6.79-10.83,10.49-16.03,6.3-8.83,12.81-17.51,19.83-27.08Z" style="fill: #231f20; stroke-width: 0px;"/>
  <path d="m330.58,857.71c-6.28-2.95-12.27-5.77-18.44-8.68-.16-1.75-.32-3.37-.47-5-.87-9.38-9.5-14.04-17.41-8.9-8.6,5.59-12.18,14.45-12.27,24.28-.07,8.03,10.43,15.16,18.32,8.37,1.26-1.09,2.47-2.24,4.01-3.64,6.75,2.07,13.12,5.09,19.05,9.05-6.25,12.35-17.06,18.08-31.2,16.09-9.66-1.36-17.79-6.02-24.23-13.52-6.69-7.81-7.89-16.98-6.79-26.69,1.4-12.39,11.04-30.05,28.77-34.45,16.69-4.14,39.54,9.51,42.47,23.26,1.45,6.81,1.34,13.06-1.83,19.84Z" style="fill: #231f20; stroke-width: 0px;"/>
  <path d="m638.59,818.9c17.43,18.07,34.78,36.05,52.81,54.74-6.5,4.41-13.68,6.24-20.18,9.62-2.82-2.69-5.2-4.96-7.95-7.58-6.54,2.92-13.08,5.84-19.96,8.92.25,3.33.48,6.29.76,10.08-5.64,3.83-12.48,5.95-18.61,8.86-.66-.36-.93-.46-1.14-.63-.21-.18-.47-.4-.51-.64-.3-1.62-.68-3.25-.78-4.89-1.36-22.99-2.68-45.99-4.04-69.44,6.64-3.06,12.87-5.93,19.59-9.02Zm.96,28.03c.3,7.93-.44,14.38,3.04,20.63,3.51-1.68,6.64-3.17,10.38-4.96-4.46-5.21-8.31-9.71-13.41-15.67Z" style="fill: #231f20; stroke-width: 0px;"/>
  <path d="m62.17,365.36c.63,6.86,1.18,12.85,1.76,19.1-2.11,1.06-3.83,1.86-5.49,2.77-9.24,5.09-9.81,16.96-.74,22.35,7.42,4.41,15.9,5.46,24.26,3.88,7.98-1.5,11.53-13.46,6.12-19.63-2.15-2.45-4.99-4.3-8.18-6.99,2.82-5.53,5.66-11.1,8.44-16.56,11.86,3.77,19.29,12.76,19.36,23.91.04,6.05-.53,12.28-1.99,18.13-3.68,14.8-15.19,23.42-30.39,23.8-7.62.19-15.01-.81-22.01-3.88-13.57-5.95-20.52-17.05-19.39-31.87.42-5.48,1.57-11.08,3.48-16.22,4.01-10.8,12.2-16.86,24.78-18.79Z" style="fill: #231f20; stroke-width: 0px;"/>
  <path d="m314.25,83.98c-2.96-7.3-5.62-13.89-8.64-21.34,6.21-2.72,11.69-5.12,18.05-7.9,10.41,21.34,18.63,42.99,28.5,64.79-5.84,2.7-11.01,5.09-16.39,7.58-1.33-1.56-2.19-2.58-3.21-3.78-.56.41-1.4.71-1.69,1.29-4,8.01-10.34,12.02-19.38,11.9-4.1-.05-7.65-1.31-10.81-3.78-8.33-6.53-12.84-15.35-14.16-25.62-1.69-13.16,9.22-26.47,27.73-23.14Zm10.68,25.98c-.45-4.16-2.14-8.53-5.85-11.75-2.44-2.13-5.35-2.68-8.51-1-3.17,1.69-4.6,4.44-3.68,7.59,1.14,3.91,2.83,7.77,4.98,11.23,1.68,2.71,4.71,3.82,8.06,2.53,3.2-1.23,4.96-4.03,4.99-8.59Z" style="fill: #231f20; stroke-width: 0px;"/>
  <path d="m375.49,92.41c6.55,9.42,11.35,9.33,19.82.33,5.78-.16,11.53-3.33,18.09-1.26-1.74,7.5-6.14,12.64-12.55,15.86-6.74,3.4-14.01,5.38-21.64,5.49-11.82.16-20.72-6.72-24.49-18.77-3.72-11.9-.37-23.1,9.01-29.67,8.61-6.03,18.39-8.09,28.58-6.67,8.64,1.21,14.4,6.94,17.82,14.81,1.31,3,2.01,6.27,3.21,10.15-12.28,4.36-24.92,5.96-37.86,9.74Zm15.25-14.28c-3.94-6.96-6.71-8.44-11.63-7.07-4.29,1.2-5.57,3.86-4.96,10.88,5.31-1.22,10.55-2.42,16.59-3.81Z" style="fill: #231f20; stroke-width: 0px;"/>
  <path d="m593.66,95.76c-12.79-2.82-24.63-5.44-36.68-8.1-1.96,3.85-.84,6.7,2.03,8.96,4.64,3.67,9.34,2.72,13.41-.53,6.05,2.02,11.52,3.84,17.62,5.87-4.46,8.21-11.73,10.27-19.14,10.19-7.12-.07-14.34-1.51-20.97-4.77-9.16-4.49-13.72-12-14.1-21.94-.72-18.71,12.83-30.77,31.61-28.21,4.08.56,8.23,1.5,12.05,3.03,12.33,4.94,17.9,15.57,15.48,28.74-.34,1.87-.72,3.73-1.3,6.76Zm-18.29-14.51c-.03-7.66-1.87-10.61-6.84-11.38-1.74-.27-3.77.29-5.46.97-2.64,1.06-4.12,3.19-4.42,6.56,5.49,1.27,10.75,2.48,16.71,3.86Z" style="fill: #231f20; stroke-width: 0px;"/>
  <path d="m258.2,151.08c2.81,7.13,1.25,12.67-1.8,17.71-5.21,8.6-12.88,14.78-22.17,18.23-4.18,1.55-9.5,1.75-13.89.75-15.57-3.54-30.04-25.39-14.65-43.63,5.26-6.23,11.67-10.98,19.75-13.38,8.32-2.48,15.4-.31,21.67,5.07,2.89,2.48,5.3,5.5,8.51,8.88-10.32,8.23-20.01,15.97-29.76,23.75,5.92,5.7,11.98,5.8,14.39-.64,3.25-8.69,10.85-11.29,17.96-16.73Zm-25.29-1.34c-6.44-4.52-10.45-4.74-13.96-1.23-3.16,3.17-3.15,6.16.23,12.03,4.39-3.46,8.75-6.89,13.73-10.81Z" style="fill: #231f20; stroke-width: 0px;"/>
  <path d="m596.63,118.46c6.65-16.01,13.01-31.32,19.73-47.5,5.75,2.39,10.99,4.57,16.54,6.87-.22,2.21-.39,3.98-.61,6.11,6.07-1.65,11.97-2.67,17.93-.23,9.76,4,14.06,11.4,10.67,21.33-3.93,11.5-9.05,22.6-13.96,34.63-6.29-2.64-11.81-4.96-17.77-7.46.49-2.28.63-4.17,1.3-5.86,2.16-5.42,4.59-10.74,6.76-16.16,1.03-2.56,1.91-5.23,2.48-7.92.66-3.08-.72-5.42-3.5-6.88-2.97-1.56-5.63-.48-7.5,1.72-1.76,2.07-3.06,4.62-4.18,7.13-3.16,7.08-6.12,14.25-9.47,22.13-6.09-2.61-11.83-5.08-18.42-7.9Z" style="fill: #231f20; stroke-width: 0px;"/>
  <path d="m833.82,299.73c-6.99-11.62-13.39-22.25-19.82-32.95-6.46,5.37-7.14,11.74-.88,14.87,5.98,2.99,8.04,7.96,10.57,13.09.98,1.98,1.79,4.05,2.86,6.48-6.44,2.01-11.8-.02-16.39-3.66-8.34-6.61-13.6-15.48-16.14-25.71-1.81-7.28.88-14.08,5.44-19.46,11.42-13.46,30.22-15.9,41.8-1.25,3.73,4.72,6.92,10.2,8.98,15.83,3.74,10.2.49,19.93-7.94,26.84-2.34,1.92-4.97,3.49-8.48,5.92Zm-2.52-23.65c6.04-5.15,6.85-7.61,4.26-11.98-2.6-4.39-5.85-5.07-12.42-2.15,2.72,4.72,5.41,9.39,8.15,14.14Z" style="fill: #231f20; stroke-width: 0px;"/>
  <path d="m116.3,305.33c-4.81,12.54-9.18,23.9-13.55,35.3,10.16,2.63,14.37-2.98,11.27-14.9,2.49-5.2,4.76-10.78,8.46-16.25,6.59,6.61,8.16,14.04,6.35,21.89-1.35,5.88-3.62,11.71-6.43,17.06-6.81,12.94-20.6,15.01-32.46,10.57-13.17-4.92-19.6-16.75-16.43-29.78,1.23-5.06,2.98-10.18,5.49-14.72,6.38-11.54,17.03-15.64,29.76-12.05,2.32.65,4.53,1.71,7.55,2.87Zm-17.08,16.12c-8.87-1.71-9.84-1.08-12.96,7.76,1.09,3.41,2.21,6.84,7,7.75,2.01-5.23,3.96-10.31,5.96-15.5Z" style="fill: #231f20; stroke-width: 0px;"/>
  <path d="m873.38,438.41c-2.07-11.76-4.17-23.7-6.28-35.7-10.11,2.99-10.55,8.78-1.72,19.03.14,2.67.29,5.71.48,8.74.17,2.69.37,5.38.6,8.64-7.21-.78-11.38-5-14.49-10.25-5.63-9.54-6.51-20.14-4.54-30.68.74-3.98,3.92-8.01,6.99-10.98,13.8-13.31,36.03-8.45,43.53,9.12,3.17,7.42,3.73,15.17,2.68,22.91-1.66,12.24-14.22,21.03-27.25,19.16Zm6.63-20.88c7.36-3.14,9.57-6.13,8.42-10.42-1.25-4.65-5.03-6.66-11.05-5.51.84,5.07,1.68,10.15,2.64,15.94Z" style="fill: #231f20; stroke-width: 0px;"/>
  <path d="m347.11,834.65c7.64,2.18,14.21,4.05,21.3,6.07-4.79,17.26-9.36,33.71-14.13,50.89,10.25,2.99,19.73,5.75,30.01,8.74-1.59,6.01-3.05,11.51-4.76,17.96-17.24-4.82-33.93-9.49-51.34-14.36,1.64-12.17,6.11-23.2,8.91-34.61,2.76-11.26,6.4-22.3,10.02-34.68Z" style="fill: #231f20; stroke-width: 0px;"/>
  <path d="m725.24,173.1c5.16,4.06,9.72,7.66,14.49,11.42.07,6.92.83,13.57,9.76,14.25,2.84-1.45,2.71-3.66,1.49-5.73-1.83-3.11-4.04-5.99-6.03-9.01-1.83-2.78-3.88-5.47-5.32-8.45-2.92-6.04-2.37-11.88,2.13-17.08,4.48-5.19,10.43-5.58,16.07-3.35,10.17,4.02,17.58,11.64,22.91,21.03,2.68,4.73,1.83,9.65-1.47,15.19-4.42-3.36-8.8-6.69-13.01-9.89-2.29-11.14-3.23-12.12-10.33-10.94-1.43,2.55.51,4.13,1.75,5.87,3.55,4.98,7.7,9.62,10.61,14.95,5.65,10.33-.58,21.72-12.21,22.7-5.73.49-11.16-1.53-15.47-5.17-5.08-4.29-10.03-8.91-14.17-14.08-5.01-6.24-6.38-13.4-1.19-21.72Z" style="fill: #231f20; stroke-width: 0px;"/>
  <path d="m168.53,202.12c-3.09,5.42-5.92,10.39-8.45,14.82-1.25.5-1.79.94-2.27.88-5.57-.64-9.13,1.95-10.92,7-1.79,5.06,1.26,8.49,4.56,11.63,1.39,1.33,3.01,2.48,4.69,3.43,3.35,1.9,6.87,2.36,10.25.09,3.53-2.36,5.31-5.67,4.61-9.99-.3-1.89-.88-3.74-1.47-6.21,4.11-3.78,8.38-7.72,12.98-11.95,5.94,5.96,6.96,13.51,4.58,21.25-3.22,10.45-9.97,18.61-19.47,24.09-5.76,3.32-12.01,3.82-18.5,1.54-12.08-4.26-20.61-15.36-19.93-26.92.19-3.25,1.04-6.63,2.35-9.62,3.2-7.25,8.14-13.35,14.49-18.03,6.61-4.88,13.85-6.46,22.49-2.02Z" style="fill: #231f20; stroke-width: 0px;"/>
  <path d="m809.85,192.41c6.29,2.84,12.53,5.66,20.02,9.05-5.18,4.43-9.5,8.14-14.23,12.18,1.77,2.89,3.44,5.62,5.47,8.94-3.44,2.94-6.76,5.78-10.48,8.96-2.62-2.74-5.05-5.27-7.65-7.99-5.33,5.27-12.13,8.38-16.45,15.06,1.57,2.28,3.08,4.48,4.99,7.23-3.17,2.39-6.46,4.87-10.47,7.89-5.41-2.81-9.62-8.96-13.18-15.57-2.59-4.82-.89-9.38,2.52-13.04,3.4-3.66,7.29-6.87,11.05-10.18,2.7-2.37,5.54-4.59,8.52-7.04-1-2.03-1.83-3.71-3.09-6.27,3.06-2.69,6.32-5.56,10.01-8.81,2.07,1.64,3.93,3.12,5.77,4.59,2.35-1.63,4.61-3.2,7.2-5.01Z" style="fill: #231f20; stroke-width: 0px;"/>
  <path d="m704.58,130.93c-3.33-1.8-5.97-3.23-9.26-5.01-3.8,6.36-7.44,12.46-11.38,19.05,2.89,2.16,5.05,3.76,7.59,5.66-.53,4.23-2.72,7.9-5.32,11.77-6.15-1.86-11.62-4.42-16.4-8.31-5.71-4.65-7.21-9.36-4.45-16.27,1.85-4.61,4.6-8.87,7.02-13.24,1.61-2.91,3.34-5.76,5.41-9.3-1.93-1.19-3.78-2.32-5.93-3.65,2.82-4.75,5.03-8.48,7.39-12.47,2.43,1.04,4.37,1.87,6.41,2.75,1.78-2.57,3.35-4.83,5.35-7.71,6.67.63,13.47,1.27,20.65,1.95-1.08,6.56-6.01,10.54-7.87,16.43,2.55,1.94,5.13,3.91,8.22,6.26-2.56,4.16-4.98,8.08-7.44,12.08Z" style="fill: #231f20; stroke-width: 0px;"/>
  <path d="m662.63,806.34c6.48-3.91,12.54-7.57,19.19-11.58,12.49,20.49,24.6,40.34,36.91,60.54-5.4,5.36-12.08,8.02-18.69,12.25-12.45-20.37-24.71-40.43-37.41-61.2Z" style="fill: #231f20; stroke-width: 0px;"/>
  <path d="m215.15,205.05c-4.73,4.56-9.1,8.76-14.19,13.66-16.42-16.39-33.02-32.66-50.3-50.16,5.49-4.41,10.23-8.23,15.24-12.26,3.96,2.46,40.59,38.28,49.25,48.76Z" style="fill: #231f20; stroke-width: 0px;"/>
  <path d="m104.96,265.08c.96.29,2,.61,3.88,1.17-3.58-8.89-.16-14.96,7.47-20.25,3.06,4.03,5.85,7.7,8.33,10.96-.15,1.26-.05,1.9-.3,2.34-4.62,8.01-4.32,10.54,3.01,15.85,4.26,3.08,9,5.5,13.53,8.19,2.6,1.54,5.22,3.05,8.63,5.02-3.13,5.9-6.04,11.39-9.35,17.62-15.55-7.88-29.84-16.64-44.42-24.59,2.66-7.85,4.71-11.42,9.23-16.32Z" style="fill: #231f20; stroke-width: 0px;"/>
  <path d="m818.42,317.48c16.19-6.74,31.48-13.1,47.63-19.82,2.45,5.69,4.69,10.89,6.87,15.97-1.25,1.52-2.11,2.58-2.74,3.34,2.78,2.44,5.94,4.53,8.16,7.36,2.22,2.83,2.95,6.48,1.72,10.78h-13.86c-.3-.26-.9-.54-1.08-.99-3.67-8.76-5.23-9.77-14.4-7.15-6.1,1.74-11.96,4.35-17.92,6.58-1.79.67-3.56,1.38-6.24,2.42-2.63-5.96-5.13-11.65-8.14-18.48Z" style="fill: #231f20; stroke-width: 0px;"/>
  <path d="m883.63,343.29c1.96,6.07,3.8,11.78,5.93,18.38-16.54,5.1-32.39,9.98-48.61,14.98-3.83-5.52-4.32-11.9-5.96-17.78,5.59-3.91,35.24-13.46,48.63-15.58Z" style="fill: #231f20; stroke-width: 0px;"/>
  <path d="m723.11,126.35c5.74,4.32,10.53,7.94,15.99,12.05-10.38,14.06-20.35,27.56-30.62,41.47-5.36-3.98-10.21-7.59-15.81-11.75,9.23-14.31,19.67-27.42,30.44-41.78Z" style="fill: #231f20; stroke-width: 0px;"/>
  <path d="m750.81,122.82c-3.14,4.01-5.65,7.21-8.51,10.86-5.64-4.09-10.7-7.77-16.14-11.72,3-4.05,5.43-7.35,8.34-11.28,5.33,3.97,10.35,7.71,16.31,12.14Z" style="fill: #231f20; stroke-width: 0px;"/>
  <path d="m902.1,336.74c2.07,6.75,3.83,12.5,5.66,18.47-3.64,2.9-7.75,3.35-11.99,4.64-4.15-5.57-4.41-12.28-6.71-18.91,4.31-1.39,8.19-2.64,13.04-4.2Z" style="fill: #231f20; stroke-width: 0px;"/>
  <path d="m743.3,792.22c.28.19.56.39.58.4-.02-.02-.23-.28-.44-.55l-.14.14Z" style="fill: #231f20; stroke-width: 0px;"/>
  <path d="m445.02,432.42c-2.82-3.26-1.02-5.03,1.33-6.34,8.08-4.52,16.59-7.98,25.91-8.6,8.92-.59,17.68.73,26.46,2.51,8.94,1.81,18.08,2.94,27.18,3.55,3.96.26,8.42-.77,12.04-2.51,12-5.74,24.47-10.76,34.22-20.45,2.45-2.43,6.05-3.7,8.43-5.11,6.14,1.11,7.48,5.31,8.43,9.31,1.81,7.65,1.72,15.41-.43,23.03-2.13,7.54-6.79,10.86-14.3,9.15-9.72-2.22-19.3-5.12-28.84-8.04-2.96-.91-5.56-2.07-8.81-1.07-8.17,2.52-16.57,1.61-24.82.57-5.75-.73-11.32-2.87-17.07-3.62-15.02-1.96-29.99-2.68-43.93,5.14-1.85,1.04-3.93,1.69-5.78,2.47Zm137-30.45c-4.62.83-4.65,3.07-4.55,5.33.12,2.64.31,5.28.54,8.93,2.87-1.61,4.65-2.6,7-3.92-1.05-3.65-1.99-6.9-2.99-10.34Zm-8.08,5.32c-6.57,4.54-7.94,9.09-3.22,11.48,1.54-.79,3.36-1.73,5.22-2.68-.16-2.32-.19-4.22-.46-6.08-.11-.73-.75-1.38-1.54-2.72Zm-2.78,13.82c0,2.03-.12,3.36.03,4.66.18,1.56.59,3.1.9,4.66h4.95q.67-8.66-5.87-9.33Zm10.33,9.95c1.84-5.18,3.97-9.02,1.99-13.56-5.1,3.08-5.28,4.02-1.99,13.56Zm-14.95-11.42c-.63-2.4-1.01-3.86-1.59-6.1-3.22,2.5-7.99,2.52-6.88,8.55,2.92-.84,5.23-1.51,8.47-2.45Zm.31,2.64c-3.06,1.25-5.39,2.21-8.31,3.4,5.96,3.95,8.55,4.38,10.32,1.82-.49-1.28-1.07-2.77-2.01-5.22Zm-19.4,1.2c3.86.44,6.04-.25,8.44-2.87-4.01-1.26-5.39,1.36-8.44,2.87Z" style="fill: #231f20; stroke-width: 0px;"/>
  <path d="m289.55,349.75c-1.62-3.47-3.06-6.53-4.47-9.55,2.4-2.11,3.94-.51,4.97,1.05,1.76,2.67,2.26,5.53-.5,8.51Z" style="fill: #231f20; stroke-width: 0px;"/>
  <path d="m248.04,356.92q.79-7.81,7.04-7.72c-2.64,2.89-4.84,5.31-7.04,7.72Z" style="fill: #231f20; stroke-width: 0px;"/>
  <path d="m266.92,343.17q1.8-6.26,7.68-5.16c-1.61,3.29-4.59,3.8-7.68,5.16Z" style="fill: #231f20; stroke-width: 0px;"/>
  <path d="m292.84,352.36c3.14-.25,5.34-.42,8.07-.64q-2.83,4.2-8.07.64Z" style="fill: #231f20; stroke-width: 0px;"/>
  <g>
    <path d="m408.01,177.45c.58-.37.99-.63,1.23-.79.3-.19.69-.46,1.17-.79l1.38,2.46c.26.47.51.9.74,1.3.24.4.41.67.5.82.18.28.36.5.52.66s.34.27.54.33c.19.06.41.06.64,0,.23-.06.45-.16.66-.29.18-.12.33-.25.45-.4.1-.12.17-.25.22-.38.04-.12.06-.25.07-.38,0-.16-.01-.33-.06-.53-.04-.19-.12-.41-.25-.67-.13-.26-.44-.84-.95-1.74-.43-.76-.83-1.46-1.21-2.08-.37-.6-.54-.91-.52-.92l1.32-.87,1.13-.74,2.32,4.11c.04.08.08.14.11.19.49.78.8,1.35.93,1.72s.18.73.14,1.08c-.03.35-.16.74-.4,1.16s-.55.82-.95,1.19c-.4.37-.83.71-1.29,1.02-.41.27-.83.5-1.26.7-.39.17-.77.3-1.13.37s-.69.1-1,.09c-.28-.01-.53-.06-.73-.14s-.4-.2-.59-.36c-.22-.19-.41-.41-.58-.67-.06-.09-.14-.23-.25-.41s-.26-.45-.46-.81l-.51-.93c-.13-.25-.34-.6-.61-1.07l-1.34-2.26Z" style="fill: #231f20; stroke-width: 0px;"/>
    <path d="m426.82,173.29c.1.25.24.58.44,1.01s.35.76.47.99c-.71.64-1.38,1.16-2,1.57s-1.21.68-1.82.87-1.25.25-1.9.19-1.23-.26-1.72-.6-.92-.8-1.3-1.37c-.44-.67-.71-1.35-.81-2.05s-.04-1.38.2-2.04.58-1.26,1.04-1.78.98-.98,1.58-1.37c.55-.36,1.27-.73,2.17-1.12l.32.46c.14.2.3.41.47.65l.45.61c-.5.18-.9.34-1.19.48s-.55.28-.78.43c-.5.33-.88.72-1.15,1.18s-.39.96-.37,1.49.18,1.03.49,1.49c.28.42.61.72,1,.89s.8.24,1.24.19.89-.23,1.37-.55c.26-.17.53-.38.81-.63s.61-.58,1-1.01Z" style="fill: #231f20; stroke-width: 0px;"/>
    <path d="m429.03,174.48c-.48-.93-.88-1.69-1.2-2.27-.58-1.06-1.18-2.09-1.79-3.11-.61-1.02-1.13-1.84-1.54-2.48.51-.32.95-.61,1.34-.87.26-.17.64-.42,1.12-.75l1.18,2.1,1.89,3.25.48.79c.64-.41,1.06-.67,1.25-.8.97-.64,1.7-1.14,2.18-1.49l.98,1.75c-.98.63-1.91,1.24-2.79,1.81-1.19.78-2.23,1.47-3.12,2.06Z" style="fill: #231f20; stroke-width: 0px;"/>
    <path d="m421.45,198.79c-.57-.76-1.03-1.35-1.41-1.78.54-.09.99-.2,1.36-.34.37-.14.68-.29.92-.45.32-.21.55-.43.68-.65s.13-.42.01-.61c-.04-.06-.09-.12-.15-.16s-.13-.09-.23-.12c-.1-.04-.22-.07-.38-.09l-1.64-.22c-.38-.05-.65-.08-.81-.11-.32-.06-.59-.14-.8-.23-.22-.09-.4-.2-.56-.34s-.3-.3-.43-.49c-.15-.23-.25-.47-.32-.74s-.08-.55-.04-.84.14-.59.31-.9.39-.59.66-.83.56-.47.88-.68c.62-.41,1.35-.78,2.18-1.12.18.25.35.47.5.68s.43.55.84,1.05c-.43.09-.8.2-1.12.33s-.58.26-.78.4c-.29.19-.49.4-.61.63s-.13.43-.02.59c.05.07.11.14.19.19s.19.1.33.14.32.07.53.1.53.06.96.09l.61.05c.18.02.39.05.61.1s.43.1.62.17.34.14.47.21.24.16.34.26.19.21.28.34c.22.33.35.7.39,1.11s-.02.8-.19,1.19-.4.73-.69,1.04-.64.59-1.03.84c-.6.39-1.41.8-2.44,1.23Z" style="fill: #231f20; stroke-width: 0px;"/>
    <path d="m427.9,194.73l-.82-1.49-1.68-2.87-1.23-2c-.13-.21-.27-.43-.41-.64-.1-.16-.28-.42-.52-.78.5-.31.89-.56,1.19-.76s.67-.45,1.15-.79c.48-.34.9-.63,1.24-.85.5-.33.88-.54,1.16-.63s.56-.14.84-.13c.28,0,.54.06.79.16s.47.24.69.43.4.4.56.65c.33.5.5,1.03.53,1.6s-.11,1.1-.41,1.59-.73.91-1.27,1.27c-.2.13-.45.26-.74.39-.14-.15-.36-.37-.67-.65s-.53-.49-.69-.62c.18-.07.37-.17.54-.29.37-.25.59-.52.66-.82s.01-.58-.16-.84c-.08-.13-.18-.22-.28-.3s-.22-.11-.35-.11-.25.02-.37.07-.25.12-.38.21-.27.18-.41.28l-.44.34c.42.74.91,1.56,1.45,2.45,1,1.62,1.6,2.59,1.81,2.91l.47.72-1.11.71c-.16.1-.54.36-1.15.77Z" style="fill: #231f20; stroke-width: 0px;"/>
    <path d="m435.14,189.97c-1.74-3.11-3.13-5.46-4.18-7.06l-.48-.71c.65-.42,1.09-.7,1.31-.84.1-.07.5-.33,1.19-.79.48.88.94,1.7,1.39,2.47.63,1.07,1.23,2.06,1.79,2.98.57.92,1.06,1.69,1.48,2.33l-1.14.74c-.22.15-.67.45-1.36.91Z" style="fill: #231f20; stroke-width: 0px;"/>
    <path d="m437.93,188.14c.07-.83.15-1.86.22-3.1s.12-2.21.14-2.92l-1.38-.67c-.25-.12-.61-.28-1.08-.49l-1.12-.5c-.28-.12-.59-.27-.94-.43.48-.31.97-.62,1.47-.95.4-.26.82-.54,1.26-.84.37.21.79.44,1.26.67s.86.44,1.17.63c-.02-.35-.03-.8-.02-1.35s0-1.05-.03-1.51c.4-.25.83-.53,1.29-.83.3-.2.72-.48,1.27-.85-.02.56-.06,1.36-.12,2.4s-.11,2.06-.13,3.05c1.27.63,2.93,1.39,4.99,2.28-.59.38-1.03.66-1.32.85-.49.32-.97.64-1.44.96-.34-.2-.79-.44-1.34-.72s-1.06-.55-1.5-.8c.03.35.03.87,0,1.56s-.03,1.3-.03,1.85c-.54.35-.97.62-1.29.83-.35.23-.79.52-1.33.89Z" style="fill: #231f20; stroke-width: 0px;"/>
  </g>
  <path d="m707.96,724.23c-.46-6.92-1.14-13.86-2.3-20.69-3.16-18.76-11.29-35.42-22.14-50.88-3.36-4.79-6.48-9.75-9.9-14.49-2.69-3.73-2.37-7.3.09-10.83,1.91-2.74,3.86-5.49,6.11-7.95,16.53-18.03,22.44-39.88,23.23-63.66.17-5.15.88-10.28,1.49-17.18-1.8-3.95-6.85-7.29-11.83-10.05-8.61-4.76-9.97-11.9-8.79-20.54.49-3.58.86-7.19.91-10.8.19-11.99.12-23.98.32-35.97.24-14.31-3.79-27.52-10.45-39.93-14.11-26.25-28.51-52.34-42.67-78.56-1.14-2.11-2.08-4.74-1.94-7.05.45-7.49,1.37-14.95,2.24-22.4,1.85-15.83,6.37-31.04,11.33-46.09,3.62-10.99,5.49-22.06,4.67-33.65-.55-7.79-2.92-14.89-8.06-20.61-4.43-4.94-9.28-9.76-14.72-13.49-10.79-7.4-22.02-14.16-33.25-20.89-6.44-3.86-13.21-7.18-19.88-10.64-7.01-3.64-14.18-4.38-21.76-1.53-14.84,5.59-29.83,10.78-44.63,16.46-7.67,2.95-15.08,6.6-22.93,10.07-2.77-7.38-6.93-13.1-13.98-16.12.42-8.69,3.4-17.12-.89-25.07-3.95-7.33-8.26-14.47-13.82-20.53-5.95,0-11.72-.98-17.01.19-14.67,3.23-28.99,7.62-42.47,14.65-21.09,11.01-40.8,24.07-59.25,38.98-8.63,6.98-16.93,14.52-24.46,22.65-8.55,9.23-9.08,23.69-2.24,34.05,3.83,5.81,8.1,11.32,12.06,17.05,1.39,2.02,2.97,4.15,3.55,6.47,6.41,25.69,15.58,50.48,24.55,75.32,5.09,14.11,10.55,28.08,15.98,42.48-9.52,9.77-19.46,19.07-30.39,27.28-1.47,1.1-3.49,2.01-5.27,2.04-5.22.08-10.44-.32-15.55-.53-.67-2.34-1.33-3.91-1.54-5.54-1.41-11.03-2.84-22.06-3.98-33.12-.34-3.26-.8-7.21.63-9.82,4.11-7.47,2.54-15.06,2.46-21.38-2.83-3.64-4.94-6.13-6.79-8.79-3.79-5.43-8.76-8.25-15.52-8.23-3.82.01-7.65-1.16-11.47-1.15-4.09.01-8.52-.05-12.18,1.44-5.62,2.28-10.7,5.87-16.02,8.9-4.3,2.45-7.33,5.91-8.8,10.7-.81,2.66-1.85,5.05-4.4,6.8-1.43.98-2.19,3.15-2.89,4.92-1.11,2.79-1.73,5.78-2.89,8.55-1.26,3.01-.65,5.33,1.63,7.52,1.56,1.5,3.59,3.01,4.23,4.91,4.48,13.36,11.35,26.13,10.01,40.96-.52,5.78,1.22,11.29,5.58,15.19,3.58,3.2,5.02,6.99,6.18,11.41,2.69,10.21,5.67,20.36,8.91,30.41,2.06,6.37,3.75,7.38,10.47,7.21,13.07-.32,24.9-5.42,36.86-9.93,2.86-1.08,4.36-3.45,4.19-6.59-.24-4.44-.52-8.89-.9-13.32-.58-6.78-1.27-13.56-1.94-20.66,2.5.14,4.17.1,5.8.35,9.13,1.39,16.84-.9,23.68-7.45,5.31-5.09,11.5-9.25,18.96-15.13-2,5.17-3.11,8.52-4.55,11.73-13.9,30.88-20.77,63.3-21.63,97.08-.2,7.78-.76,15.56-1.24,23.33-.04.66-.71,1.28-1.18,2.08-18.78-8.49-38.13-10.77-58.07-6.55-17.78,3.77-30.72,13.83-38.16,30.63-9.91,22.39-4.24,49.82,16.62,64.03,11.91,8.12,24.99,13.35,38.57,17.62,8.28,2.6,16.33,5.62,23.27,11.01,10.45,8.12,10.32,24.68-1.88,30.74-2.48,1.23-4.99,2.47-7.6,3.32-8.42,2.73-17.14,2.56-25.67,1.2-16.67-2.66-27.56-12.51-32.83-28.48-1.39-4.21-2.18-8.62-3.45-12.88-.51-1.71-1.59-3.25-2.87-5.76-2.58,2.54-4.82,4.22-6.38,6.37-6.27,8.63-9.4,18.5-8.78,29.03,1.02,17.38,8.28,31.71,23.4,41.14,24.76,15.43,51.05,16.78,77.53,5.87,21.64-8.92,33.54-26.38,35.79-49.55,2.27-23.38-8.21-40.81-27.55-53.43-10.61-6.92-22.32-11.28-34.18-15.39-8.42-2.92-16.88-5.75-24.19-11.11-3.95-2.9-7-6.36-7.77-11.39-1.31-8.56,2.26-15.37,10.77-18.55,14.49-5.4,27.93-3.3,39.67,7.17,3.12,2.78,6.01,5.82,9.09,8.65,2.27,2.09,4.82,2.71,7.6.88,1.1-.73,2.21-1.45,3.29-2.15,2.32,5.28,4.14,10.23,6.59,14.85,5.61,10.56,13.35,13.53,23.16,6.55.37-.26.94-.24,1.97-.48,0,2.31,0,4.5,0,6.69-.06,17.29-.4,34.58-.11,51.87.26,15.59,1,31.17,1.93,46.74.3,4.93,1.59,9.89,3.01,14.66,1.86,6.24,3.62,7.37,10.33,7.45,9.48.12,18.96.03,28.44.03,3.07,0,6.17.07,8.42-2.99-.06-1.26.12-2.71-.24-4.01-3.57-12.9-5.67-26.04-7.41-39.29-1-7.61.55-14.03,6.48-18.72,6.52-5.16,13.39-9.94,20.4-14.43,10.08-6.46,20.56-12.29,30.6-18.8,10.89-7.07,19.89-16.12,26.35-27.52.8-1.41,1.67-2.78,2.75-4.57,4.35,4.16,8.32,7.94,12.57,12.01-.32,5.16-1,10.42-.92,15.66.35,23.96.68,47.92,1.52,71.87.26,7.45,1.74,14.92,3.31,22.24,1.39,6.48,4.03,8.39,10.55,8.51,9.76.18,19.52.16,29.28-.05,2.28-.05,4.54-1.22,6.98-1.92-.37-2.55-.57-4.17-.84-5.78-2.97-17.53-6.81-34.96-8.67-52.6-1.78-16.85-1.83-33.92-2.01-50.9-.1-9.15.86-18.35,1.88-27.47.32-2.82,2.07-5.67,3.75-8.09,4.78-6.85,9.85-13.5,14.83-20.21,1.04-1.4,2.17-2.73,3.69-4.63,2.42,17.84,9.1,32.93,19.56,46.4,3.42,4.4,7.03,8.65,10.32,13.14,6.2,8.46,6.12,11.22-.26,19.17-2.44,3.04-5.16,5.86-7.54,8.94-5.63,7.26-11.59,14.31-16.59,21.98-10.4,15.99-15.17,33.92-16.36,52.84-.4,6.26,1.03,8.72,6.1,8.95,8.88.4,17.81.04,26.71-.22,1.53-.04,3.03-1.16,5.01-1.98.66-2.9,1.51-5.83,1.96-8.82.8-5.22,1.15-10.51,2.06-15.7,2.17-12.45,6.03-24.33,13.38-34.78,3.68-5.22,7.74-10.18,14.19-12.53,8.25,5.4,12.27,13.57,15.72,22.2,5.45,13.64,6.69,28.06,8.07,42.46.76,7.99,2.24,9.53,10.37,9.64,8.36.12,16.73.12,25.1-.04,2.68-.05,5.34-.81,8.54-1.33.5-3.45,1.44-6.44,1.25-9.35ZM238.06,357.43c4.56-4.63,6.24-10.82,9.29-16.25.49-.87,1.71-1.32,2.59-1.96,1.08,1,2.02,1.86,2.96,2.72,4.24-4.05,8.17-8.25,12.61-11.83,2.03-1.63,5.06-2.02,7.88-3.07.95,1.7,1.72,3.07,2.7,4.83,2.28-.56,4.65-1.09,6.99-1.73,9.46-2.56,15.66.17,19.78,8.77.59,1.24.89,2.68,1.71,3.73.8,1.04,2.09,1.7,3.05,2.45.92,5.3-1.29,8.6-5.82,10.92-9.24,4.74-18.95,7.31-29.41,7.89-.56-3.2-.99-5.73-1.48-8.51-5.72,2.62.12,6.1-1.49,8.74-6.55,1.14-25.17-.56-31.47-3.02,0-1.11-.57-3,.09-3.68Zm65.61,3.73c-6.11,5.85-13.65,7.31-21.62,7.48,7.21-2.49,14.42-4.98,21.62-7.48Zm-68.09,6.7c14.96,1.53,29.86,1.76,44.76,1.01-4.39.93-8.76,2.15-13.2,2.51-9.66.77-19.42,2.02-28.92-1.28-.98-.34-1.83-1.03-2.63-2.23Zm6.53,9.98c10.32-.7,20.53-1.01,30.63-2.2,9.85-1.16,19.6-3.23,29.93-4.99,1.1,8.5,2.2,16.96,3.42,26.35-11.21,1.3-22.19,2.67-33.19,3.8-7.36.75-14.77,1.15-22.6,1.74-2.54-7.67-5.34-16.1-8.19-24.7Zm9.41,46.5c-.49-3.27-.53-6.65-.38-9.97.26-5.54,1.97-7.53,7.29-8.41,2.92-.48,5.93-.38,9.19-.55-1.99,5.97-10.82,4.06-11.26,11.75,4.94-.5,8.18-3.22,11.81-4.93,2.33-1.1,4.65-2.27,6.48,1.29-1.28,4.03-4.92,5.45-8.45,6.96-1.78.76-3.75,1.23-5.32,2.3-.8.55-.91,2.11-1.47,3.58,6.78,1.02,11.65-4.93,17.72-3.56.98,3.15-.46,4.83-2.35,6.07-4.84,3.17-10.29,4.32-15.93,3.49-4.3-.64-6.7-3.88-7.32-8.02Zm61.42,43.64c-12.82,4.67-25.17,10.44-39.89,9.42-4.82-12.84-8-25.9-11.61-39.2,4.14-1.34,7.86-2.35,11.42-3.78,2.26-.91,4.77-2.04,6.26-3.82,1.46-1.75,3.15-5.25,2.36-6.59-3.21-5.51-1.75-12.43-6.16-17.91,10.3-1.34,20.32-2.64,30.15-3.91,3.15,7.02,8.35,52.76,7.47,65.79Zm151.64-292.7c-3.09,1.19-6.87,2.64-11.57,4.44-1.23.75-4.87,3.03-4.88,3.01-2.68,1.67-5.18,3.25-7.51,4.75.16.21-6.59,3.98-7.79,4.8.02.03-.96,1.05-.94,1.08-.24.12-.47.24-.71.36-3.92,2.68-6.77,4.76-8.3,6.01-7.85,6.81-15.84,12.07-27.2,3.91-.72-1.34-2.14-4-3.28-6.14.1-10.77,4.86-17.54,15.11-20.71h0c1.64-.83,19.99-12.59,22.73-15.56,0,0,0,0,0,0,7.69-8.33,15.18-16.44,22.79-24.69,10.41,10.93,15.52,23.17,11.53,38.73Zm-81.41,49.8c-2,1.16-4,2.33-7.66,4.47,1.81-6.31-.43-11.84,5.97-13.97,2.96,2.55,1.44,5.92,1.7,9.51Zm-8.31-7.13l-1.53-2.6s8.71-5.48,9.49-6.12,8.59-5.02,10.07-5.24l1.63,2.63s-7.07,4.26-9.33,5.63c-2.26,1.37-10.33,5.7-10.33,5.7Zm4.86-26.18c.15,1.44.44,2.27.27,2.99-.61,2.63-1.38,5.22-2.22,8.34-2.01-.53-3.76-.91-5.46-1.46-1.51-.49-2.96-1.17-5.32-2.13,4.11-3.58,8.27-5.47,12.74-7.74Zm-5.52-8.46c.27-.59.77-1.08,1.18-1.6.32.32.64.64,1.81,1.8-.67.25-1.33.63-2.02.68-.32.02-1.03-.75-.96-.88Zm.1,23.69c-1.33.89-2.42,1.62-3.65,2.45-4-1.27-7.89-2.52-11.85-3.78,3.49-5.43,5.26-5.33,15.5,1.33Zm4.23-1.38c2.96-2.08,10.74-6.22,11.96-6.67l1.93,3.78s-6.79,2.74-10.19,5.3-9.41,6.26-9.41,6.26l-2.48-3.59,8.19-5.07Zm3.05-4.85c1.04-4.21,1.88-7.62,2.81-11.41,2.07-1,4.17-2.02,7.72-3.73-2.57,6.64-.51,14.04-10.54,15.14Zm3.99,12.44c3.56,1.37,6.27,2.4,10.82,4.15-4.04,2.51-6.71,4.17-9.92,6.17-.43-1.89-.8-2.88-.86-3.89-.11-1.85-.03-3.72-.03-6.43Zm5.43-2.37q5.13-3.15,13.96.06c-6.36,5-6.63,4.99-13.96-.06Zm56.68-76.17c-17.15,25.11-41.68,38.38-66.82,51.4-.32-1.25-.68-2.02-.67-2.79.03-1.92.23-3.83.42-6.66,10.9-4.99,21.98-10.01,33.02-15.14,3.76-1.75,7.51-3.58,11.04-5.74,2.09-1.28,4-3.07,5.52-5.01,4.46-5.69,2.85-9.53-4.49-11.26,6.63-3.41,13.76-4.19,21.99-4.8Zm-67.4,38.63c3.23-6.01,21.66-19.05,37.12-26.6,3.78-1.85,7.47-5,12.56-2.98-.42,4.19-2.56,6.99-5.75,8.89-4.04,2.4-8.18,4.67-12.43,6.66-8.02,3.77-16.15,7.31-24.25,10.93-2.14.96-4.31,1.85-7.25,3.1Zm-4.37-11.48c13.03-7.91,26.07-15.84,40.73-20.49,2.61-.83,5.39-1.15,8.11-1.64-16.42,7.48-31.1,17.87-46.28,28.46-1.24-1.74-2.3-3.23-3.26-4.57.3-.8.34-1.54.7-1.75Zm-3.47,6.05c2.65,2.03,3.01,3.39,0,5.38v-5.38Zm1.36,22.18c-11.78,6.03-21.8,14.35-34.93,16.14,10.44-6.85,20.87-13.71,31.42-20.64,1.41,1.8,2.21,2.83,3.51,4.49Zm-16.53-16.05c3.26-2.53,6.82-4.67,10.76-7.33v9.89c-7.1,2.12-14.07,4.2-21.03,6.29,3.41-2.97,6.71-6.08,10.27-8.85Zm11.69,6.07c-3.72,4.62-22.95,17.96-32.61,22.88-2.07,1.05-4.42,1.55-6.64,2.31-.43-.75-.87-1.51-1.3-2.26,9.55-13.73,24.55-18.03,40.55-22.93Zm-44.05,19.81c.21,3.61-.88,7.8,5.25,9.17-6.05,3.55-11.82,4.42-18.58,5.88,3.5-6.91,8.15-11.23,13.33-15.05Zm-6.45,42.61c4,1.81,4.09,4.71,2.54,8.24-11.32-12.53-13.64-18.43-11.44-30.13,6.77-1.98,13.94-3.95,21.02-6.21,6.87-2.19,13.65-4.68,20.59-7.08,8.71,1.72,18.3,2.29,21.86,13.91v10.06c-4.02,2.17-7.89,4.27-11.98,6.48-2.16-5.48,3.47-4.77,5.28-7.52-1.77-1.47-3.6-2.98-5.5-4.55.27-2.17.53-4.26.89-7.23-2.95,1.28-5.12,2.23-7.34,3.19-1.76-1.11-3.38-2.13-5.46-3.44-.48,2.39-.9,4.45-1.36,6.71-1.72,1.04-3.56,2.16-6.03,3.65,1.83,1.57,3.19,2.75,5.04,4.34.18,1.89.4,4.28.6,6.47,3.3,1.18,5.81-5.26,9.44.54-6.5,4.33-13.16,8.34-20.78,11.93-.23-2.14-.39-3.71-.58-5.49,2.04-1.12,3.92-2.15,6.55-3.59-2.13-1.81-3.86-3.29-5.64-4.8v-6.79c-2.53,1.05-4.52,1.88-6.78,2.81-1.63-1.16-3.39-2.4-5.63-3.99-.39,2.64-.7,4.74-1.09,7.35-1.64.88-3.54,1.91-5.63,3.04.56.87.83,1.83,1.42,2.09Zm4.47,11.38q5.2-4.82,10.89-.31c-2.52,1.87-4.44,3.3-6.84,5.08-1.48-1.75-2.77-3.27-4.05-4.77Zm27.93,73.03c-7.25-20.69-14.68-40.97-19.68-61.78,3.79-5.55,9.2-8.06,14.19-10.95,15.42-8.93,31.25-17.2,46.41-26.54,20.38-12.57,40.29-25.9,60.41-38.9,2.1-1.36,4.19-2.78,6.4-3.95,5.6-2.97,10.21-2.39,14.11,2.58,4.57,5.82,7.79,12.27,4.94,20.08-.27.74-.17,1.61-.3,3.11,1.65.57,3.36,1.12,5.04,1.73,1.49.54,2.95,1.15,4.59,1.8,6.69-4.99-3.93-8.43-1.69-13.63,2.48-1.66,4.79-3.7,7.47-4.93,20-9.17,40.45-17.18,61.54-23.5,4.73-1.42,9.34-1.27,13.8,1.04,7.9,4.09,15.97,7.9,23.68,12.33,8.93,5.13,17.63,10.67,26.26,16.3,4.18,2.73,8.13,5.86,11.91,9.14,11.98,10.4,14.7,23.84,11.62,38.68-1.63,7.87-4.44,15.49-6.42,23.29-3.61,14.23-7,28.52-10.6,43.26-1.18-.42-2.94-.97-4.63-1.67-21.14-8.65-43.14-12.92-65.95-12.49-16.22.3-32.1,3.16-47.46,8.39-3.83,1.3-7.37,1.52-11.37,1.12-4.27-.43-8.68.59-14.28,1.08-19.1-7.8-40.16-9.08-61.83-6.32-22.62,2.89-43.86,10-64.51,19.3-.99.44-2.01.79-3.64,1.43Zm261.37-4.34c-.31.27-.62.74-.87.71-.37-.05-.69-.45-1.04-.71.19-.16.4-.49.56-.46.45.07.87.29,1.35.46Zm-22.93,39.25c-1.64,5.68-5.12,9.31-10.92,10.14-7.14,1.02-14.34,1.59-21.34,2.33-7.19-.77-14.13-1.26-20.97-2.32-8.97-1.4-14.5-7.29-16.52-15.69-1.61-6.68-1.77-13.74-2.32-20.65-.55-6.89,3.34-11.24,9.39-13.18,9.26-2.95,18.7-5.86,28.57-5.22,9.13.59,18.29,1.56,27.31,3.1,8.26,1.41,9.85,3.69,10.07,11.75.28,10.05-.45,20-3.27,29.74Zm-121.12-8.87c-1.09,4.57-2.98,8.95-4.27,13.48-1.14,3.99-4,6.25-7.68,6.8-14.31,2.14-28.67,3.98-42.81-1.14-1.3-.47-2.64-.87-3.89-1.46-5.23-2.47-11.32-4.11-13.27-10.48-2.66-8.66-3.63-17.55.55-25.99,3.48-7.05,10.43-10.35,17.46-11.72,17.92-3.48,35.89-2.59,53.63,1.9.5.13.92.6,2.24,1.49,1.76,9.22.16,18.21-1.96,27.11Zm-90.21-25.69c-2.21.71-2.64.9-3.08.96-.15.02-.35-.29-.52-.45.59-.08,1.18-.17,3.6-.51Zm-32.19,91.05c-1.51,1.23-3.23,2.22-4.6,3.58-7.31,7.27-15.83,6.58-25.61,4.07v-8.45c3.25,0,6.28-.33,9.21.07,6.64.89,11.9-1.59,16.62-5.91,7.19-6.56,14.45-13.03,21.61-19.62,1.42-1.31,2.49-2.99,4.01-4.86,3.35,3.65,3.16,7.11,2.79,11.43-7.76,6.36-15.89,13.03-24.03,19.69Zm120.72,178.25c-3.69,7.42-9.58,12.97-15.63,18.32-7.53,6.67-15.76,12.36-25.04,16.43-3.37,1.48-6.74,2.72-11.65.14-.51-3.05-1.69-6.32-1.49-9.51.63-9.97,1.76-19.91,2.73-29.85.14-1.38.41-2.76.78-4.09,4.3-15.67,13.81-21.72,30.02-19.01,3.55.59,7.17,1.19,10.52,2.44,10.94,4.07,14.93,14.71,9.75,25.14Zm-24.52-57.34c-8.04-.16-16.08-.03-24.6-.03.3-4.2,2.91-6.53,5.02-8.68,5.44-5.54,10.96-11.12,17.11-15.82,11.25-8.61,22.95-16.64,34.54-24.8,2.43-1.71,5.22-2.9,9.06-4.99-1.71,20.26-1.35,38.72,1.39,58.18-14.79-5.45-28.74-3.6-42.53-3.86Zm117.25,41.72c-6.22,8.92-13.94,16.86-23.35,22.51-15.2,9.14-18.18,7.75-27.5-5.28-8.91-12.46-13.62-26.62-15.89-41.73-3.45-22.95-4.7-45.98-3.18-69.15.11-1.66-.04-3.34-.18-5-.04-.52-.44-1.01-.74-1.67-3.49-3.15-7.26-1.9-10.71.05-6.3,3.56-12.58,7.2-18.54,11.29-7.34,5.04-14.27,10.69-21.51,15.89-16.45,11.8-28.27,27.55-38.08,44.92-4.65,8.23-8.49,16.91-12.96,25.25-3.02,5.63-6.23,11.19-9.87,16.43-2.02,2.9-4.86,5.39-7.74,7.49-6.71,4.88-10.72,3.99-14.98-3.23-5.34-9.06-7.4-19.26-8.52-29.46-1.24-11.32-1.83-22.77-1.82-34.17.02-39.38,6.13-77.57,22.88-113.64,3.04-6.54,5.28-13.47,7.74-20.26,2.09-5.78,1.42-11.29-1.08-16.98-5.23-11.91-9.97-24.03-14.83-35.88,6.84-6.84,13.75-5.12,21.2-2.77.75,8.41,2.97,16.35,6.92,23.83,2.88,5.45,6.78,9.72,12.71,11.37,8.28,2.31,16.62,4.91,25.1,5.84,9.65,1.06,19.54,1.15,29.21.32,13.94-1.19,22.76-9.98,25.43-23.77.79-4.09.81-8.37,1.95-12.35,1.44-5.02,3.42-9.93,5.63-14.67,1.33-2.85,3.82-4.78,7.43-4.33,3.32.41,4.57,2.73,5.49,5.54,1.48,4.49,2.97,8.97,4.64,13.39,2.85,7.53,5.67,15.09,8.85,22.49,2.21,5.16,6.31,8.4,11.94,9.52,3.27.65,6.5,1.68,9.79,1.97,16.41,1.46,32.82,2.04,48.96-2.29,14.53-3.9,23.27-14.36,24.27-29.32.32-4.69.05-9.43.05-14.34,3.15-1.15,5.7-2.08,8.53-3.1,2.11,1.25,4.21,2.49,6.63,3.92,0,4.6-.12,9.03.02,13.45.3,9.46,1.49,18.69,4.39,27.87,2.65,8.4,4.36,17.32,4.96,26.12,1.44,21.23-.7,42.23-6.14,62.88-3.74,14.2-10.22,27.07-18.32,39.15-16.13,24.06-32.23,48.15-48.79,71.91Zm86.31,27.96c-3.85-.82-6.01-3.66-8.04-6.73-6.46-9.74-9.23-20.78-11.03-32.09-1-6.3-1.21-12.73-1.99-19.07-.43-3.52-1.29-7-1.97-10.54-8.71-2.61-17.16-.32-25.93-1.74,1.25-2.14,2.26-4,3.41-5.78,5.88-9.13,11.9-18.18,17.67-27.37,9.92-15.79,15.93-33.12,18.51-51.47,1.78-12.64,2.56-25.45,3.14-38.21.29-6.32-.87-12.7-.76-19.26,10.14,14.52,19.23,29.41,22.51,47.2,3,16.23,4.75,32.39,2.4,48.93-1.09,7.68-.66,15.58-.71,23.39-.04,6.8-1.33,13.18-4.34,19.35-2.29,4.71-3.83,9.8-5.48,14.14,1.39,5.58,4.64,7.57,9.38,7.45,2.71,18.64-5.31,43.39-16.77,51.8Zm14.64-55.68c-.9-2.34-1.85-3.58-1.69-4.65.28-1.88,1-3.8,1.97-5.46,5.94-10.22,7-21.49,7.48-32.94.42-10,1.03-19.99,1.66-29.98.8-12.63-1.85-24.88-3.79-37.23-2.39-15.2-9.52-28.35-17.41-41.19-2.47-4.03-4.8-8.25-7.88-11.79-8.44-9.67-9.75-21.45-10.74-33.41-.15-1.8-.02-3.63,1.14-5.76,2.67,4.81,5.39,9.59,8,14.44,11.1,20.57,22.43,41.01,33.14,61.78,5.52,10.71,8.37,22.29,8.05,34.58-.45,16.98-.28,33.99-.88,50.96-.31,8.61,1.95,15.11,9.97,19.32,3.61,1.9,6.61,4.95,10.36,7.84-3.47,2.42-5.94,1.88-8.39-.36-2.63-2.4-5.35-4.7-8.17-7.16-1.28,1.12-2.06,1.8-3.24,2.83,3,3.16,5.77,6.09,9.82,10.36-2.96-.31-4.74.05-5.42-.66-3.28-3.4-6.65-6.58-10.86-8.39-2.76,1.79-2.17,3.46-.54,4.99,2.01,1.9,4.38,3.47,6.13,5.57.61.73-.16,2.62-.4,5.01-5.09-3.96-8.7-6.77-13.25-10.3-1.85,4.22-3.21,7.3-5.09,11.58Z" style="fill: #231f20; stroke-width: 0px;"/>
</svg>