<?xml version="1.0" encoding="UTF-8"?>
<svg id="a" data-name="Layer 1" xmlns="http://www.w3.org/2000/svg" viewBox="0 0 903.3 498.52">
  <path d="m306,287.24c-3.75-1.81-7.46-3.81-11.34-5.35-1.25-.49-3,.13-4.49.42-37.23,7.31-73.21,18.63-108.02,33.69-1.06.46-2.14.87-3.22,1.26-.25.09-.56.01-1.04.01.32-4.56,1.26-8.59,6.12-10.38,10.46-3.86,20.8-8.06,31.4-11.49,17.09-5.53,34.32-10.66,51.55-15.73,4.59-1.35,9.42-1.89,14.13-2.81.53-.1,1.04-.33,2.09-.67-7.02-3.4-13.59-6.57-20.15-9.75-47.47-22.98-94.94-45.96-142.41-68.93-8.75-4.24-17.51-8.46-26.24-12.72-1.64-.8-3.32-1.6-4.78-2.68-3.11-2.28-3.09-5.66.02-7.93,1.31-.96,2.78-1.73,4.25-2.44,50.41-24.43,100.83-48.83,151.24-73.26C311.28,66.41,377.47,34.38,443.55,2.13c5.74-2.8,10.44-2.87,16.2-.05,51.69,25.3,103.51,50.36,155.29,75.47,43.22,20.95,86.45,41.88,129.68,62.82,21.65,10.49,43.31,20.98,64.93,31.54,2.74,1.34,6.12,2.84,6.09,6.27-.03,3.4-3.36,4.93-6.12,6.27-45.73,22.16-91.47,44.29-137.21,66.42-17.23,8.34-34.47,16.68-52.47,25.4,4.11.79,7.57,1.18,10.86,2.12,16.63,4.75,33.29,9.42,49.81,14.55,11.47,3.56,22.73,7.81,34.06,11.82,1.9.67,3.66,1.72,5.51,2.51,4.5,1.92,4.72,5.98,5.53,10.53-4.44-1.85-8.32-3.46-12.21-5.07-32.43-13.47-65.87-23.62-100.32-30.47-2.74-.54-5.19-.57-7.7.94-2.54,1.52-5.31,2.65-8.78,4.35,4.91,1,9.06,1.73,13.16,2.71,20.76,4.95,41.67,9.36,62.18,15.18,13.83,3.93,27.09,9.88,40.59,14.97,1.52.57,2.98,1.36,4.39,2.18,4.66,2.71,5.5,5.4,2.62,9.98-2.55,4.07-5.54,7.88-8.35,11.79-1.82,2.55-4.26,3.24-7.12,2.08-6.95-2.83-13.85-5.77-20.8-8.61-23.66-9.67-48.19-16.6-72.97-22.64-15.32-3.74-30.74-7.1-46.13-10.54-1.18-.26-2.69-.09-3.78.44-33.73,16.25-67.47,32.49-101.08,48.97-5.27,2.59-9.67,2.83-15.08.18-33.43-16.43-67.02-32.53-100.53-48.78-1.9-.92-3.63-1.24-5.75-.77-34.01,7.5-67.98,15.14-100.89,26.73-11.6,4.09-22.88,9.1-34.3,13.69-1.25.5-2.53.91-3.79,1.38-2.8,1.06-5.17.4-6.9-1.99-2.95-4.05-5.97-8.06-8.61-12.3-2.68-4.31-2-7.27,2.68-9.42,7.5-3.46,15.3-6.25,22.93-9.43,28.88-12.04,59.4-17.95,89.83-24.23,2.25-.47,4.51-.91,6.77-1.37.04,0,.06-.14.22-.5Zm-206.14-109.14c1.2.67,1.93,1.13,2.71,1.51,46.93,22.78,93.87,45.56,140.8,68.34,68.49,33.24,136.98,66.47,205.45,99.76,2.02.98,3.58,1.06,5.64.05,60.4-29.41,120.83-58.77,181.27-88.11,50.22-24.37,100.46-48.71,150.69-73.06,5.6-2.72,11.18-5.47,17.07-8.35-.98-.57-1.62-.99-2.3-1.32-54.29-26.34-108.59-52.67-162.88-79.02-61.56-29.89-123.1-59.81-184.69-89.64-1-.48-2.64-.5-3.64-.01-40.13,19.36-80.24,38.79-120.33,58.25-67.11,32.57-134.2,65.16-201.3,97.74-9.34,4.54-18.67,9.09-28.48,13.86Z" style="stroke-width: 0px;"/>
  <path d="m233.03,451.04c-6.03-26.13-18.57-49.71-27.55-74.59.28-.13.57-.25.85-.38.66,1.22,1.43,2.38,1.95,3.66,9.01,22.18,18.06,44.34,26.9,66.59,2.45,6.17,1.11,11.54-4.57,14.94-8.89,5.31-18.19,9.99-27.58,14.38-5.37,2.52-10.58,1-14.09-3.94-4.17-5.88-7.9-12.08-11.88-18.09-23.44-35.41-42.1-73.45-60.98-111.36-6.78-13.61-13.74-27.12-20.48-40.75-1.22-2.47-2-5.22-2.58-7.93-1.36-6.4.33-10.64,5.94-13.99,8.24-4.93,17.18-8.14,26.66-9.77,4.57-.78,8.06,1,10.02,5.07,2.46,5.1,4.34,10.49,6.81,15.59,9.08,18.8,18.06,37.66,27.53,56.27,14.1,27.72,28.83,55.11,45.85,81.19,4.31,6.61,9.17,12.86,13.82,19.23,1.01,1.38,2.24,2.6,3.36,3.89Z" style="stroke-width: 0px;"/>
  <path d="m697.76,376.38c-1.07,3.01-2.04,6.05-3.22,9.01-6.87,17.23-13.86,34.42-20.65,51.69-1.71,4.35-2.81,8.95-4.19,13.43.23.13.46.27.68.4,1.37-1.58,2.81-3.12,4.11-4.76,12.12-15.3,22.06-32.02,31.65-48.95,18.85-33.24,36.46-67.14,52.64-101.77,2.89-6.18,5.19-12.62,7.97-18.85,1.66-3.74,4.1-6.86,8.75-6.9,1.63-.01,3.36-.02,4.86.5,7.16,2.49,14.45,4.74,21.32,7.89,8.71,3.99,11.12,9.72,7.75,18.63-2.88,7.62-6.58,14.96-10.25,22.25-13.86,27.48-27.25,55.21-42,82.21-12.41,22.7-26.31,44.6-39.85,66.67-5.92,9.66-11.12,11.04-21.39,6.2-7.21-3.4-14.3-7.14-21.14-11.24-7.7-4.61-9.4-9.54-6.11-17.8,8.81-22.15,17.88-44.2,26.87-66.28.38-.93.97-1.77,1.47-2.65.24.11.49.21.73.32Z" style="stroke-width: 0px;"/>
  <path d="m751.16,494.43c-2.41-.62-5-.88-7.2-1.94-7.45-3.57-14.77-7.41-22.13-11.17-.51-.26-.97-.63-1.43-.98-4.77-3.61-5.16-6.06-.98-10.33,10.49-10.69,16.96-24.05,24.51-36.65,19.22-32.05,36.82-64.99,53.17-98.59,2.86-5.87,5.11-12.03,7.7-18.04.8-1.85,1.66-3.69,2.7-5.41,3.51-5.79,8.01-8.21,14.11-5.69,8.49,3.5,16.54,8.11,24.62,12.53,2.34,1.28,3.27,4,2.28,6.61-2.04,5.38-4.08,10.8-6.68,15.92-14.91,29.33-29.52,58.83-45.17,87.76-10.89,20.13-23.25,39.47-35.03,59.12-2.31,3.85-5.38,6.87-10.48,6.87Z" style="stroke-width: 0px;"/>
  <path d="m151.61,494.26c-4.29.02-7.08-2.49-9.2-5.72-4.7-7.16-9.32-14.38-13.8-21.69-21.03-34.25-38.95-70.16-56.93-106.04-5-9.98-10.01-19.95-14.82-30.02-1.13-2.37-1.81-5.11-2.01-7.73-.11-1.49.71-3.78,1.88-4.52,8.33-5.33,16.56-11.02,26.4-13.27,5.61-1.28,9.59.55,12.37,5.59,2.27,4.11,3.88,8.57,5.95,12.79,8.91,18.13,17.27,36.56,26.99,54.25,14.96,27.24,30.78,54.02,46.47,80.85,2.4,4.1,5.93,7.56,9.11,11.16,3.89,4.39,3.94,6.8-.83,10.17-8.38,5.91-17.46,10.52-27.3,13.53-1.36.42-2.84.44-4.27.65Z" style="stroke-width: 0px;"/>
  <path d="m799.97,498.52c-3.1-.98-5.88-1.38-8.16-2.67-6.27-3.55-12.48-7.26-18.42-11.33-4.41-3.03-4.03-4.65-.96-8.94,5.16-7.19,9.98-14.63,14.75-22.09,20.81-32.56,39.54-66.28,56.29-101.09,2.08-4.33,3.95-8.76,6-13.11.78-1.65,1.69-3.25,2.69-4.77,3.06-4.63,6.71-6.34,11.59-3.93,6.77,3.35,13.16,7.5,19.52,11.62,2.54,1.65,3.23,4.5,2.09,7.48-.97,2.51-1.94,5.02-3.08,7.45-10.01,21.33-19.83,42.76-30.15,63.94-11.49,23.57-24.82,46.11-39.75,67.68-1.58,2.28-3.4,4.53-5.55,6.22-2.02,1.59-4.63,2.44-6.85,3.55Z" style="stroke-width: 0px;"/>
  <path d="m104.14,497.99c-4.12-.15-7.27-1.74-9.38-4.62-4.95-6.75-9.79-13.59-14.34-20.61-19.41-29.98-34.8-62.07-49.29-94.62-3.52-7.91-7.45-15.63-11.19-23.44-.33-.69-.68-1.38-.97-2.09-2.49-6.04-1.98-8.67,3.44-12.35,5.94-4.03,11.73-8.46,18.93-10.24,3.74-.92,6.78.23,8.88,3.23,1.92,2.74,3.57,5.72,4.96,8.76,19.85,43.64,43.62,85.09,69.84,125.18,2.21,3.38,4.59,6.66,7.07,9.85,1.67,2.14,1.76,4.11-.26,5.8-2.73,2.28-5.48,4.64-8.56,6.36-5.43,3.03-11.09,5.64-16.7,8.34-.83.4-1.87.35-2.43.45Z" style="stroke-width: 0px;"/>
  <path d="m160.7,289.71c-1.21-1.53-2.64-2.94-3.58-4.61-5.46-9.73-10.74-19.57-16.21-29.3-6.61-11.76-13.4-23.41-22.64-33.39-.77-.83-1.4-1.77-2.4-2.45-.53,5.17.61,9.86,2.46,14.39,1.05,2.58,2.36,5.05,3.47,7.61,3.01,6.98,1.59,12.08-4.9,16.09-3.5,2.16-7.34,3.78-11.08,5.54-3.05,1.43-6.16,2.72-9.26,4.03-7.13,3-12.71,1.3-16.35-5.51-1.93-3.61-2.98-7.67-4.56-11.48-.61-1.49-1.57-2.83-2.38-4.24-.45.17-.89.34-1.34.52,1.12,4.25,1.92,8.62,3.46,12.71,1.79,4.75,4.22,9.27,6.41,13.87,5.24,11.02,3.44,16.52-7.56,21.78-5.81,2.78-11.77,5.26-17.76,7.61-6.75,2.65-11.73.73-15.32-5.6-.8-1.42-1.28-3.02-2.09-4.43-1.27-2.21-2.69-4.33-4.05-6.49-.42.2-.83.4-1.25.6.75,2.28,1.4,4.6,2.28,6.83,1.68,4.29,3.77,8.44,5.18,12.81,2.34,7.26.98,10.81-5.88,14.16-5.68,2.78-11.68,4.93-17.64,7.09-3.73,1.35-6.83.33-9.07-3.04-1.68-2.53-2.94-5.4-4.02-8.25-1.55-4.13-2.76-8.4-4.13-12.6-1.16-3.53-.27-6.87,2.49-8.87,5.34-3.86,11.02-7.3,16.74-10.6,4.7-2.72,9.73-4.67,15.72-2.82-1.03-3.51-1.97-6.6-2.85-9.7-2.29-8.12.11-14.86,6.33-20.25,7.61-6.59,16.31-10.92,26.51-11.58,2.35-.15,4.75.34,7.4.55-1.42-8.06,4.07-12.33,10.04-15.93,5.84-3.51,11.94-6.63,18.13-9.5,7.77-3.61,15-2.13,20.87,4,3.7,3.87,7.35,8.03,9.97,12.66,9.61,17,18.8,34.23,28.07,51.42.95,1.76,1.38,3.8,2.06,5.7-.42.23-.84.46-1.26.69Z" style="stroke-width: 0px;"/>
  <path d="m868.18,286.45c-1.27,2.09-2.55,4.17-3.8,6.27-.34.58-.56,1.22-.84,1.84-4.24,9.49-9.78,11.51-19.22,7.21-4.46-2.03-9.1-3.68-13.55-5.75-2.68-1.25-5.3-2.78-7.67-4.54-4.17-3.1-5.61-7.41-3.73-12.28,1.93-5.01,4.36-9.83,6.59-14.73,2.56-5.62,4.73-11.34,4.96-17.58-.25-.15-.5-.29-.75-.44-.84,1.33-1.88,2.59-2.47,4.02-1.65,3.98-2.72,8.25-4.76,12.01-3.42,6.3-8.8,8.03-15.46,5.34-5.88-2.38-11.67-4.99-17.43-7.67-1.99-.92-3.85-2.2-5.59-3.56-4.28-3.36-5.52-7.47-3.68-12.57,1.04-2.89,2.77-5.54,3.7-8.45,1.6-4.97,2.81-10.06,4.19-15.09-.44-.22-.88-.44-1.31-.66-2.82,3.32-5.81,6.52-8.44,9.99-10.06,13.25-17.58,28.03-25.47,42.59-2.38,4.4-4.86,8.75-7.43,13.05-.91,1.52-2.2,2.81-3.31,4.21-.34-.13-.67-.25-1.01-.38.29-1.35.32-2.83.91-4.02,3.48-6.97,6.94-13.96,10.71-20.79,6.7-12.13,13.35-24.3,20.57-36.12,2.65-4.34,6.58-8.06,10.47-11.42,4.33-3.74,9.67-4.58,15.21-2.63,9.05,3.19,17.46,7.62,25.12,13.41,4.35,3.29,6.88,7.51,5.62,13.25,10.12-2.38,18.91.7,27.25,5.73,2.38,1.44,4.64,3.13,6.77,4.92,6.78,5.71,8.61,12.94,6.21,21.35-.79,2.76-1.71,5.49-2.7,8.62,7.57-2.21,13.56,1.5,19.49,4.72,4.61,2.51,9,5.55,13.1,8.84,3.15,2.52,3.49,6.17,2.08,10.02-1.78,4.87-3.25,9.85-5.05,14.71-.69,1.87-1.73,3.68-2.94,5.27-1.87,2.45-4.58,4.08-7.58,3.01-6.78-2.41-13.61-4.87-20.01-8.1-5.94-3-7.03-6.29-4.98-12.75,1.65-5.21,4.04-10.18,6.02-15.28.62-1.58.99-3.26,1.48-4.89-.42-.22-.84-.45-1.26-.67Z" style="stroke-width: 0px;"/>
  <path d="m238.63,382.27c7-4.29,13.45-8.26,19.91-12.22.74-.45,1.51-.86,2.26-1.28q5.41-3.04,4.01-9.21c-1.63-7.14-4.41-13.73-9.42-19.23-.84-.92-1.58-1.94-2.35-2.93-.1-.13-.08-.35-.26-1.21,29.8,5.32,58.19,14.71,86.89,23.53-3.31,8.87-6.49,17.39-9.82,26.33,6.24,1.54,12.16,3.06,18.11,4.47,20.63,4.89,41.5,8.35,62.56,10.72,24.69,2.78,49.38,3.26,74.16.8,29.66-2.95,58.89-8.03,87.67-15.76.27-.07.53-.2,1.09-.42-3.22-8.62-6.42-17.21-9.76-26.14,28.85-8.82,57.21-18.23,87.06-22.93-1.75,2.23-3.53,4.45-5.26,6.7-4.73,6.15-6.57,13.42-7.75,20.87-.12.79.98,2.11,1.84,2.65,7.36,4.58,14.8,9.03,22.2,13.54.81.49,1.54,1.11,3,2.17-6.21,4.05-11.86,8.18-17.93,11.58-8.14,4.56-16.56,8.61-24.92,12.77-1.69.84-2.12,1.7-2.21,3.67-.36,8.25-1.06,16.48-1.85,24.7-.08.83-1.46,1.92-2.44,2.22-16.38,4.93-32.65,10.31-49.23,14.47-24.3,6.11-49.09,9.58-74.05,11.84-17.3,1.56-34.61,2.78-51.98,2.01-22.24-.98-44.38-3.18-66.38-6.67-29.14-4.62-57.73-11.36-85.51-21.43-2.08-.75-3.12-1.65-3.24-4-.39-8.06-.94-16.12-1.61-24.16-.07-.9-1.11-2.08-2-2.5-12.55-5.93-24.96-12.1-36.37-20.08-1.97-1.37-3.84-2.88-6.45-4.86Zm59.5-2.53c-.42.63-.67.92-.84,1.26-8.09,15.68-12.71,31.99-9.36,49.84.39,2.07.48,3.66,2.98,4.51,23,7.79,46.43,14.02,70.37,17.98,18.79,3.11,37.71,5.54,56.64,7.74,16.67,1.93,33.42,2.8,50.22,1.56,27.88-2.05,55.58-5.4,83-10.92,20.67-4.16,41.02-9.5,61-16.27,1.91-.65,2.9-1.53,3.22-3.7,1.64-11.01,1.77-21.93-1.86-32.57-2.25-6.58-5.04-12.97-7.66-19.63-102.97,36.81-205.29,36.85-307.72.2Zm345.64-39.37c-.18-.29-.37-.59-.55-.88-24.24,7.21-48.47,14.43-72.71,21.64,1.1,1.09,2.06,1.54,3.04,1.91,10.35,3.86,20.74,7.65,31.04,11.65,1.42.55,2.95,1.88,3.59,3.25,3.99,8.47,7.74,17.06,11.7,25.91,13.5-5.88,27.3-12.47,39.9-21.88-1.01-.65-1.72-1.14-2.45-1.57-6.61-3.95-13.14-8.05-19.89-11.75-2.79-1.53-3.12-3.39-2.58-6.07,1.59-7.95,3.2-15.87,8.92-22.2Zm-310.77,21.44c-5.33-2.91-69.56-21.73-73.49-21.46,6.22,6.79,7.67,15.26,9.26,23.69.33,1.76.06,2.9-1.62,3.78-1.96,1.03-3.76,2.33-5.67,3.46-5.86,3.49-11.73,6.95-17.93,10.61,12.7,9.47,26.51,16.08,40.25,22.05,2.82-6.83,5.74-13.31,8.17-19.96,2.28-6.24,6.25-9.8,12.75-11.76,9.54-2.88,18.76-6.84,28.27-10.4Zm268.98,15.55c-.03-.24-.07-.49-.1-.73-10.94-3.97-21.87-7.94-33.44-12.15,2.87,7.3,5.47,13.92,8.17,20.77,8.64-2.69,17.01-5.29,25.37-7.89Zm-300.51-.71c.02.25.03.5.05.74,8.36,2.59,16.72,5.19,25.28,7.85,2.7-6.91,5.27-13.47,8.11-20.74-11.58,4.21-22.51,8.18-33.45,12.15Z" style="stroke-width: 0px;"/>
  <path d="m775.61,241.88c0,1.08.29,2.27-.05,3.23-3.19,9.05-6.05,18.25-9.82,27.05-14.7,34.24-32.12,67.15-49.85,99.88-8.43,15.56-17.35,30.85-26.19,46.19-1.77,3.07-4.1,5.82-6.31,8.6-.69.87-1.84,1.38-2.77,2.06l-.82-.58c.52-1.78.88-3.62,1.58-5.33,6.31-15.49,12.68-30.95,19.05-46.41.22-.53.48-1.09.88-1.48,9.84-9.65,15.54-21.95,21.4-34.04,7.92-16.35,14.86-33.19,23.08-49.39,7.74-15.26,16.57-29.96,24.99-44.87,1.06-1.88,2.53-3.52,3.82-5.27.34.12.69.24,1.03.36Z" style="stroke-width: 0px;"/>
  <path d="m128.69,241.43c1.48,2.04,3.16,3.96,4.41,6.12,13.74,23.83,27.36,47.72,38.1,73.13,6.59,15.59,13.82,30.91,23.18,45.09,2,3.03,4.58,5.67,6.89,8.5.54.66,1.26,1.26,1.57,2.02,6.52,15.81,13,31.64,19.44,47.48.59,1.44.76,3.05,1.12,4.58-.25.17-.5.33-.75.5-.92-.71-2.07-1.25-2.71-2.16-3.82-5.42-7.92-10.69-11.2-16.43-24.86-43.53-48.52-87.69-69.07-133.45-4.36-9.71-7.75-19.85-11.46-29.84-.57-1.55-.47-3.34-.69-5.03.39-.18.77-.36,1.16-.54Z" style="stroke-width: 0px;"/>
  <path d="m57.91,438.93c-1.4,1.24-2.47,2.5-3.82,3.32-2.31,1.39-4.9,2.22-7.21.11-1.69-1.54-3.44-3.24-4.48-5.22-7.04-13.32-13.9-26.74-20.81-40.14-.31-.59-.52-1.24-.72-1.88-1.47-4.57,1.08-8.76,5.93-9.23,1.09-.11,2.83.97,3.39,1.99,2.13,3.86,4.13,7.82,5.75,11.91,4.72,11.96,10.8,23.14,18.55,33.41,1.19,1.58,2.05,3.41,3.41,5.73Z" style="stroke-width: 0px;"/>
  <path d="m853.01,444.07c-2.08-1.15-4.19-2.08-5.97-3.43-.64-.49-.8-2.08-.6-3.06.23-1.17.93-2.33,1.69-3.3,9.51-12.17,16.08-25.91,21.7-40.19.87-2.22,2.14-4.3,3.36-6.36,1.23-2.08,2.93-2.5,5.14-1.27,5.32,2.98,6.29,4.37,3.59,9.87-6.84,13.95-14.15,27.68-21.37,41.44-.83,1.58-2.17,2.97-3.52,4.16-1.02.9-2.45,1.34-4.01,2.14Z" style="stroke-width: 0px;"/>
  <path d="m23.5,426.19c-4.36.71-7.49-1.28-9.47-5.19-1.42-2.81-2.99-5.61-3.87-8.6-1.56-5.33,1.4-11.05,6.37-13.43,1.53-.73,2.6-.49,3.28,1.03.67,1.48,1.33,2.98,1.82,4.53,1.7,5.36,4.24,10.23,7.75,14.67,1.09,1.38,1.42,3.35,2.1,5.05-1.74.65-3.46,1.38-5.25,1.91-.8.23-1.72.04-2.74.04Z" style="stroke-width: 0px;"/>
  <path d="m879.69,426.46c-1.99-.31-4.02-.47-5.96-.96-1.97-.5-2.63-1.83-1.58-3.73.23-.42.43-.88.75-1.23,4.83-5.45,7.59-11.97,9.9-18.75,1.34-3.93,2.48-4.16,5.78-1.58,4.69,3.66,6.3,8.2,4.18,13.78-1.28,3.37-3.23,6.54-5.23,9.57-1.79,2.71-4.83,2.87-7.84,2.91Z" style="stroke-width: 0px;"/>
  <path d="m22.86,372.38c.03,2.73-3.05,5.94-5.54,5.34-1.28-.31-2.87-1.49-3.29-2.65-.42-1.13.23-2.87.87-4.1.42-.82,1.62-1.28,2.53-1.79,4.98-2.8,4.63-1.19,5.43,3.19Z" style="stroke-width: 0px;"/>
  <path d="m885.64,378.69c-1.85-1.64-3.97-2.66-4.54-4.25-.63-1.77.09-4.06.38-6.1.03-.23,1.3-.61,1.71-.39,1.93,1,4.03,1.93,5.52,3.42.78.79.92,2.88.47,4.04-.46,1.18-2.01,1.93-3.54,3.28Z" style="stroke-width: 0px;"/>
  <path d="m117.33,178.19c1.84-1.18,2.87-2.03,4.05-2.58,54.78-25.74,109.57-51.44,164.35-77.18,48.16-22.62,96.3-45.28,144.45-67.92,6.53-3.07,13.04-6.19,19.63-9.12,1.05-.47,2.67-.51,3.69-.03,49.93,23.38,99.83,46.85,149.74,70.29,43.98,20.66,87.96,41.3,131.95,61.95,15.5,7.28,31.02,14.54,46.49,21.88,1.3.62,2.32,1.81,3.47,2.73-1.18.91-2.24,2.06-3.55,2.68-58.24,27.41-116.51,54.76-174.77,82.13-51.12,24.01-102.24,48.03-153.4,71.96-1.05.49-2.79.29-3.91-.23-39.31-18.38-78.59-36.84-117.87-55.28-45.64-21.42-91.28-42.84-136.92-64.26-24.39-11.45-48.77-22.91-73.14-34.4-1.26-.59-2.39-1.46-4.24-2.62Zm161.98-73.13c.07.14.14.29.2.43.54-.15,1.08-.3,1.62-.46,4.84-1.37,5.89-.62,6.06,4.35.02.48,0,.96-.03,1.45-.34,6.06-.84,12.12-1,18.19-.77,27.85-2.2,55.7.76,83.51.8,7.48,2.24,14.86,5.77,21.63,2.34,4.5,5.51,8.3,10.84,9.16,10.11,1.63,18.6-2.32,21.38-12.49,1.71-6.25,2.84-12.87,2.87-19.33.13-31.05-.18-62.1-.38-93.15-.02-3.81-.58-7.45-4.02-10.01-.79-.59-1.03-1.91-1.52-2.9,1.08-.52,2.12-1.39,3.25-1.51,5.17-.53,10.37-.86,15.56-1.23.72-.05,1.45.14,2.38.24,0,1.56.03,2.9,0,4.23-.58,24.39-1.4,48.77-1.68,73.17-.21,18.21.33,36.43.42,54.65.03,5.16,1.37,9.37,6.28,11.93.82.43,1.16,1.77,1.73,2.69-.98.26-1.96.73-2.95.76-5.72.17-11.51-1.03-17.08,1.52-1.93.88-3.32-.41-3.4-2.63-.05-1.36,0-2.73,0-4.09-.24-.11-.49-.22-.73-.33-8.19,7.68-16.95,14.18-29.63,14.13,1.3.68,1.71.91,2.13,1.11,50.07,23.55,100.15,47.07,150.18,70.69,2.54,1.2,4.5,1.11,6.98-.06,53.09-25.04,106.22-50,159.34-74.97,4.33-2.03,8.64-4.1,12.95-6.15-.04-.26-.08-.52-.12-.78-2.92,0-5.84-.11-8.75.03-2.69.13-5.35.7-8.04.8-4.51.16-5.72-1.08-5.77-5.5-.29-22.56-.62-45.13-.85-67.69-.1-9.97-.02-19.95-.02-29.92-.35-.02-.71-.05-1.06-.07-.22.59-.48,1.16-.64,1.77-6.96,25.41-13.81,50.84-20.93,76.2-1.71,6.09-4.26,11.94-6.6,17.84-.39.98-1.72,2.28-2.53,2.23-.91-.06-2.03-1.36-2.5-2.38-1.1-2.34-1.98-4.8-2.74-7.28-7.75-25.18-15.43-50.37-23.18-75.55-1.47-4.78-3.12-9.51-4.68-14.27-.57.9-.54,1.67-.57,2.44-.5,12.43-1.19,24.85-1.45,37.28-.29,13.49-.39,26.98-.15,40.47.13,7.26,2.41,13.84,9.11,18.03.76.48,1.79,2.02,1.61,2.25-.75.99-1.96,2.41-2.9,2.34-6.46-.48-12.82-.37-19.13,1.38-1.72.48-2.67-.77-2.41-2.62.11-.76.27-1.52.45-2.27,3.52-15.05,5.16-30.38,6.12-45.75,1.15-18.47,2.04-36.97,2.56-55.47.22-7.95-.56-15.96-1.33-23.9-.43-4.47-2.33-8.52-6.13-11.4-.64-.49-1.43-1.64-1.25-2.17.3-.85,1.26-1.85,2.11-2.04,1.56-.36,3.24-.18,4.87-.21,3.45-.07,6.93.13,10.34-.25,5.56-.63,6.09-.41,7.44,4.87,7.54,29.53,14.47,59.23,24.37,88.1,1.89,5.5,3.81,10.99,5.72,16.49,1.46-3.74,2.46-7.35,3.28-11,7-31.05,13.98-62.09,20.91-93.15,1-4.47,1.34-4.94,6.02-5.08,2.7-.08,5.4.02,8.1,0,.78,0,1.56-.13,2.99-.25-1.5-.74-2.34-1.18-3.2-1.58-54.33-25.55-108.67-51.11-163.04-76.58-1.13-.53-2.99-.37-4.18.19-47.93,22.45-95.83,44.98-143.73,67.5-8.78,4.13-17.57,8.26-26.35,12.39Zm500.28,73.11c-53.03-24.93-105.4-49.55-158.19-74.37,0,1.46,0,2.39,0,3.32-.05,10.7-.2,21.4-.13,32.1.19,28.92.42,57.83.81,86.75.06,4.49.97,8.98,1.69,13.43.16.97,1.09,2.41,1.88,2.58,3.43.73,5.05,2.56,4.24,6.56,50.05-23.53,99.56-46.81,149.7-70.38ZM266.77,110.95c-47.5,22.33-95,44.67-142.97,67.22,51.69,24.3,102.84,48.35,153.43,72.13-1.58-6.3-3.74-12.66-4.7-19.2-2.69-18.39-1.85-36.92-1.56-55.42.25-15.61.37-31.23.16-46.84-.08-6.12-.94-12.29-4.36-17.89Z" style="stroke-width: 0px;"/>
  <path d="m411.53,421.53c4.06.34,8.57.63,13.05,1.17.8.1,1.66,1.15,2.16,1.96,3.2,5.14,6.32,10.33,10.1,15.46.24-5.27.49-10.55.74-15.93-.96-.28-1.72-.51-2.49-.73.03-.19.06-.37.09-.56,1.9.16,3.81.32,5.71.48,0,.11,0,.21.01.32-.72.13-1.44.26-2.28.42-.39,7.72-.78,15.4-1.17,23.08-.22.1-.45.21-.67.31-4.23-6.91-8.46-13.83-13.09-21.39-.32,6.96-.6,13.15-.89,19.5.87.44,1.67.84,2.45,1.24h-5.75c-.04-.16-.08-.31-.11-.47.71-.21,1.41-.43,2.39-.72.32-6.33.75-12.76.93-19.2.08-2.7-3.33-4.72-5.79-3.62-.46.21-.87.99-.92,1.55-.6,6.42-1.2,12.84-1.59,19.28-.06.91,1.02,1.9,1.52,2.76-5.68-.5-11.78-1.04-17.88-1.58,0-.17-.01-.34-.02-.51,1.01-.1,2.01-.21,3-.31.12-5.04-.7-6.96-3.06-7.3-5.72-.83-6.52-.27-8.11,5.89.79.34,1.61.69,2.43,1.04-.04.15-.07.31-.11.46-2.15-.34-4.3-.68-5.75-.91.96-1.05,2.29-2.03,2.97-3.34,3.34-6.46,6.51-13.02,10.06-20.19,1.94,8,3.77,15.3,5.43,22.64.46,2.05,1.42,2.97,3.5,3,1.66.02,2.36-.5,2.48-2.29.42-6.05,1.09-12.08,1.52-18.13.07-1.05-.53-2.14-.86-3.36Zm-13.73,5.09c-.21-.02-.43-.04-.64-.06-1.37,2.86-2.74,5.72-4.21,8.79,2.55.28,4.6.51,6.98.77-.77-3.45-1.45-6.48-2.13-9.51Z" style="stroke-width: 0px;"/>
  <path d="m561.14,409.93c3.7-1.19,7.39-2.38,11.09-3.58.06.17.13.35.19.52-.96.45-1.91.9-3.3,1.55,3.51,4.87,6.94,9.63,10.51,14.58,1.53-5.22,1.1-17.36-.55-18.4,6.7-2.53,13.38-5.04,20.38-7.68.88,1.76,1.75,3.48,2.61,5.21-4.04-5.99-8.29-1.64-12.87-.49,1.27,3.32,2.46,6.4,3.63,9.46,5.34-1.43,5.59-1.76,5.47-6.61,1.18,3.04,2.36,6.08,3.63,9.35-1.41-1.24-2.44-2.83-3.74-3.1-1.41-.29-3.07.65-5.02,1.16,1.48,3.85,2.83,7.38,4.31,11.23,2.8-1.19,5.68-1.85,7.76-3.51,1.36-1.09,1.57-3.62,2.21-5.28.45,1.25,1.11,3.06,1.84,5.09-5.64,2.15-11.15,4.25-16.35,6.23.2-1.06.83-2.24.52-3.08-2.28-6.22-4.75-12.38-7.17-18.55-.13-.33-.43-.6-.6-.84-3.27.1-4.13,2.1-4.13,4.8,0,7.11,0,14.21,0,21.32-.37.08-.73.16-1.1.24-.58-.66-1.22-1.29-1.74-2-3.41-4.67-6.89-9.29-10.14-14.06-1.84-2.71-3.67-4.89-7.34-3.42l-.12-.13Z" style="stroke-width: 0px;"/>
  <path d="m375.01,442.15c-1.08-6.21-2.04-11.78-3.01-17.34-.33-1.89-.9-3.78-.97-5.68-.1-2.74-2.11-2.94-3.95-3.17-.49-.06-1.46,1.02-1.64,1.73-.99,3.81-1.81,7.66-2.69,11.5-.17.75-.35,1.5-.58,2.23-2.1,6.79-8.91,8.67-14.3,3.95-2.67-2.35-2.22-5.38-1.67-8.32.79-4.15,1.85-8.25,2.62-12.41.2-1.07-.27-2.26-.44-3.47,1.73.37,4.19.9,6.33,1.35-.71.66-1.83,1.18-2.02,1.94-1.25,5.13-2.49,10.28-3.34,15.49-.68,4.18.73,6,4.36,6.8,3.36.73,5.96-.64,7.01-4.33,1.43-4.98,2.55-10.06,3.54-15.15.17-.87-.96-2-1.44-2.9,2.22.43,4.82.95,7.43,1.43,2.53.46,5.07.88,7.6,1.67-1.07.06-2.15.12-3.6.2.97,5.87,1.92,11.61,3.02,18.29,3.19-5.88,5.98-11.02,8.86-16.32-1.04-.51-1.78-.86-2.52-1.22l.06-.31c2.05.35,4.1.71,5.54.96-1.12,1.11-2.6,2.07-3.38,3.43-3.58,6.24-6.97,12.59-10.84,19.65Z" style="stroke-width: 0px;"/>
  <path d="m453.82,423.37h6.13c-.39.96-1.17,2.02-1.18,3.08-.05,5.98.15,11.96.12,17.94,0,2.04.7,2.83,2.71,2.53,1.05-.16,2.11-.15,3.17-.26,4.54-.48,4.95-.85,6.37-5.19.11,1.59.22,3.18.34,4.87,2.14.69,2.59-.75,3.03-2.3,1.9-6.75,3.82-13.49,5.74-20.23.13-.45.31-.89.67-1.9,1.78,3.97,3.36,7.47,4.92,10.98,1.52,3.43,2.92,6.92,4.57,10.28.54,1.1,1.71,1.88,2.66,2.88-2.74.18-5.97.4-9.2.62-.03-.15-.06-.3-.1-.45,1.02-.26,2.04-.52,3.06-.78-1.2-6.31-2.06-7-7.9-6.4-2.16.22-3.29,2.61-3.28,7.15.74.17,1.52.35,2.3.53-.02.2-.03.4-.05.6h-23.52c.25-.64,1.01-1.66,1.01-2.69.04-5.98-.04-11.96-.24-17.93-.04-1.09-.85-2.16-1.34-3.31Zm26.65,5.53c-.21.02-.42.05-.63.07-.84,3.02-1.69,6.04-2.65,9.48,2.47-.22,4.63-.42,7.05-.64-1.34-3.16-2.56-6.04-3.78-8.91Z" style="stroke-width: 0px;"/>
  <path d="m328.08,431.01c-6.12-2.21-8.85-9.12-6.34-16.06,2.36-6.53,8.65-9.83,14.66-7.6,4.22,1.56,6.45,4.87,6.94,9.15.58,5.06-.92,9.58-5.03,12.83-3.06,2.42-6.48,3.71-10.33,1.57,2.66.05,5.43.56,7.36-2.09,3.67-5.04,5.46-10.58,4.17-16.79-.89-4.29-6.19-5.96-9.61-3.2-6.35,5.14-7.28,16.45-1.82,22.19Z" style="stroke-width: 0px;"/>
  <path d="m544.92,432.74c.27,1.87.54,3.73.84,5.77-5.99,1.09-11.72,2.13-16.93,3.08.21-1.22.81-2.65.61-3.95-.87-5.69-1.92-11.36-3.05-17.01-.22-1.1-1.12-2.07-1.77-3.2,4.69-.88,10.03-1.88,15.71-2.94.55,1.99,1.06,3.84,1.75,6.3-4.06-5-6.12-5.46-12.66-3.12.59,3.13,1.18,6.3,1.77,9.43,4.72.16,5.49-.45,6.57-5.43.67,3.45,1.27,6.6,1.96,10.17-1.17-1.57-1.86-3.36-3.1-3.92-1.28-.59-3.1,0-5.19.1.71,4.05,1.36,7.76,1.99,11.42,7.89.21,10.42-1.36,11.5-6.72Z" style="stroke-width: 0px;"/>
  <path d="m500.8,421.35c4.55-1.89,5.7-1.63,8.53,1.57,3.73,4.22,7.48,8.42,11.72,12.37-.71-5.27-1.42-10.55-2.14-15.89-1.02-.1-1.86-.18-2.7-.27-.02-.14-.03-.29-.05-.43,1.84-.26,3.68-.52,5.52-.77-2.26.8-1.7,2.57-1.5,4.08.83,6.28,1.73,12.55,2.6,18.83.06.47.11.93-.38,1.8-5.41-6.08-10.83-12.15-16.75-18.8.5,3.99.89,7.31,1.33,10.63.28,2.09.8,4.17.89,6.27.09,2.08.64,3.36,3,3.24-2.03.29-4.07.58-6.1.87,2.21-.61,2.5-1.89,2.15-4-.88-5.3-1.49-10.65-2.19-15.98-.3-2.28-1.11-3.94-3.93-3.54Z" style="stroke-width: 0px;"/>
  <path d="m561.25,410.06c.83,4.23,1.67,8.45,2.5,12.68.33,1.7.81,3.39.91,5.1.26,4.74-1.94,7.35-6.64,8.19-5.07.9-8.03-.66-9.39-5.34-1.31-4.52-2.23-9.16-3.49-13.69-.3-1.08-1.28-1.97-1.94-2.95,1.78-.45,4.27-1.07,6.21-1.56-.2,1.32-.79,2.77-.53,4.05.9,4.52,1.95,9.02,3.2,13.46,1.09,3.89,2.87,5.17,6.06,4.93,3.72-.28,6.02-2.65,5.45-6.64-.75-5.22-2.09-10.35-3.35-15.48-.21-.86-1.35-1.5-2.18-2.36.71-.12,1.9-.31,3.09-.51,0,0,.12.13.12.13Z" style="stroke-width: 0px;"/>
  <path d="m318.57,420.8c-.99,2.61-1.69,4.44-2.51,6.58-5.62-2.21-11.08-4.35-15.94-6.26.86-.93,2.01-1.68,2.44-2.73,2.23-5.41,4.34-10.87,6.31-16.38.38-1.07-.07-2.45-.14-3.71,1.8.68,4.3,1.62,6.03,2.27-.85.93-2.11,1.74-2.57,2.88-2.46,6.04-4.71,12.15-7.03,18.21,5.1,3.89,9.18,3.8,13.41-.86Z" style="stroke-width: 0px;"/>
  <path d="m492.53,437.29c3-.33,5.73-.66,8.47-.9.36-.03.97.27,1.07.56.11.3-.22,1.11-.41,1.12-2.91.23-5.82.38-8.74.5-.07,0-.16-.49-.39-1.27Z" style="stroke-width: 0px;"/>
  <path d="m441.35,439.12h9.9c-.84,2.07-7.82,2.27-9.9,0Z" style="stroke-width: 0px;"/>
  <path d="m504.03,200.71c-.11,15.27-2.04,26.87-8.9,37.08-6.54,9.73-15.92,13.59-27.45,12.09-4.37-.57-8.78-1.26-12.98-2.54-4.91-1.49-6.19-4.18-5.77-9.25.49-5.95.79-11.91,1.17-17.86.01-.19-.05-.41.02-.57.72-1.53,1.28-4.21,2.22-4.35,2.54-.38,2.29,2.15,2.53,3.91,1.4,10.54,7.81,18.54,16.63,20.76,8.42,2.11,14.38-.85,16.81-9.22,5.35-18.45,1.85-32.83-12.98-44.77-3.37-2.71-7.02-5.08-10.54-7.61-8.99-6.44-14.6-14.81-15.54-26.13-1.07-12.92.29-25.19,8.24-36.01,3.5-4.76,7.94-8.32,13.27-10.86,3.86-1.84,7.87-2.31,12.09-1.96,5.37.45,10.75.73,16.14,1,3.11.15,3.29.54,2.85,3.69-1.11,8.09-2.06,16.2-2.99,24.31-.15,1.34-.22,2.83-1.88,2.52-.86-.16-1.81-1.43-2.15-2.4-1.44-4.04-2.24-8.36-4.06-12.2-2.96-6.25-9.22-9.23-16.07-8.27-4.74.67-7.48,3.79-8.88,8.08-2.17,6.62-2.24,13.47-1.57,20.31.47,4.88,3.44,8.52,6.88,11.7,5.45,5.03,10.82,10.19,16.61,14.82,11.93,9.55,17.49,21.71,16.33,33.73Z" style="stroke-width: 0px;"/>
  <path d="m370.17,106.78c19.16-1.04,37.71-2.05,56.82-3.09-.22,2.24-.19,4.15-.62,5.94-1.05,4.38-2.25,8.73-3.54,13.05-.23.77-1.18,1.31-1.8,1.96-.55-.73-1.12-1.44-1.64-2.19-.15-.22-.19-.55-.23-.83-.68-4.66-3.37-7.01-8.04-7.62-3.71-.48-7.32-1.61-11.02-2.2-3.48-.56-4.92.57-5.15,4.08-.28,4.23-.26,8.48-.34,12.72-.23,11.96-.35,23.92-.71,35.87-.09,2.99,1.22,4.25,3.82,4.05,7.23-.57,14.69.09,21.34-4,1.33-.82,3.47-.74,5.09-.38.45.1.65,2.74.44,4.13-.67,4.37-1.54,8.71-2.43,13.04-.3,1.44-.38,3.15-2.63,3.14-2.05,0-2.69-1.32-2.92-2.92-.39-2.7-1.97-4.23-4.54-4.44-5.17-.42-10.35-.66-15.53-.87-2.01-.08-2.82.98-2.8,3.09.14,18.13.19,36.26.28,54.4.02,3.67,1.24,5.54,4.83,5.46,7.38-.16,14.8-.55,22.1-1.61,3.04-.44,5.87-2.68,8.64-4.36,1.55-.93,3.18-1.75,4.37-.28.75.93.9,2.9.47,4.11-1.99,5.6-4.31,11.08-6.43,16.64-.37.96-.15,2.17-.59,3.09-.4.85-1.44,2.14-1.96,2.03-.95-.19-1.77-1.22-2.56-1.99-.21-.21-.09-.74-.14-1.12-.83-5.88-2.35-7.56-8.4-7.59-7.41-.03-14.83.5-22.24.75-3.85.13-7.71.24-11.56.2-2.44-.02-3.74-.91-3.47-3.9,3.21-35.21,2.38-70.52,2.25-105.81-.03-7.78-.93-15.57-1.48-23.35-.2-2.77-1.38-4.39-4.6-4.15-3.75.27-2.31-2.8-3.07-5.05Z" style="stroke-width: 0px;"/>
</svg>